%TF.GenerationSoftware,KiCad,Pcbnew,8.0.7*%
%TF.CreationDate,2025-03-27T17:59:10+01:00*%
%TF.ProjectId,StrainGauge,53747261-696e-4476-9175-67652e6b6963,rev?*%
%TF.SameCoordinates,Original*%
%TF.FileFunction,Soldermask,Bot*%
%TF.FilePolarity,Negative*%
%FSLAX46Y46*%
G04 Gerber Fmt 4.6, Leading zero omitted, Abs format (unit mm)*
G04 Created by KiCad (PCBNEW 8.0.7) date 2025-03-27 17:59:10*
%MOMM*%
%LPD*%
G01*
G04 APERTURE LIST*
%ADD10C,0.700000*%
%ADD11C,4.400000*%
%ADD12C,2.133600*%
%ADD13O,1.700000X1.700000*%
%ADD14R,1.700000X1.700000*%
G04 APERTURE END LIST*
D10*
%TO.C,H3*%
X156650001Y-129000001D03*
X156166727Y-130166727D03*
X156166727Y-127833275D03*
X155000001Y-130650001D03*
D11*
X155000001Y-129000001D03*
D10*
X155000001Y-127350001D03*
X153833275Y-130166727D03*
X153833275Y-127833275D03*
X153350001Y-129000001D03*
%TD*%
%TO.C,H1*%
X130349999Y-94999999D03*
X130833273Y-93833273D03*
X130833273Y-96166725D03*
X131999999Y-93349999D03*
D11*
X131999999Y-94999999D03*
D10*
X131999999Y-96649999D03*
X133166725Y-93833273D03*
X133166725Y-96166725D03*
X133649999Y-94999999D03*
%TD*%
D12*
%TO.C,RV1*%
X136000000Y-118290000D03*
X136000000Y-115750000D03*
X136000000Y-113210001D03*
%TD*%
D10*
%TO.C,H4*%
X130349999Y-129000001D03*
X130833273Y-127833275D03*
X130833273Y-130166727D03*
X131999999Y-127350001D03*
D11*
X131999999Y-129000001D03*
D10*
X131999999Y-130650001D03*
X133166725Y-127833275D03*
X133166725Y-130166727D03*
X133649999Y-129000001D03*
%TD*%
%TO.C,H2*%
X153350000Y-95000000D03*
X153833274Y-93833274D03*
X153833274Y-96166726D03*
X155000000Y-93350000D03*
D11*
X155000000Y-95000000D03*
D10*
X155000000Y-96650000D03*
X156166726Y-93833274D03*
X156166726Y-96166726D03*
X156650000Y-95000000D03*
%TD*%
D13*
%TO.C,J1*%
X145320000Y-94500000D03*
X142779999Y-94500000D03*
X140240000Y-94500000D03*
D14*
X137700000Y-94500000D03*
%TD*%
M02*
