M48
; DRILL file {KiCad 8.0.7} date 2025-03-27T17:59:20+0100
; FORMAT={-:-/ absolute / metric / decimal}
; #@! TF.CreationDate,2025-03-27T17:59:20+01:00
; #@! TF.GenerationSoftware,Kicad,Pcbnew,8.0.7
; #@! TF.FileFunction,Plated,1,2,PTH
FMAT,2
METRIC
; #@! TA.AperFunction,Plated,PTH,ComponentDrill
T1C0.400
; #@! TA.AperFunction,Plated,PTH,ViaDrill
T2C0.500
; #@! TA.AperFunction,Plated,PTH,ComponentDrill
T3C1.000
; #@! TA.AperFunction,Plated,PTH,ComponentDrill
T4C1.626
; #@! TA.AperFunction,Plated,PTH,ComponentDrill
T5C2.200
%
G90
G05
T1
X130.35Y-95.0
X130.35Y-129.0
X130.833Y-93.833
X130.833Y-96.167
X130.833Y-127.833
X130.833Y-130.167
X132.0Y-93.35
X132.0Y-96.65
X132.0Y-127.35
X132.0Y-130.65
X133.167Y-93.833
X133.167Y-96.167
X133.167Y-127.833
X133.167Y-130.167
X133.65Y-95.0
X133.65Y-129.0
X153.35Y-95.0
X153.35Y-129.0
X153.833Y-93.833
X153.833Y-96.167
X153.833Y-127.833
X153.833Y-130.167
X155.0Y-93.35
X155.0Y-96.65
X155.0Y-127.35
X155.0Y-130.65
X156.167Y-93.833
X156.167Y-96.167
X156.167Y-127.833
X156.167Y-130.167
X156.65Y-95.0
X156.65Y-129.0
T2
X130.6Y-122.4
X130.6Y-125.2
X131.0Y-105.4
X131.0Y-109.8
X131.2Y-112.6
X131.4Y-121.0
X131.4Y-123.8
X131.8Y-108.4
X132.0Y-111.2
X132.0Y-114.0
X132.2Y-122.4
X132.2Y-125.2
X132.8Y-104.8
X133.0Y-121.0
X133.0Y-123.8
X133.8Y-122.4
X133.8Y-125.2
X134.6Y-121.0
X134.6Y-123.8
X134.8Y-126.6
X135.2Y-96.0
X135.6Y-125.2
X135.6Y-128.0
X135.6Y-130.0
X136.4Y-123.8
X136.4Y-126.6
X136.6Y-105.4
X137.2Y-125.2
X137.4Y-122.4
X138.2Y-123.8
X138.8Y-108.2
X138.8Y-113.8
X139.0Y-122.4
X139.0Y-125.2
X139.6Y-123.8
X140.4Y-110.2
X140.6Y-129.4
X141.0Y-108.0
X141.0Y-114.0
X141.0Y-116.8
X141.2Y-96.8
X141.2Y-128.0
X141.4Y-101.4
X141.6Y-103.2
X142.0Y-126.6
X142.0Y-129.4
X142.8Y-128.0
X143.0Y-96.8
X143.6Y-116.0
X143.6Y-126.6
X143.6Y-129.4
X144.2Y-110.0
X144.4Y-128.0
X145.2Y-126.6
X145.2Y-129.4
X145.6Y-112.6
X145.6Y-121.0
X145.8Y-128.0
X146.0Y-118.2
X146.452Y-110.6
X146.8Y-116.8
X147.0Y-119.6
X147.2Y-105.6
X147.2Y-112.4
X147.6Y-96.8
X147.6Y-107.6
X147.6Y-118.2
X147.8Y-110.0
X147.8Y-121.0
X147.8Y-123.4
X148.8Y-122.2
X148.8Y-124.8
X149.6Y-115.0
X149.8Y-97.2
X149.8Y-108.6
X149.8Y-123.4
X151.2Y-126.6
X151.2Y-128.0
X151.2Y-129.4
X151.6Y-99.0
X152.2Y-110.25
X152.4Y-97.6
X152.4Y-100.4
X152.6Y-123.2
X153.2Y-99.0
X153.2Y-101.8
X153.2Y-112.4
X154.2Y-123.2
X155.2Y-121.8
X156.0Y-123.2
X156.4Y-99.0
X156.4Y-101.8
X156.4Y-103.6
X156.6Y-112.6
X156.6Y-114.4
X156.6Y-116.2
X156.6Y-118.0
X156.6Y-120.0
T3
X137.7Y-94.5
X140.24Y-94.5
X142.78Y-94.5
X145.32Y-94.5
T4
X136.0Y-113.21
X136.0Y-115.75
X136.0Y-118.29
T5
X132.0Y-95.0
X132.0Y-129.0
X155.0Y-95.0
X155.0Y-129.0
M30
