M48
; DRILL file {KiCad 8.0.7} date 2025-03-30T15:33:29+0200
; FORMAT={-:-/ absolute / metric / decimal}
; #@! TF.CreationDate,2025-03-30T15:33:29+02:00
; #@! TF.GenerationSoftware,Kicad,Pcbnew,8.0.7
; #@! TF.FileFunction,Plated,1,2,PTH
FMAT,2
METRIC
; #@! TA.AperFunction,Plated,PTH,ViaDrill
T1C0.400
; #@! TA.AperFunction,Plated,PTH,ComponentDrill
T2C0.400
; #@! TA.AperFunction,Plated,PTH,ViaDrill
T3C0.500
; #@! TA.AperFunction,Plated,PTH,ComponentDrill
T4C1.000
; #@! TA.AperFunction,Plated,PTH,ComponentDrill
T5C1.626
; #@! TA.AperFunction,Plated,PTH,ComponentDrill
T6C2.200
%
G90
G05
T1
X135.0Y-111.25
X138.5Y-118.5
X140.25Y-111.75
X144.75Y-97.25
X145.0Y-107.0
X147.0Y-121.0
T2
X129.35Y-95.0
X129.35Y-129.0
X129.833Y-93.833
X129.833Y-96.167
X129.833Y-127.833
X129.833Y-130.167
X131.0Y-93.35
X131.0Y-96.65
X131.0Y-127.35
X131.0Y-130.65
X132.167Y-93.833
X132.167Y-96.167
X132.167Y-127.833
X132.167Y-130.167
X132.65Y-95.0
X132.65Y-129.0
X153.517Y-95.0
X153.517Y-129.0
X154.0Y-93.833
X154.0Y-96.167
X154.0Y-127.833
X154.0Y-130.167
X155.167Y-93.35
X155.167Y-96.65
X155.167Y-127.35
X155.167Y-130.65
X156.333Y-93.833
X156.333Y-96.167
X156.333Y-127.833
X156.333Y-130.167
X156.817Y-95.0
X156.817Y-129.0
T3
X131.0Y-105.4
X132.8Y-104.8
X135.0Y-95.0
X136.6Y-105.4
X138.8Y-108.2
X138.8Y-113.8
X141.0Y-108.0
X141.0Y-114.0
X141.0Y-116.8
X141.4Y-101.4
X141.6Y-103.2
X143.0Y-96.8
X143.6Y-116.0
X144.2Y-110.0
X145.6Y-112.6
X146.0Y-118.2
X146.8Y-116.8
X147.0Y-119.6
X147.2Y-105.6
X147.2Y-113.0
X147.6Y-96.8
X147.6Y-107.6
X147.6Y-118.2
X147.8Y-110.0
X149.6Y-115.0
X149.8Y-97.2
X149.8Y-108.6
X151.6Y-99.0
X152.2Y-110.25
X152.4Y-97.6
X152.4Y-100.4
X153.2Y-99.0
X153.2Y-101.8
X153.2Y-112.4
T4
X130.825Y-114.58
X130.825Y-117.12
X130.825Y-119.66
X130.825Y-122.2
X137.7Y-94.5
X140.24Y-94.5
X142.78Y-94.5
X145.32Y-94.5
T5
X136.0Y-113.21
X136.0Y-115.75
X136.0Y-118.29
T6
X131.0Y-95.0
X131.0Y-129.0
X155.167Y-95.0
X155.167Y-129.0
M30
