%TF.GenerationSoftware,KiCad,Pcbnew,8.0.7*%
%TF.CreationDate,2025-03-28T18:01:28+01:00*%
%TF.ProjectId,StrainGauge,53747261-696e-4476-9175-67652e6b6963,rev?*%
%TF.SameCoordinates,Original*%
%TF.FileFunction,Copper,L1,Top*%
%TF.FilePolarity,Positive*%
%FSLAX46Y46*%
G04 Gerber Fmt 4.6, Leading zero omitted, Abs format (unit mm)*
G04 Created by KiCad (PCBNEW 8.0.7) date 2025-03-28 18:01:28*
%MOMM*%
%LPD*%
G01*
G04 APERTURE LIST*
G04 Aperture macros list*
%AMRoundRect*
0 Rectangle with rounded corners*
0 $1 Rounding radius*
0 $2 $3 $4 $5 $6 $7 $8 $9 X,Y pos of 4 corners*
0 Add a 4 corners polygon primitive as box body*
4,1,4,$2,$3,$4,$5,$6,$7,$8,$9,$2,$3,0*
0 Add four circle primitives for the rounded corners*
1,1,$1+$1,$2,$3*
1,1,$1+$1,$4,$5*
1,1,$1+$1,$6,$7*
1,1,$1+$1,$8,$9*
0 Add four rect primitives between the rounded corners*
20,1,$1+$1,$2,$3,$4,$5,0*
20,1,$1+$1,$4,$5,$6,$7,0*
20,1,$1+$1,$6,$7,$8,$9,0*
20,1,$1+$1,$8,$9,$2,$3,0*%
%AMFreePoly0*
4,1,19,0.500000,-0.750000,0.000000,-0.750000,0.000000,-0.744911,-0.071157,-0.744911,-0.207708,-0.704816,-0.327430,-0.627875,-0.420627,-0.520320,-0.479746,-0.390866,-0.500000,-0.250000,-0.500000,0.250000,-0.479746,0.390866,-0.420627,0.520320,-0.327430,0.627875,-0.207708,0.704816,-0.071157,0.744911,0.000000,0.744911,0.000000,0.750000,0.500000,0.750000,0.500000,-0.750000,0.500000,-0.750000,
$1*%
%AMFreePoly1*
4,1,19,0.000000,0.744911,0.071157,0.744911,0.207708,0.704816,0.327430,0.627875,0.420627,0.520320,0.479746,0.390866,0.500000,0.250000,0.500000,-0.250000,0.479746,-0.390866,0.420627,-0.520320,0.327430,-0.627875,0.207708,-0.704816,0.071157,-0.744911,0.000000,-0.744911,0.000000,-0.750000,-0.500000,-0.750000,-0.500000,0.750000,0.000000,0.750000,0.000000,0.744911,0.000000,0.744911,
$1*%
%AMFreePoly2*
4,1,19,0.550000,-0.750000,0.000000,-0.750000,0.000000,-0.744911,-0.071157,-0.744911,-0.207708,-0.704816,-0.327430,-0.627875,-0.420627,-0.520320,-0.479746,-0.390866,-0.500000,-0.250000,-0.500000,0.250000,-0.479746,0.390866,-0.420627,0.520320,-0.327430,0.627875,-0.207708,0.704816,-0.071157,0.744911,0.000000,0.744911,0.000000,0.750000,0.550000,0.750000,0.550000,-0.750000,0.550000,-0.750000,
$1*%
%AMFreePoly3*
4,1,19,0.000000,0.744911,0.071157,0.744911,0.207708,0.704816,0.327430,0.627875,0.420627,0.520320,0.479746,0.390866,0.500000,0.250000,0.500000,-0.250000,0.479746,-0.390866,0.420627,-0.520320,0.327430,-0.627875,0.207708,-0.704816,0.071157,-0.744911,0.000000,-0.744911,0.000000,-0.750000,-0.550000,-0.750000,-0.550000,0.750000,0.000000,0.750000,0.000000,0.744911,0.000000,0.744911,
$1*%
G04 Aperture macros list end*
%TA.AperFunction,SMDPad,CuDef*%
%ADD10R,2.000000X2.000000*%
%TD*%
%TA.AperFunction,ComponentPad*%
%ADD11R,1.700000X1.700000*%
%TD*%
%TA.AperFunction,ComponentPad*%
%ADD12O,1.700000X1.700000*%
%TD*%
%TA.AperFunction,SMDPad,CuDef*%
%ADD13RoundRect,0.140000X-0.170000X0.140000X-0.170000X-0.140000X0.170000X-0.140000X0.170000X0.140000X0*%
%TD*%
%TA.AperFunction,SMDPad,CuDef*%
%ADD14R,1.800000X3.800000*%
%TD*%
%TA.AperFunction,SMDPad,CuDef*%
%ADD15R,0.800000X2.900000*%
%TD*%
%TA.AperFunction,ComponentPad*%
%ADD16C,0.700000*%
%TD*%
%TA.AperFunction,ComponentPad*%
%ADD17C,4.400000*%
%TD*%
%TA.AperFunction,SMDPad,CuDef*%
%ADD18RoundRect,0.135000X0.135000X0.185000X-0.135000X0.185000X-0.135000X-0.185000X0.135000X-0.185000X0*%
%TD*%
%TA.AperFunction,SMDPad,CuDef*%
%ADD19RoundRect,0.150000X0.512500X0.150000X-0.512500X0.150000X-0.512500X-0.150000X0.512500X-0.150000X0*%
%TD*%
%TA.AperFunction,SMDPad,CuDef*%
%ADD20FreePoly0,0.000000*%
%TD*%
%TA.AperFunction,SMDPad,CuDef*%
%ADD21FreePoly1,0.000000*%
%TD*%
%TA.AperFunction,SMDPad,CuDef*%
%ADD22RoundRect,0.125000X0.125000X-0.687500X0.125000X0.687500X-0.125000X0.687500X-0.125000X-0.687500X0*%
%TD*%
%TA.AperFunction,ComponentPad*%
%ADD23C,2.133600*%
%TD*%
%TA.AperFunction,SMDPad,CuDef*%
%ADD24RoundRect,0.135000X-0.185000X0.135000X-0.185000X-0.135000X0.185000X-0.135000X0.185000X0.135000X0*%
%TD*%
%TA.AperFunction,SMDPad,CuDef*%
%ADD25FreePoly2,180.000000*%
%TD*%
%TA.AperFunction,SMDPad,CuDef*%
%ADD26R,1.000000X1.500000*%
%TD*%
%TA.AperFunction,SMDPad,CuDef*%
%ADD27FreePoly3,180.000000*%
%TD*%
%TA.AperFunction,SMDPad,CuDef*%
%ADD28R,1.600000X3.000000*%
%TD*%
%TA.AperFunction,SMDPad,CuDef*%
%ADD29RoundRect,0.140000X0.170000X-0.140000X0.170000X0.140000X-0.170000X0.140000X-0.170000X-0.140000X0*%
%TD*%
%TA.AperFunction,SMDPad,CuDef*%
%ADD30RoundRect,0.140000X0.140000X0.170000X-0.140000X0.170000X-0.140000X-0.170000X0.140000X-0.170000X0*%
%TD*%
%TA.AperFunction,SMDPad,CuDef*%
%ADD31RoundRect,0.250000X0.250000X0.475000X-0.250000X0.475000X-0.250000X-0.475000X0.250000X-0.475000X0*%
%TD*%
%TA.AperFunction,SMDPad,CuDef*%
%ADD32RoundRect,0.250000X-0.475000X0.250000X-0.475000X-0.250000X0.475000X-0.250000X0.475000X0.250000X0*%
%TD*%
%TA.AperFunction,SMDPad,CuDef*%
%ADD33RoundRect,0.225000X0.250000X-0.225000X0.250000X0.225000X-0.250000X0.225000X-0.250000X-0.225000X0*%
%TD*%
%TA.AperFunction,SMDPad,CuDef*%
%ADD34RoundRect,0.250000X0.475000X-0.250000X0.475000X0.250000X-0.475000X0.250000X-0.475000X-0.250000X0*%
%TD*%
%TA.AperFunction,SMDPad,CuDef*%
%ADD35RoundRect,0.225000X-0.250000X0.225000X-0.250000X-0.225000X0.250000X-0.225000X0.250000X0.225000X0*%
%TD*%
%TA.AperFunction,ViaPad*%
%ADD36C,0.800000*%
%TD*%
%TA.AperFunction,Conductor*%
%ADD37C,0.300000*%
%TD*%
%TA.AperFunction,Conductor*%
%ADD38C,0.500000*%
%TD*%
%TA.AperFunction,Conductor*%
%ADD39C,0.700000*%
%TD*%
%TA.AperFunction,Conductor*%
%ADD40C,0.250000*%
%TD*%
G04 APERTURE END LIST*
D10*
%TO.P,TP6,1,1*%
%TO.N,+BATT*%
X130800000Y-111000000D03*
%TD*%
D11*
%TO.P,J3,1,Pin_1*%
%TO.N,+BATT*%
X130825000Y-114580000D03*
D12*
%TO.P,J3,2,Pin_2*%
X130825000Y-117120000D03*
%TO.P,J3,3,Pin_3*%
%TO.N,GND*%
X130825000Y-119660000D03*
%TO.P,J3,4,Pin_4*%
X130825000Y-122200000D03*
%TD*%
D13*
%TO.P,C8,1*%
%TO.N,/AmpRef*%
X146000000Y-114250000D03*
%TO.P,C8,2*%
%TO.N,GND*%
X146000000Y-115210000D03*
%TD*%
D10*
%TO.P,TP3,1,1*%
%TO.N,+2V5*%
X132800000Y-102800000D03*
%TD*%
%TO.P,TP2,1,1*%
%TO.N,GND*%
X135600000Y-126600000D03*
%TD*%
D14*
%TO.P,J2,MP2,MP2*%
%TO.N,GND*%
X149700000Y-128250000D03*
%TO.P,J2,MP1,MP1*%
X140000000Y-128250000D03*
D15*
%TO.P,J2,4,4*%
%TO.N,/Vbdg+*%
X147100000Y-123550000D03*
%TO.P,J2,3,3*%
%TO.N,/Vout+*%
X145600000Y-123550000D03*
%TO.P,J2,2,2*%
%TO.N,/Vout-*%
X144100000Y-123550000D03*
%TO.P,J2,1,1*%
%TO.N,GND*%
X142600000Y-123550000D03*
%TD*%
D16*
%TO.P,H3,1,1*%
%TO.N,GND*%
X153516726Y-129000000D03*
X154000000Y-127833274D03*
X154000000Y-130166726D03*
X155166726Y-127350000D03*
D17*
X155166726Y-129000000D03*
D16*
X155166726Y-130650000D03*
X156333452Y-127833274D03*
X156333452Y-130166726D03*
X156816726Y-129000000D03*
%TD*%
D18*
%TO.P,R1,1*%
%TO.N,/Rg+*%
X140759999Y-118500000D03*
%TO.P,R1,2*%
%TO.N,/Rseries*%
X139740001Y-118500000D03*
%TD*%
D19*
%TO.P,U2,1,Vbias*%
%TO.N,/Vbias*%
X145637500Y-100699999D03*
%TO.P,U2,2,GND*%
%TO.N,GND*%
X145637500Y-99750000D03*
%TO.P,U2,3,EN*%
%TO.N,+BATT*%
X145637500Y-98800001D03*
%TO.P,U2,4,IN*%
X143362500Y-98800001D03*
%TO.P,U2,5,Vref*%
%TO.N,Net-(U2-Vref)*%
X143362500Y-100699999D03*
%TD*%
D13*
%TO.P,C10,1*%
%TO.N,+BATT*%
X141750000Y-105000000D03*
%TO.P,C10,2*%
%TO.N,GND*%
X141750000Y-105960000D03*
%TD*%
D16*
%TO.P,H1,1,1*%
%TO.N,GND*%
X129350000Y-95000000D03*
X129833274Y-93833274D03*
X129833274Y-96166726D03*
X131000000Y-93350000D03*
D17*
X131000000Y-95000000D03*
D16*
X131000000Y-96650000D03*
X132166726Y-93833274D03*
X132166726Y-96166726D03*
X132650000Y-95000000D03*
%TD*%
D20*
%TO.P,JP3,1,A*%
%TO.N,/AREF*%
X148550000Y-94600000D03*
D21*
%TO.P,JP3,2,B*%
%TO.N,/AmpRef*%
X149850000Y-94600000D03*
%TD*%
D10*
%TO.P,TP5,1,1*%
%TO.N,/AmpOffset*%
X154200000Y-110200000D03*
%TD*%
D22*
%TO.P,U1,1,Rg*%
%TO.N,/Rg+*%
X142525000Y-118362500D03*
%TO.P,U1,2,-*%
%TO.N,/Vout-*%
X143175000Y-118362500D03*
%TO.P,U1,3,+*%
%TO.N,/Vout+*%
X143825000Y-118362500D03*
%TO.P,U1,4,V-*%
%TO.N,GND*%
X144475000Y-118362500D03*
%TO.P,U1,5,Ref*%
%TO.N,/AmpRef*%
X144475000Y-114137500D03*
%TO.P,U1,6*%
%TO.N,/ADC*%
X143825000Y-114137500D03*
%TO.P,U1,7,V+*%
%TO.N,+BATT*%
X143175000Y-114137500D03*
%TO.P,U1,8,Rg*%
%TO.N,/Rg-*%
X142525000Y-114137500D03*
%TD*%
D23*
%TO.P,RV1,1,1*%
%TO.N,/Rseries*%
X136000000Y-118290000D03*
%TO.P,RV1,2,2*%
X136000000Y-115750000D03*
%TO.P,RV1,3,3*%
%TO.N,/Rg-*%
X136000000Y-113210001D03*
%TD*%
D24*
%TO.P,R2,1*%
%TO.N,VCC*%
X146500000Y-106990001D03*
%TO.P,R2,2*%
%TO.N,/AmpOffset*%
X146500000Y-108009999D03*
%TD*%
D25*
%TO.P,JP1,1,A*%
%TO.N,/Vbias*%
X151500000Y-106800000D03*
D26*
%TO.P,JP1,2,C*%
%TO.N,Net-(JP1-C)*%
X150200000Y-106800000D03*
D27*
%TO.P,JP1,3,B*%
%TO.N,/AmpOffset*%
X148900000Y-106800000D03*
%TD*%
D28*
%TO.P,C6,1*%
%TO.N,+BATT*%
X152750000Y-115750000D03*
%TO.P,C6,2*%
%TO.N,GND*%
X152750000Y-120150000D03*
%TD*%
D29*
%TO.P,C5,1*%
%TO.N,+BATT*%
X143250000Y-112210000D03*
%TO.P,C5,2*%
%TO.N,GND*%
X143250000Y-111250000D03*
%TD*%
D30*
%TO.P,C7,1*%
%TO.N,/Vout+*%
X143980000Y-120250000D03*
%TO.P,C7,2*%
%TO.N,/Vout-*%
X143020000Y-120250000D03*
%TD*%
D31*
%TO.P,C11,1*%
%TO.N,/Vbdg+*%
X135750000Y-109250000D03*
%TO.P,C11,2*%
%TO.N,GND*%
X133850002Y-109250000D03*
%TD*%
D16*
%TO.P,H4,1,1*%
%TO.N,GND*%
X132650000Y-129000000D03*
X132166726Y-130166726D03*
X132166726Y-127833274D03*
X131000000Y-130650000D03*
D17*
X131000000Y-129000000D03*
D16*
X131000000Y-127350000D03*
X129833274Y-130166726D03*
X129833274Y-127833274D03*
X129350000Y-129000000D03*
%TD*%
D19*
%TO.P,U3,1*%
%TO.N,+2V5*%
X145637500Y-104699999D03*
%TO.P,U3,2,V-*%
%TO.N,GND*%
X145637500Y-103750000D03*
%TO.P,U3,3,+*%
%TO.N,Net-(U2-Vref)*%
X145637500Y-102800001D03*
%TO.P,U3,4,-*%
%TO.N,+2V5*%
X143362500Y-102800001D03*
%TO.P,U3,5,V+*%
%TO.N,+BATT*%
X143362500Y-104699999D03*
%TD*%
%TO.P,U4,1*%
%TO.N,/AmpRef*%
X151137500Y-111199999D03*
%TO.P,U4,2,V-*%
%TO.N,GND*%
X151137500Y-110250000D03*
%TO.P,U4,3,+*%
%TO.N,Net-(JP1-C)*%
X151137500Y-109300001D03*
%TO.P,U4,4,-*%
%TO.N,/AmpRef*%
X148862500Y-109300001D03*
%TO.P,U4,5,V+*%
%TO.N,+BATT*%
X148862500Y-111199999D03*
%TD*%
D32*
%TO.P,C3,1*%
%TO.N,Net-(U2-Vref)*%
X148750000Y-102800001D03*
%TO.P,C3,2*%
%TO.N,GND*%
X148750000Y-104699999D03*
%TD*%
D28*
%TO.P,C1,1*%
%TO.N,+BATT*%
X137750000Y-98300000D03*
%TO.P,C1,2*%
%TO.N,GND*%
X137750000Y-102700000D03*
%TD*%
D10*
%TO.P,TP4,1,1*%
%TO.N,/Vbias*%
X154200000Y-106800000D03*
%TD*%
D24*
%TO.P,R3,1*%
%TO.N,/AmpOffset*%
X146500000Y-108990001D03*
%TO.P,R3,2*%
%TO.N,GND*%
X146500000Y-110009999D03*
%TD*%
D33*
%TO.P,C4,1*%
%TO.N,+BATT*%
X141750000Y-112275000D03*
%TO.P,C4,2*%
%TO.N,GND*%
X141750000Y-110725000D03*
%TD*%
D25*
%TO.P,JP2,1,A*%
%TO.N,+2V5*%
X137000000Y-107000000D03*
D26*
%TO.P,JP2,2,C*%
%TO.N,/Vbdg+*%
X135700000Y-107000000D03*
D27*
%TO.P,JP2,3,B*%
%TO.N,+BATT*%
X134400000Y-107000000D03*
%TD*%
D34*
%TO.P,C2,1*%
%TO.N,/Vbias*%
X148000000Y-100699999D03*
%TO.P,C2,2*%
%TO.N,GND*%
X148000000Y-98800001D03*
%TD*%
D35*
%TO.P,C9,1*%
%TO.N,+BATT*%
X140000000Y-104975000D03*
%TO.P,C9,2*%
%TO.N,GND*%
X140000000Y-106525000D03*
%TD*%
D13*
%TO.P,C12,1*%
%TO.N,+BATT*%
X141750000Y-99020000D03*
%TO.P,C12,2*%
%TO.N,GND*%
X141750000Y-99980000D03*
%TD*%
D16*
%TO.P,H2,1,1*%
%TO.N,GND*%
X153516726Y-95000000D03*
X154000000Y-93833274D03*
X154000000Y-96166726D03*
X155166726Y-93350000D03*
D17*
X155166726Y-95000000D03*
D16*
X155166726Y-96650000D03*
X156333452Y-93833274D03*
X156333452Y-96166726D03*
X156816726Y-95000000D03*
%TD*%
D11*
%TO.P,J1,1,Pin_1*%
%TO.N,VCC*%
X137700000Y-94500000D03*
D12*
%TO.P,J1,2,Pin_2*%
%TO.N,/AREF*%
X140240000Y-94500000D03*
%TO.P,J1,3,Pin_3*%
%TO.N,/ADC*%
X142779999Y-94500000D03*
%TO.P,J1,4,Pin_4*%
%TO.N,GND*%
X145320000Y-94500000D03*
%TD*%
D10*
%TO.P,TP1,1,1*%
%TO.N,VCC*%
X132800000Y-99200000D03*
%TD*%
D36*
%TO.N,VCC*%
X145000000Y-107000000D03*
X144750000Y-97250000D03*
%TO.N,+BATT*%
X140250000Y-111750000D03*
X135000000Y-111250000D03*
%TO.N,/Rseries*%
X138500000Y-118500000D03*
%TO.N,GND*%
X152200000Y-110250000D03*
X138800000Y-108200000D03*
X135200000Y-96000000D03*
X147600000Y-118200000D03*
X144200000Y-110000000D03*
X141400000Y-101400000D03*
X153200000Y-99000000D03*
X146800000Y-116800000D03*
X153200000Y-101800000D03*
X131000000Y-105400000D03*
X146452498Y-110600000D03*
X152400000Y-97600000D03*
X147600000Y-96800000D03*
X152400000Y-100400000D03*
X149600000Y-115000000D03*
X151600000Y-99000000D03*
X147000000Y-119600000D03*
X146000000Y-118200000D03*
X145600000Y-112600000D03*
X141000000Y-108000000D03*
X147200000Y-105600000D03*
%TO.N,/AmpRef*%
X149800000Y-97200000D03*
X149800000Y-108600000D03*
X147800000Y-110000000D03*
X147200000Y-112400000D03*
%TO.N,+2V5*%
X132800000Y-104800000D03*
X141600000Y-103200000D03*
X136600000Y-105400000D03*
%TO.N,/ADC*%
X143000000Y-96800000D03*
X143600000Y-116000000D03*
%TO.N,/AmpOffset*%
X153200000Y-112400000D03*
X147600000Y-107600000D03*
%TO.N,/Rg-*%
X141000000Y-114000000D03*
X138800000Y-113800000D03*
%TO.N,/Vbdg+*%
X145600000Y-121000000D03*
X141000000Y-116800000D03*
%TD*%
D37*
%TO.N,/Vout+*%
X143980000Y-120250000D02*
X143980000Y-120559999D01*
X143980000Y-120559999D02*
X145600000Y-122179999D01*
X145600000Y-122179999D02*
X145600000Y-123550000D01*
%TO.N,/Vout-*%
X143020000Y-120250000D02*
X143020000Y-120420000D01*
X143020000Y-120420000D02*
X144100000Y-121500000D01*
X144100000Y-121500000D02*
X144100000Y-123550000D01*
D38*
%TO.N,/Vbdg+*%
X145600000Y-121000000D02*
X147100000Y-122500000D01*
X147100000Y-122500000D02*
X147100000Y-123550000D01*
D39*
%TO.N,+BATT*%
X132850002Y-108149998D02*
X130800000Y-110200000D01*
X130800000Y-110200000D02*
X130800000Y-111000000D01*
X134400000Y-107000000D02*
X134000000Y-107000000D01*
X132850002Y-110042588D02*
X134057414Y-111250000D01*
X134057414Y-111250000D02*
X135000000Y-111250000D01*
X134000000Y-107000000D02*
X132850002Y-108149998D01*
X132850002Y-108149998D02*
X132850002Y-110042588D01*
X140000000Y-104975000D02*
X140000000Y-100550000D01*
X140000000Y-100550000D02*
X137750000Y-98300000D01*
D37*
%TO.N,VCC*%
X145000000Y-107000000D02*
X146490001Y-107000000D01*
X137700000Y-94500000D02*
X141100000Y-97900000D01*
X141100000Y-97900000D02*
X144100000Y-97900000D01*
X144100000Y-97900000D02*
X144750000Y-97250000D01*
X146490001Y-107000000D02*
X146500000Y-106990001D01*
X137700000Y-94500000D02*
X133000000Y-99200000D01*
X133000000Y-99200000D02*
X132800000Y-99200000D01*
D39*
%TO.N,+BATT*%
X150062499Y-113000000D02*
X150500000Y-113000000D01*
X150500000Y-113000000D02*
X152750000Y-115250000D01*
X148562499Y-111500000D02*
X150062499Y-113000000D01*
X152750000Y-115250000D02*
X152750000Y-115750000D01*
D37*
X143175000Y-114137500D02*
X143175000Y-112285000D01*
X143175000Y-112285000D02*
X143250000Y-112210000D01*
D39*
X143250000Y-112210000D02*
X143790000Y-112210000D01*
X143790000Y-112210000D02*
X144500000Y-111500000D01*
X144500000Y-111500000D02*
X148562499Y-111500000D01*
X148562499Y-111500000D02*
X148862500Y-111199999D01*
X141750000Y-112275000D02*
X143185000Y-112275000D01*
X143185000Y-112275000D02*
X143250000Y-112210000D01*
X141750000Y-105000000D02*
X140025000Y-105000000D01*
X140025000Y-105000000D02*
X140000000Y-104975000D01*
X143362500Y-104699999D02*
X142050001Y-104699999D01*
X142050001Y-104699999D02*
X141750000Y-105000000D01*
X140250000Y-111750000D02*
X141225000Y-111750000D01*
X141225000Y-111750000D02*
X141750000Y-112275000D01*
D40*
%TO.N,/Rseries*%
X139740001Y-118500000D02*
X138500000Y-118500000D01*
D37*
%TO.N,GND*%
X152200000Y-110250000D02*
X151137500Y-110250000D01*
D38*
X138800000Y-105750000D02*
X138800000Y-108200000D01*
D37*
X141750000Y-101050000D02*
X141400000Y-101400000D01*
X147050001Y-99750000D02*
X145637500Y-99750000D01*
X140000000Y-106525000D02*
X140000000Y-107000000D01*
X146500000Y-110009999D02*
X146500000Y-110552498D01*
X144200000Y-110300000D02*
X143250000Y-111250000D01*
X144200000Y-110000000D02*
X144200000Y-110300000D01*
X146750000Y-103750000D02*
X147699999Y-104699999D01*
X146500000Y-110552498D02*
X146452498Y-110600000D01*
D38*
X137750000Y-104700000D02*
X138800000Y-105750000D01*
X137750000Y-102700000D02*
X137750000Y-104700000D01*
D37*
X145637500Y-103750000D02*
X146750000Y-103750000D01*
X148000000Y-98800001D02*
X147050001Y-99750000D01*
X141750000Y-99980000D02*
X141750000Y-101050000D01*
X141750000Y-107250000D02*
X141000000Y-108000000D01*
X147699999Y-104699999D02*
X148750000Y-104699999D01*
X140000000Y-107000000D02*
X141000000Y-108000000D01*
X141750000Y-105960000D02*
X141750000Y-107250000D01*
%TO.N,Net-(U2-Vref)*%
X145637500Y-102800001D02*
X143537498Y-100699999D01*
X148250000Y-102800001D02*
X145637500Y-102800001D01*
X143537498Y-100699999D02*
X143362500Y-100699999D01*
%TO.N,/Vout-*%
X143175000Y-120095000D02*
X143020000Y-120250000D01*
X143175000Y-118362500D02*
X143175000Y-120095000D01*
%TO.N,/Vout+*%
X143825000Y-120095000D02*
X143980000Y-120250000D01*
X143825000Y-118362500D02*
X143825000Y-120095000D01*
%TO.N,/AmpRef*%
X149099999Y-109300001D02*
X149800000Y-108600000D01*
X148499999Y-109300001D02*
X147800000Y-110000000D01*
X148862500Y-109300001D02*
X148499999Y-109300001D01*
X145887500Y-114137500D02*
X146000000Y-114250000D01*
X144475000Y-114137500D02*
X145887500Y-114137500D01*
X149500000Y-109937501D02*
X148862500Y-109300001D01*
X147200000Y-112400000D02*
X147200000Y-113050000D01*
X151137500Y-111199999D02*
X150449999Y-111199999D01*
X149800000Y-94650000D02*
X149850000Y-94600000D01*
X150449999Y-111199999D02*
X149500000Y-110250000D01*
X149800000Y-97200000D02*
X149800000Y-94650000D01*
X147200000Y-113050000D02*
X146000000Y-114250000D01*
X149500000Y-110250000D02*
X149500000Y-109937501D01*
X148862500Y-109300001D02*
X149099999Y-109300001D01*
D38*
%TO.N,+2V5*%
X136600000Y-105400000D02*
X137000000Y-105800000D01*
X137000000Y-105800000D02*
X137000000Y-107000000D01*
X141600000Y-103200000D02*
X143448395Y-103200000D01*
D39*
X132800000Y-104800000D02*
X132800000Y-102800000D01*
D38*
X143362500Y-102800001D02*
X141999999Y-102800001D01*
X143448395Y-103200000D02*
X144948394Y-104699999D01*
X141999999Y-102800001D02*
X141600000Y-103200000D01*
X144948394Y-104699999D02*
X145637500Y-104699999D01*
D37*
%TO.N,/AREF*%
X141740000Y-93000000D02*
X140240000Y-94500000D01*
X146950000Y-93000000D02*
X141740000Y-93000000D01*
X148550000Y-94600000D02*
X146950000Y-93000000D01*
%TO.N,/ADC*%
X143600000Y-116000000D02*
X143825000Y-115775000D01*
X142779999Y-96579999D02*
X143000000Y-96800000D01*
X142779999Y-94500000D02*
X142779999Y-96579999D01*
X143825000Y-115775000D02*
X143825000Y-114137500D01*
%TO.N,Net-(JP1-C)*%
X151137500Y-109300001D02*
X150600000Y-108762501D01*
X150600000Y-108762501D02*
X150600000Y-107772758D01*
X150545000Y-107717758D02*
X150545000Y-107145000D01*
X150600000Y-107772758D02*
X150545000Y-107717758D01*
X150545000Y-107145000D02*
X150200000Y-106800000D01*
%TO.N,/AmpOffset*%
X146500000Y-108009999D02*
X146500000Y-108990001D01*
D38*
X154250000Y-111350000D02*
X153200000Y-112400000D01*
X147600000Y-107600000D02*
X148350000Y-107600000D01*
X148350000Y-107600000D02*
X148900000Y-107050000D01*
X154250000Y-110250000D02*
X154200000Y-110200000D01*
X147190001Y-108009999D02*
X146500000Y-108009999D01*
X154250000Y-111350000D02*
X154250000Y-110250000D01*
X147600000Y-107600000D02*
X147190001Y-108009999D01*
X148900000Y-107050000D02*
X148900000Y-106800000D01*
D37*
%TO.N,/Rg+*%
X140759999Y-118500000D02*
X142387500Y-118500000D01*
X142387500Y-118500000D02*
X142525000Y-118362500D01*
%TO.N,/Rseries*%
X136210000Y-118500000D02*
X136000000Y-118290000D01*
%TO.N,/Rg-*%
X142525000Y-114137500D02*
X141137500Y-114137500D01*
X141137500Y-114137500D02*
X141000000Y-114000000D01*
X138210001Y-113210001D02*
X136000000Y-113210001D01*
X138800000Y-113800000D02*
X138210001Y-113210001D01*
D39*
%TO.N,+BATT*%
X140250000Y-111750000D02*
X140250000Y-110250000D01*
X140250000Y-110250000D02*
X143000000Y-107500000D01*
X143000000Y-107500000D02*
X143000000Y-105062499D01*
X143000000Y-105062499D02*
X143362500Y-104699999D01*
D38*
%TO.N,/Vbdg+*%
X139800000Y-113300000D02*
X139800000Y-113800000D01*
X135750000Y-109250000D02*
X136550000Y-110050000D01*
X136550000Y-110050000D02*
X139800000Y-113300000D01*
%TO.N,/Vout+*%
X145600000Y-123500000D02*
X145650000Y-123550000D01*
%TO.N,/Vbdg+*%
X135700000Y-109200000D02*
X135700000Y-107000000D01*
X139800000Y-113800000D02*
X139800000Y-115600000D01*
X136550000Y-110050000D02*
X135700000Y-109200000D01*
X135700000Y-109200000D02*
X135750000Y-109250000D01*
X139800000Y-115600000D02*
X141000000Y-116800000D01*
%TD*%
%TA.AperFunction,Conductor*%
%TO.N,GND*%
G36*
X146500000Y-100001245D02*
G01*
X146410398Y-99948255D01*
X146410397Y-99948254D01*
X146410396Y-99948254D01*
X146410393Y-99948253D01*
X146252573Y-99902401D01*
X146252567Y-99902400D01*
X146215701Y-99899499D01*
X146215694Y-99899499D01*
X145059306Y-99899499D01*
X145059298Y-99899499D01*
X145022432Y-99902400D01*
X145022426Y-99902401D01*
X144864606Y-99948253D01*
X144864603Y-99948254D01*
X144723137Y-100031916D01*
X144723129Y-100031922D01*
X144606923Y-100148128D01*
X144606914Y-100148139D01*
X144606729Y-100148454D01*
X144606519Y-100148649D01*
X144602139Y-100154297D01*
X144601227Y-100153590D01*
X144555657Y-100196135D01*
X144486915Y-100208636D01*
X144422327Y-100181987D01*
X144398143Y-100154077D01*
X144397861Y-100154297D01*
X144393823Y-100149091D01*
X144393271Y-100148454D01*
X144393085Y-100148139D01*
X144393076Y-100148128D01*
X144276870Y-100031922D01*
X144276862Y-100031916D01*
X144135396Y-99948254D01*
X144128235Y-99945155D01*
X144128865Y-99943697D01*
X144077620Y-99910970D01*
X144048413Y-99847498D01*
X144058159Y-99778311D01*
X144103763Y-99725377D01*
X144170746Y-99705501D01*
X144171100Y-99705500D01*
X144548640Y-99705500D01*
X144558786Y-99704955D01*
X144602678Y-99702603D01*
X144602686Y-99702602D01*
X144602688Y-99702602D01*
X144602689Y-99702602D01*
X144609682Y-99701849D01*
X144629036Y-99699769D01*
X144629046Y-99699767D01*
X144629049Y-99699767D01*
X144638648Y-99698211D01*
X144682448Y-99691114D01*
X144817257Y-99640832D01*
X144868852Y-99612658D01*
X144875138Y-99609922D01*
X144878578Y-99607348D01*
X144878580Y-99607347D01*
X144878581Y-99607347D01*
X144878667Y-99607281D01*
X144944129Y-99582864D01*
X144987573Y-99587471D01*
X145022431Y-99597599D01*
X145059306Y-99600501D01*
X145059314Y-99600501D01*
X146215686Y-99600501D01*
X146215694Y-99600501D01*
X146252569Y-99597599D01*
X146252571Y-99597598D01*
X146252573Y-99597598D01*
X146303287Y-99582864D01*
X146410398Y-99551745D01*
X146497894Y-99500000D01*
X146500000Y-99500000D01*
X146500000Y-100001245D01*
G37*
%TD.AperFunction*%
%TD*%
%TA.AperFunction,Conductor*%
%TO.N,/Vbias*%
G36*
X149815677Y-100219685D02*
G01*
X149836319Y-100236319D01*
X155363681Y-105763681D01*
X155397166Y-105825004D01*
X155400000Y-105851362D01*
X155400000Y-107748638D01*
X155380315Y-107815677D01*
X155363681Y-107836319D01*
X155236319Y-107963681D01*
X155174996Y-107997166D01*
X155148638Y-108000000D01*
X153251362Y-108000000D01*
X153184323Y-107980315D01*
X153163681Y-107963681D01*
X153000000Y-107800000D01*
X151370427Y-107800000D01*
X151303388Y-107780315D01*
X151257633Y-107727511D01*
X151248810Y-107700192D01*
X151225502Y-107583018D01*
X151225500Y-107583011D01*
X151209939Y-107545445D01*
X151200499Y-107497990D01*
X151200499Y-106002129D01*
X151200498Y-106002123D01*
X151194091Y-105942516D01*
X151143797Y-105807671D01*
X151143793Y-105807664D01*
X151057547Y-105692455D01*
X151057546Y-105692454D01*
X151049685Y-105686569D01*
X151007816Y-105630633D01*
X151000000Y-105587305D01*
X151000000Y-103000000D01*
X149600000Y-101600000D01*
X147251362Y-101600000D01*
X147184323Y-101580315D01*
X147163681Y-101563681D01*
X146600000Y-101000000D01*
X145124000Y-101000000D01*
X145056961Y-100980315D01*
X145011206Y-100927511D01*
X145000000Y-100876000D01*
X145000000Y-100674500D01*
X145019685Y-100607461D01*
X145072489Y-100561706D01*
X145124000Y-100550500D01*
X146215686Y-100550500D01*
X146215694Y-100550500D01*
X146252569Y-100547598D01*
X146252571Y-100547597D01*
X146252573Y-100547597D01*
X146393946Y-100506524D01*
X146428541Y-100501600D01*
X146571941Y-100501600D01*
X146595696Y-100494624D01*
X146709992Y-100461064D01*
X146773601Y-100420185D01*
X146840641Y-100400500D01*
X147114072Y-100400500D01*
X147198616Y-100383682D01*
X147239745Y-100375501D01*
X147358128Y-100326465D01*
X147464670Y-100255277D01*
X147464675Y-100255272D01*
X147483629Y-100236319D01*
X147544952Y-100202834D01*
X147571310Y-100200000D01*
X149748638Y-100200000D01*
X149815677Y-100219685D01*
G37*
%TD.AperFunction*%
%TD*%
%TA.AperFunction,Conductor*%
%TO.N,GND*%
G36*
X143600000Y-110800000D02*
G01*
X143600000Y-111197211D01*
X143474030Y-111323181D01*
X143412707Y-111356666D01*
X143386349Y-111359500D01*
X143166228Y-111359500D01*
X143001925Y-111392182D01*
X143001913Y-111392185D01*
X142956586Y-111410960D01*
X142956584Y-111410962D01*
X142946688Y-111415060D01*
X142899236Y-111424500D01*
X142403043Y-111424500D01*
X142337946Y-111406038D01*
X142315487Y-111392185D01*
X142308701Y-111387999D01*
X142308698Y-111387997D01*
X142308697Y-111387997D01*
X142308694Y-111387996D01*
X142147709Y-111334651D01*
X142048335Y-111324498D01*
X142047454Y-111324454D01*
X142047271Y-111324390D01*
X142045204Y-111324179D01*
X142045254Y-111323684D01*
X141981503Y-111301383D01*
X141966090Y-111288302D01*
X141767162Y-111089373D01*
X141767161Y-111089372D01*
X141767160Y-111089371D01*
X141627866Y-110996297D01*
X141627863Y-110996296D01*
X141518416Y-110950962D01*
X141518414Y-110950961D01*
X141473086Y-110932185D01*
X141473074Y-110932182D01*
X141308771Y-110899500D01*
X141308767Y-110899500D01*
X141224500Y-110899500D01*
X141157461Y-110879815D01*
X141111706Y-110827011D01*
X141100500Y-110775500D01*
X141100500Y-110653650D01*
X141120185Y-110586611D01*
X141136819Y-110565969D01*
X142251394Y-109451394D01*
X143600000Y-110800000D01*
G37*
%TD.AperFunction*%
%TA.AperFunction,Conductor*%
G36*
X139589375Y-109707834D02*
G01*
X139589372Y-109707838D01*
X139496299Y-109847130D01*
X139496292Y-109847143D01*
X139450962Y-109956583D01*
X139432185Y-110001913D01*
X139432182Y-110001925D01*
X139400000Y-110163714D01*
X139400000Y-109800000D01*
X140000000Y-109200000D01*
X140097211Y-109200000D01*
X139589375Y-109707834D01*
G37*
%TD.AperFunction*%
%TD*%
%TA.AperFunction,Conductor*%
%TO.N,GND*%
G36*
X139441294Y-105861998D02*
G01*
X139441297Y-105861999D01*
X139441303Y-105862003D01*
X139602292Y-105915349D01*
X139701655Y-105925500D01*
X140298344Y-105925499D01*
X140298352Y-105925498D01*
X140298355Y-105925498D01*
X140352760Y-105919940D01*
X140397708Y-105915349D01*
X140558697Y-105862003D01*
X140558698Y-105862001D01*
X140565552Y-105859731D01*
X140565802Y-105860487D01*
X140610855Y-105850500D01*
X141833768Y-105850500D01*
X141833768Y-105850499D01*
X141998082Y-105817816D01*
X141998082Y-105817815D01*
X142001309Y-105817174D01*
X142070900Y-105823401D01*
X142126078Y-105866264D01*
X142149322Y-105932154D01*
X142149500Y-105938791D01*
X142149500Y-107096349D01*
X142129815Y-107163388D01*
X142113181Y-107184030D01*
X140297211Y-109000000D01*
X138200000Y-109000000D01*
X138200000Y-105800000D01*
X139340781Y-105800000D01*
X139441294Y-105861998D01*
G37*
%TD.AperFunction*%
%TD*%
%TA.AperFunction,Conductor*%
%TO.N,GND*%
G36*
X131075000Y-121766988D02*
G01*
X131017993Y-121734075D01*
X130890826Y-121700000D01*
X130759174Y-121700000D01*
X130632007Y-121734075D01*
X130575000Y-121766988D01*
X130575000Y-120093012D01*
X130632007Y-120125925D01*
X130759174Y-120160000D01*
X130890826Y-120160000D01*
X131017993Y-120125925D01*
X131075000Y-120093012D01*
X131075000Y-121766988D01*
G37*
%TD.AperFunction*%
%TA.AperFunction,Conductor*%
G36*
X146714926Y-112022174D02*
G01*
X146736600Y-112074500D01*
X146721308Y-112119547D01*
X146719806Y-112121504D01*
X146719138Y-112122376D01*
X146663669Y-112256291D01*
X146644750Y-112400000D01*
X146663669Y-112543708D01*
X146690559Y-112608626D01*
X146719139Y-112677625D01*
X146807379Y-112792621D01*
X146867763Y-112838955D01*
X146896081Y-112888002D01*
X146881423Y-112942710D01*
X146875040Y-112949988D01*
X146027201Y-113797826D01*
X145974875Y-113819500D01*
X145786627Y-113819500D01*
X145762344Y-113822316D01*
X145762338Y-113822318D01*
X145743362Y-113830696D01*
X145713476Y-113837000D01*
X144949499Y-113837000D01*
X144897173Y-113815326D01*
X144875499Y-113763000D01*
X144875499Y-113422869D01*
X144871050Y-113400500D01*
X144859515Y-113342505D01*
X144798624Y-113251376D01*
X144707495Y-113190485D01*
X144627133Y-113174500D01*
X144627131Y-113174500D01*
X144322869Y-113174500D01*
X144242504Y-113190485D01*
X144191112Y-113224825D01*
X144135563Y-113235874D01*
X144108888Y-113224825D01*
X144057495Y-113190485D01*
X144057490Y-113190484D01*
X143977133Y-113174500D01*
X143977131Y-113174500D01*
X143672869Y-113174500D01*
X143592504Y-113190485D01*
X143590612Y-113191750D01*
X143588378Y-113192194D01*
X143585769Y-113193275D01*
X143585554Y-113192756D01*
X143535063Y-113202799D01*
X143487971Y-113171333D01*
X143475500Y-113130221D01*
X143475500Y-112784500D01*
X143497174Y-112732174D01*
X143549500Y-112710500D01*
X143855894Y-112710500D01*
X143855894Y-112710499D01*
X143983186Y-112676392D01*
X144097314Y-112610500D01*
X144685640Y-112022174D01*
X144737966Y-112000500D01*
X146662600Y-112000500D01*
X146714926Y-112022174D01*
G37*
%TD.AperFunction*%
%TA.AperFunction,Conductor*%
G36*
X149751825Y-102466709D02*
G01*
X150472826Y-103187710D01*
X150494500Y-103240036D01*
X150494500Y-105587305D01*
X150499699Y-105645417D01*
X150502531Y-105677061D01*
X150509836Y-105717552D01*
X150510345Y-105720372D01*
X150533811Y-105805926D01*
X150526752Y-105862120D01*
X150482023Y-105896864D01*
X150462448Y-105899500D01*
X149685180Y-105899500D01*
X149678650Y-105900799D01*
X149641277Y-105908233D01*
X149619458Y-105922811D01*
X149563909Y-105933857D01*
X149536701Y-105919314D01*
X149536188Y-105920204D01*
X149527750Y-105915332D01*
X149450002Y-105894500D01*
X149450000Y-105894500D01*
X148828111Y-105894500D01*
X148828106Y-105894500D01*
X148784307Y-105900797D01*
X148646343Y-105941307D01*
X148606093Y-105959688D01*
X148606080Y-105959695D01*
X148485135Y-106037422D01*
X148451678Y-106066412D01*
X148357525Y-106175072D01*
X148333603Y-106212296D01*
X148333599Y-106212304D01*
X148273872Y-106343086D01*
X148261402Y-106385556D01*
X148261402Y-106385559D01*
X148240941Y-106527865D01*
X148240941Y-106572134D01*
X148243747Y-106591645D01*
X148244500Y-106602176D01*
X148244500Y-106997822D01*
X148243747Y-107008353D01*
X148240941Y-107027865D01*
X148240941Y-107072124D01*
X148240942Y-107072141D01*
X148244535Y-107097137D01*
X148230526Y-107152014D01*
X148223617Y-107159988D01*
X148205784Y-107177823D01*
X148153459Y-107199500D01*
X148007472Y-107199500D01*
X147962425Y-107184208D01*
X147877625Y-107119139D01*
X147824507Y-107097137D01*
X147743708Y-107063669D01*
X147600000Y-107044750D01*
X147456291Y-107063669D01*
X147322376Y-107119138D01*
X147207379Y-107207379D01*
X147119138Y-107322376D01*
X147063669Y-107456291D01*
X147051970Y-107545158D01*
X147023651Y-107594207D01*
X146978603Y-107609499D01*
X146806131Y-107609499D01*
X146776241Y-107603194D01*
X146751500Y-107592269D01*
X146743539Y-107591345D01*
X146727623Y-107589499D01*
X146727619Y-107589499D01*
X146272377Y-107589499D01*
X146248504Y-107592268D01*
X146150858Y-107635383D01*
X146075385Y-107710856D01*
X146075384Y-107710857D01*
X146075384Y-107710858D01*
X146068180Y-107727174D01*
X146032270Y-107808500D01*
X146029500Y-107832379D01*
X146029500Y-108187621D01*
X146032269Y-108211494D01*
X146032269Y-108211496D01*
X146032270Y-108211497D01*
X146075384Y-108309140D01*
X146150859Y-108384615D01*
X146155389Y-108386615D01*
X146194502Y-108427576D01*
X146199500Y-108454310D01*
X146199500Y-108545689D01*
X146177826Y-108598015D01*
X146155391Y-108613383D01*
X146150862Y-108615382D01*
X146150859Y-108615385D01*
X146075384Y-108690860D01*
X146052150Y-108743480D01*
X146032270Y-108788502D01*
X146029500Y-108812381D01*
X146029500Y-109167623D01*
X146032269Y-109191497D01*
X146032270Y-109191499D01*
X146045274Y-109220952D01*
X146046582Y-109277574D01*
X146015249Y-109314536D01*
X145922709Y-109369264D01*
X145809264Y-109482709D01*
X145727594Y-109620805D01*
X145687154Y-109759998D01*
X145687155Y-109759999D01*
X146426000Y-109759999D01*
X146478326Y-109781673D01*
X146500000Y-109833999D01*
X146500000Y-110009999D01*
X146676000Y-110009999D01*
X146728326Y-110031673D01*
X146750000Y-110083999D01*
X146750000Y-110779928D01*
X146785126Y-110777165D01*
X146939193Y-110732404D01*
X147077289Y-110650734D01*
X147190735Y-110537288D01*
X147272402Y-110399197D01*
X147272898Y-110398053D01*
X147273324Y-110397639D01*
X147274776Y-110395185D01*
X147275447Y-110395581D01*
X147313565Y-110358633D01*
X147370196Y-110359515D01*
X147399522Y-110382382D01*
X147407379Y-110392621D01*
X147522375Y-110480861D01*
X147656291Y-110536330D01*
X147800000Y-110555250D01*
X147943709Y-110536330D01*
X148077625Y-110480861D01*
X148192621Y-110392621D01*
X148280861Y-110277625D01*
X148336330Y-110143709D01*
X148355250Y-110000000D01*
X148344856Y-109921056D01*
X148359514Y-109866350D01*
X148365889Y-109859080D01*
X148452796Y-109772174D01*
X148505122Y-109750500D01*
X148857376Y-109750500D01*
X148909702Y-109772174D01*
X149177826Y-110040298D01*
X149199500Y-110092624D01*
X149199500Y-110289564D01*
X149219977Y-110365985D01*
X149219979Y-110365990D01*
X149235355Y-110392621D01*
X149259540Y-110434511D01*
X149448202Y-110623173D01*
X149469876Y-110675499D01*
X149448202Y-110727825D01*
X149395876Y-110749499D01*
X149103039Y-110749499D01*
X149066041Y-110739586D01*
X149055685Y-110733607D01*
X149055681Y-110733606D01*
X149055680Y-110733605D01*
X148928394Y-110699499D01*
X148928392Y-110699499D01*
X148796607Y-110699499D01*
X148796605Y-110699499D01*
X148669318Y-110733605D01*
X148669313Y-110733607D01*
X148658956Y-110739587D01*
X148621959Y-110749499D01*
X148305136Y-110749499D01*
X148280013Y-110752413D01*
X148280007Y-110752414D01*
X148177234Y-110797793D01*
X148097794Y-110877233D01*
X148063285Y-110955390D01*
X148022322Y-110994503D01*
X147995590Y-110999500D01*
X144434106Y-110999500D01*
X144306818Y-111033606D01*
X144306809Y-111033610D01*
X144192684Y-111099500D01*
X144186322Y-111105863D01*
X144133995Y-111127534D01*
X144081670Y-111105857D01*
X144059999Y-111053534D01*
X144059999Y-111045364D01*
X144057144Y-111009083D01*
X144012031Y-110853803D01*
X143929719Y-110714622D01*
X143815377Y-110600280D01*
X143676196Y-110517968D01*
X143520914Y-110472855D01*
X143520917Y-110472855D01*
X143500000Y-110471209D01*
X143500000Y-110700000D01*
X143059999Y-110259999D01*
X145687155Y-110259999D01*
X145727594Y-110399192D01*
X145809264Y-110537288D01*
X145922710Y-110650734D01*
X146060806Y-110732404D01*
X146214874Y-110777165D01*
X146214871Y-110777165D01*
X146250000Y-110779929D01*
X146250000Y-110259999D01*
X145687155Y-110259999D01*
X143059999Y-110259999D01*
X142003906Y-109203906D01*
X143307311Y-107900501D01*
X143307314Y-107900500D01*
X143400500Y-107807314D01*
X143466392Y-107693186D01*
X143475685Y-107658504D01*
X143479554Y-107644068D01*
X143500500Y-107565892D01*
X143500500Y-107000000D01*
X144444750Y-107000000D01*
X144463669Y-107143708D01*
X144519138Y-107277623D01*
X144519139Y-107277625D01*
X144607379Y-107392621D01*
X144722375Y-107480861D01*
X144856291Y-107536330D01*
X145000000Y-107555250D01*
X145143709Y-107536330D01*
X145277625Y-107480861D01*
X145392621Y-107392621D01*
X145415546Y-107362743D01*
X145441093Y-107329452D01*
X145490142Y-107301133D01*
X145499801Y-107300500D01*
X146056090Y-107300500D01*
X146108416Y-107322174D01*
X146150859Y-107364617D01*
X146248502Y-107407731D01*
X146272377Y-107410501D01*
X146727622Y-107410500D01*
X146751498Y-107407731D01*
X146849141Y-107364617D01*
X146924616Y-107289142D01*
X146967730Y-107191499D01*
X146970500Y-107167624D01*
X146970499Y-106812379D01*
X146967730Y-106788503D01*
X146924616Y-106690860D01*
X146849141Y-106615385D01*
X146751498Y-106572271D01*
X146727623Y-106569501D01*
X146727619Y-106569501D01*
X146272377Y-106569501D01*
X146248504Y-106572270D01*
X146150858Y-106615385D01*
X146088418Y-106677826D01*
X146036092Y-106699500D01*
X145499801Y-106699500D01*
X145447475Y-106677826D01*
X145441093Y-106670548D01*
X145392625Y-106607384D01*
X145392623Y-106607381D01*
X145392621Y-106607380D01*
X145392621Y-106607379D01*
X145277625Y-106519139D01*
X145220258Y-106495377D01*
X145143708Y-106463669D01*
X145000000Y-106444750D01*
X144856291Y-106463669D01*
X144722376Y-106519138D01*
X144607379Y-106607379D01*
X144519138Y-106722376D01*
X144463669Y-106856291D01*
X144444750Y-107000000D01*
X143500500Y-107000000D01*
X143500500Y-105300464D01*
X143522173Y-105248139D01*
X143598140Y-105172171D01*
X143650466Y-105150498D01*
X143919863Y-105150498D01*
X143919864Y-105150498D01*
X143944991Y-105147584D01*
X144047765Y-105102205D01*
X144127206Y-105022764D01*
X144172585Y-104919990D01*
X144175500Y-104894864D01*
X144175499Y-104672147D01*
X144197173Y-104619823D01*
X144249499Y-104598149D01*
X144301825Y-104619823D01*
X144702481Y-105020479D01*
X144702483Y-105020480D01*
X144702484Y-105020481D01*
X144766675Y-105057541D01*
X144793806Y-105073206D01*
X144895667Y-105100499D01*
X144932761Y-105100499D01*
X144962650Y-105106803D01*
X145055009Y-105147584D01*
X145080135Y-105150499D01*
X146194864Y-105150498D01*
X146219991Y-105147584D01*
X146322765Y-105102205D01*
X146402206Y-105022764D01*
X146412268Y-104999975D01*
X147525001Y-104999975D01*
X147535494Y-105102695D01*
X147590642Y-105269120D01*
X147682683Y-105418342D01*
X147682686Y-105418346D01*
X147806653Y-105542313D01*
X147806656Y-105542315D01*
X147955878Y-105634356D01*
X148122302Y-105689504D01*
X148225025Y-105699998D01*
X148500000Y-105699998D01*
X149000000Y-105699998D01*
X149274971Y-105699998D01*
X149274976Y-105699997D01*
X149377696Y-105689504D01*
X149544121Y-105634356D01*
X149693343Y-105542315D01*
X149693347Y-105542313D01*
X149817314Y-105418346D01*
X149817316Y-105418342D01*
X149909357Y-105269120D01*
X149964505Y-105102696D01*
X149974999Y-104999974D01*
X149975000Y-104999972D01*
X149975000Y-104949999D01*
X149000000Y-104949999D01*
X149000000Y-105699998D01*
X148500000Y-105699998D01*
X148500000Y-104949999D01*
X147525001Y-104949999D01*
X147525001Y-104999975D01*
X146412268Y-104999975D01*
X146447585Y-104919990D01*
X146450500Y-104894864D01*
X146450499Y-104519655D01*
X146472173Y-104467330D01*
X146486830Y-104455961D01*
X146551556Y-104417682D01*
X146569215Y-104400023D01*
X147525000Y-104400023D01*
X147525000Y-104449999D01*
X148500000Y-104449999D01*
X149000000Y-104449999D01*
X149974999Y-104449999D01*
X149974999Y-104400028D01*
X149974998Y-104400022D01*
X149964505Y-104297302D01*
X149909357Y-104130877D01*
X149817316Y-103981655D01*
X149817314Y-103981652D01*
X149693347Y-103857685D01*
X149693343Y-103857682D01*
X149544121Y-103765641D01*
X149377697Y-103710493D01*
X149274975Y-103699999D01*
X149000000Y-103699999D01*
X149000000Y-104449999D01*
X148500000Y-104449999D01*
X148500000Y-103699999D01*
X148225029Y-103699999D01*
X148225023Y-103700000D01*
X148122303Y-103710493D01*
X147955878Y-103765641D01*
X147806656Y-103857682D01*
X147682683Y-103981655D01*
X147590642Y-104130877D01*
X147535494Y-104297301D01*
X147525000Y-104400023D01*
X146569215Y-104400023D01*
X146667682Y-104301556D01*
X146751281Y-104160199D01*
X146797099Y-104002493D01*
X146797296Y-104000000D01*
X145711500Y-104000000D01*
X145659174Y-103978326D01*
X145637500Y-103926000D01*
X145637500Y-103574000D01*
X145659174Y-103521674D01*
X145711500Y-103500000D01*
X146797296Y-103500000D01*
X146797099Y-103497506D01*
X146751281Y-103339801D01*
X146675800Y-103212170D01*
X146667820Y-103156098D01*
X146701826Y-103110806D01*
X146739495Y-103100501D01*
X147814304Y-103100501D01*
X147866630Y-103122175D01*
X147887393Y-103162924D01*
X147889354Y-103175306D01*
X147889354Y-103175307D01*
X147910900Y-103217592D01*
X147946950Y-103288343D01*
X148036658Y-103378051D01*
X148149696Y-103435647D01*
X148243481Y-103450501D01*
X149256518Y-103450500D01*
X149256519Y-103450500D01*
X149350304Y-103435647D01*
X149350306Y-103435646D01*
X149352419Y-103434569D01*
X149463342Y-103378051D01*
X149553050Y-103288343D01*
X149610646Y-103175305D01*
X149625500Y-103081520D01*
X149625499Y-102519034D01*
X149647173Y-102466709D01*
X149699499Y-102445035D01*
X149751825Y-102466709D01*
G37*
%TD.AperFunction*%
%TA.AperFunction,Conductor*%
G36*
X144472924Y-99377174D02*
G01*
X144494598Y-99429500D01*
X144491660Y-99450145D01*
X144477900Y-99497506D01*
X144477704Y-99500000D01*
X144000000Y-99500000D01*
X144000000Y-100250000D01*
X144576826Y-100250000D01*
X144588779Y-100270211D01*
X144596759Y-100326283D01*
X144592397Y-100338621D01*
X144534660Y-100465045D01*
X144534655Y-100465058D01*
X144514982Y-100532058D01*
X144514975Y-100532088D01*
X144494500Y-100674495D01*
X144494500Y-100876000D01*
X144506052Y-100983454D01*
X144517260Y-101034972D01*
X144517263Y-101034980D01*
X144528028Y-101067324D01*
X144523988Y-101123817D01*
X144481184Y-101160906D01*
X144424691Y-101156866D01*
X144405489Y-101143019D01*
X144197173Y-100934703D01*
X144175499Y-100882379D01*
X144175499Y-100505135D01*
X144172585Y-100480008D01*
X144127206Y-100377234D01*
X144047765Y-100297793D01*
X143944991Y-100252414D01*
X143944990Y-100252413D01*
X143944988Y-100252413D01*
X143923659Y-100249939D01*
X143919865Y-100249499D01*
X143919864Y-100249499D01*
X142805136Y-100249499D01*
X142780013Y-100252413D01*
X142780007Y-100252414D01*
X142677231Y-100297794D01*
X142671577Y-100301668D01*
X142669808Y-100299086D01*
X142627936Y-100316418D01*
X142575617Y-100294729D01*
X142553957Y-100242397D01*
X142555529Y-100231364D01*
X142554505Y-100230000D01*
X142000000Y-100230000D01*
X142000000Y-100758789D01*
X142000001Y-100758790D01*
X142020910Y-100757145D01*
X142020912Y-100757145D01*
X142176196Y-100712031D01*
X142315377Y-100629719D01*
X142423174Y-100521922D01*
X142475500Y-100500248D01*
X142527826Y-100521922D01*
X142549500Y-100574248D01*
X142549500Y-100894862D01*
X142552414Y-100919985D01*
X142552415Y-100919991D01*
X142569159Y-100957912D01*
X142597794Y-101022764D01*
X142677235Y-101102205D01*
X142780009Y-101147584D01*
X142805135Y-101150499D01*
X143532374Y-101150498D01*
X143584700Y-101172172D01*
X144842147Y-102429619D01*
X144863821Y-102481945D01*
X144857516Y-102511834D01*
X144827414Y-102580011D01*
X144824500Y-102605136D01*
X144824500Y-102980342D01*
X144802826Y-103032668D01*
X144788170Y-103044036D01*
X144723446Y-103082314D01*
X144607317Y-103198443D01*
X144523718Y-103339800D01*
X144477898Y-103497512D01*
X144477676Y-103498733D01*
X144477436Y-103499103D01*
X144476845Y-103501140D01*
X144476236Y-103500963D01*
X144446955Y-103546314D01*
X144391587Y-103558236D01*
X144352554Y-103537766D01*
X144084706Y-103269918D01*
X144063032Y-103217592D01*
X144084706Y-103165266D01*
X144093874Y-103156098D01*
X144127206Y-103122766D01*
X144172585Y-103019992D01*
X144175500Y-102994866D01*
X144175499Y-102605137D01*
X144172585Y-102580010D01*
X144127206Y-102477236D01*
X144047765Y-102397795D01*
X143944991Y-102352416D01*
X143944990Y-102352415D01*
X143944988Y-102352415D01*
X143923659Y-102349941D01*
X143919865Y-102349501D01*
X143919864Y-102349501D01*
X142805136Y-102349501D01*
X142780013Y-102352415D01*
X142780007Y-102352416D01*
X142687651Y-102393196D01*
X142657761Y-102399501D01*
X142052726Y-102399501D01*
X141947272Y-102399501D01*
X141896341Y-102413147D01*
X141845410Y-102426794D01*
X141845406Y-102426796D01*
X141754086Y-102479519D01*
X141604929Y-102628676D01*
X141562263Y-102649717D01*
X141456291Y-102663669D01*
X141322376Y-102719138D01*
X141207379Y-102807379D01*
X141119138Y-102922376D01*
X141063669Y-103056291D01*
X141044750Y-103200000D01*
X141063669Y-103343708D01*
X141107904Y-103450501D01*
X141119139Y-103477625D01*
X141207379Y-103592621D01*
X141322375Y-103680861D01*
X141456291Y-103736330D01*
X141600000Y-103755250D01*
X141743709Y-103736330D01*
X141877625Y-103680861D01*
X141962425Y-103615791D01*
X142007472Y-103600500D01*
X143251850Y-103600500D01*
X143304176Y-103622174D01*
X143805175Y-104123173D01*
X143826849Y-104175499D01*
X143805175Y-104227825D01*
X143752849Y-104249499D01*
X143603040Y-104249499D01*
X143566042Y-104239586D01*
X143555686Y-104233607D01*
X143555682Y-104233606D01*
X143555681Y-104233605D01*
X143428394Y-104199499D01*
X143428392Y-104199499D01*
X142115893Y-104199499D01*
X141984108Y-104199499D01*
X141984106Y-104199499D01*
X141856818Y-104233605D01*
X141856813Y-104233607D01*
X141742686Y-104299499D01*
X141564360Y-104477826D01*
X141512034Y-104499500D01*
X140574500Y-104499500D01*
X140522174Y-104477826D01*
X140500500Y-104425500D01*
X140500500Y-100484106D01*
X140500499Y-100484105D01*
X140495395Y-100465058D01*
X140466392Y-100356814D01*
X140400500Y-100242686D01*
X140387814Y-100230000D01*
X140945495Y-100230000D01*
X140987968Y-100376196D01*
X141070280Y-100515377D01*
X141184622Y-100629719D01*
X141323803Y-100712031D01*
X141479088Y-100757145D01*
X141499998Y-100758790D01*
X141500000Y-100758789D01*
X141500000Y-100230000D01*
X140945495Y-100230000D01*
X140387814Y-100230000D01*
X140307314Y-100149500D01*
X139839640Y-99681826D01*
X139817966Y-99629500D01*
X139839640Y-99577174D01*
X139891966Y-99555500D01*
X140897633Y-99555500D01*
X140949959Y-99577174D01*
X140971633Y-99629500D01*
X140968695Y-99650145D01*
X140945494Y-99729999D01*
X140945495Y-99730000D01*
X142554505Y-99730000D01*
X142554505Y-99729999D01*
X142512032Y-99583806D01*
X142511168Y-99582345D01*
X142511053Y-99581543D01*
X142510183Y-99579531D01*
X142510733Y-99579292D01*
X142503185Y-99526273D01*
X142530514Y-99485433D01*
X142546274Y-99473636D01*
X142642735Y-99377173D01*
X142695061Y-99355500D01*
X144420598Y-99355500D01*
X144472924Y-99377174D01*
G37*
%TD.AperFunction*%
%TA.AperFunction,Conductor*%
G36*
X146910126Y-99486956D02*
G01*
X146922877Y-99502447D01*
X146932681Y-99518342D01*
X146932686Y-99518348D01*
X147056653Y-99642315D01*
X147056656Y-99642317D01*
X147174634Y-99715087D01*
X147207791Y-99761004D01*
X147198769Y-99816918D01*
X147176898Y-99839599D01*
X147124745Y-99874446D01*
X147111953Y-99881283D01*
X147099033Y-99886635D01*
X147085154Y-99890846D01*
X147071429Y-99893577D01*
X147056988Y-99895000D01*
X146840636Y-99895000D01*
X146698224Y-99915476D01*
X146698214Y-99915478D01*
X146631188Y-99935159D01*
X146631183Y-99935161D01*
X146512390Y-99989413D01*
X146500000Y-99992108D01*
X146500000Y-99500000D01*
X146797296Y-99500000D01*
X146805555Y-99491065D01*
X146856989Y-99467353D01*
X146910126Y-99486956D01*
G37*
%TD.AperFunction*%
%TA.AperFunction,Conductor*%
G36*
X153869252Y-92522174D02*
G01*
X153890926Y-92574500D01*
X153869252Y-92626826D01*
X153855209Y-92637828D01*
X153630144Y-92773884D01*
X153441756Y-92921476D01*
X154583989Y-94063709D01*
X154450124Y-94160967D01*
X154327693Y-94283398D01*
X154230435Y-94417263D01*
X153088202Y-93275030D01*
X152940610Y-93463418D01*
X152771626Y-93742950D01*
X152771622Y-93742959D01*
X152637565Y-94040824D01*
X152540392Y-94352658D01*
X152481512Y-94673957D01*
X152461791Y-95000000D01*
X152481512Y-95326042D01*
X152540392Y-95647341D01*
X152637565Y-95959175D01*
X152771622Y-96257040D01*
X152771627Y-96257049D01*
X152940608Y-96536578D01*
X153088202Y-96724968D01*
X154230434Y-95582735D01*
X154327693Y-95716602D01*
X154450124Y-95839033D01*
X154583988Y-95936290D01*
X153441756Y-97078522D01*
X153630147Y-97226117D01*
X153909676Y-97395098D01*
X153909685Y-97395103D01*
X154207550Y-97529160D01*
X154519384Y-97626333D01*
X154840683Y-97685213D01*
X155166726Y-97704934D01*
X155492768Y-97685213D01*
X155814067Y-97626333D01*
X156125901Y-97529160D01*
X156423766Y-97395103D01*
X156423775Y-97395098D01*
X156703304Y-97226117D01*
X156891694Y-97078522D01*
X155749462Y-95936290D01*
X155883328Y-95839033D01*
X156005759Y-95716602D01*
X156103016Y-95582736D01*
X157245248Y-96724968D01*
X157367248Y-96569248D01*
X157416580Y-96541425D01*
X157471137Y-96556633D01*
X157498960Y-96605965D01*
X157499500Y-96614885D01*
X157499500Y-127385113D01*
X157477826Y-127437439D01*
X157425500Y-127459113D01*
X157373174Y-127437439D01*
X157367248Y-127430750D01*
X157245248Y-127275030D01*
X156103016Y-128417262D01*
X156005759Y-128283398D01*
X155883328Y-128160967D01*
X155749461Y-128063708D01*
X156891695Y-126921476D01*
X156703304Y-126773882D01*
X156423775Y-126604901D01*
X156423766Y-126604896D01*
X156125901Y-126470839D01*
X155814067Y-126373666D01*
X155492768Y-126314786D01*
X155166726Y-126295065D01*
X154840683Y-126314786D01*
X154519384Y-126373666D01*
X154207550Y-126470839D01*
X153909685Y-126604896D01*
X153909676Y-126604900D01*
X153630144Y-126773884D01*
X153441756Y-126921476D01*
X154583989Y-128063709D01*
X154450124Y-128160967D01*
X154327693Y-128283398D01*
X154230435Y-128417263D01*
X153088202Y-127275030D01*
X152940610Y-127463418D01*
X152771626Y-127742950D01*
X152771622Y-127742959D01*
X152637565Y-128040824D01*
X152540392Y-128352658D01*
X152481512Y-128673957D01*
X152461791Y-129000000D01*
X152481512Y-129326042D01*
X152540392Y-129647341D01*
X152637565Y-129959175D01*
X152771622Y-130257040D01*
X152771627Y-130257049D01*
X152940608Y-130536578D01*
X153088202Y-130724968D01*
X154230434Y-129582735D01*
X154327693Y-129716602D01*
X154450124Y-129839033D01*
X154583988Y-129936290D01*
X153441756Y-131078522D01*
X153630147Y-131226117D01*
X153855209Y-131362172D01*
X153888776Y-131407791D01*
X153880254Y-131463783D01*
X153834635Y-131497350D01*
X153816926Y-131499500D01*
X132349800Y-131499500D01*
X132297474Y-131477826D01*
X132275800Y-131425500D01*
X132297474Y-131373174D01*
X132311517Y-131362172D01*
X132536578Y-131226117D01*
X132724968Y-131078522D01*
X131582736Y-129936290D01*
X131716602Y-129839033D01*
X131839033Y-129716602D01*
X131936290Y-129582736D01*
X133078522Y-130724968D01*
X133226117Y-130536578D01*
X133395098Y-130257049D01*
X133395103Y-130257040D01*
X133421752Y-130197828D01*
X138600000Y-130197828D01*
X138606402Y-130257375D01*
X138606403Y-130257380D01*
X138656645Y-130392087D01*
X138656646Y-130392088D01*
X138742811Y-130507188D01*
X138857911Y-130593353D01*
X138857912Y-130593354D01*
X138992619Y-130643596D01*
X138992624Y-130643597D01*
X139052171Y-130650000D01*
X139750000Y-130650000D01*
X140250000Y-130650000D01*
X140947829Y-130650000D01*
X141007375Y-130643597D01*
X141007380Y-130643596D01*
X141142087Y-130593354D01*
X141142088Y-130593353D01*
X141257188Y-130507188D01*
X141343353Y-130392088D01*
X141343354Y-130392087D01*
X141393596Y-130257380D01*
X141393597Y-130257375D01*
X141400000Y-130197828D01*
X148300000Y-130197828D01*
X148306402Y-130257375D01*
X148306403Y-130257380D01*
X148356645Y-130392087D01*
X148356646Y-130392088D01*
X148442811Y-130507188D01*
X148557911Y-130593353D01*
X148557912Y-130593354D01*
X148692619Y-130643596D01*
X148692624Y-130643597D01*
X148752171Y-130650000D01*
X149450000Y-130650000D01*
X149950000Y-130650000D01*
X150647829Y-130650000D01*
X150707375Y-130643597D01*
X150707380Y-130643596D01*
X150842087Y-130593354D01*
X150842088Y-130593353D01*
X150957188Y-130507188D01*
X151043353Y-130392088D01*
X151043354Y-130392087D01*
X151093596Y-130257380D01*
X151093597Y-130257375D01*
X151100000Y-130197828D01*
X151100000Y-128500000D01*
X149950000Y-128500000D01*
X149950000Y-130650000D01*
X149450000Y-130650000D01*
X149450000Y-128500000D01*
X148300000Y-128500000D01*
X148300000Y-130197828D01*
X141400000Y-130197828D01*
X141400000Y-128500000D01*
X140250000Y-128500000D01*
X140250000Y-130650000D01*
X139750000Y-130650000D01*
X139750000Y-128500000D01*
X138600000Y-128500000D01*
X138600000Y-130197828D01*
X133421752Y-130197828D01*
X133529160Y-129959175D01*
X133626333Y-129647341D01*
X133685213Y-129326042D01*
X133704934Y-129000000D01*
X133685213Y-128673957D01*
X133626333Y-128352658D01*
X133529160Y-128040824D01*
X133395103Y-127742959D01*
X133395098Y-127742950D01*
X133337595Y-127647828D01*
X134100000Y-127647828D01*
X134106402Y-127707375D01*
X134106403Y-127707380D01*
X134156645Y-127842087D01*
X134156646Y-127842088D01*
X134242811Y-127957188D01*
X134357911Y-128043353D01*
X134357912Y-128043354D01*
X134492619Y-128093596D01*
X134492624Y-128093597D01*
X134552171Y-128100000D01*
X135350000Y-128100000D01*
X135850000Y-128100000D01*
X136647829Y-128100000D01*
X136707375Y-128093597D01*
X136707380Y-128093596D01*
X136842087Y-128043354D01*
X136842088Y-128043353D01*
X136957188Y-127957188D01*
X137043353Y-127842088D01*
X137043354Y-127842087D01*
X137093596Y-127707380D01*
X137093597Y-127707375D01*
X137100000Y-127647828D01*
X137100000Y-126850000D01*
X135850000Y-126850000D01*
X135850000Y-128100000D01*
X135350000Y-128100000D01*
X135350000Y-126850000D01*
X134100000Y-126850000D01*
X134100000Y-127647828D01*
X133337595Y-127647828D01*
X133226117Y-127463421D01*
X133078522Y-127275030D01*
X131936290Y-128417262D01*
X131839033Y-128283398D01*
X131716602Y-128160967D01*
X131582735Y-128063708D01*
X132724969Y-126921476D01*
X132536578Y-126773882D01*
X132257049Y-126604901D01*
X132257040Y-126604896D01*
X131959175Y-126470839D01*
X131647341Y-126373666D01*
X131326042Y-126314786D01*
X131000000Y-126295065D01*
X130673957Y-126314786D01*
X130352658Y-126373666D01*
X130040824Y-126470839D01*
X129742959Y-126604896D01*
X129742950Y-126604900D01*
X129463418Y-126773884D01*
X129275030Y-126921476D01*
X130417263Y-128063709D01*
X130283398Y-128160967D01*
X130160967Y-128283398D01*
X130063709Y-128417263D01*
X128921476Y-127275030D01*
X128773884Y-127463418D01*
X128637828Y-127688483D01*
X128592209Y-127722050D01*
X128536217Y-127713528D01*
X128502650Y-127667909D01*
X128500500Y-127650200D01*
X128500500Y-125552171D01*
X134100000Y-125552171D01*
X134100000Y-126350000D01*
X135350000Y-126350000D01*
X135850000Y-126350000D01*
X137100000Y-126350000D01*
X137100000Y-126302171D01*
X138600000Y-126302171D01*
X138600000Y-128000000D01*
X139750000Y-128000000D01*
X140250000Y-128000000D01*
X141400000Y-128000000D01*
X141400000Y-126302171D01*
X148300000Y-126302171D01*
X148300000Y-128000000D01*
X149450000Y-128000000D01*
X149950000Y-128000000D01*
X151100000Y-128000000D01*
X151100000Y-126302171D01*
X151093597Y-126242624D01*
X151093596Y-126242619D01*
X151043354Y-126107912D01*
X151043353Y-126107911D01*
X150957188Y-125992811D01*
X150842088Y-125906646D01*
X150842087Y-125906645D01*
X150707380Y-125856403D01*
X150707375Y-125856402D01*
X150647829Y-125850000D01*
X149950000Y-125850000D01*
X149950000Y-128000000D01*
X149450000Y-128000000D01*
X149450000Y-125850000D01*
X148752171Y-125850000D01*
X148692624Y-125856402D01*
X148692619Y-125856403D01*
X148557912Y-125906645D01*
X148557911Y-125906646D01*
X148442811Y-125992811D01*
X148356646Y-126107911D01*
X148356645Y-126107912D01*
X148306403Y-126242619D01*
X148306402Y-126242624D01*
X148300000Y-126302171D01*
X141400000Y-126302171D01*
X141393597Y-126242624D01*
X141393596Y-126242619D01*
X141343354Y-126107912D01*
X141343353Y-126107911D01*
X141257188Y-125992811D01*
X141142088Y-125906646D01*
X141142087Y-125906645D01*
X141007380Y-125856403D01*
X141007375Y-125856402D01*
X140947829Y-125850000D01*
X140250000Y-125850000D01*
X140250000Y-128000000D01*
X139750000Y-128000000D01*
X139750000Y-125850000D01*
X139052171Y-125850000D01*
X138992624Y-125856402D01*
X138992619Y-125856403D01*
X138857912Y-125906645D01*
X138857911Y-125906646D01*
X138742811Y-125992811D01*
X138656646Y-126107911D01*
X138656645Y-126107912D01*
X138606403Y-126242619D01*
X138606402Y-126242624D01*
X138600000Y-126302171D01*
X137100000Y-126302171D01*
X137100000Y-125552171D01*
X137093597Y-125492624D01*
X137093596Y-125492619D01*
X137043354Y-125357912D01*
X137043353Y-125357911D01*
X136957188Y-125242811D01*
X136842088Y-125156646D01*
X136842087Y-125156645D01*
X136707380Y-125106403D01*
X136707375Y-125106402D01*
X136647829Y-125100000D01*
X135850000Y-125100000D01*
X135850000Y-126350000D01*
X135350000Y-126350000D01*
X135350000Y-125100000D01*
X134552171Y-125100000D01*
X134492624Y-125106402D01*
X134492619Y-125106403D01*
X134357912Y-125156645D01*
X134357911Y-125156646D01*
X134242811Y-125242811D01*
X134156646Y-125357911D01*
X134156645Y-125357912D01*
X134106403Y-125492619D01*
X134106402Y-125492624D01*
X134100000Y-125552171D01*
X128500500Y-125552171D01*
X128500500Y-125047828D01*
X141700000Y-125047828D01*
X141706402Y-125107375D01*
X141706403Y-125107380D01*
X141756645Y-125242087D01*
X141756646Y-125242088D01*
X141842811Y-125357188D01*
X141957911Y-125443353D01*
X141957912Y-125443354D01*
X142092619Y-125493596D01*
X142092624Y-125493597D01*
X142152171Y-125500000D01*
X142350000Y-125500000D01*
X142350000Y-123800000D01*
X141700000Y-123800000D01*
X141700000Y-125047828D01*
X128500500Y-125047828D01*
X128500500Y-119409999D01*
X129494363Y-119409999D01*
X129494364Y-119410000D01*
X130391988Y-119410000D01*
X130359075Y-119467007D01*
X130325000Y-119594174D01*
X130325000Y-119725826D01*
X130359075Y-119852993D01*
X130391988Y-119910000D01*
X129494363Y-119910000D01*
X129551566Y-120123483D01*
X129551571Y-120123494D01*
X129651401Y-120337579D01*
X129786888Y-120531075D01*
X129953924Y-120698111D01*
X130147420Y-120833599D01*
X130210326Y-120862933D01*
X130248589Y-120904691D01*
X130246119Y-120961274D01*
X130210327Y-120997066D01*
X130147423Y-121026399D01*
X129953921Y-121161890D01*
X129786890Y-121328921D01*
X129651401Y-121522421D01*
X129551567Y-121736512D01*
X129494363Y-121949999D01*
X129494364Y-121950000D01*
X130391988Y-121950000D01*
X130359075Y-122007007D01*
X130325000Y-122134174D01*
X130325000Y-122265826D01*
X130359075Y-122392993D01*
X130391988Y-122450000D01*
X129494363Y-122450000D01*
X129551566Y-122663483D01*
X129551571Y-122663494D01*
X129651401Y-122877579D01*
X129786888Y-123071075D01*
X129953924Y-123238111D01*
X130147420Y-123373598D01*
X130361505Y-123473428D01*
X130361508Y-123473430D01*
X130575000Y-123530634D01*
X130575000Y-122633012D01*
X130632007Y-122665925D01*
X130759174Y-122700000D01*
X130890826Y-122700000D01*
X131017993Y-122665925D01*
X131075000Y-122633012D01*
X131075000Y-123530634D01*
X131288491Y-123473430D01*
X131288494Y-123473428D01*
X131502579Y-123373598D01*
X131696075Y-123238111D01*
X131863111Y-123071075D01*
X131998598Y-122877579D01*
X132098428Y-122663494D01*
X132098433Y-122663483D01*
X132155636Y-122450000D01*
X131258012Y-122450000D01*
X131290925Y-122392993D01*
X131325000Y-122265826D01*
X131325000Y-122134174D01*
X131303027Y-122052171D01*
X141700000Y-122052171D01*
X141700000Y-123300000D01*
X142350000Y-123300000D01*
X142350000Y-121600000D01*
X142152171Y-121600000D01*
X142092624Y-121606402D01*
X142092619Y-121606403D01*
X141957912Y-121656645D01*
X141957911Y-121656646D01*
X141842811Y-121742811D01*
X141756646Y-121857911D01*
X141756645Y-121857912D01*
X141706403Y-121992619D01*
X141706402Y-121992624D01*
X141700000Y-122052171D01*
X131303027Y-122052171D01*
X131290925Y-122007007D01*
X131258012Y-121950000D01*
X132155636Y-121950000D01*
X132155636Y-121949999D01*
X132098432Y-121736512D01*
X131998598Y-121522421D01*
X131863109Y-121328921D01*
X131696075Y-121161888D01*
X131696076Y-121161888D01*
X131502579Y-121026401D01*
X131439673Y-120997067D01*
X131401410Y-120955309D01*
X131403880Y-120898726D01*
X131439673Y-120862933D01*
X131502579Y-120833598D01*
X131696075Y-120698111D01*
X131863111Y-120531075D01*
X131998598Y-120337579D01*
X132098428Y-120123494D01*
X132098433Y-120123483D01*
X132155636Y-119910000D01*
X131258012Y-119910000D01*
X131290925Y-119852993D01*
X131325000Y-119725826D01*
X131325000Y-119594174D01*
X131290925Y-119467007D01*
X131258012Y-119410000D01*
X132155636Y-119410000D01*
X132155636Y-119409999D01*
X132098432Y-119196512D01*
X131998598Y-118982421D01*
X131863109Y-118788921D01*
X131696075Y-118621888D01*
X131696076Y-118621888D01*
X131502579Y-118486401D01*
X131288494Y-118386571D01*
X131288483Y-118386566D01*
X131075000Y-118329363D01*
X131075000Y-119226988D01*
X131017993Y-119194075D01*
X130890826Y-119160000D01*
X130759174Y-119160000D01*
X130632007Y-119194075D01*
X130575000Y-119226988D01*
X130575000Y-118329363D01*
X130574999Y-118329363D01*
X130361512Y-118386567D01*
X130147421Y-118486401D01*
X129953921Y-118621890D01*
X129786890Y-118788921D01*
X129651401Y-118982421D01*
X129551567Y-119196512D01*
X129494363Y-119409999D01*
X128500500Y-119409999D01*
X128500500Y-110051357D01*
X129044500Y-110051357D01*
X129044500Y-117148655D01*
X129045390Y-117165249D01*
X129045391Y-117165269D01*
X129048225Y-117191620D01*
X129066351Y-117249510D01*
X129066357Y-117249524D01*
X129099836Y-117310837D01*
X129099840Y-117310842D01*
X129126364Y-117346274D01*
X129853726Y-118073636D01*
X129866111Y-118084761D01*
X129886753Y-118101395D01*
X129940512Y-118129516D01*
X130007551Y-118149201D01*
X130051362Y-118155500D01*
X130051368Y-118155500D01*
X131348620Y-118155500D01*
X131348638Y-118155500D01*
X131365261Y-118154609D01*
X131391619Y-118151775D01*
X131437391Y-118137442D01*
X131449510Y-118133648D01*
X131449511Y-118133647D01*
X131449519Y-118133645D01*
X131488243Y-118112500D01*
X131510837Y-118100163D01*
X131510838Y-118100162D01*
X131510842Y-118100160D01*
X131546274Y-118073636D01*
X132273636Y-117346274D01*
X132284761Y-117333889D01*
X132301395Y-117313247D01*
X132329516Y-117259488D01*
X132349201Y-117192449D01*
X132355500Y-117148638D01*
X132355500Y-110434552D01*
X132377174Y-110382226D01*
X132429500Y-110360552D01*
X132481826Y-110382226D01*
X133656914Y-111557314D01*
X133750100Y-111650500D01*
X133808311Y-111684108D01*
X133864228Y-111716392D01*
X133864229Y-111716392D01*
X133864231Y-111716393D01*
X133918227Y-111730861D01*
X133991518Y-111750499D01*
X133991519Y-111750500D01*
X133991521Y-111750500D01*
X133991522Y-111750500D01*
X134755070Y-111750500D01*
X134783387Y-111756132D01*
X134856291Y-111786330D01*
X135000000Y-111805250D01*
X135143709Y-111786330D01*
X135277625Y-111730861D01*
X135392621Y-111642621D01*
X135480861Y-111527625D01*
X135536330Y-111393709D01*
X135555250Y-111250000D01*
X135536330Y-111106291D01*
X135480861Y-110972375D01*
X135392621Y-110857379D01*
X135277625Y-110769139D01*
X135237247Y-110752414D01*
X135143708Y-110713669D01*
X135000000Y-110694750D01*
X134856291Y-110713669D01*
X134783388Y-110743867D01*
X134755070Y-110749500D01*
X134295380Y-110749500D01*
X134243054Y-110727826D01*
X134115150Y-110599922D01*
X134093476Y-110547596D01*
X134115150Y-110495270D01*
X134159956Y-110473979D01*
X134252699Y-110464505D01*
X134419123Y-110409357D01*
X134568345Y-110317316D01*
X134568349Y-110317314D01*
X134692316Y-110193347D01*
X134692318Y-110193343D01*
X134784359Y-110044121D01*
X134839507Y-109877697D01*
X134850001Y-109774975D01*
X134850002Y-109774973D01*
X134850002Y-109500000D01*
X133924002Y-109500000D01*
X133871676Y-109478326D01*
X133850002Y-109426000D01*
X133850002Y-109250000D01*
X133674002Y-109250000D01*
X133621676Y-109228326D01*
X133600002Y-109176000D01*
X133600002Y-108138463D01*
X133621675Y-108086137D01*
X133682812Y-108025000D01*
X134100002Y-108025000D01*
X134100002Y-109000000D01*
X134850001Y-109000000D01*
X134850001Y-108725029D01*
X134850000Y-108725023D01*
X134839507Y-108622303D01*
X134784359Y-108455878D01*
X134692318Y-108306656D01*
X134692316Y-108306653D01*
X134568349Y-108182686D01*
X134568345Y-108182683D01*
X134419122Y-108090641D01*
X134292759Y-108048769D01*
X134259478Y-108020008D01*
X134257158Y-108022889D01*
X134214173Y-108031558D01*
X134149979Y-108025000D01*
X134100002Y-108025000D01*
X133682812Y-108025000D01*
X133918679Y-107789133D01*
X133971004Y-107767460D01*
X134011011Y-107779207D01*
X134106080Y-107840304D01*
X134106093Y-107840311D01*
X134130243Y-107851339D01*
X134146347Y-107858694D01*
X134242542Y-107886939D01*
X134279255Y-107916524D01*
X134282824Y-107912396D01*
X134325461Y-107905457D01*
X134325472Y-107905311D01*
X134326089Y-107905355D01*
X134326564Y-107905278D01*
X134327232Y-107905373D01*
X134328111Y-107905500D01*
X134328115Y-107905500D01*
X134950002Y-107905500D01*
X134950002Y-107905499D01*
X135027750Y-107884667D01*
X135027753Y-107884663D01*
X135036187Y-107879795D01*
X135037300Y-107881723D01*
X135078335Y-107864718D01*
X135119459Y-107877188D01*
X135141278Y-107891767D01*
X135185180Y-107900500D01*
X135225500Y-107900500D01*
X135277826Y-107922174D01*
X135299500Y-107974500D01*
X135299500Y-108382321D01*
X135277826Y-108434647D01*
X135266104Y-108443164D01*
X135266368Y-108443528D01*
X135261658Y-108446949D01*
X135171951Y-108536656D01*
X135171950Y-108536658D01*
X135128312Y-108622303D01*
X135114353Y-108649698D01*
X135099500Y-108743480D01*
X135099500Y-109756519D01*
X135114353Y-109850304D01*
X135114354Y-109850306D01*
X135161425Y-109942686D01*
X135171950Y-109963342D01*
X135261658Y-110053050D01*
X135374696Y-110110646D01*
X135468481Y-110125500D01*
X136028454Y-110125499D01*
X136080780Y-110147173D01*
X139113515Y-113179908D01*
X139135189Y-113232234D01*
X139113515Y-113284560D01*
X139061189Y-113306234D01*
X139032871Y-113300601D01*
X138943708Y-113263669D01*
X138818919Y-113247240D01*
X138800000Y-113244750D01*
X138799999Y-113244750D01*
X138721056Y-113255142D01*
X138666349Y-113240483D01*
X138659072Y-113234101D01*
X138394512Y-112969541D01*
X138369759Y-112955250D01*
X138325991Y-112929980D01*
X138325986Y-112929978D01*
X138249565Y-112909501D01*
X138249563Y-112909501D01*
X137236505Y-112909501D01*
X137184179Y-112887827D01*
X137165027Y-112854654D01*
X137148258Y-112792073D01*
X137148257Y-112792069D01*
X137058240Y-112599026D01*
X136936068Y-112424547D01*
X136785454Y-112273933D01*
X136785451Y-112273931D01*
X136785452Y-112273931D01*
X136720051Y-112228137D01*
X136610975Y-112151761D01*
X136417932Y-112061744D01*
X136417930Y-112061743D01*
X136417927Y-112061742D01*
X136212192Y-112006615D01*
X136212185Y-112006614D01*
X136000005Y-111988051D01*
X135999995Y-111988051D01*
X135787814Y-112006614D01*
X135787807Y-112006615D01*
X135582072Y-112061742D01*
X135543149Y-112079891D01*
X135389025Y-112151761D01*
X135389024Y-112151762D01*
X135214548Y-112273931D01*
X135063930Y-112424549D01*
X135026625Y-112477826D01*
X134941760Y-112599026D01*
X134879672Y-112732174D01*
X134851741Y-112792073D01*
X134796614Y-112997808D01*
X134796613Y-112997815D01*
X134778050Y-113209995D01*
X134778050Y-113210006D01*
X134796613Y-113422186D01*
X134796614Y-113422193D01*
X134851741Y-113627928D01*
X134851742Y-113627931D01*
X134851743Y-113627933D01*
X134941760Y-113820976D01*
X135063932Y-113995455D01*
X135214546Y-114146069D01*
X135389025Y-114268241D01*
X135582068Y-114358258D01*
X135582072Y-114358259D01*
X135769654Y-114408522D01*
X135814587Y-114443000D01*
X135821979Y-114499153D01*
X135787501Y-114544086D01*
X135769654Y-114551478D01*
X135582072Y-114601741D01*
X135582068Y-114601743D01*
X135389025Y-114691760D01*
X135389024Y-114691761D01*
X135214548Y-114813930D01*
X135063930Y-114964548D01*
X135011746Y-115039075D01*
X134941760Y-115139025D01*
X134869890Y-115293149D01*
X134851741Y-115332072D01*
X134796614Y-115537807D01*
X134796613Y-115537814D01*
X134778050Y-115749994D01*
X134778050Y-115750005D01*
X134796613Y-115962185D01*
X134796614Y-115962192D01*
X134851741Y-116167927D01*
X134851742Y-116167930D01*
X134851743Y-116167932D01*
X134941760Y-116360975D01*
X135063932Y-116535454D01*
X135214546Y-116686068D01*
X135389025Y-116808240D01*
X135582068Y-116898257D01*
X135582072Y-116898258D01*
X135769655Y-116948522D01*
X135814588Y-116983000D01*
X135821980Y-117039153D01*
X135787502Y-117084086D01*
X135769655Y-117091478D01*
X135582072Y-117141741D01*
X135567273Y-117148642D01*
X135389025Y-117231760D01*
X135341812Y-117264819D01*
X135214548Y-117353930D01*
X135063930Y-117504548D01*
X135019848Y-117567504D01*
X134941760Y-117679025D01*
X134869890Y-117833149D01*
X134851741Y-117872072D01*
X134796614Y-118077807D01*
X134796613Y-118077814D01*
X134778050Y-118289994D01*
X134778050Y-118290005D01*
X134796613Y-118502185D01*
X134796614Y-118502192D01*
X134851741Y-118707927D01*
X134851742Y-118707930D01*
X134851743Y-118707932D01*
X134941760Y-118900975D01*
X135063932Y-119075454D01*
X135214546Y-119226068D01*
X135389025Y-119348240D01*
X135582068Y-119438257D01*
X135787811Y-119493386D01*
X135867381Y-119500347D01*
X135999995Y-119511950D01*
X136000000Y-119511950D01*
X136000005Y-119511950D01*
X136117882Y-119501636D01*
X136212189Y-119493386D01*
X136417932Y-119438257D01*
X136610975Y-119348240D01*
X136785454Y-119226068D01*
X136936068Y-119075454D01*
X137058240Y-118900975D01*
X137148257Y-118707932D01*
X137203386Y-118502189D01*
X137203578Y-118500000D01*
X137944750Y-118500000D01*
X137963669Y-118643708D01*
X138008316Y-118751495D01*
X138019139Y-118777625D01*
X138107379Y-118892621D01*
X138222375Y-118980861D01*
X138356291Y-119036330D01*
X138500000Y-119055250D01*
X138643709Y-119036330D01*
X138777625Y-118980861D01*
X138892621Y-118892621D01*
X138960277Y-118804450D01*
X139009325Y-118776133D01*
X139018984Y-118775500D01*
X139284651Y-118775500D01*
X139336977Y-118797174D01*
X139352345Y-118819608D01*
X139365385Y-118849141D01*
X139440860Y-118924616D01*
X139538503Y-118967730D01*
X139562378Y-118970500D01*
X139917623Y-118970499D01*
X139941499Y-118967730D01*
X140039142Y-118924616D01*
X140114617Y-118849141D01*
X140157731Y-118751498D01*
X140160501Y-118727623D01*
X140160500Y-118272380D01*
X140339499Y-118272380D01*
X140339499Y-118727622D01*
X140342268Y-118751495D01*
X140342268Y-118751497D01*
X140342269Y-118751498D01*
X140385383Y-118849141D01*
X140460858Y-118924616D01*
X140558501Y-118967730D01*
X140582376Y-118970500D01*
X140937621Y-118970499D01*
X140961497Y-118967730D01*
X141059140Y-118924616D01*
X141134615Y-118849141D01*
X141136615Y-118844610D01*
X141177576Y-118805498D01*
X141204310Y-118800500D01*
X142050501Y-118800500D01*
X142102827Y-118822174D01*
X142124501Y-118874500D01*
X142124501Y-119077132D01*
X142124502Y-119077136D01*
X142140485Y-119157495D01*
X142140485Y-119157496D01*
X142180986Y-119218108D01*
X142201376Y-119248624D01*
X142292505Y-119309515D01*
X142372867Y-119325500D01*
X142677132Y-119325499D01*
X142757495Y-119309515D01*
X142759383Y-119308252D01*
X142761613Y-119307809D01*
X142764231Y-119306725D01*
X142764446Y-119307245D01*
X142814931Y-119297199D01*
X142862025Y-119328661D01*
X142874500Y-119369778D01*
X142874500Y-119719194D01*
X142852826Y-119771520D01*
X142817146Y-119788782D01*
X142817711Y-119790856D01*
X142812340Y-119792317D01*
X142712983Y-119836187D01*
X142636187Y-119912983D01*
X142592318Y-120012337D01*
X142589500Y-120036630D01*
X142589500Y-120463372D01*
X142592317Y-120487659D01*
X142592317Y-120487661D01*
X142592318Y-120487662D01*
X142636187Y-120587016D01*
X142712984Y-120663813D01*
X142812338Y-120707682D01*
X142836627Y-120710500D01*
X142854873Y-120710499D01*
X142907199Y-120732171D01*
X142907202Y-120732173D01*
X143777826Y-121602797D01*
X143799500Y-121655123D01*
X143799500Y-121875500D01*
X143777826Y-121927826D01*
X143725500Y-121949500D01*
X143685180Y-121949500D01*
X143650216Y-121956455D01*
X143641278Y-121958233D01*
X143590553Y-121992125D01*
X143535004Y-122003173D01*
X143487912Y-121971706D01*
X143480108Y-121956455D01*
X143443354Y-121857912D01*
X143443353Y-121857911D01*
X143357188Y-121742811D01*
X143242088Y-121656646D01*
X143242087Y-121656645D01*
X143107380Y-121606403D01*
X143107375Y-121606402D01*
X143047829Y-121600000D01*
X142850000Y-121600000D01*
X142850000Y-125500000D01*
X143047829Y-125500000D01*
X143107375Y-125493597D01*
X143107380Y-125493596D01*
X143242087Y-125443354D01*
X143242088Y-125443353D01*
X143357188Y-125357188D01*
X143443353Y-125242088D01*
X143443354Y-125242087D01*
X143480108Y-125143544D01*
X143518701Y-125102091D01*
X143575302Y-125100070D01*
X143590554Y-125107875D01*
X143618865Y-125126791D01*
X143641278Y-125141767D01*
X143685180Y-125150500D01*
X143685181Y-125150500D01*
X144514819Y-125150500D01*
X144514820Y-125150500D01*
X144558722Y-125141767D01*
X144608504Y-125108504D01*
X144641767Y-125058722D01*
X144650500Y-125014820D01*
X144650500Y-122085180D01*
X144641767Y-122041278D01*
X144608504Y-121991496D01*
X144558722Y-121958233D01*
X144514820Y-121949500D01*
X144514819Y-121949500D01*
X144474500Y-121949500D01*
X144422174Y-121927826D01*
X144400500Y-121875500D01*
X144400500Y-121584122D01*
X144422174Y-121531796D01*
X144474500Y-121510122D01*
X144526826Y-121531796D01*
X145027826Y-122032796D01*
X145049500Y-122085122D01*
X145049500Y-125014819D01*
X145058233Y-125058722D01*
X145091075Y-125107875D01*
X145091496Y-125108504D01*
X145141278Y-125141767D01*
X145185180Y-125150500D01*
X145185181Y-125150500D01*
X146014819Y-125150500D01*
X146014820Y-125150500D01*
X146058722Y-125141767D01*
X146108504Y-125108504D01*
X146141767Y-125058722D01*
X146150500Y-125014820D01*
X146150500Y-122295545D01*
X146172174Y-122243219D01*
X146224500Y-122221545D01*
X146276826Y-122243219D01*
X146527826Y-122494219D01*
X146549500Y-122546545D01*
X146549500Y-125014819D01*
X146558233Y-125058722D01*
X146591075Y-125107875D01*
X146591496Y-125108504D01*
X146641278Y-125141767D01*
X146685180Y-125150500D01*
X146685181Y-125150500D01*
X147514819Y-125150500D01*
X147514820Y-125150500D01*
X147558722Y-125141767D01*
X147608504Y-125108504D01*
X147641767Y-125058722D01*
X147650500Y-125014820D01*
X147650500Y-122085180D01*
X147641767Y-122041278D01*
X147608504Y-121991496D01*
X147558722Y-121958233D01*
X147514820Y-121949500D01*
X147514819Y-121949500D01*
X147146545Y-121949500D01*
X147094219Y-121927826D01*
X146864221Y-121697828D01*
X151450000Y-121697828D01*
X151456402Y-121757375D01*
X151456403Y-121757380D01*
X151506645Y-121892087D01*
X151506646Y-121892088D01*
X151592811Y-122007188D01*
X151707911Y-122093353D01*
X151707912Y-122093354D01*
X151842619Y-122143596D01*
X151842624Y-122143597D01*
X151902171Y-122150000D01*
X152500000Y-122150000D01*
X153000000Y-122150000D01*
X153597829Y-122150000D01*
X153657375Y-122143597D01*
X153657380Y-122143596D01*
X153792087Y-122093354D01*
X153792088Y-122093353D01*
X153907188Y-122007188D01*
X153993353Y-121892088D01*
X153993354Y-121892087D01*
X154043596Y-121757380D01*
X154043597Y-121757375D01*
X154050000Y-121697828D01*
X154050000Y-120400000D01*
X153000000Y-120400000D01*
X153000000Y-122150000D01*
X152500000Y-122150000D01*
X152500000Y-120400000D01*
X151450000Y-120400000D01*
X151450000Y-121697828D01*
X146864221Y-121697828D01*
X146171322Y-121004929D01*
X146150281Y-120962262D01*
X146136330Y-120856291D01*
X146084919Y-120732173D01*
X146080861Y-120722375D01*
X145992621Y-120607379D01*
X145877625Y-120519139D01*
X145877623Y-120519138D01*
X145743708Y-120463669D01*
X145600000Y-120444750D01*
X145456291Y-120463669D01*
X145322376Y-120519138D01*
X145207379Y-120607379D01*
X145119138Y-120722376D01*
X145063669Y-120856291D01*
X145044750Y-121000000D01*
X145044750Y-121000002D01*
X145046584Y-121013936D01*
X145031924Y-121068643D01*
X144982874Y-121096960D01*
X144928167Y-121082300D01*
X144920891Y-121075919D01*
X144420539Y-120575567D01*
X144398865Y-120523241D01*
X144405172Y-120493348D01*
X144407679Y-120487668D01*
X144407681Y-120487664D01*
X144407680Y-120487664D01*
X144407682Y-120487662D01*
X144410500Y-120463373D01*
X144410499Y-120036628D01*
X144407682Y-120012338D01*
X144363813Y-119912984D01*
X144287016Y-119836187D01*
X144219556Y-119806400D01*
X144180444Y-119765438D01*
X144181752Y-119708816D01*
X144205017Y-119679529D01*
X144224999Y-119664526D01*
X144725000Y-119664526D01*
X144850191Y-119628154D01*
X144986111Y-119547771D01*
X145097771Y-119436111D01*
X145178154Y-119300191D01*
X145222210Y-119148551D01*
X145225000Y-119113110D01*
X145225000Y-118612500D01*
X144725000Y-118612500D01*
X144725000Y-119664526D01*
X144224999Y-119664526D01*
X144225000Y-119664525D01*
X144225000Y-119085844D01*
X144225357Y-119078588D01*
X144225499Y-119077136D01*
X144225500Y-119077133D01*
X144225500Y-118602171D01*
X151450000Y-118602171D01*
X151450000Y-119900000D01*
X152500000Y-119900000D01*
X153000000Y-119900000D01*
X154050000Y-119900000D01*
X154050000Y-118602171D01*
X154043597Y-118542624D01*
X154043596Y-118542619D01*
X153993354Y-118407912D01*
X153993353Y-118407911D01*
X153907188Y-118292811D01*
X153792088Y-118206646D01*
X153792087Y-118206645D01*
X153657380Y-118156403D01*
X153657375Y-118156402D01*
X153597829Y-118150000D01*
X153000000Y-118150000D01*
X153000000Y-119900000D01*
X152500000Y-119900000D01*
X152500000Y-118150000D01*
X151902171Y-118150000D01*
X151842624Y-118156402D01*
X151842619Y-118156403D01*
X151707912Y-118206645D01*
X151707911Y-118206646D01*
X151592811Y-118292811D01*
X151506646Y-118407911D01*
X151506645Y-118407912D01*
X151456403Y-118542619D01*
X151456402Y-118542624D01*
X151450000Y-118602171D01*
X144225500Y-118602171D01*
X144225499Y-118112500D01*
X144725000Y-118112500D01*
X145225000Y-118112500D01*
X145225000Y-117611889D01*
X145222210Y-117576448D01*
X145178154Y-117424808D01*
X145097771Y-117288888D01*
X144986111Y-117177228D01*
X144850191Y-117096845D01*
X144725000Y-117060473D01*
X144725000Y-118112500D01*
X144225499Y-118112500D01*
X144225499Y-117647868D01*
X144225499Y-117647867D01*
X144225499Y-117647862D01*
X144225356Y-117646409D01*
X144225000Y-117639162D01*
X144225000Y-117060473D01*
X144099808Y-117096845D01*
X143963888Y-117177228D01*
X143852227Y-117288889D01*
X143808298Y-117363169D01*
X143763006Y-117397175D01*
X143744604Y-117399500D01*
X143672868Y-117399500D01*
X143592504Y-117415485D01*
X143541112Y-117449825D01*
X143485563Y-117460874D01*
X143458888Y-117449825D01*
X143407495Y-117415485D01*
X143327133Y-117399500D01*
X143327131Y-117399500D01*
X143022869Y-117399500D01*
X142942504Y-117415485D01*
X142891112Y-117449825D01*
X142835563Y-117460874D01*
X142808888Y-117449825D01*
X142757495Y-117415485D01*
X142677133Y-117399500D01*
X142677131Y-117399500D01*
X142372869Y-117399500D01*
X142292504Y-117415485D01*
X142292503Y-117415485D01*
X142201377Y-117476375D01*
X142201375Y-117476377D01*
X142140485Y-117567504D01*
X142124500Y-117647868D01*
X142124500Y-118125500D01*
X142102826Y-118177826D01*
X142050500Y-118199500D01*
X141204310Y-118199500D01*
X141151984Y-118177826D01*
X141136616Y-118155391D01*
X141134615Y-118150859D01*
X141059140Y-118075384D01*
X140961497Y-118032270D01*
X140937622Y-118029500D01*
X140937618Y-118029500D01*
X140582376Y-118029500D01*
X140558503Y-118032269D01*
X140460857Y-118075384D01*
X140385384Y-118150857D01*
X140342269Y-118248501D01*
X140339499Y-118272380D01*
X140160500Y-118272380D01*
X140160500Y-118272378D01*
X140157731Y-118248502D01*
X140114617Y-118150859D01*
X140039142Y-118075384D01*
X139941499Y-118032270D01*
X139917624Y-118029500D01*
X139917620Y-118029500D01*
X139562378Y-118029500D01*
X139538505Y-118032269D01*
X139440859Y-118075384D01*
X139365385Y-118150858D01*
X139352346Y-118180390D01*
X139311383Y-118219503D01*
X139284651Y-118224500D01*
X139018984Y-118224500D01*
X138966658Y-118202826D01*
X138960280Y-118195554D01*
X138892621Y-118107379D01*
X138777625Y-118019139D01*
X138777623Y-118019138D01*
X138643708Y-117963669D01*
X138500000Y-117944750D01*
X138356291Y-117963669D01*
X138222376Y-118019138D01*
X138107379Y-118107379D01*
X138019138Y-118222376D01*
X137963669Y-118356291D01*
X137944750Y-118500000D01*
X137203578Y-118500000D01*
X137213502Y-118386566D01*
X137221950Y-118290005D01*
X137221950Y-118289994D01*
X137208271Y-118133645D01*
X137203386Y-118077811D01*
X137148257Y-117872068D01*
X137058240Y-117679025D01*
X136936068Y-117504546D01*
X136785454Y-117353932D01*
X136785451Y-117353930D01*
X136785452Y-117353930D01*
X136658189Y-117264820D01*
X136610975Y-117231760D01*
X136417932Y-117141743D01*
X136417930Y-117141742D01*
X136417927Y-117141741D01*
X136230344Y-117091478D01*
X136185411Y-117057000D01*
X136178019Y-117000847D01*
X136212497Y-116955914D01*
X136230344Y-116948522D01*
X136353316Y-116915570D01*
X136417932Y-116898257D01*
X136610975Y-116808240D01*
X136785454Y-116686068D01*
X136936068Y-116535454D01*
X137058240Y-116360975D01*
X137148257Y-116167932D01*
X137203386Y-115962189D01*
X137216302Y-115814562D01*
X137221950Y-115750005D01*
X137221950Y-115749994D01*
X137203386Y-115537814D01*
X137203385Y-115537807D01*
X137148258Y-115332072D01*
X137148257Y-115332068D01*
X137058240Y-115139025D01*
X136936068Y-114964546D01*
X136785454Y-114813932D01*
X136785451Y-114813930D01*
X136785452Y-114813930D01*
X136720051Y-114768136D01*
X136610975Y-114691760D01*
X136417932Y-114601743D01*
X136417930Y-114601742D01*
X136417927Y-114601741D01*
X136230345Y-114551478D01*
X136185412Y-114517000D01*
X136178020Y-114460847D01*
X136212498Y-114415914D01*
X136230345Y-114408522D01*
X136289688Y-114392621D01*
X136417932Y-114358258D01*
X136610975Y-114268241D01*
X136785454Y-114146069D01*
X136936068Y-113995455D01*
X137058240Y-113820976D01*
X137148257Y-113627933D01*
X137165027Y-113565348D01*
X137199505Y-113520415D01*
X137236505Y-113510501D01*
X138054878Y-113510501D01*
X138107204Y-113532175D01*
X138234101Y-113659072D01*
X138255775Y-113711398D01*
X138255142Y-113721056D01*
X138244750Y-113799999D01*
X138263669Y-113943708D01*
X138319138Y-114077623D01*
X138319139Y-114077625D01*
X138407379Y-114192621D01*
X138522375Y-114280861D01*
X138656291Y-114336330D01*
X138800000Y-114355250D01*
X138943709Y-114336330D01*
X139077625Y-114280861D01*
X139192621Y-114192621D01*
X139266793Y-114095958D01*
X139315841Y-114067641D01*
X139370549Y-114082300D01*
X139398867Y-114131349D01*
X139399500Y-114141008D01*
X139399500Y-115547273D01*
X139399500Y-115652727D01*
X139418162Y-115722375D01*
X139426793Y-115754588D01*
X139426795Y-115754592D01*
X139479517Y-115845909D01*
X139479518Y-115845910D01*
X139479520Y-115845913D01*
X139994582Y-116360975D01*
X140428676Y-116795069D01*
X140449717Y-116837735D01*
X140463669Y-116943708D01*
X140515173Y-117068050D01*
X140519139Y-117077625D01*
X140607379Y-117192621D01*
X140722375Y-117280861D01*
X140856291Y-117336330D01*
X141000000Y-117355250D01*
X141143709Y-117336330D01*
X141277625Y-117280861D01*
X141392621Y-117192621D01*
X141480861Y-117077625D01*
X141536330Y-116943709D01*
X141555250Y-116800000D01*
X141536330Y-116656291D01*
X141480861Y-116522375D01*
X141392621Y-116407379D01*
X141277625Y-116319139D01*
X141277623Y-116319138D01*
X141143708Y-116263669D01*
X141037735Y-116249717D01*
X140995069Y-116228676D01*
X140222174Y-115455781D01*
X140200500Y-115403455D01*
X140200500Y-113247272D01*
X140200499Y-113247268D01*
X140199825Y-113244751D01*
X140173208Y-113145416D01*
X140173207Y-113145412D01*
X140120480Y-113054087D01*
X136795913Y-109729520D01*
X136422173Y-109355780D01*
X136400499Y-109303454D01*
X136400499Y-108743480D01*
X136385646Y-108649695D01*
X136385645Y-108649693D01*
X136346272Y-108572420D01*
X136328050Y-108536658D01*
X136238342Y-108446950D01*
X136209341Y-108432173D01*
X136140904Y-108397302D01*
X136104122Y-108354235D01*
X136100500Y-108331368D01*
X136100500Y-107974500D01*
X136122174Y-107922174D01*
X136174500Y-107900500D01*
X136214819Y-107900500D01*
X136214820Y-107900500D01*
X136258722Y-107891767D01*
X136280537Y-107877190D01*
X136336083Y-107866139D01*
X136363298Y-107880685D01*
X136363812Y-107879796D01*
X136372249Y-107884667D01*
X136405361Y-107893539D01*
X136449997Y-107905499D01*
X136449998Y-107905500D01*
X136450000Y-107905500D01*
X137071885Y-107905500D01*
X137071889Y-107905500D01*
X137106664Y-107900500D01*
X137115692Y-107899202D01*
X137115692Y-107899201D01*
X137115698Y-107899201D01*
X137253653Y-107858694D01*
X137293913Y-107840308D01*
X137414867Y-107762576D01*
X137448318Y-107733591D01*
X137542472Y-107624930D01*
X137566400Y-107587697D01*
X137626128Y-107456912D01*
X137638597Y-107414445D01*
X137659059Y-107272130D01*
X137659059Y-107227870D01*
X137656253Y-107208353D01*
X137655500Y-107197822D01*
X137655500Y-106802176D01*
X137656253Y-106791645D01*
X137659059Y-106772130D01*
X137659059Y-106727870D01*
X137638597Y-106585555D01*
X137626128Y-106543088D01*
X137566400Y-106412303D01*
X137549213Y-106385559D01*
X137542474Y-106375072D01*
X137448319Y-106266410D01*
X137448314Y-106266405D01*
X137426040Y-106247104D01*
X137400688Y-106196457D01*
X137400500Y-106191179D01*
X137400500Y-105747271D01*
X137400499Y-105747270D01*
X137392946Y-105719083D01*
X137373207Y-105645413D01*
X137320480Y-105554087D01*
X137245913Y-105479520D01*
X137171322Y-105404929D01*
X137150281Y-105362262D01*
X137136330Y-105256291D01*
X137127776Y-105235640D01*
X137080861Y-105122375D01*
X136992621Y-105007379D01*
X136877625Y-104919139D01*
X136877623Y-104919138D01*
X136743708Y-104863669D01*
X136600000Y-104844750D01*
X136456291Y-104863669D01*
X136322376Y-104919138D01*
X136207379Y-105007379D01*
X136119138Y-105122376D01*
X136063669Y-105256291D01*
X136044750Y-105400000D01*
X136063669Y-105543708D01*
X136105798Y-105645417D01*
X136119139Y-105677625D01*
X136207379Y-105792621D01*
X136322375Y-105880861D01*
X136456291Y-105936330D01*
X136535159Y-105946713D01*
X136584208Y-105975031D01*
X136599500Y-106020080D01*
X136599500Y-106020500D01*
X136577826Y-106072826D01*
X136525500Y-106094500D01*
X136449998Y-106094500D01*
X136372249Y-106115332D01*
X136363812Y-106120204D01*
X136362700Y-106118278D01*
X136321643Y-106135280D01*
X136280540Y-106122810D01*
X136258722Y-106108233D01*
X136258723Y-106108233D01*
X136221350Y-106100799D01*
X136214820Y-106099500D01*
X135185180Y-106099500D01*
X135178650Y-106100799D01*
X135141277Y-106108233D01*
X135119458Y-106122811D01*
X135063909Y-106133857D01*
X135036701Y-106119314D01*
X135036188Y-106120204D01*
X135027750Y-106115332D01*
X134950002Y-106094500D01*
X134950000Y-106094500D01*
X134328111Y-106094500D01*
X134328106Y-106094500D01*
X134284307Y-106100797D01*
X134146343Y-106141307D01*
X134106093Y-106159688D01*
X134106080Y-106159695D01*
X133985135Y-106237422D01*
X133951678Y-106266412D01*
X133857525Y-106375072D01*
X133833603Y-106412296D01*
X133833599Y-106412304D01*
X133777783Y-106534524D01*
X133747471Y-106567868D01*
X133692690Y-106599496D01*
X131269360Y-109022826D01*
X131217034Y-109044500D01*
X130051344Y-109044500D01*
X130034750Y-109045390D01*
X130034730Y-109045391D01*
X130008379Y-109048225D01*
X129950489Y-109066351D01*
X129950475Y-109066357D01*
X129889162Y-109099836D01*
X129853723Y-109126366D01*
X129126354Y-109853736D01*
X129115246Y-109866102D01*
X129098603Y-109886755D01*
X129070483Y-109940512D01*
X129050799Y-110007549D01*
X129044500Y-110051357D01*
X128500500Y-110051357D01*
X128500500Y-101785180D01*
X131649500Y-101785180D01*
X131649500Y-103814820D01*
X131658233Y-103858722D01*
X131691496Y-103908504D01*
X131741278Y-103941767D01*
X131785180Y-103950500D01*
X132225500Y-103950500D01*
X132277826Y-103972174D01*
X132299500Y-104024500D01*
X132299500Y-104555069D01*
X132293867Y-104583387D01*
X132263669Y-104656291D01*
X132244750Y-104800000D01*
X132263669Y-104943708D01*
X132319138Y-105077623D01*
X132319139Y-105077625D01*
X132407379Y-105192621D01*
X132522375Y-105280861D01*
X132656291Y-105336330D01*
X132800000Y-105355250D01*
X132943709Y-105336330D01*
X133077625Y-105280861D01*
X133192621Y-105192621D01*
X133280861Y-105077625D01*
X133336330Y-104943709D01*
X133355250Y-104800000D01*
X133336330Y-104656291D01*
X133306133Y-104583387D01*
X133300500Y-104555069D01*
X133300500Y-104247828D01*
X136450000Y-104247828D01*
X136456402Y-104307375D01*
X136456403Y-104307380D01*
X136506645Y-104442087D01*
X136506646Y-104442088D01*
X136592811Y-104557188D01*
X136707911Y-104643353D01*
X136707912Y-104643354D01*
X136842619Y-104693596D01*
X136842624Y-104693597D01*
X136902171Y-104700000D01*
X137500000Y-104700000D01*
X138000000Y-104700000D01*
X138597829Y-104700000D01*
X138657375Y-104693597D01*
X138657380Y-104693596D01*
X138792087Y-104643354D01*
X138792088Y-104643353D01*
X138907188Y-104557188D01*
X138993353Y-104442088D01*
X138993354Y-104442087D01*
X139043596Y-104307380D01*
X139043597Y-104307375D01*
X139050000Y-104247828D01*
X139050000Y-102950000D01*
X138000000Y-102950000D01*
X138000000Y-104700000D01*
X137500000Y-104700000D01*
X137500000Y-102950000D01*
X136450000Y-102950000D01*
X136450000Y-104247828D01*
X133300500Y-104247828D01*
X133300500Y-104024500D01*
X133322174Y-103972174D01*
X133374500Y-103950500D01*
X133814819Y-103950500D01*
X133814820Y-103950500D01*
X133858722Y-103941767D01*
X133908504Y-103908504D01*
X133941767Y-103858722D01*
X133950500Y-103814820D01*
X133950500Y-101785180D01*
X133941767Y-101741278D01*
X133908504Y-101691496D01*
X133858722Y-101658233D01*
X133814820Y-101649500D01*
X131785180Y-101649500D01*
X131763229Y-101653866D01*
X131741277Y-101658233D01*
X131691496Y-101691495D01*
X131691495Y-101691496D01*
X131658233Y-101741277D01*
X131658233Y-101741278D01*
X131649500Y-101785180D01*
X128500500Y-101785180D01*
X128500500Y-101152171D01*
X136450000Y-101152171D01*
X136450000Y-102450000D01*
X137500000Y-102450000D01*
X138000000Y-102450000D01*
X139050000Y-102450000D01*
X139050000Y-101152171D01*
X139043597Y-101092624D01*
X139043596Y-101092619D01*
X138993354Y-100957912D01*
X138993353Y-100957911D01*
X138907188Y-100842811D01*
X138792088Y-100756646D01*
X138792087Y-100756645D01*
X138657380Y-100706403D01*
X138657375Y-100706402D01*
X138597829Y-100700000D01*
X138000000Y-100700000D01*
X138000000Y-102450000D01*
X137500000Y-102450000D01*
X137500000Y-100700000D01*
X136902171Y-100700000D01*
X136842624Y-100706402D01*
X136842619Y-100706403D01*
X136707912Y-100756645D01*
X136707911Y-100756646D01*
X136592811Y-100842811D01*
X136506646Y-100957911D01*
X136506645Y-100957912D01*
X136456403Y-101092619D01*
X136456402Y-101092624D01*
X136450000Y-101152171D01*
X128500500Y-101152171D01*
X128500500Y-98185180D01*
X131649500Y-98185180D01*
X131649500Y-100214820D01*
X131658233Y-100258722D01*
X131691496Y-100308504D01*
X131741278Y-100341767D01*
X131785180Y-100350500D01*
X131785181Y-100350500D01*
X133814819Y-100350500D01*
X133814820Y-100350500D01*
X133858722Y-100341767D01*
X133908504Y-100308504D01*
X133941767Y-100258722D01*
X133950500Y-100214820D01*
X133950500Y-98705123D01*
X133972174Y-98652797D01*
X137102797Y-95522174D01*
X137155123Y-95500500D01*
X138244877Y-95500500D01*
X138297203Y-95522174D01*
X140893203Y-98118174D01*
X140914877Y-98170500D01*
X140893203Y-98222826D01*
X140840877Y-98244500D01*
X140495062Y-98244500D01*
X140442736Y-98222826D01*
X139603559Y-97383649D01*
X138746274Y-96526364D01*
X138733889Y-96515239D01*
X138713247Y-96498605D01*
X138713245Y-96498604D01*
X138713244Y-96498603D01*
X138659487Y-96470483D01*
X138592450Y-96450799D01*
X138548642Y-96444500D01*
X138548638Y-96444500D01*
X136851362Y-96444500D01*
X136851344Y-96444500D01*
X136834750Y-96445390D01*
X136834730Y-96445391D01*
X136808379Y-96448225D01*
X136750489Y-96466351D01*
X136750475Y-96466357D01*
X136689162Y-96499836D01*
X136653723Y-96526366D01*
X136326354Y-96853736D01*
X136315246Y-96866102D01*
X136298603Y-96886755D01*
X136270483Y-96940512D01*
X136250799Y-97007549D01*
X136244500Y-97051357D01*
X136244500Y-99348655D01*
X136245390Y-99365249D01*
X136245391Y-99365269D01*
X136248225Y-99391620D01*
X136266351Y-99449510D01*
X136266357Y-99449524D01*
X136299836Y-99510837D01*
X136299840Y-99510842D01*
X136326364Y-99546274D01*
X136653726Y-99873636D01*
X136666111Y-99884761D01*
X136686753Y-99901395D01*
X136740512Y-99929516D01*
X136807551Y-99949201D01*
X136851362Y-99955500D01*
X138667034Y-99955500D01*
X138719360Y-99977174D01*
X139477826Y-100735640D01*
X139499500Y-100787966D01*
X139499500Y-104438811D01*
X139477826Y-104491137D01*
X139440173Y-104528789D01*
X139385134Y-104641373D01*
X139385134Y-104641374D01*
X139374500Y-104714359D01*
X139374500Y-105235640D01*
X139385134Y-105308625D01*
X139385134Y-105308626D01*
X139440173Y-105421210D01*
X139518847Y-105499884D01*
X139540521Y-105552210D01*
X139518847Y-105604536D01*
X139489798Y-105622454D01*
X139441516Y-105638453D01*
X139297268Y-105727426D01*
X139224694Y-105800000D01*
X138200000Y-105800000D01*
X138200000Y-109000000D01*
X140350000Y-109000000D01*
X142499500Y-106850500D01*
X142499500Y-107262033D01*
X142477826Y-107314359D01*
X140592185Y-109200000D01*
X140000000Y-109200000D01*
X139400000Y-109800000D01*
X139400000Y-110800000D01*
X139749500Y-111149500D01*
X139749500Y-111505069D01*
X139743867Y-111533387D01*
X139713669Y-111606291D01*
X139694750Y-111750000D01*
X139713669Y-111893708D01*
X139766881Y-112022174D01*
X139769139Y-112027625D01*
X139857379Y-112142621D01*
X139972375Y-112230861D01*
X140106291Y-112286330D01*
X140250000Y-112305250D01*
X140393709Y-112286330D01*
X140466612Y-112256132D01*
X140494930Y-112250500D01*
X140987034Y-112250500D01*
X141039360Y-112272174D01*
X141102826Y-112335640D01*
X141124500Y-112387966D01*
X141124500Y-112535640D01*
X141135134Y-112608625D01*
X141135134Y-112608626D01*
X141190173Y-112721210D01*
X141190174Y-112721211D01*
X141278789Y-112809826D01*
X141391375Y-112864866D01*
X141464364Y-112875500D01*
X141464370Y-112875500D01*
X142035630Y-112875500D01*
X142035636Y-112875500D01*
X142108625Y-112864866D01*
X142221211Y-112809826D01*
X142233863Y-112797174D01*
X142286189Y-112775500D01*
X142800500Y-112775500D01*
X142852826Y-112797174D01*
X142874500Y-112849500D01*
X142874500Y-113130221D01*
X142852826Y-113182547D01*
X142800500Y-113204221D01*
X142764249Y-113193224D01*
X142764229Y-113193274D01*
X142763728Y-113193066D01*
X142759388Y-113191750D01*
X142757495Y-113190485D01*
X142757490Y-113190484D01*
X142677133Y-113174500D01*
X142677131Y-113174500D01*
X142372869Y-113174500D01*
X142292504Y-113190485D01*
X142201377Y-113251375D01*
X142201375Y-113251377D01*
X142140485Y-113342504D01*
X142140485Y-113342505D01*
X142124636Y-113422186D01*
X142124500Y-113422868D01*
X142124500Y-113763000D01*
X142102826Y-113815326D01*
X142050500Y-113837000D01*
X141577785Y-113837000D01*
X141525459Y-113815326D01*
X141509418Y-113791318D01*
X141480861Y-113722375D01*
X141472438Y-113711398D01*
X141392621Y-113607379D01*
X141277625Y-113519139D01*
X141256771Y-113510501D01*
X141143708Y-113463669D01*
X141000000Y-113444750D01*
X140856291Y-113463669D01*
X140722376Y-113519138D01*
X140607379Y-113607379D01*
X140519138Y-113722376D01*
X140463669Y-113856291D01*
X140444750Y-114000000D01*
X140463669Y-114143708D01*
X140484002Y-114192796D01*
X140519139Y-114277625D01*
X140607379Y-114392621D01*
X140722375Y-114480861D01*
X140856291Y-114536330D01*
X141000000Y-114555250D01*
X141143709Y-114536330D01*
X141277625Y-114480861D01*
X141313553Y-114453291D01*
X141358602Y-114438000D01*
X142050501Y-114438000D01*
X142102827Y-114459674D01*
X142124501Y-114512000D01*
X142124501Y-114852132D01*
X142140485Y-114932495D01*
X142140485Y-114932496D01*
X142158863Y-114960000D01*
X142201376Y-115023624D01*
X142292505Y-115084515D01*
X142372867Y-115100500D01*
X142677132Y-115100499D01*
X142757495Y-115084515D01*
X142808888Y-115050175D01*
X142864437Y-115039126D01*
X142891112Y-115050175D01*
X142942505Y-115084515D01*
X143022867Y-115100500D01*
X143327132Y-115100499D01*
X143407495Y-115084515D01*
X143409383Y-115083252D01*
X143411613Y-115082809D01*
X143414231Y-115081725D01*
X143414446Y-115082245D01*
X143464931Y-115072199D01*
X143512025Y-115103661D01*
X143524500Y-115144778D01*
X143524500Y-115389793D01*
X143502826Y-115442119D01*
X143460164Y-115463159D01*
X143456297Y-115463668D01*
X143456288Y-115463670D01*
X143322376Y-115519138D01*
X143207379Y-115607379D01*
X143119138Y-115722376D01*
X143063669Y-115856291D01*
X143044750Y-116000000D01*
X143063669Y-116143708D01*
X143107579Y-116249717D01*
X143119139Y-116277625D01*
X143207379Y-116392621D01*
X143322375Y-116480861D01*
X143456291Y-116536330D01*
X143600000Y-116555250D01*
X143743709Y-116536330D01*
X143877625Y-116480861D01*
X143992621Y-116392621D01*
X144080861Y-116277625D01*
X144136330Y-116143709D01*
X144155250Y-116000000D01*
X144136330Y-115856291D01*
X144136329Y-115856288D01*
X144131133Y-115843743D01*
X144125500Y-115815425D01*
X144125500Y-115460000D01*
X145195495Y-115460000D01*
X145237968Y-115606196D01*
X145320280Y-115745377D01*
X145434622Y-115859719D01*
X145573803Y-115942031D01*
X145729088Y-115987145D01*
X145749998Y-115988790D01*
X145750000Y-115988789D01*
X146250000Y-115988789D01*
X146250001Y-115988790D01*
X146270910Y-115987145D01*
X146270912Y-115987145D01*
X146426196Y-115942031D01*
X146565377Y-115859719D01*
X146679719Y-115745377D01*
X146762031Y-115606196D01*
X146804505Y-115460000D01*
X146250000Y-115460000D01*
X146250000Y-115988789D01*
X145750000Y-115988789D01*
X145750000Y-115460000D01*
X145195495Y-115460000D01*
X144125500Y-115460000D01*
X144125500Y-115144778D01*
X144147174Y-115092452D01*
X144199500Y-115070778D01*
X144235750Y-115081776D01*
X144235771Y-115081726D01*
X144236282Y-115081938D01*
X144240615Y-115083252D01*
X144242505Y-115084515D01*
X144322867Y-115100500D01*
X144627132Y-115100499D01*
X144707495Y-115084515D01*
X144798624Y-115023624D01*
X144859515Y-114932495D01*
X144875500Y-114852133D01*
X144875500Y-114512000D01*
X144897174Y-114459674D01*
X144949500Y-114438000D01*
X145378251Y-114438000D01*
X145430577Y-114459674D01*
X145452251Y-114512000D01*
X145430577Y-114564326D01*
X145320280Y-114674622D01*
X145237968Y-114813803D01*
X145195494Y-114959999D01*
X145195495Y-114960000D01*
X146804505Y-114960000D01*
X146804505Y-114959999D01*
X146762031Y-114813803D01*
X146679719Y-114674622D01*
X146565378Y-114560281D01*
X146494833Y-114518561D01*
X146460827Y-114473269D01*
X146458995Y-114446341D01*
X146460500Y-114433373D01*
X146460499Y-114245121D01*
X146482172Y-114192797D01*
X147440460Y-113234511D01*
X147465878Y-113190485D01*
X147480021Y-113165989D01*
X147500499Y-113089564D01*
X147500500Y-113089564D01*
X147500500Y-112899800D01*
X147522174Y-112847474D01*
X147529439Y-112841101D01*
X147592621Y-112792621D01*
X147680861Y-112677625D01*
X147736330Y-112543709D01*
X147755250Y-112400000D01*
X147736330Y-112256291D01*
X147680861Y-112122375D01*
X147678691Y-112119547D01*
X147664033Y-112064842D01*
X147692351Y-112015792D01*
X147737400Y-112000500D01*
X148324533Y-112000500D01*
X148376859Y-112022174D01*
X149661999Y-113307314D01*
X149755185Y-113400500D01*
X149800726Y-113426793D01*
X149868448Y-113465893D01*
X149869313Y-113466392D01*
X149869314Y-113466392D01*
X149869316Y-113466393D01*
X149932959Y-113483446D01*
X149996603Y-113500499D01*
X149996604Y-113500500D01*
X149996606Y-113500500D01*
X149996607Y-113500500D01*
X150262034Y-113500500D01*
X150314360Y-113522174D01*
X151777826Y-114985640D01*
X151799500Y-115037966D01*
X151799500Y-117264819D01*
X151808233Y-117308722D01*
X151839321Y-117355250D01*
X151841496Y-117358504D01*
X151891278Y-117391767D01*
X151935180Y-117400500D01*
X151935181Y-117400500D01*
X153564819Y-117400500D01*
X153564820Y-117400500D01*
X153608722Y-117391767D01*
X153658504Y-117358504D01*
X153691767Y-117308722D01*
X153700500Y-117264820D01*
X153700500Y-114235180D01*
X153691767Y-114191278D01*
X153658504Y-114141496D01*
X153608722Y-114108233D01*
X153564820Y-114099500D01*
X153564819Y-114099500D01*
X152337966Y-114099500D01*
X152285640Y-114077826D01*
X150807314Y-112599500D01*
X150693190Y-112533610D01*
X150693181Y-112533606D01*
X150565894Y-112499500D01*
X150565892Y-112499500D01*
X150300465Y-112499500D01*
X150248139Y-112477826D01*
X150170313Y-112400000D01*
X152644750Y-112400000D01*
X152663669Y-112543708D01*
X152690559Y-112608626D01*
X152719139Y-112677625D01*
X152807379Y-112792621D01*
X152922375Y-112880861D01*
X153056291Y-112936330D01*
X153200000Y-112955250D01*
X153343709Y-112936330D01*
X153477625Y-112880861D01*
X153592621Y-112792621D01*
X153680861Y-112677625D01*
X153736330Y-112543709D01*
X153750281Y-112437734D01*
X153771321Y-112395071D01*
X154570480Y-111595913D01*
X154623207Y-111504588D01*
X154649798Y-111405346D01*
X154684276Y-111360414D01*
X154721276Y-111350500D01*
X155214819Y-111350500D01*
X155214820Y-111350500D01*
X155258722Y-111341767D01*
X155308504Y-111308504D01*
X155341767Y-111258722D01*
X155350500Y-111214820D01*
X155350500Y-109185180D01*
X155341767Y-109141278D01*
X155308504Y-109091496D01*
X155292587Y-109080861D01*
X155258722Y-109058233D01*
X155214820Y-109049500D01*
X153185180Y-109049500D01*
X153163229Y-109053866D01*
X153141277Y-109058233D01*
X153091496Y-109091495D01*
X153091495Y-109091496D01*
X153058233Y-109141277D01*
X153058233Y-109141278D01*
X153049500Y-109185180D01*
X153049500Y-111214820D01*
X153058233Y-111258722D01*
X153091496Y-111308504D01*
X153141278Y-111341767D01*
X153185180Y-111350500D01*
X153504455Y-111350500D01*
X153556781Y-111372174D01*
X153578455Y-111424500D01*
X153556781Y-111476826D01*
X153204929Y-111828676D01*
X153162263Y-111849717D01*
X153056291Y-111863669D01*
X152922376Y-111919138D01*
X152807379Y-112007379D01*
X152719138Y-112122376D01*
X152663669Y-112256291D01*
X152644750Y-112400000D01*
X150170313Y-112400000D01*
X149502582Y-111732269D01*
X149480908Y-111679943D01*
X149502582Y-111627617D01*
X149525017Y-111612248D01*
X149547765Y-111602205D01*
X149627206Y-111522764D01*
X149672585Y-111419990D01*
X149675500Y-111394864D01*
X149675499Y-111029121D01*
X149697173Y-110976796D01*
X149749499Y-110955122D01*
X149801825Y-110976796D01*
X150209539Y-111384510D01*
X150265488Y-111440459D01*
X150320034Y-111471951D01*
X150338210Y-111482445D01*
X150336956Y-111484616D01*
X150370353Y-111517237D01*
X150372794Y-111522764D01*
X150452235Y-111602205D01*
X150555009Y-111647584D01*
X150580135Y-111650499D01*
X151694864Y-111650498D01*
X151719991Y-111647584D01*
X151822765Y-111602205D01*
X151902206Y-111522764D01*
X151947585Y-111419990D01*
X151950500Y-111394864D01*
X151950499Y-111019655D01*
X151972173Y-110967330D01*
X151986830Y-110955961D01*
X152051556Y-110917682D01*
X152167682Y-110801556D01*
X152251281Y-110660199D01*
X152297099Y-110502493D01*
X152297296Y-110500000D01*
X151211500Y-110500000D01*
X151159174Y-110478326D01*
X151137500Y-110426000D01*
X151137500Y-110074000D01*
X151159174Y-110021674D01*
X151211500Y-110000000D01*
X152297296Y-110000000D01*
X152297099Y-109997506D01*
X152251281Y-109839800D01*
X152167682Y-109698443D01*
X152051555Y-109582316D01*
X151986830Y-109544038D01*
X151952824Y-109498746D01*
X151950499Y-109480350D01*
X151950499Y-109105137D01*
X151947585Y-109080010D01*
X151902206Y-108977236D01*
X151822765Y-108897795D01*
X151719991Y-108852416D01*
X151719990Y-108852415D01*
X151719988Y-108852415D01*
X151694865Y-108849501D01*
X151142623Y-108849501D01*
X151090297Y-108827827D01*
X150922174Y-108659704D01*
X150900500Y-108607378D01*
X150900500Y-108255312D01*
X150922174Y-108202986D01*
X150974500Y-108181312D01*
X151022960Y-108199388D01*
X151030091Y-108205567D01*
X151160968Y-108265338D01*
X151160973Y-108265339D01*
X151160985Y-108265344D01*
X151227985Y-108285017D01*
X151227992Y-108285018D01*
X151228007Y-108285023D01*
X151228011Y-108285024D01*
X151370427Y-108305500D01*
X152760491Y-108305500D01*
X152809942Y-108324449D01*
X152846497Y-108357286D01*
X152846520Y-108357305D01*
X152867138Y-108373919D01*
X152867151Y-108373929D01*
X152888542Y-108389354D01*
X152911026Y-108405567D01*
X153041903Y-108465338D01*
X153041908Y-108465339D01*
X153041920Y-108465344D01*
X153108920Y-108485017D01*
X153108927Y-108485018D01*
X153108942Y-108485023D01*
X153108946Y-108485024D01*
X153251362Y-108505500D01*
X153251368Y-108505500D01*
X155148622Y-108505500D01*
X155148638Y-108505500D01*
X155202678Y-108502603D01*
X155229036Y-108499769D01*
X155229051Y-108499766D01*
X155229056Y-108499766D01*
X155260972Y-108494593D01*
X155282448Y-108491114D01*
X155381122Y-108454310D01*
X155417258Y-108440832D01*
X155478575Y-108407350D01*
X155478576Y-108407349D01*
X155478580Y-108407347D01*
X155593761Y-108321123D01*
X155721123Y-108193761D01*
X155757288Y-108153500D01*
X155773922Y-108132858D01*
X155805567Y-108088974D01*
X155865338Y-107958097D01*
X155865340Y-107958086D01*
X155865344Y-107958079D01*
X155885017Y-107891079D01*
X155885017Y-107891076D01*
X155885023Y-107891058D01*
X155885024Y-107891054D01*
X155905500Y-107748638D01*
X155905500Y-105851362D01*
X155902603Y-105797322D01*
X155899769Y-105770964D01*
X155891114Y-105717552D01*
X155840832Y-105582743D01*
X155840831Y-105582741D01*
X155840832Y-105582741D01*
X155807350Y-105521424D01*
X155766153Y-105466392D01*
X155721123Y-105406239D01*
X150193761Y-99878877D01*
X150188828Y-99874446D01*
X150153502Y-99842713D01*
X150153479Y-99842694D01*
X150132861Y-99826080D01*
X150132848Y-99826070D01*
X150088977Y-99794435D01*
X150088976Y-99794434D01*
X150088974Y-99794433D01*
X149958097Y-99734662D01*
X149958095Y-99734661D01*
X149958092Y-99734660D01*
X149958079Y-99734655D01*
X149891079Y-99714982D01*
X149891058Y-99714977D01*
X149891054Y-99714976D01*
X149891052Y-99714975D01*
X149891049Y-99714975D01*
X149748642Y-99694500D01*
X149748638Y-99694500D01*
X149069814Y-99694500D01*
X149017488Y-99672826D01*
X148995814Y-99620500D01*
X149017488Y-99568174D01*
X149067314Y-99518348D01*
X149067316Y-99518344D01*
X149159357Y-99369122D01*
X149214505Y-99202698D01*
X149224999Y-99099976D01*
X149225000Y-99099974D01*
X149225000Y-99050001D01*
X146775001Y-99050001D01*
X146775001Y-99099979D01*
X146777276Y-99122249D01*
X146761031Y-99176506D01*
X146711178Y-99203385D01*
X146656921Y-99187140D01*
X146651333Y-99182094D01*
X146551555Y-99082316D01*
X146498588Y-99050991D01*
X146464582Y-99005699D01*
X146472562Y-98949627D01*
X146481208Y-98937843D01*
X146484761Y-98933889D01*
X146501395Y-98913247D01*
X146529516Y-98859488D01*
X146549201Y-98792449D01*
X146555500Y-98748638D01*
X146555500Y-98651362D01*
X146554609Y-98634739D01*
X146551775Y-98608381D01*
X146533645Y-98550481D01*
X146506097Y-98500030D01*
X146506094Y-98500025D01*
X146775000Y-98500025D01*
X146775000Y-98550001D01*
X147750000Y-98550001D01*
X148250000Y-98550001D01*
X149224999Y-98550001D01*
X149224999Y-98500030D01*
X149224998Y-98500024D01*
X149214505Y-98397304D01*
X149159357Y-98230879D01*
X149067316Y-98081657D01*
X149067314Y-98081654D01*
X148943347Y-97957687D01*
X148943343Y-97957684D01*
X148794121Y-97865643D01*
X148627697Y-97810495D01*
X148524975Y-97800001D01*
X148250000Y-97800001D01*
X148250000Y-98550001D01*
X147750000Y-98550001D01*
X147750000Y-97800001D01*
X147475029Y-97800001D01*
X147475023Y-97800002D01*
X147372303Y-97810495D01*
X147205878Y-97865643D01*
X147056656Y-97957684D01*
X146932683Y-98081657D01*
X146840642Y-98230879D01*
X146785494Y-98397303D01*
X146775000Y-98500025D01*
X146506094Y-98500025D01*
X146500163Y-98489162D01*
X146499965Y-98488898D01*
X146473636Y-98453726D01*
X146346274Y-98326364D01*
X146333889Y-98315239D01*
X146313247Y-98298605D01*
X146313245Y-98298604D01*
X146313244Y-98298603D01*
X146259487Y-98270483D01*
X146192450Y-98250799D01*
X146148642Y-98244500D01*
X146148638Y-98244500D01*
X144359123Y-98244500D01*
X144306797Y-98222826D01*
X144285123Y-98170500D01*
X144306797Y-98118174D01*
X144340460Y-98084511D01*
X144397145Y-98027826D01*
X144609073Y-97815896D01*
X144661398Y-97794223D01*
X144671049Y-97794855D01*
X144750000Y-97805250D01*
X144893709Y-97786330D01*
X145027625Y-97730861D01*
X145142621Y-97642621D01*
X145230861Y-97527625D01*
X145286330Y-97393709D01*
X145305250Y-97250000D01*
X145286330Y-97106291D01*
X145230861Y-96972375D01*
X145142621Y-96857379D01*
X145027625Y-96769139D01*
X145027623Y-96769138D01*
X144893708Y-96713669D01*
X144750000Y-96694750D01*
X144606291Y-96713669D01*
X144472376Y-96769138D01*
X144357379Y-96857379D01*
X144269138Y-96972376D01*
X144213669Y-97106291D01*
X144194750Y-97250000D01*
X144205142Y-97328942D01*
X144190483Y-97383649D01*
X144184101Y-97390926D01*
X143997203Y-97577826D01*
X143944877Y-97599500D01*
X141255123Y-97599500D01*
X141202797Y-97577826D01*
X138722174Y-95097203D01*
X138700500Y-95044877D01*
X138700500Y-94500000D01*
X139234659Y-94500000D01*
X139253976Y-94696133D01*
X139311187Y-94884731D01*
X139380522Y-95014445D01*
X139404090Y-95058538D01*
X139529117Y-95210883D01*
X139681462Y-95335910D01*
X139746224Y-95370526D01*
X139855268Y-95428812D01*
X139855270Y-95428812D01*
X139855273Y-95428814D01*
X140043868Y-95486024D01*
X140240000Y-95505341D01*
X140436132Y-95486024D01*
X140624727Y-95428814D01*
X140798538Y-95335910D01*
X140950883Y-95210883D01*
X141075910Y-95058538D01*
X141158187Y-94904608D01*
X141168812Y-94884731D01*
X141168812Y-94884730D01*
X141168814Y-94884727D01*
X141226024Y-94696132D01*
X141245341Y-94500000D01*
X141774658Y-94500000D01*
X141793975Y-94696133D01*
X141851186Y-94884731D01*
X141920521Y-95014445D01*
X141944089Y-95058538D01*
X142069116Y-95210883D01*
X142221461Y-95335910D01*
X142286223Y-95370526D01*
X142395267Y-95428812D01*
X142395269Y-95428812D01*
X142395272Y-95428814D01*
X142426981Y-95438432D01*
X142470761Y-95474363D01*
X142479499Y-95509246D01*
X142479499Y-96603356D01*
X142473867Y-96631673D01*
X142463669Y-96656293D01*
X142444750Y-96800000D01*
X142463669Y-96943708D01*
X142510302Y-97056291D01*
X142519139Y-97077625D01*
X142607379Y-97192621D01*
X142722375Y-97280861D01*
X142856291Y-97336330D01*
X143000000Y-97355250D01*
X143143709Y-97336330D01*
X143277625Y-97280861D01*
X143392621Y-97192621D01*
X143480861Y-97077625D01*
X143536330Y-96943709D01*
X143555250Y-96800000D01*
X143536330Y-96656291D01*
X143480861Y-96522375D01*
X143392621Y-96407379D01*
X143277625Y-96319139D01*
X143143709Y-96263670D01*
X143143708Y-96263669D01*
X143143706Y-96263669D01*
X143139020Y-96262413D01*
X143139472Y-96260724D01*
X143095781Y-96235487D01*
X143080499Y-96190451D01*
X143080499Y-95509246D01*
X143102173Y-95456920D01*
X143133016Y-95438433D01*
X143164726Y-95428814D01*
X143338537Y-95335910D01*
X143490882Y-95210883D01*
X143615909Y-95058538D01*
X143698186Y-94904608D01*
X143708811Y-94884731D01*
X143708811Y-94884730D01*
X143708813Y-94884727D01*
X143766023Y-94696132D01*
X143785340Y-94500000D01*
X143766023Y-94303868D01*
X143708813Y-94115273D01*
X143708811Y-94115270D01*
X143708811Y-94115268D01*
X143633873Y-93975070D01*
X143615909Y-93941462D01*
X143490882Y-93789117D01*
X143338537Y-93664090D01*
X143328596Y-93658776D01*
X143164730Y-93571187D01*
X142976132Y-93513976D01*
X142779999Y-93494659D01*
X142583865Y-93513976D01*
X142395267Y-93571187D01*
X142221462Y-93664089D01*
X142069116Y-93789117D01*
X141944088Y-93941463D01*
X141851186Y-94115268D01*
X141793975Y-94303866D01*
X141774658Y-94500000D01*
X141245341Y-94500000D01*
X141226024Y-94303868D01*
X141168814Y-94115273D01*
X141168810Y-94115266D01*
X141168809Y-94115262D01*
X141153194Y-94086051D01*
X141147641Y-94029687D01*
X141166127Y-93998842D01*
X141842797Y-93322174D01*
X141895123Y-93300500D01*
X144444713Y-93300500D01*
X144497039Y-93322174D01*
X144518713Y-93374500D01*
X144497039Y-93426826D01*
X144487158Y-93435117D01*
X144448921Y-93461890D01*
X144281890Y-93628921D01*
X144146401Y-93822421D01*
X144046567Y-94036512D01*
X143989363Y-94249999D01*
X143989364Y-94250000D01*
X144886988Y-94250000D01*
X144854075Y-94307007D01*
X144820000Y-94434174D01*
X144820000Y-94565826D01*
X144854075Y-94692993D01*
X144886988Y-94750000D01*
X143989363Y-94750000D01*
X144046566Y-94963483D01*
X144046571Y-94963494D01*
X144146401Y-95177579D01*
X144281888Y-95371075D01*
X144448924Y-95538111D01*
X144642420Y-95673598D01*
X144856505Y-95773428D01*
X144856508Y-95773430D01*
X145070000Y-95830634D01*
X145070000Y-94933012D01*
X145127007Y-94965925D01*
X145254174Y-95000000D01*
X145385826Y-95000000D01*
X145512993Y-94965925D01*
X145570000Y-94933012D01*
X145570000Y-95830634D01*
X145783491Y-95773430D01*
X145783494Y-95773428D01*
X145997579Y-95673598D01*
X146191075Y-95538111D01*
X146358111Y-95371075D01*
X146493598Y-95177579D01*
X146593428Y-94963494D01*
X146593433Y-94963483D01*
X146650636Y-94750000D01*
X145753012Y-94750000D01*
X145785925Y-94692993D01*
X145820000Y-94565826D01*
X145820000Y-94434174D01*
X145785925Y-94307007D01*
X145753012Y-94250000D01*
X146650636Y-94250000D01*
X146650636Y-94249999D01*
X146593432Y-94036512D01*
X146493598Y-93822421D01*
X146358109Y-93628921D01*
X146191075Y-93461888D01*
X146191076Y-93461888D01*
X146152842Y-93435117D01*
X146122411Y-93387350D01*
X146134670Y-93332055D01*
X146182437Y-93301624D01*
X146195287Y-93300500D01*
X146794877Y-93300500D01*
X146847203Y-93322174D01*
X147872481Y-94347452D01*
X147893401Y-94389240D01*
X147893746Y-94391638D01*
X147894500Y-94402176D01*
X147894500Y-94797822D01*
X147893747Y-94808353D01*
X147890941Y-94827865D01*
X147890941Y-94872134D01*
X147911402Y-95014440D01*
X147911402Y-95014443D01*
X147923872Y-95056913D01*
X147983599Y-95187695D01*
X147983603Y-95187703D01*
X148007525Y-95224927D01*
X148101678Y-95333587D01*
X148101680Y-95333588D01*
X148101682Y-95333591D01*
X148135133Y-95362576D01*
X148135135Y-95362577D01*
X148256080Y-95440304D01*
X148256093Y-95440311D01*
X148280243Y-95451339D01*
X148296347Y-95458694D01*
X148434302Y-95499201D01*
X148434305Y-95499201D01*
X148434307Y-95499202D01*
X148456206Y-95502350D01*
X148478111Y-95505500D01*
X148478115Y-95505500D01*
X149050002Y-95505500D01*
X149050002Y-95505499D01*
X149127750Y-95484667D01*
X149147674Y-95464743D01*
X149200000Y-95443069D01*
X149252326Y-95464743D01*
X149272250Y-95484667D01*
X149349997Y-95505499D01*
X149349998Y-95505500D01*
X149350000Y-95505500D01*
X149425500Y-95505500D01*
X149477826Y-95527174D01*
X149499500Y-95579500D01*
X149499500Y-96700198D01*
X149477826Y-96752524D01*
X149470549Y-96758906D01*
X149407377Y-96807380D01*
X149407376Y-96807381D01*
X149319140Y-96922372D01*
X149319138Y-96922376D01*
X149263669Y-97056291D01*
X149244750Y-97200000D01*
X149263669Y-97343708D01*
X149319138Y-97477623D01*
X149319139Y-97477625D01*
X149407379Y-97592621D01*
X149522375Y-97680861D01*
X149656291Y-97736330D01*
X149800000Y-97755250D01*
X149943709Y-97736330D01*
X150077625Y-97680861D01*
X150192621Y-97592621D01*
X150280861Y-97477625D01*
X150336330Y-97343709D01*
X150355250Y-97200000D01*
X150336330Y-97056291D01*
X150280861Y-96922375D01*
X150230988Y-96857379D01*
X150192623Y-96807381D01*
X150192622Y-96807380D01*
X150183004Y-96800000D01*
X150160157Y-96782468D01*
X150129451Y-96758906D01*
X150101133Y-96709856D01*
X150100500Y-96700198D01*
X150100500Y-95507691D01*
X150122174Y-95455365D01*
X150141716Y-95441797D01*
X150141594Y-95441574D01*
X150143675Y-95440437D01*
X150143764Y-95440376D01*
X150143913Y-95440308D01*
X150264867Y-95362576D01*
X150298318Y-95333591D01*
X150392472Y-95224930D01*
X150416400Y-95187697D01*
X150476128Y-95056912D01*
X150488597Y-95014445D01*
X150509059Y-94872130D01*
X150509059Y-94827870D01*
X150506253Y-94808353D01*
X150505500Y-94797822D01*
X150505500Y-94402176D01*
X150506253Y-94391645D01*
X150509058Y-94372134D01*
X150509059Y-94372130D01*
X150509059Y-94327870D01*
X150488597Y-94185555D01*
X150476128Y-94143088D01*
X150416400Y-94012303D01*
X150416396Y-94012296D01*
X150392474Y-93975072D01*
X150298321Y-93866412D01*
X150298318Y-93866409D01*
X150264867Y-93837424D01*
X150241522Y-93822421D01*
X150143919Y-93759695D01*
X150143906Y-93759688D01*
X150103656Y-93741307D01*
X149965692Y-93700797D01*
X149921893Y-93694500D01*
X149921889Y-93694500D01*
X149350000Y-93694500D01*
X149349998Y-93694500D01*
X149272250Y-93715332D01*
X149252326Y-93735257D01*
X149200000Y-93756931D01*
X149147674Y-93735257D01*
X149127749Y-93715332D01*
X149050002Y-93694500D01*
X149050000Y-93694500D01*
X148478111Y-93694500D01*
X148478106Y-93694500D01*
X148434307Y-93700797D01*
X148296346Y-93741306D01*
X148256089Y-93759691D01*
X148256080Y-93759696D01*
X148232330Y-93774958D01*
X148176592Y-93785011D01*
X148140000Y-93765029D01*
X147134511Y-92759540D01*
X147065990Y-92719979D01*
X147065985Y-92719977D01*
X146989564Y-92699500D01*
X146989562Y-92699500D01*
X141700438Y-92699500D01*
X141700436Y-92699500D01*
X141624014Y-92719977D01*
X141624009Y-92719979D01*
X141555488Y-92759540D01*
X140741158Y-93573869D01*
X140688832Y-93595543D01*
X140653949Y-93586805D01*
X140624731Y-93571187D01*
X140436133Y-93513976D01*
X140240000Y-93494659D01*
X140043866Y-93513976D01*
X139855268Y-93571187D01*
X139681463Y-93664089D01*
X139529117Y-93789117D01*
X139404089Y-93941463D01*
X139311187Y-94115268D01*
X139253976Y-94303866D01*
X139234659Y-94500000D01*
X138700500Y-94500000D01*
X138700500Y-93635180D01*
X138699255Y-93628921D01*
X138691767Y-93591278D01*
X138658504Y-93541496D01*
X138628863Y-93521691D01*
X138608722Y-93508233D01*
X138564820Y-93499500D01*
X136835180Y-93499500D01*
X136813229Y-93503866D01*
X136791277Y-93508233D01*
X136741496Y-93541495D01*
X136741495Y-93541496D01*
X136708233Y-93591277D01*
X136699500Y-93635180D01*
X136699500Y-95044877D01*
X136677826Y-95097203D01*
X133747203Y-98027826D01*
X133694877Y-98049500D01*
X131785180Y-98049500D01*
X131763229Y-98053866D01*
X131741277Y-98058233D01*
X131691496Y-98091495D01*
X131691495Y-98091496D01*
X131658233Y-98141277D01*
X131658233Y-98141278D01*
X131649500Y-98185180D01*
X128500500Y-98185180D01*
X128500500Y-96349800D01*
X128522174Y-96297474D01*
X128574500Y-96275800D01*
X128626826Y-96297474D01*
X128637828Y-96311517D01*
X128773882Y-96536578D01*
X128921476Y-96724968D01*
X130063708Y-95582735D01*
X130160967Y-95716602D01*
X130283398Y-95839033D01*
X130417262Y-95936290D01*
X129275030Y-97078522D01*
X129463421Y-97226117D01*
X129742950Y-97395098D01*
X129742959Y-97395103D01*
X130040824Y-97529160D01*
X130352658Y-97626333D01*
X130673957Y-97685213D01*
X131000000Y-97704934D01*
X131326042Y-97685213D01*
X131647341Y-97626333D01*
X131959175Y-97529160D01*
X132257040Y-97395103D01*
X132257049Y-97395098D01*
X132536578Y-97226117D01*
X132724968Y-97078522D01*
X131582736Y-95936290D01*
X131716602Y-95839033D01*
X131839033Y-95716602D01*
X131936290Y-95582736D01*
X133078522Y-96724968D01*
X133226117Y-96536578D01*
X133395098Y-96257049D01*
X133395103Y-96257040D01*
X133529160Y-95959175D01*
X133626333Y-95647341D01*
X133685213Y-95326042D01*
X133704934Y-95000000D01*
X133685213Y-94673957D01*
X133626333Y-94352658D01*
X133529160Y-94040824D01*
X133395103Y-93742959D01*
X133395098Y-93742950D01*
X133226117Y-93463421D01*
X133078522Y-93275030D01*
X131936290Y-94417262D01*
X131839033Y-94283398D01*
X131716602Y-94160967D01*
X131582735Y-94063708D01*
X132724969Y-92921476D01*
X132536578Y-92773882D01*
X132311517Y-92637828D01*
X132277950Y-92592209D01*
X132286472Y-92536217D01*
X132332091Y-92502650D01*
X132349800Y-92500500D01*
X153816926Y-92500500D01*
X153869252Y-92522174D01*
G37*
%TD.AperFunction*%
%TA.AperFunction,Conductor*%
G36*
X130160967Y-129716602D02*
G01*
X130283398Y-129839033D01*
X130417262Y-129936290D01*
X129275030Y-131078522D01*
X129463421Y-131226117D01*
X129521688Y-131261341D01*
X129555255Y-131306960D01*
X129546733Y-131362952D01*
X129501114Y-131396519D01*
X129457544Y-131394003D01*
X129382042Y-131365842D01*
X129372439Y-131361456D01*
X129193958Y-131263998D01*
X129185075Y-131258290D01*
X129022272Y-131136417D01*
X129014293Y-131129503D01*
X128870496Y-130985706D01*
X128863582Y-130977727D01*
X128741709Y-130814924D01*
X128736001Y-130806041D01*
X128647300Y-130643597D01*
X128638541Y-130627556D01*
X128634161Y-130617965D01*
X128605996Y-130542453D01*
X128608017Y-130485853D01*
X128649469Y-130447260D01*
X128706071Y-130449281D01*
X128738658Y-130478311D01*
X128773882Y-130536578D01*
X128921476Y-130724968D01*
X130063708Y-129582735D01*
X130160967Y-129716602D01*
G37*
%TD.AperFunction*%
%TA.AperFunction,Conductor*%
G36*
X129514147Y-92608016D02*
G01*
X129552741Y-92649468D01*
X129550720Y-92706069D01*
X129521691Y-92738656D01*
X129463422Y-92773881D01*
X129463419Y-92773884D01*
X129275030Y-92921476D01*
X130417263Y-94063709D01*
X130283398Y-94160967D01*
X130160967Y-94283398D01*
X130063709Y-94417263D01*
X128921476Y-93275030D01*
X128773884Y-93463419D01*
X128773881Y-93463422D01*
X128738656Y-93521691D01*
X128693037Y-93555257D01*
X128637045Y-93546734D01*
X128603479Y-93501115D01*
X128605994Y-93457550D01*
X128634163Y-93382028D01*
X128638538Y-93372449D01*
X128736004Y-93193953D01*
X128741705Y-93185080D01*
X128863589Y-93022263D01*
X128870489Y-93014300D01*
X129014300Y-92870489D01*
X129022263Y-92863589D01*
X129185080Y-92741705D01*
X129193953Y-92736004D01*
X129372449Y-92638538D01*
X129382028Y-92634163D01*
X129457549Y-92605995D01*
X129514147Y-92608016D01*
G37*
%TD.AperFunction*%
%TD*%
%TA.AperFunction,Conductor*%
%TO.N,+BATT*%
G36*
X138615677Y-96619685D02*
G01*
X138636319Y-96636319D01*
X140400000Y-98400000D01*
X146148638Y-98400000D01*
X146215677Y-98419685D01*
X146236319Y-98436319D01*
X146363681Y-98563681D01*
X146397166Y-98625004D01*
X146400000Y-98651362D01*
X146400000Y-98748638D01*
X146380315Y-98815677D01*
X146363681Y-98836319D01*
X146236319Y-98963681D01*
X146174996Y-98997166D01*
X146148638Y-99000000D01*
X144799999Y-99000000D01*
X144636319Y-99163681D01*
X144574996Y-99197166D01*
X144548638Y-99200000D01*
X142599999Y-99200000D01*
X142436319Y-99363681D01*
X142374996Y-99397166D01*
X142348638Y-99400000D01*
X139399999Y-99400000D01*
X139036319Y-99763681D01*
X138974996Y-99797166D01*
X138948638Y-99800000D01*
X136851362Y-99800000D01*
X136784323Y-99780315D01*
X136763681Y-99763681D01*
X136436319Y-99436319D01*
X136402834Y-99374996D01*
X136400000Y-99348638D01*
X136400000Y-97051362D01*
X136419685Y-96984323D01*
X136436319Y-96963681D01*
X136763681Y-96636319D01*
X136825004Y-96602834D01*
X136851362Y-96600000D01*
X138548638Y-96600000D01*
X138615677Y-96619685D01*
G37*
%TD.AperFunction*%
%TD*%
%TA.AperFunction,Conductor*%
%TO.N,+BATT*%
G36*
X131415677Y-109219685D02*
G01*
X131436319Y-109236319D01*
X132163681Y-109963681D01*
X132197166Y-110025004D01*
X132200000Y-110051362D01*
X132200000Y-117148638D01*
X132180315Y-117215677D01*
X132163681Y-117236319D01*
X131436319Y-117963681D01*
X131374996Y-117997166D01*
X131348638Y-118000000D01*
X130051362Y-118000000D01*
X129984323Y-117980315D01*
X129963681Y-117963681D01*
X129236319Y-117236319D01*
X129202834Y-117174996D01*
X129200000Y-117148638D01*
X129200000Y-110051362D01*
X129219685Y-109984323D01*
X129236319Y-109963681D01*
X129963681Y-109236319D01*
X130025004Y-109202834D01*
X130051362Y-109200000D01*
X131348638Y-109200000D01*
X131415677Y-109219685D01*
G37*
%TD.AperFunction*%
%TD*%
M02*
