%TF.GenerationSoftware,KiCad,Pcbnew,8.0.7*%
%TF.CreationDate,2025-03-28T18:01:28+01:00*%
%TF.ProjectId,StrainGauge,53747261-696e-4476-9175-67652e6b6963,rev?*%
%TF.SameCoordinates,Original*%
%TF.FileFunction,Legend,Top*%
%TF.FilePolarity,Positive*%
%FSLAX46Y46*%
G04 Gerber Fmt 4.6, Leading zero omitted, Abs format (unit mm)*
G04 Created by KiCad (PCBNEW 8.0.7) date 2025-03-28 18:01:28*
%MOMM*%
%LPD*%
G01*
G04 APERTURE LIST*
%ADD10C,0.150000*%
%ADD11C,0.254000*%
%ADD12C,0.120000*%
%ADD13C,0.400000*%
%ADD14C,0.100000*%
%ADD15C,0.152400*%
%ADD16C,0.508000*%
%ADD17C,0.200000*%
G04 APERTURE END LIST*
D10*
G36*
X129599729Y-108200857D02*
G01*
X129648883Y-108206582D01*
X129697320Y-108217584D01*
X129729972Y-108229480D01*
X129774388Y-108254198D01*
X129811590Y-108286708D01*
X129839148Y-108323025D01*
X129861675Y-108367208D01*
X129875586Y-108416988D01*
X129878716Y-108455404D01*
X129872911Y-108506346D01*
X129855497Y-108554789D01*
X129843545Y-108576304D01*
X129812301Y-108615746D01*
X129770959Y-108649074D01*
X129737788Y-108667896D01*
X129785828Y-108686335D01*
X129831366Y-108713984D01*
X129868651Y-108749171D01*
X129878227Y-108761196D01*
X129904116Y-108804726D01*
X129920416Y-108852883D01*
X129927128Y-108905667D01*
X129927320Y-108916779D01*
X129923095Y-108969593D01*
X129910421Y-109019590D01*
X129897278Y-109051357D01*
X129872938Y-109093901D01*
X129839505Y-109133464D01*
X129823517Y-109147100D01*
X129780794Y-109173293D01*
X129733505Y-109192090D01*
X129713363Y-109197903D01*
X129664308Y-109207636D01*
X129613551Y-109212979D01*
X129562853Y-109214933D01*
X129550942Y-109215000D01*
X129166992Y-109215000D01*
X129166992Y-109089947D01*
X129300349Y-109089947D01*
X129550942Y-109089947D01*
X129600142Y-109089012D01*
X129641556Y-109085062D01*
X129690948Y-109071616D01*
X129718492Y-109057951D01*
X129755833Y-109023339D01*
X129769295Y-109002264D01*
X129786017Y-108955001D01*
X129789323Y-108918000D01*
X129782990Y-108868784D01*
X129762275Y-108823386D01*
X129760502Y-108820792D01*
X129726064Y-108785682D01*
X129680390Y-108762906D01*
X129631458Y-108751994D01*
X129578404Y-108747107D01*
X129533112Y-108746053D01*
X129300349Y-108746053D01*
X129300349Y-109089947D01*
X129166992Y-109089947D01*
X129166992Y-108621001D01*
X129300349Y-108621001D01*
X129518213Y-108621001D01*
X129568607Y-108619880D01*
X129619571Y-108615071D01*
X129645219Y-108609521D01*
X129692097Y-108588436D01*
X129721667Y-108560673D01*
X129743080Y-108513954D01*
X129747313Y-108474944D01*
X129740489Y-108426160D01*
X129723133Y-108388726D01*
X129687390Y-108352906D01*
X129654501Y-108337923D01*
X129603357Y-108328407D01*
X129551827Y-108324872D01*
X129501605Y-108324002D01*
X129300349Y-108324002D01*
X129300349Y-108621001D01*
X129166992Y-108621001D01*
X129166992Y-108198949D01*
X129544836Y-108198949D01*
X129599729Y-108200857D01*
G37*
G36*
X130937264Y-109215000D02*
G01*
X130785589Y-109215000D01*
X130668109Y-108902369D01*
X130247034Y-108902369D01*
X130136392Y-109215000D01*
X129994975Y-109215000D01*
X130161527Y-108777316D01*
X130285380Y-108777316D01*
X130626831Y-108777316D01*
X130521807Y-108521594D01*
X130501937Y-108468645D01*
X130484427Y-108421143D01*
X130467308Y-108373523D01*
X130450244Y-108324002D01*
X130438253Y-108371718D01*
X130423711Y-108421443D01*
X130406619Y-108473178D01*
X130396022Y-108502787D01*
X130285380Y-108777316D01*
X130161527Y-108777316D01*
X130381612Y-108198949D01*
X130525226Y-108198949D01*
X130937264Y-109215000D01*
G37*
G36*
X131191032Y-109215000D02*
G01*
X131191032Y-108324002D01*
X130859351Y-108324002D01*
X130859351Y-108198949D01*
X131657536Y-108198949D01*
X131657536Y-108324002D01*
X131324389Y-108324002D01*
X131324389Y-109215000D01*
X131191032Y-109215000D01*
G37*
G36*
X132045882Y-109215000D02*
G01*
X132045882Y-108324002D01*
X131714201Y-108324002D01*
X131714201Y-108198949D01*
X132512386Y-108198949D01*
X132512386Y-108324002D01*
X132179239Y-108324002D01*
X132179239Y-109215000D01*
X132045882Y-109215000D01*
G37*
G36*
X134525471Y-124374211D02*
G01*
X134525471Y-124249159D01*
X134951919Y-124249159D01*
X134951919Y-124623094D01*
X134908659Y-124655537D01*
X134864791Y-124684263D01*
X134820316Y-124709272D01*
X134775232Y-124730565D01*
X134749197Y-124741064D01*
X134696701Y-124758374D01*
X134643501Y-124770739D01*
X134589600Y-124778158D01*
X134534996Y-124780631D01*
X134480345Y-124778390D01*
X134427583Y-124771667D01*
X134376710Y-124760461D01*
X134327726Y-124744773D01*
X134280631Y-124724603D01*
X134265352Y-124716884D01*
X134222010Y-124690886D01*
X134182840Y-124660887D01*
X134142417Y-124620831D01*
X134112289Y-124582163D01*
X134086335Y-124539493D01*
X134082414Y-124531992D01*
X134061414Y-124485658D01*
X134044759Y-124437332D01*
X134032449Y-124387015D01*
X134024483Y-124334705D01*
X134020862Y-124280403D01*
X134020621Y-124261859D01*
X134022776Y-124207134D01*
X134029242Y-124153782D01*
X134040018Y-124101804D01*
X134055105Y-124051200D01*
X134074502Y-124001970D01*
X134081926Y-123985865D01*
X134106896Y-123940106D01*
X134135644Y-123899002D01*
X134168170Y-123862552D01*
X134210893Y-123825908D01*
X134258758Y-123795600D01*
X134303308Y-123774434D01*
X134350315Y-123757647D01*
X134399777Y-123745239D01*
X134451694Y-123737210D01*
X134506068Y-123733561D01*
X134524738Y-123733318D01*
X134578014Y-123735592D01*
X134628664Y-123742416D01*
X134676688Y-123753788D01*
X134722087Y-123769710D01*
X134768787Y-123792441D01*
X134809421Y-123819693D01*
X134847456Y-123855275D01*
X134860572Y-123871071D01*
X134889528Y-123915540D01*
X134911592Y-123962170D01*
X134928025Y-124008874D01*
X134936776Y-124040575D01*
X134816608Y-124073548D01*
X134799693Y-124025054D01*
X134778278Y-123981039D01*
X134760188Y-123954113D01*
X134725347Y-123919392D01*
X134683031Y-123893094D01*
X134664201Y-123884504D01*
X134615383Y-123868579D01*
X134562718Y-123860003D01*
X134525471Y-123858370D01*
X134476040Y-123860553D01*
X134425693Y-123868100D01*
X134375877Y-123882627D01*
X134367446Y-123885969D01*
X134321044Y-123908959D01*
X134278914Y-123939445D01*
X134259735Y-123958265D01*
X134227504Y-123999058D01*
X134202193Y-124043216D01*
X134196232Y-124056451D01*
X134179455Y-124103590D01*
X134167472Y-124152683D01*
X134160282Y-124203729D01*
X134157886Y-124256730D01*
X134160106Y-124312791D01*
X134166768Y-124364715D01*
X134177871Y-124412501D01*
X134195998Y-124462048D01*
X134204292Y-124479235D01*
X134230120Y-124521062D01*
X134265454Y-124561256D01*
X134307435Y-124594186D01*
X134339114Y-124612103D01*
X134384131Y-124631124D01*
X134436417Y-124646026D01*
X134490442Y-124654050D01*
X134527425Y-124655579D01*
X134581187Y-124652454D01*
X134634090Y-124643080D01*
X134680969Y-124629301D01*
X134696441Y-124623583D01*
X134744126Y-124603027D01*
X134787543Y-124579480D01*
X134821493Y-124554951D01*
X134821493Y-124374211D01*
X134525471Y-124374211D01*
G37*
G36*
X135141207Y-124765000D02*
G01*
X135141207Y-123748949D01*
X135277739Y-123748949D01*
X135806769Y-124528572D01*
X135806769Y-123748949D01*
X135934508Y-123748949D01*
X135934508Y-124765000D01*
X135797976Y-124765000D01*
X135268946Y-123985376D01*
X135268946Y-124765000D01*
X135141207Y-124765000D01*
G37*
G36*
X136554717Y-123749865D02*
G01*
X136608618Y-123753085D01*
X136658220Y-123759382D01*
X136678960Y-123763604D01*
X136730518Y-123779317D01*
X136777115Y-123801423D01*
X136818751Y-123829921D01*
X136826483Y-123836388D01*
X136863883Y-123872704D01*
X136896214Y-123913752D01*
X136923478Y-123959532D01*
X136945673Y-124010045D01*
X136961091Y-124057656D01*
X136972721Y-124108166D01*
X136980565Y-124161574D01*
X136984622Y-124217880D01*
X136985241Y-124251357D01*
X136983955Y-124300744D01*
X136979337Y-124354096D01*
X136971361Y-124404151D01*
X136958374Y-124456521D01*
X136942182Y-124504370D01*
X136921335Y-124551826D01*
X136894933Y-124597084D01*
X136889742Y-124604532D01*
X136857135Y-124644992D01*
X136819331Y-124680917D01*
X136797906Y-124696856D01*
X136754155Y-124721383D01*
X136707615Y-124739300D01*
X136677739Y-124747658D01*
X136626897Y-124757531D01*
X136576369Y-124762950D01*
X136527387Y-124764932D01*
X136516050Y-124765000D01*
X136152617Y-124765000D01*
X136152617Y-124639947D01*
X136285973Y-124639947D01*
X136500907Y-124639947D01*
X136553561Y-124638498D01*
X136604088Y-124633489D01*
X136653639Y-124622756D01*
X136657223Y-124621629D01*
X136702409Y-124602535D01*
X136743290Y-124573730D01*
X136747592Y-124569605D01*
X136780176Y-124529534D01*
X136804855Y-124484837D01*
X136821354Y-124442599D01*
X136834223Y-124395125D01*
X136842881Y-124342281D01*
X136847040Y-124290799D01*
X136847976Y-124249403D01*
X136846147Y-124192986D01*
X136840660Y-124141703D01*
X136829636Y-124088364D01*
X136813632Y-124042013D01*
X136795953Y-124007847D01*
X136765049Y-123964716D01*
X136726543Y-123927125D01*
X136683648Y-123900411D01*
X136669923Y-123894518D01*
X136620601Y-123882016D01*
X136571529Y-123876426D01*
X136519215Y-123874182D01*
X136497488Y-123874002D01*
X136285973Y-123874002D01*
X136285973Y-124639947D01*
X136152617Y-124639947D01*
X136152617Y-123748949D01*
X136499442Y-123748949D01*
X136554717Y-123749865D01*
G37*
G36*
X153594528Y-111899865D02*
G01*
X153648429Y-111903085D01*
X153698031Y-111909382D01*
X153718772Y-111913604D01*
X153770330Y-111929317D01*
X153816927Y-111951423D01*
X153858563Y-111979921D01*
X153866294Y-111986388D01*
X153903694Y-112022704D01*
X153936026Y-112063752D01*
X153963289Y-112109532D01*
X153985485Y-112160045D01*
X154000902Y-112207656D01*
X154012533Y-112258166D01*
X154020377Y-112311574D01*
X154024434Y-112367880D01*
X154025052Y-112401357D01*
X154023767Y-112450744D01*
X154019149Y-112504096D01*
X154011173Y-112554151D01*
X153998185Y-112606521D01*
X153981993Y-112654370D01*
X153961147Y-112701826D01*
X153934744Y-112747084D01*
X153929553Y-112754532D01*
X153896947Y-112794992D01*
X153859143Y-112830917D01*
X153837718Y-112846856D01*
X153793966Y-112871383D01*
X153747427Y-112889300D01*
X153717550Y-112897658D01*
X153666708Y-112907531D01*
X153616181Y-112912950D01*
X153567198Y-112914932D01*
X153555862Y-112915000D01*
X153192428Y-112915000D01*
X153192428Y-112789947D01*
X153325785Y-112789947D01*
X153540719Y-112789947D01*
X153593372Y-112788498D01*
X153643900Y-112783489D01*
X153693451Y-112772756D01*
X153697034Y-112771629D01*
X153742221Y-112752535D01*
X153783101Y-112723730D01*
X153787404Y-112719605D01*
X153819987Y-112679534D01*
X153844666Y-112634837D01*
X153861165Y-112592599D01*
X153874035Y-112545125D01*
X153882692Y-112492281D01*
X153886852Y-112440799D01*
X153887788Y-112399403D01*
X153885959Y-112342986D01*
X153880472Y-112291703D01*
X153869447Y-112238364D01*
X153853444Y-112192013D01*
X153835764Y-112157847D01*
X153804861Y-112114716D01*
X153766354Y-112077125D01*
X153723459Y-112050411D01*
X153709735Y-112044518D01*
X153660413Y-112032016D01*
X153611340Y-112026426D01*
X153559026Y-112024182D01*
X153537299Y-112024002D01*
X153325785Y-112024002D01*
X153325785Y-112789947D01*
X153192428Y-112789947D01*
X153192428Y-111898949D01*
X153539253Y-111898949D01*
X153594528Y-111899865D01*
G37*
G36*
X154225331Y-112915000D02*
G01*
X154225331Y-111898949D01*
X154358688Y-111898949D01*
X154358688Y-112915000D01*
X154225331Y-112915000D01*
G37*
G36*
X154879414Y-112915000D02*
G01*
X154489114Y-111898949D01*
X154633461Y-111898949D01*
X154895045Y-112632411D01*
X154912075Y-112681138D01*
X154927443Y-112728126D01*
X154942570Y-112778296D01*
X154948046Y-112797763D01*
X154963416Y-112746143D01*
X154978473Y-112699644D01*
X154994689Y-112653106D01*
X155002268Y-112632411D01*
X155274354Y-111898949D01*
X155410398Y-111898949D01*
X155016190Y-112915000D01*
X154879414Y-112915000D01*
G37*
G36*
X146213887Y-105400247D02*
G01*
X146263508Y-105404138D01*
X146312662Y-105411763D01*
X146362770Y-105426060D01*
X146407614Y-105449466D01*
X146445763Y-105482743D01*
X146474633Y-105521559D01*
X146496787Y-105565709D01*
X146510735Y-105612673D01*
X146516479Y-105662452D01*
X146516643Y-105672745D01*
X146512308Y-105724128D01*
X146499302Y-105771297D01*
X146474306Y-105819327D01*
X146447278Y-105852997D01*
X146407879Y-105886290D01*
X146359045Y-105912897D01*
X146308577Y-105930694D01*
X146259570Y-105941874D01*
X146233077Y-105946053D01*
X146277130Y-105970622D01*
X146313433Y-105998077D01*
X146349320Y-106035314D01*
X146380599Y-106072988D01*
X146410912Y-106114604D01*
X146424075Y-106134364D01*
X146599197Y-106415000D01*
X146431402Y-106415000D01*
X146298290Y-106200554D01*
X146270385Y-106156881D01*
X146242058Y-106114280D01*
X146211843Y-106071606D01*
X146202058Y-106058649D01*
X146168284Y-106019265D01*
X146134159Y-105991238D01*
X146088913Y-105970310D01*
X146073586Y-105966081D01*
X146023303Y-105961960D01*
X145999337Y-105961685D01*
X145844731Y-105961685D01*
X145844731Y-106415000D01*
X145711619Y-106415000D01*
X145711619Y-105836632D01*
X145844731Y-105836632D01*
X146131228Y-105836632D01*
X146184432Y-105834915D01*
X146233975Y-105829059D01*
X146274110Y-105819047D01*
X146319478Y-105795966D01*
X146352512Y-105762383D01*
X146374236Y-105716255D01*
X146379378Y-105677386D01*
X146370793Y-105626922D01*
X146345035Y-105584277D01*
X146327355Y-105567233D01*
X146284628Y-105542620D01*
X146233413Y-105529110D01*
X146183958Y-105524382D01*
X146163468Y-105524002D01*
X145844731Y-105524002D01*
X145844731Y-105836632D01*
X145711619Y-105836632D01*
X145711619Y-105398949D01*
X146158094Y-105398949D01*
X146213887Y-105400247D01*
G37*
G36*
X146722540Y-106415000D02*
G01*
X146722540Y-105398949D01*
X147450628Y-105398949D01*
X147450628Y-105524002D01*
X146855652Y-105524002D01*
X146855652Y-105821001D01*
X147412770Y-105821001D01*
X147412770Y-105946053D01*
X146855652Y-105946053D01*
X146855652Y-106289947D01*
X147474075Y-106289947D01*
X147474075Y-106415000D01*
X146722540Y-106415000D01*
G37*
G36*
X147659699Y-106415000D02*
G01*
X147659699Y-105398949D01*
X148338939Y-105398949D01*
X148338939Y-105524002D01*
X147792812Y-105524002D01*
X147792812Y-105821001D01*
X148265422Y-105821001D01*
X148265422Y-105946053D01*
X147792812Y-105946053D01*
X147792812Y-106415000D01*
X147659699Y-106415000D01*
G37*
G36*
X136767308Y-96175562D02*
G01*
X136767308Y-95995486D01*
X136591922Y-95995486D01*
X136591922Y-95915453D01*
X136767308Y-95915453D01*
X136767308Y-95735378D01*
X136842026Y-95735378D01*
X136842026Y-95915453D01*
X137017412Y-95915453D01*
X137017412Y-95995486D01*
X136842026Y-95995486D01*
X136842026Y-96175562D01*
X136767308Y-96175562D01*
G37*
G36*
X137102292Y-96095528D02*
G01*
X137181387Y-96085524D01*
X137190545Y-96115825D01*
X137205836Y-96145840D01*
X137227657Y-96169778D01*
X137256676Y-96186477D01*
X137287630Y-96194336D01*
X137307534Y-96195570D01*
X137340800Y-96191968D01*
X137370646Y-96181160D01*
X137397073Y-96163147D01*
X137401948Y-96158680D01*
X137422227Y-96133801D01*
X137435858Y-96102449D01*
X137440364Y-96070325D01*
X137440402Y-96066923D01*
X137436191Y-96033190D01*
X137423556Y-96003779D01*
X137404762Y-95980793D01*
X137377969Y-95961392D01*
X137346596Y-95950044D01*
X137314099Y-95946716D01*
X137281822Y-95950135D01*
X137258294Y-95955470D01*
X137267204Y-95875436D01*
X137279866Y-95876218D01*
X137313396Y-95873521D01*
X137344561Y-95865431D01*
X137370841Y-95853396D01*
X137395512Y-95832689D01*
X137409390Y-95802418D01*
X137411327Y-95782741D01*
X137404836Y-95750162D01*
X137385361Y-95723354D01*
X137381784Y-95720215D01*
X137352779Y-95703225D01*
X137319951Y-95695968D01*
X137305814Y-95695361D01*
X137273384Y-95698878D01*
X137243113Y-95710626D01*
X137228907Y-95720371D01*
X137207524Y-95744820D01*
X137194244Y-95774715D01*
X137189359Y-95795403D01*
X137110264Y-95785399D01*
X137118389Y-95751716D01*
X137130045Y-95721520D01*
X137147689Y-95691278D01*
X137169944Y-95665588D01*
X137176229Y-95659877D01*
X137203506Y-95640387D01*
X137233909Y-95626465D01*
X137267439Y-95618112D01*
X137299342Y-95615371D01*
X137304095Y-95615327D01*
X137336210Y-95617480D01*
X137369667Y-95624819D01*
X137401167Y-95637368D01*
X137429212Y-95654334D01*
X137454162Y-95677225D01*
X137469008Y-95697393D01*
X137483391Y-95726541D01*
X137491136Y-95757008D01*
X137492611Y-95778052D01*
X137488922Y-95809760D01*
X137477855Y-95839094D01*
X137470258Y-95851833D01*
X137448510Y-95876640D01*
X137422070Y-95895556D01*
X137403824Y-95904824D01*
X137433978Y-95914773D01*
X137462725Y-95931223D01*
X137486465Y-95953351D01*
X137492611Y-95961097D01*
X137509345Y-95989875D01*
X137519881Y-96022866D01*
X137524064Y-96056160D01*
X137524343Y-96068017D01*
X137522178Y-96099674D01*
X137514179Y-96134247D01*
X137500285Y-96166276D01*
X137480498Y-96195762D01*
X137462755Y-96215266D01*
X137438569Y-96235771D01*
X137407450Y-96254332D01*
X137378287Y-96265646D01*
X137346827Y-96272716D01*
X137313071Y-96275545D01*
X137307221Y-96275604D01*
X137271463Y-96273203D01*
X137238457Y-96265999D01*
X137208204Y-96253994D01*
X137180703Y-96237187D01*
X137166225Y-96225426D01*
X137144038Y-96202060D01*
X137126444Y-96175867D01*
X137113443Y-96146845D01*
X137105034Y-96114997D01*
X137102292Y-96095528D01*
G37*
G36*
X137816497Y-96265600D02*
G01*
X137566705Y-95615327D01*
X137659087Y-95615327D01*
X137826501Y-96084743D01*
X137837400Y-96115928D01*
X137847235Y-96146000D01*
X137856917Y-96178109D01*
X137860421Y-96190568D01*
X137870258Y-96157531D01*
X137879895Y-96127772D01*
X137890273Y-96097988D01*
X137895123Y-96084743D01*
X138069259Y-95615327D01*
X138156326Y-95615327D01*
X137904033Y-96265600D01*
X137816497Y-96265600D01*
G37*
G36*
X138441533Y-95617802D02*
G01*
X138472669Y-95625228D01*
X138498345Y-95636274D01*
X138525837Y-95654599D01*
X138549460Y-95678156D01*
X138563059Y-95696768D01*
X138579283Y-95725900D01*
X138591789Y-95755941D01*
X138601216Y-95785877D01*
X138603076Y-95792902D01*
X138609436Y-95823666D01*
X138613979Y-95859375D01*
X138616463Y-95894675D01*
X138617486Y-95927944D01*
X138617613Y-95945622D01*
X138617045Y-95980115D01*
X138615339Y-96012471D01*
X138611791Y-96048477D01*
X138606605Y-96081406D01*
X138598485Y-96115934D01*
X138594322Y-96129449D01*
X138581231Y-96162402D01*
X138565248Y-96191389D01*
X138546373Y-96216409D01*
X138524606Y-96237463D01*
X138496562Y-96255900D01*
X138464661Y-96268303D01*
X138433066Y-96274263D01*
X138407369Y-96275604D01*
X138373839Y-96273246D01*
X138343123Y-96266173D01*
X138310844Y-96251963D01*
X138282395Y-96231334D01*
X138261058Y-96208544D01*
X138242685Y-96180858D01*
X138227426Y-96148210D01*
X138217460Y-96118520D01*
X138209488Y-96085655D01*
X138203509Y-96049614D01*
X138199523Y-96010399D01*
X138197842Y-95978903D01*
X138197281Y-95945622D01*
X138197284Y-95945466D01*
X138278565Y-95945466D01*
X138279146Y-95981526D01*
X138280890Y-96014440D01*
X138284705Y-96051159D01*
X138290336Y-96082962D01*
X138299492Y-96114638D01*
X138313479Y-96142647D01*
X138315768Y-96145862D01*
X138338067Y-96169891D01*
X138366064Y-96187366D01*
X138397449Y-96195133D01*
X138407525Y-96195570D01*
X138439845Y-96190685D01*
X138468806Y-96176031D01*
X138492000Y-96154489D01*
X138499126Y-96145549D01*
X138515403Y-96114286D01*
X138524558Y-96082632D01*
X138530189Y-96050881D01*
X138534004Y-96014244D01*
X138535748Y-95981418D01*
X138536329Y-95945466D01*
X138535748Y-95909337D01*
X138534004Y-95876374D01*
X138530189Y-95839622D01*
X138524558Y-95807815D01*
X138515403Y-95776176D01*
X138499126Y-95745069D01*
X138476765Y-95721040D01*
X138448555Y-95703565D01*
X138416804Y-95695798D01*
X138406587Y-95695361D01*
X138374644Y-95699635D01*
X138344477Y-95714210D01*
X138321573Y-95736436D01*
X138319520Y-95739129D01*
X138303562Y-95768077D01*
X138293003Y-95800104D01*
X138286404Y-95831882D01*
X138281805Y-95868284D01*
X138279565Y-95900737D01*
X138278605Y-95936150D01*
X138278565Y-95945466D01*
X138197284Y-95945466D01*
X138197854Y-95910907D01*
X138199571Y-95878376D01*
X138203143Y-95842219D01*
X138208364Y-95809206D01*
X138216538Y-95774664D01*
X138220728Y-95761170D01*
X138233947Y-95728168D01*
X138249999Y-95699191D01*
X138268883Y-95674239D01*
X138290601Y-95653312D01*
X138318608Y-95634950D01*
X138350398Y-95622598D01*
X138381832Y-95616663D01*
X138407369Y-95615327D01*
X138441533Y-95617802D01*
G37*
G36*
X152015000Y-95676865D02*
G01*
X151702369Y-95794346D01*
X151702369Y-96215421D01*
X152015000Y-96326063D01*
X152015000Y-96467479D01*
X150998949Y-96080843D01*
X150998949Y-96012211D01*
X151124002Y-96012211D01*
X151171718Y-96024202D01*
X151221443Y-96038744D01*
X151273178Y-96055835D01*
X151302787Y-96066433D01*
X151577316Y-96177075D01*
X151577316Y-95835623D01*
X151321594Y-95940648D01*
X151268645Y-95960518D01*
X151221143Y-95978027D01*
X151173523Y-95995147D01*
X151124002Y-96012211D01*
X150998949Y-96012211D01*
X150998949Y-95937228D01*
X152015000Y-95525191D01*
X152015000Y-95676865D01*
G37*
G36*
X152015000Y-94702092D02*
G01*
X151800554Y-94835204D01*
X151756881Y-94863109D01*
X151714280Y-94891437D01*
X151671606Y-94921651D01*
X151658649Y-94931436D01*
X151619265Y-94965210D01*
X151591238Y-94999336D01*
X151570310Y-95044582D01*
X151566081Y-95059908D01*
X151561960Y-95110191D01*
X151561685Y-95134158D01*
X151561685Y-95288763D01*
X152015000Y-95288763D01*
X152015000Y-95421876D01*
X150998949Y-95421876D01*
X150998949Y-94975400D01*
X150999074Y-94970027D01*
X151124002Y-94970027D01*
X151124002Y-95288763D01*
X151436632Y-95288763D01*
X151436632Y-95002267D01*
X151434915Y-94949063D01*
X151429059Y-94899519D01*
X151419047Y-94859385D01*
X151395966Y-94814016D01*
X151362383Y-94780983D01*
X151316255Y-94759258D01*
X151277386Y-94754116D01*
X151226922Y-94762702D01*
X151184277Y-94788460D01*
X151167233Y-94806140D01*
X151142620Y-94848867D01*
X151129110Y-94900081D01*
X151124382Y-94949537D01*
X151124002Y-94970027D01*
X150999074Y-94970027D01*
X151000247Y-94919608D01*
X151004138Y-94869986D01*
X151011763Y-94820832D01*
X151026060Y-94770724D01*
X151049466Y-94725880D01*
X151082743Y-94687731D01*
X151121559Y-94658861D01*
X151165709Y-94636708D01*
X151212673Y-94622759D01*
X151262452Y-94617015D01*
X151272745Y-94616851D01*
X151324128Y-94621187D01*
X151371297Y-94634193D01*
X151419327Y-94659188D01*
X151452997Y-94686216D01*
X151486290Y-94725616D01*
X151512897Y-94774449D01*
X151530694Y-94824917D01*
X151541874Y-94873924D01*
X151546053Y-94900417D01*
X151570622Y-94856364D01*
X151598077Y-94820061D01*
X151635314Y-94784174D01*
X151672988Y-94752895D01*
X151714604Y-94722582D01*
X151734364Y-94709419D01*
X152015000Y-94534297D01*
X152015000Y-94702092D01*
G37*
G36*
X152015000Y-94410955D02*
G01*
X150998949Y-94410955D01*
X150998949Y-93682867D01*
X151124002Y-93682867D01*
X151124002Y-94277842D01*
X151421001Y-94277842D01*
X151421001Y-93720724D01*
X151546053Y-93720724D01*
X151546053Y-94277842D01*
X151889947Y-94277842D01*
X151889947Y-93659419D01*
X152015000Y-93659419D01*
X152015000Y-94410955D01*
G37*
G36*
X152015000Y-93473795D02*
G01*
X150998949Y-93473795D01*
X150998949Y-92794556D01*
X151124002Y-92794556D01*
X151124002Y-93340683D01*
X151421001Y-93340683D01*
X151421001Y-92868073D01*
X151546053Y-92868073D01*
X151546053Y-93340683D01*
X152015000Y-93340683D01*
X152015000Y-93473795D01*
G37*
G36*
X151509595Y-104774316D02*
G01*
X151509595Y-104492948D01*
X151235554Y-104492948D01*
X151235554Y-104367896D01*
X151509595Y-104367896D01*
X151509595Y-104086528D01*
X151626343Y-104086528D01*
X151626343Y-104367896D01*
X151900383Y-104367896D01*
X151900383Y-104492948D01*
X151626343Y-104492948D01*
X151626343Y-104774316D01*
X151509595Y-104774316D01*
G37*
G36*
X152498046Y-104915000D02*
G01*
X152374459Y-104915000D01*
X152374459Y-104123164D01*
X152337021Y-104155255D01*
X152295824Y-104184733D01*
X152257222Y-104208893D01*
X152213340Y-104233532D01*
X152168430Y-104255842D01*
X152127041Y-104273129D01*
X152127041Y-104152962D01*
X152171204Y-104130502D01*
X152218614Y-104102429D01*
X152262757Y-104071792D01*
X152303633Y-104038590D01*
X152308513Y-104034260D01*
X152344509Y-103999608D01*
X152378216Y-103961281D01*
X152407238Y-103919512D01*
X152418423Y-103898949D01*
X152498046Y-103898949D01*
X152498046Y-104915000D01*
G37*
G36*
X153148953Y-104915000D02*
G01*
X152758653Y-103898949D01*
X152903000Y-103898949D01*
X153164584Y-104632411D01*
X153181614Y-104681138D01*
X153196982Y-104728126D01*
X153212109Y-104778296D01*
X153217585Y-104797763D01*
X153232955Y-104746143D01*
X153248012Y-104699644D01*
X153264228Y-104653106D01*
X153271807Y-104632411D01*
X153543894Y-103898949D01*
X153679937Y-103898949D01*
X153285729Y-104915000D01*
X153148953Y-104915000D01*
G37*
G36*
X154393859Y-104789947D02*
G01*
X154393859Y-104915000D01*
X153728053Y-104915000D01*
X153732011Y-104864974D01*
X153742463Y-104827561D01*
X153763534Y-104780271D01*
X153788951Y-104737681D01*
X153820330Y-104695473D01*
X153823796Y-104691273D01*
X153859317Y-104652101D01*
X153897476Y-104614945D01*
X153935949Y-104580631D01*
X153979168Y-104544634D01*
X153985729Y-104539354D01*
X154025098Y-104507270D01*
X154069629Y-104469667D01*
X154108961Y-104434842D01*
X154149295Y-104396720D01*
X154186889Y-104357302D01*
X154207501Y-104332480D01*
X154235483Y-104290841D01*
X154255834Y-104246162D01*
X154265330Y-104194751D01*
X154265387Y-104190575D01*
X154258002Y-104141093D01*
X154233336Y-104094464D01*
X154212875Y-104072362D01*
X154168957Y-104042892D01*
X154120733Y-104027827D01*
X154075610Y-104024002D01*
X154023351Y-104028462D01*
X153973855Y-104043671D01*
X153932728Y-104069675D01*
X153900030Y-104108842D01*
X153882170Y-104157831D01*
X153878506Y-104195949D01*
X153751500Y-104180317D01*
X153758896Y-104131135D01*
X153773949Y-104079552D01*
X153795922Y-104034210D01*
X153829505Y-103990033D01*
X153849686Y-103971001D01*
X153889772Y-103942926D01*
X153935444Y-103921747D01*
X153986704Y-103907463D01*
X154035087Y-103900708D01*
X154078541Y-103898949D01*
X154130734Y-103901817D01*
X154186264Y-103912413D01*
X154236021Y-103930815D01*
X154280004Y-103957025D01*
X154307885Y-103980526D01*
X154340814Y-104017979D01*
X154368543Y-104065363D01*
X154385709Y-104117631D01*
X154392063Y-104167372D01*
X154392393Y-104182271D01*
X154388322Y-104231759D01*
X154376108Y-104280602D01*
X154367725Y-104302927D01*
X154344621Y-104348150D01*
X154315356Y-104391173D01*
X154285659Y-104427491D01*
X154247384Y-104467769D01*
X154209333Y-104503878D01*
X154170951Y-104538159D01*
X154127245Y-104575513D01*
X154095150Y-104602124D01*
X154056183Y-104634052D01*
X154017799Y-104666114D01*
X153979644Y-104699128D01*
X153952023Y-104724979D01*
X153918483Y-104763436D01*
X153900000Y-104789947D01*
X154393859Y-104789947D01*
G37*
G36*
X154522575Y-104649263D02*
G01*
X154652512Y-104633632D01*
X154665239Y-104683062D01*
X154687835Y-104727849D01*
X154719434Y-104762592D01*
X154761875Y-104788787D01*
X154810430Y-104802892D01*
X154846196Y-104805579D01*
X154899372Y-104799520D01*
X154947157Y-104781345D01*
X154989551Y-104751053D01*
X154997383Y-104743541D01*
X155029969Y-104700655D01*
X155048978Y-104655288D01*
X155058211Y-104603506D01*
X155059176Y-104578433D01*
X155054462Y-104526743D01*
X155038167Y-104476969D01*
X155010231Y-104435257D01*
X154999581Y-104424316D01*
X154958885Y-104394563D01*
X154910986Y-104375830D01*
X154861718Y-104368391D01*
X154843998Y-104367896D01*
X154793883Y-104372056D01*
X154745168Y-104385748D01*
X154736043Y-104389633D01*
X154693239Y-104414607D01*
X154660572Y-104446053D01*
X154544557Y-104430422D01*
X154642009Y-103914581D01*
X155142952Y-103914581D01*
X155142952Y-104039633D01*
X154740928Y-104039633D01*
X154686706Y-104315139D01*
X154726782Y-104286969D01*
X154773642Y-104263247D01*
X154821632Y-104248562D01*
X154870752Y-104242914D01*
X154876971Y-104242843D01*
X154932698Y-104247238D01*
X154984475Y-104260421D01*
X155032302Y-104282393D01*
X155076178Y-104313155D01*
X155099476Y-104334678D01*
X155134879Y-104377274D01*
X155161586Y-104424919D01*
X155179598Y-104477612D01*
X155188116Y-104526796D01*
X155190335Y-104570617D01*
X155187535Y-104620778D01*
X155177194Y-104675977D01*
X155159232Y-104727600D01*
X155133650Y-104775647D01*
X155110711Y-104807777D01*
X155071868Y-104849528D01*
X155028062Y-104882641D01*
X154979293Y-104907116D01*
X154925560Y-104922953D01*
X154876992Y-104929551D01*
X154846196Y-104930631D01*
X154796408Y-104927926D01*
X154742815Y-104917934D01*
X154694060Y-104900578D01*
X154650144Y-104875859D01*
X154621737Y-104853695D01*
X154587356Y-104817532D01*
X154560081Y-104776578D01*
X154539912Y-104730832D01*
X154526849Y-104680294D01*
X154522575Y-104649263D01*
G37*
G36*
X130620036Y-106400857D02*
G01*
X130669190Y-106406582D01*
X130717627Y-106417584D01*
X130750279Y-106429480D01*
X130794695Y-106454198D01*
X130831897Y-106486708D01*
X130859455Y-106523025D01*
X130881982Y-106567208D01*
X130895893Y-106616988D01*
X130899023Y-106655404D01*
X130893218Y-106706346D01*
X130875804Y-106754789D01*
X130863852Y-106776304D01*
X130832608Y-106815746D01*
X130791266Y-106849074D01*
X130758095Y-106867896D01*
X130806135Y-106886335D01*
X130851673Y-106913984D01*
X130888958Y-106949171D01*
X130898534Y-106961196D01*
X130924423Y-107004726D01*
X130940723Y-107052883D01*
X130947435Y-107105667D01*
X130947627Y-107116779D01*
X130943402Y-107169593D01*
X130930728Y-107219590D01*
X130917585Y-107251357D01*
X130893245Y-107293901D01*
X130859812Y-107333464D01*
X130843824Y-107347100D01*
X130801101Y-107373293D01*
X130753812Y-107392090D01*
X130733670Y-107397903D01*
X130684615Y-107407636D01*
X130633858Y-107412979D01*
X130583160Y-107414933D01*
X130571249Y-107415000D01*
X130187299Y-107415000D01*
X130187299Y-107289947D01*
X130320656Y-107289947D01*
X130571249Y-107289947D01*
X130620449Y-107289012D01*
X130661863Y-107285062D01*
X130711255Y-107271616D01*
X130738799Y-107257951D01*
X130776140Y-107223339D01*
X130789602Y-107202264D01*
X130806324Y-107155001D01*
X130809630Y-107118000D01*
X130803297Y-107068784D01*
X130782582Y-107023386D01*
X130780809Y-107020792D01*
X130746371Y-106985682D01*
X130700697Y-106962906D01*
X130651765Y-106951994D01*
X130598711Y-106947107D01*
X130553419Y-106946053D01*
X130320656Y-106946053D01*
X130320656Y-107289947D01*
X130187299Y-107289947D01*
X130187299Y-106821001D01*
X130320656Y-106821001D01*
X130538520Y-106821001D01*
X130588914Y-106819880D01*
X130639878Y-106815071D01*
X130665526Y-106809521D01*
X130712404Y-106788436D01*
X130741974Y-106760673D01*
X130763387Y-106713954D01*
X130767620Y-106674944D01*
X130760796Y-106626160D01*
X130743440Y-106588726D01*
X130707697Y-106552906D01*
X130674808Y-106537923D01*
X130623664Y-106528407D01*
X130572134Y-106524872D01*
X130521912Y-106524002D01*
X130320656Y-106524002D01*
X130320656Y-106821001D01*
X130187299Y-106821001D01*
X130187299Y-106398949D01*
X130565143Y-106398949D01*
X130620036Y-106400857D01*
G37*
G36*
X131527780Y-106399865D02*
G01*
X131581681Y-106403085D01*
X131631283Y-106409382D01*
X131652023Y-106413604D01*
X131703581Y-106429317D01*
X131750178Y-106451423D01*
X131791814Y-106479921D01*
X131799546Y-106486388D01*
X131836946Y-106522704D01*
X131869277Y-106563752D01*
X131896541Y-106609532D01*
X131918737Y-106660045D01*
X131934154Y-106707656D01*
X131945785Y-106758166D01*
X131953628Y-106811574D01*
X131957686Y-106867880D01*
X131958304Y-106901357D01*
X131957018Y-106950744D01*
X131952401Y-107004096D01*
X131944424Y-107054151D01*
X131931437Y-107106521D01*
X131915245Y-107154370D01*
X131894398Y-107201826D01*
X131867996Y-107247084D01*
X131862805Y-107254532D01*
X131830198Y-107294992D01*
X131792394Y-107330917D01*
X131770970Y-107346856D01*
X131727218Y-107371383D01*
X131680678Y-107389300D01*
X131650802Y-107397658D01*
X131599960Y-107407531D01*
X131549432Y-107412950D01*
X131500450Y-107414932D01*
X131489113Y-107415000D01*
X131125680Y-107415000D01*
X131125680Y-107289947D01*
X131259037Y-107289947D01*
X131473970Y-107289947D01*
X131526624Y-107288498D01*
X131577151Y-107283489D01*
X131626702Y-107272756D01*
X131630286Y-107271629D01*
X131675473Y-107252535D01*
X131716353Y-107223730D01*
X131720656Y-107219605D01*
X131753239Y-107179534D01*
X131777918Y-107134837D01*
X131794417Y-107092599D01*
X131807286Y-107045125D01*
X131815944Y-106992281D01*
X131820103Y-106940799D01*
X131821039Y-106899403D01*
X131819210Y-106842986D01*
X131813724Y-106791703D01*
X131802699Y-106738364D01*
X131786696Y-106692013D01*
X131769016Y-106657847D01*
X131738112Y-106614716D01*
X131699606Y-106577125D01*
X131656711Y-106550411D01*
X131642986Y-106544518D01*
X131593665Y-106532016D01*
X131544592Y-106526426D01*
X131492278Y-106524182D01*
X131470551Y-106524002D01*
X131259037Y-106524002D01*
X131259037Y-107289947D01*
X131125680Y-107289947D01*
X131125680Y-106398949D01*
X131472505Y-106398949D01*
X131527780Y-106399865D01*
G37*
G36*
X132607257Y-107024211D02*
G01*
X132607257Y-106899159D01*
X133033705Y-106899159D01*
X133033705Y-107273094D01*
X132990445Y-107305537D01*
X132946577Y-107334263D01*
X132902102Y-107359272D01*
X132857018Y-107380565D01*
X132830984Y-107391064D01*
X132778487Y-107408374D01*
X132725287Y-107420739D01*
X132671386Y-107428158D01*
X132616783Y-107430631D01*
X132562131Y-107428390D01*
X132509369Y-107421667D01*
X132458496Y-107410461D01*
X132409512Y-107394773D01*
X132362417Y-107374603D01*
X132347138Y-107366884D01*
X132303796Y-107340886D01*
X132264626Y-107310887D01*
X132224203Y-107270831D01*
X132194075Y-107232163D01*
X132168121Y-107189493D01*
X132164201Y-107181992D01*
X132143200Y-107135658D01*
X132126545Y-107087332D01*
X132114235Y-107037015D01*
X132106269Y-106984705D01*
X132102649Y-106930403D01*
X132102407Y-106911859D01*
X132104562Y-106857134D01*
X132111028Y-106803782D01*
X132121804Y-106751804D01*
X132136891Y-106701200D01*
X132156288Y-106651970D01*
X132163712Y-106635865D01*
X132188682Y-106590106D01*
X132217430Y-106549002D01*
X132249957Y-106512552D01*
X132292679Y-106475908D01*
X132340544Y-106445600D01*
X132385094Y-106424434D01*
X132432101Y-106407647D01*
X132481563Y-106395239D01*
X132533481Y-106387210D01*
X132587854Y-106383561D01*
X132606524Y-106383318D01*
X132659800Y-106385592D01*
X132710450Y-106392416D01*
X132758474Y-106403788D01*
X132803873Y-106419710D01*
X132850573Y-106442441D01*
X132891208Y-106469693D01*
X132929242Y-106505275D01*
X132942358Y-106521071D01*
X132971314Y-106565540D01*
X132993378Y-106612170D01*
X133009811Y-106658874D01*
X133018562Y-106690575D01*
X132898395Y-106723548D01*
X132881480Y-106675054D01*
X132860064Y-106631039D01*
X132841974Y-106604113D01*
X132807133Y-106569392D01*
X132764817Y-106543094D01*
X132745987Y-106534504D01*
X132697169Y-106518579D01*
X132644504Y-106510003D01*
X132607257Y-106508370D01*
X132557826Y-106510553D01*
X132507479Y-106518100D01*
X132457663Y-106532627D01*
X132449232Y-106535969D01*
X132402830Y-106558959D01*
X132360700Y-106589445D01*
X132341521Y-106608265D01*
X132309290Y-106649058D01*
X132283979Y-106693216D01*
X132278018Y-106706451D01*
X132261241Y-106753590D01*
X132249258Y-106802683D01*
X132242068Y-106853729D01*
X132239672Y-106906730D01*
X132241892Y-106962791D01*
X132248554Y-107014715D01*
X132259657Y-107062501D01*
X132277784Y-107112048D01*
X132286078Y-107129235D01*
X132311906Y-107171062D01*
X132347241Y-107211256D01*
X132389221Y-107244186D01*
X132420900Y-107262103D01*
X132465917Y-107281124D01*
X132518203Y-107296026D01*
X132572228Y-107304050D01*
X132609211Y-107305579D01*
X132662973Y-107302454D01*
X132715876Y-107293080D01*
X132762755Y-107279301D01*
X132778227Y-107273583D01*
X132825912Y-107253027D01*
X132869329Y-107229480D01*
X132903279Y-107204951D01*
X132903279Y-107024211D01*
X132607257Y-107024211D01*
G37*
G36*
X130674316Y-104301081D02*
G01*
X130392948Y-104301081D01*
X130392948Y-104575122D01*
X130267896Y-104575122D01*
X130267896Y-104301081D01*
X129986528Y-104301081D01*
X129986528Y-104184333D01*
X130267896Y-104184333D01*
X130267896Y-103910293D01*
X130392948Y-103910293D01*
X130392948Y-104184333D01*
X130674316Y-104184333D01*
X130674316Y-104301081D01*
G37*
G36*
X130689947Y-103128471D02*
G01*
X130815000Y-103128471D01*
X130815000Y-103794277D01*
X130764974Y-103790319D01*
X130727561Y-103779867D01*
X130680271Y-103758796D01*
X130637681Y-103733379D01*
X130595473Y-103702000D01*
X130591273Y-103698534D01*
X130552101Y-103663013D01*
X130514945Y-103624854D01*
X130480631Y-103586381D01*
X130444634Y-103543162D01*
X130439354Y-103536601D01*
X130407270Y-103497232D01*
X130369667Y-103452701D01*
X130334842Y-103413369D01*
X130296720Y-103373035D01*
X130257302Y-103335441D01*
X130232480Y-103314828D01*
X130190841Y-103286847D01*
X130146162Y-103266496D01*
X130094751Y-103256999D01*
X130090575Y-103256943D01*
X130041093Y-103264327D01*
X129994464Y-103288994D01*
X129972362Y-103309455D01*
X129942892Y-103353373D01*
X129927827Y-103401597D01*
X129924002Y-103446720D01*
X129928462Y-103498979D01*
X129943671Y-103548475D01*
X129969675Y-103589602D01*
X130008842Y-103622300D01*
X130057831Y-103640160D01*
X130095949Y-103643824D01*
X130080317Y-103770830D01*
X130031135Y-103763434D01*
X129979552Y-103748380D01*
X129934210Y-103726408D01*
X129890033Y-103692825D01*
X129871001Y-103672644D01*
X129842926Y-103632558D01*
X129821747Y-103586885D01*
X129807463Y-103535626D01*
X129800708Y-103487243D01*
X129798949Y-103443789D01*
X129801817Y-103391596D01*
X129812413Y-103336066D01*
X129830815Y-103286309D01*
X129857025Y-103242326D01*
X129880526Y-103214445D01*
X129917979Y-103181516D01*
X129965363Y-103153787D01*
X130017631Y-103136621D01*
X130067372Y-103130267D01*
X130082271Y-103129937D01*
X130131759Y-103134008D01*
X130180602Y-103146222D01*
X130202927Y-103154605D01*
X130248150Y-103177709D01*
X130291173Y-103206974D01*
X130327491Y-103236671D01*
X130367769Y-103274946D01*
X130403878Y-103312997D01*
X130438159Y-103351379D01*
X130475513Y-103395085D01*
X130502124Y-103427180D01*
X130534052Y-103466146D01*
X130566114Y-103504531D01*
X130599128Y-103542686D01*
X130624979Y-103570306D01*
X130663436Y-103603847D01*
X130689947Y-103622330D01*
X130689947Y-103128471D01*
G37*
G36*
X130815000Y-102661723D02*
G01*
X129798949Y-103052023D01*
X129798949Y-102907676D01*
X130532411Y-102646092D01*
X130581138Y-102629062D01*
X130628126Y-102613694D01*
X130678296Y-102598567D01*
X130697763Y-102593091D01*
X130646143Y-102577721D01*
X130599644Y-102562664D01*
X130553106Y-102546448D01*
X130532411Y-102538869D01*
X129798949Y-102266782D01*
X129798949Y-102130739D01*
X130815000Y-102524947D01*
X130815000Y-102661723D01*
G37*
G36*
X130549263Y-102066748D02*
G01*
X130533632Y-101936810D01*
X130583062Y-101924083D01*
X130627849Y-101901488D01*
X130662592Y-101869888D01*
X130688787Y-101827447D01*
X130702892Y-101778892D01*
X130705579Y-101743126D01*
X130699520Y-101689950D01*
X130681345Y-101642166D01*
X130651053Y-101599771D01*
X130643541Y-101591939D01*
X130600655Y-101559353D01*
X130555288Y-101540344D01*
X130503506Y-101531111D01*
X130478433Y-101530146D01*
X130426743Y-101534860D01*
X130376969Y-101551156D01*
X130335257Y-101579091D01*
X130324316Y-101589741D01*
X130294563Y-101630437D01*
X130275830Y-101678337D01*
X130268391Y-101727605D01*
X130267896Y-101745324D01*
X130272056Y-101795439D01*
X130285748Y-101844154D01*
X130289633Y-101853279D01*
X130314607Y-101896083D01*
X130346053Y-101928750D01*
X130330422Y-102044766D01*
X129814581Y-101947313D01*
X129814581Y-101446371D01*
X129939633Y-101446371D01*
X129939633Y-101848394D01*
X130215139Y-101902616D01*
X130186969Y-101862540D01*
X130163247Y-101815680D01*
X130148562Y-101767690D01*
X130142914Y-101718571D01*
X130142843Y-101712351D01*
X130147238Y-101656624D01*
X130160421Y-101604847D01*
X130182393Y-101557021D01*
X130213155Y-101513144D01*
X130234678Y-101489846D01*
X130277274Y-101454443D01*
X130324919Y-101427736D01*
X130377612Y-101409724D01*
X130426796Y-101401206D01*
X130470617Y-101398988D01*
X130520778Y-101401787D01*
X130575977Y-101412128D01*
X130627600Y-101430090D01*
X130675647Y-101455672D01*
X130707777Y-101478611D01*
X130749528Y-101517454D01*
X130782641Y-101561260D01*
X130807116Y-101610030D01*
X130822953Y-101663762D01*
X130829551Y-101712330D01*
X130830631Y-101743126D01*
X130827926Y-101792914D01*
X130817934Y-101846507D01*
X130800578Y-101895262D01*
X130775859Y-101939179D01*
X130753695Y-101967585D01*
X130717532Y-102001966D01*
X130676578Y-102029241D01*
X130630832Y-102049410D01*
X130580294Y-102062473D01*
X130549263Y-102066748D01*
G37*
G36*
X144776301Y-96015495D02*
G01*
X144776301Y-95935461D01*
X145049228Y-95935461D01*
X145049228Y-96174780D01*
X145021542Y-96195543D01*
X144993466Y-96213928D01*
X144965002Y-96229934D01*
X144936148Y-96243561D01*
X144919486Y-96250281D01*
X144885888Y-96261359D01*
X144851841Y-96269273D01*
X144817344Y-96274021D01*
X144782398Y-96275604D01*
X144747421Y-96274169D01*
X144713653Y-96269866D01*
X144681094Y-96262695D01*
X144649744Y-96252655D01*
X144619604Y-96239746D01*
X144609825Y-96234805D01*
X144582086Y-96218167D01*
X144557018Y-96198968D01*
X144531147Y-96173332D01*
X144511865Y-96148584D01*
X144495254Y-96121275D01*
X144492745Y-96116475D01*
X144479305Y-96086821D01*
X144468646Y-96055893D01*
X144460767Y-96023689D01*
X144455669Y-95990211D01*
X144453352Y-95955457D01*
X144453197Y-95943590D01*
X144454577Y-95908565D01*
X144458715Y-95874420D01*
X144465612Y-95841154D01*
X144475267Y-95808768D01*
X144487681Y-95777260D01*
X144492433Y-95766953D01*
X144508413Y-95737668D01*
X144526812Y-95711361D01*
X144547629Y-95688033D01*
X144574971Y-95664581D01*
X144605605Y-95645184D01*
X144634117Y-95631637D01*
X144664201Y-95620894D01*
X144695857Y-95612953D01*
X144729084Y-95607814D01*
X144763883Y-95605479D01*
X144775832Y-95605323D01*
X144809929Y-95606779D01*
X144842345Y-95611146D01*
X144873080Y-95618424D01*
X144902135Y-95628614D01*
X144932024Y-95643162D01*
X144958030Y-95660603D01*
X144982371Y-95683376D01*
X144990766Y-95693485D01*
X145009298Y-95721945D01*
X145023419Y-95751789D01*
X145033936Y-95781679D01*
X145039536Y-95801968D01*
X144962629Y-95823071D01*
X144951804Y-95792034D01*
X144938098Y-95763865D01*
X144926520Y-95746632D01*
X144904222Y-95724410D01*
X144877140Y-95707580D01*
X144865088Y-95702082D01*
X144833845Y-95691890D01*
X144800139Y-95686402D01*
X144776301Y-95685357D01*
X144744665Y-95686754D01*
X144712444Y-95691584D01*
X144680561Y-95700881D01*
X144675165Y-95703020D01*
X144645468Y-95717733D01*
X144618505Y-95737245D01*
X144606230Y-95749290D01*
X144585603Y-95775397D01*
X144569403Y-95803658D01*
X144565588Y-95812128D01*
X144554851Y-95842297D01*
X144547182Y-95873717D01*
X144542580Y-95906387D01*
X144541047Y-95940307D01*
X144542468Y-95976186D01*
X144546731Y-96009417D01*
X144553837Y-96040001D01*
X144565439Y-96071711D01*
X144570747Y-96082710D01*
X144587277Y-96109479D01*
X144609891Y-96135204D01*
X144636758Y-96156279D01*
X144657033Y-96167746D01*
X144685844Y-96179919D01*
X144719307Y-96189456D01*
X144753883Y-96194592D01*
X144777552Y-96195570D01*
X144811960Y-96193570D01*
X144845818Y-96187571D01*
X144875820Y-96178752D01*
X144885722Y-96175093D01*
X144916240Y-96161937D01*
X144944027Y-96146867D01*
X144965756Y-96131168D01*
X144965756Y-96015495D01*
X144776301Y-96015495D01*
G37*
G36*
X145170372Y-96265600D02*
G01*
X145170372Y-95615327D01*
X145257753Y-95615327D01*
X145596332Y-96114286D01*
X145596332Y-95615327D01*
X145678085Y-95615327D01*
X145678085Y-96265600D01*
X145590705Y-96265600D01*
X145252125Y-95766641D01*
X145252125Y-96265600D01*
X145170372Y-96265600D01*
G37*
G36*
X146075019Y-95615914D02*
G01*
X146109515Y-95617974D01*
X146141261Y-95622004D01*
X146154534Y-95624706D01*
X146187532Y-95634763D01*
X146217354Y-95648911D01*
X146244001Y-95667150D01*
X146248949Y-95671288D01*
X146272885Y-95694530D01*
X146293577Y-95720801D01*
X146311026Y-95750101D01*
X146325231Y-95782429D01*
X146335098Y-95812900D01*
X146342542Y-95845226D01*
X146347562Y-95879407D01*
X146350158Y-95915443D01*
X146350554Y-95936868D01*
X146349731Y-95968476D01*
X146346776Y-96002621D01*
X146341671Y-96034656D01*
X146333359Y-96068173D01*
X146322996Y-96098797D01*
X146309654Y-96129168D01*
X146292757Y-96158134D01*
X146289435Y-96162900D01*
X146268566Y-96188795D01*
X146244372Y-96211787D01*
X146230660Y-96221987D01*
X146202659Y-96237685D01*
X146172874Y-96249152D01*
X146153753Y-96254501D01*
X146121214Y-96260820D01*
X146088876Y-96264288D01*
X146057527Y-96265556D01*
X146050272Y-96265600D01*
X145817675Y-96265600D01*
X145817675Y-96185566D01*
X145903023Y-96185566D01*
X146040580Y-96185566D01*
X146074279Y-96184639D01*
X146106616Y-96181433D01*
X146138329Y-96174564D01*
X146140622Y-96173842D01*
X146169542Y-96161622D01*
X146195705Y-96143187D01*
X146198459Y-96140547D01*
X146219312Y-96114902D01*
X146235107Y-96086295D01*
X146245666Y-96059263D01*
X146253903Y-96028880D01*
X146259443Y-95995060D01*
X146262106Y-95962111D01*
X146262705Y-95935618D01*
X146261534Y-95899511D01*
X146258023Y-95866690D01*
X146250967Y-95832553D01*
X146240725Y-95802888D01*
X146229409Y-95781022D01*
X146209631Y-95753418D01*
X146184987Y-95729360D01*
X146157534Y-95712263D01*
X146148751Y-95708491D01*
X146117185Y-95700490D01*
X146085778Y-95696912D01*
X146052297Y-95695476D01*
X146038392Y-95695361D01*
X145903023Y-95695361D01*
X145903023Y-96185566D01*
X145817675Y-96185566D01*
X145817675Y-95615327D01*
X146039643Y-95615327D01*
X146075019Y-95615914D01*
G37*
G36*
X130674316Y-100701081D02*
G01*
X130392948Y-100701081D01*
X130392948Y-100975122D01*
X130267896Y-100975122D01*
X130267896Y-100701081D01*
X129986528Y-100701081D01*
X129986528Y-100584333D01*
X130267896Y-100584333D01*
X130267896Y-100310293D01*
X130392948Y-100310293D01*
X130392948Y-100584333D01*
X130674316Y-100584333D01*
X130674316Y-100701081D01*
G37*
G36*
X130549263Y-100177669D02*
G01*
X130533632Y-100054082D01*
X130580976Y-100039772D01*
X130627875Y-100015881D01*
X130665279Y-99981786D01*
X130691371Y-99936444D01*
X130703650Y-99888078D01*
X130705579Y-99856978D01*
X130699950Y-99805000D01*
X130683063Y-99758365D01*
X130654917Y-99717072D01*
X130647937Y-99709455D01*
X130609064Y-99677770D01*
X130560077Y-99656471D01*
X130509883Y-99649430D01*
X130504567Y-99649371D01*
X130451859Y-99655952D01*
X130405905Y-99675692D01*
X130369989Y-99705059D01*
X130339675Y-99746923D01*
X130321944Y-99795944D01*
X130316744Y-99846720D01*
X130322087Y-99897152D01*
X130330422Y-99933914D01*
X130205369Y-99919992D01*
X130206591Y-99900209D01*
X130202377Y-99847819D01*
X130189736Y-99799123D01*
X130170931Y-99758059D01*
X130138577Y-99719511D01*
X130091278Y-99697828D01*
X130060533Y-99694801D01*
X130009629Y-99704944D01*
X129967740Y-99735373D01*
X129962836Y-99740962D01*
X129936289Y-99786283D01*
X129924950Y-99837575D01*
X129924002Y-99859664D01*
X129929497Y-99910337D01*
X129947853Y-99957636D01*
X129963080Y-99979832D01*
X130001282Y-100013242D01*
X130047993Y-100033994D01*
X130080317Y-100041625D01*
X130064685Y-100165212D01*
X130012057Y-100152516D01*
X129964875Y-100134304D01*
X129917622Y-100106735D01*
X129877482Y-100071961D01*
X129868558Y-100062142D01*
X129838104Y-100019521D01*
X129816352Y-99972016D01*
X129803300Y-99919626D01*
X129799017Y-99869778D01*
X129798949Y-99862351D01*
X129802312Y-99812172D01*
X129813781Y-99759894D01*
X129833387Y-99710676D01*
X129859897Y-99666855D01*
X129895664Y-99627872D01*
X129927177Y-99604675D01*
X129972720Y-99582201D01*
X130020325Y-99570099D01*
X130053206Y-99567794D01*
X130102750Y-99573559D01*
X130148585Y-99590851D01*
X130168489Y-99602721D01*
X130207251Y-99636702D01*
X130236806Y-99678015D01*
X130251287Y-99706524D01*
X130266833Y-99659409D01*
X130292536Y-99614491D01*
X130327112Y-99577397D01*
X130339214Y-99567794D01*
X130384180Y-99541648D01*
X130435729Y-99525185D01*
X130487751Y-99518649D01*
X130506277Y-99518213D01*
X130555741Y-99521596D01*
X130609761Y-99534095D01*
X130659806Y-99555803D01*
X130705878Y-99586722D01*
X130736353Y-99614445D01*
X130768393Y-99652235D01*
X130797394Y-99700859D01*
X130815072Y-99746426D01*
X130826120Y-99795581D01*
X130830539Y-99848326D01*
X130830631Y-99857466D01*
X130826879Y-99913339D01*
X130815624Y-99964910D01*
X130796866Y-100012181D01*
X130770605Y-100055150D01*
X130752229Y-100077773D01*
X130715719Y-100112440D01*
X130674792Y-100139930D01*
X130629446Y-100160245D01*
X130579683Y-100173383D01*
X130549263Y-100177669D01*
G37*
G36*
X130815000Y-99061723D02*
G01*
X129798949Y-99452023D01*
X129798949Y-99307676D01*
X130532411Y-99046092D01*
X130581138Y-99029062D01*
X130628126Y-99013694D01*
X130678296Y-98998567D01*
X130697763Y-98993091D01*
X130646143Y-98977721D01*
X130599644Y-98962664D01*
X130553106Y-98946448D01*
X130532411Y-98938869D01*
X129798949Y-98666782D01*
X129798949Y-98530739D01*
X130815000Y-98924947D01*
X130815000Y-99061723D01*
G37*
G36*
X130368930Y-97810867D02*
G01*
X130419486Y-97813532D01*
X130475746Y-97819077D01*
X130527197Y-97827179D01*
X130581147Y-97839867D01*
X130602264Y-97846371D01*
X130653753Y-97866826D01*
X130699045Y-97891800D01*
X130738139Y-97921292D01*
X130771036Y-97955303D01*
X130799844Y-97999121D01*
X130819224Y-98048966D01*
X130828536Y-98098334D01*
X130830631Y-98138485D01*
X130826947Y-98190875D01*
X130815896Y-98238869D01*
X130793692Y-98289305D01*
X130761460Y-98333757D01*
X130725851Y-98367096D01*
X130682591Y-98395804D01*
X130631579Y-98419647D01*
X130585188Y-98435217D01*
X130533836Y-98447674D01*
X130477523Y-98457016D01*
X130416248Y-98463244D01*
X130367037Y-98465872D01*
X130315034Y-98466748D01*
X130260793Y-98465853D01*
X130209962Y-98463170D01*
X130153468Y-98457588D01*
X130101885Y-98449431D01*
X130047912Y-98436658D01*
X130026828Y-98430111D01*
X129975262Y-98409457D01*
X129929986Y-98384377D01*
X129890998Y-98354869D01*
X129858300Y-98320935D01*
X129829610Y-98277175D01*
X129810309Y-98227503D01*
X129801036Y-98178387D01*
X129799013Y-98139706D01*
X129924002Y-98139706D01*
X129930680Y-98189619D01*
X129953454Y-98236754D01*
X129988182Y-98272541D01*
X129992390Y-98275750D01*
X130037620Y-98300684D01*
X130087663Y-98317182D01*
X130137315Y-98327493D01*
X130194195Y-98334679D01*
X130244902Y-98338179D01*
X130300234Y-98339679D01*
X130314790Y-98339741D01*
X130371134Y-98338833D01*
X130422562Y-98336108D01*
X130479936Y-98330148D01*
X130529628Y-98321349D01*
X130579122Y-98307043D01*
X130622886Y-98285188D01*
X130627909Y-98281611D01*
X130665455Y-98246769D01*
X130692760Y-98203025D01*
X130704896Y-98153985D01*
X130705579Y-98138241D01*
X130697946Y-98087742D01*
X130675048Y-98042490D01*
X130641389Y-98006250D01*
X130627421Y-97995115D01*
X130578572Y-97969683D01*
X130529113Y-97955377D01*
X130479501Y-97946578D01*
X130422257Y-97940618D01*
X130370966Y-97937893D01*
X130314790Y-97936985D01*
X130258340Y-97937893D01*
X130206835Y-97940618D01*
X130149409Y-97946578D01*
X130099711Y-97955377D01*
X130050275Y-97969683D01*
X130001671Y-97995115D01*
X129964126Y-98030054D01*
X129936820Y-98074132D01*
X129924684Y-98123744D01*
X129924002Y-98139706D01*
X129799013Y-98139706D01*
X129798949Y-98138485D01*
X129802817Y-98085103D01*
X129814419Y-98036455D01*
X129831678Y-97996336D01*
X129860311Y-97953380D01*
X129897120Y-97916468D01*
X129926200Y-97895219D01*
X129971718Y-97869869D01*
X130018659Y-97850330D01*
X130065433Y-97835599D01*
X130076409Y-97832693D01*
X130124479Y-97822755D01*
X130180273Y-97815657D01*
X130235430Y-97811775D01*
X130287413Y-97810178D01*
X130315034Y-97809978D01*
X130368930Y-97810867D01*
G37*
X151220588Y-123053036D02*
X151312017Y-123083512D01*
X151312017Y-123083512D02*
X151464398Y-123083512D01*
X151464398Y-123083512D02*
X151525350Y-123053036D01*
X151525350Y-123053036D02*
X151555826Y-123022559D01*
X151555826Y-123022559D02*
X151586303Y-122961607D01*
X151586303Y-122961607D02*
X151586303Y-122900655D01*
X151586303Y-122900655D02*
X151555826Y-122839702D01*
X151555826Y-122839702D02*
X151525350Y-122809226D01*
X151525350Y-122809226D02*
X151464398Y-122778750D01*
X151464398Y-122778750D02*
X151342493Y-122748274D01*
X151342493Y-122748274D02*
X151281541Y-122717797D01*
X151281541Y-122717797D02*
X151251064Y-122687321D01*
X151251064Y-122687321D02*
X151220588Y-122626369D01*
X151220588Y-122626369D02*
X151220588Y-122565416D01*
X151220588Y-122565416D02*
X151251064Y-122504464D01*
X151251064Y-122504464D02*
X151281541Y-122473988D01*
X151281541Y-122473988D02*
X151342493Y-122443512D01*
X151342493Y-122443512D02*
X151494874Y-122443512D01*
X151494874Y-122443512D02*
X151586303Y-122473988D01*
X151769160Y-122656845D02*
X152012969Y-122656845D01*
X151860588Y-122443512D02*
X151860588Y-122992083D01*
X151860588Y-122992083D02*
X151891065Y-123053036D01*
X151891065Y-123053036D02*
X151952017Y-123083512D01*
X151952017Y-123083512D02*
X152012969Y-123083512D01*
X152226302Y-123083512D02*
X152226302Y-122656845D01*
X152226302Y-122778750D02*
X152256779Y-122717797D01*
X152256779Y-122717797D02*
X152287255Y-122687321D01*
X152287255Y-122687321D02*
X152348207Y-122656845D01*
X152348207Y-122656845D02*
X152409160Y-122656845D01*
X152896778Y-123083512D02*
X152896778Y-122748274D01*
X152896778Y-122748274D02*
X152866302Y-122687321D01*
X152866302Y-122687321D02*
X152805350Y-122656845D01*
X152805350Y-122656845D02*
X152683445Y-122656845D01*
X152683445Y-122656845D02*
X152622492Y-122687321D01*
X152896778Y-123053036D02*
X152835826Y-123083512D01*
X152835826Y-123083512D02*
X152683445Y-123083512D01*
X152683445Y-123083512D02*
X152622492Y-123053036D01*
X152622492Y-123053036D02*
X152592016Y-122992083D01*
X152592016Y-122992083D02*
X152592016Y-122931131D01*
X152592016Y-122931131D02*
X152622492Y-122870178D01*
X152622492Y-122870178D02*
X152683445Y-122839702D01*
X152683445Y-122839702D02*
X152835826Y-122839702D01*
X152835826Y-122839702D02*
X152896778Y-122809226D01*
X153201540Y-123083512D02*
X153201540Y-122656845D01*
X153201540Y-122443512D02*
X153171064Y-122473988D01*
X153171064Y-122473988D02*
X153201540Y-122504464D01*
X153201540Y-122504464D02*
X153232017Y-122473988D01*
X153232017Y-122473988D02*
X153201540Y-122443512D01*
X153201540Y-122443512D02*
X153201540Y-122504464D01*
X153506302Y-122656845D02*
X153506302Y-123083512D01*
X153506302Y-122717797D02*
X153536779Y-122687321D01*
X153536779Y-122687321D02*
X153597731Y-122656845D01*
X153597731Y-122656845D02*
X153689160Y-122656845D01*
X153689160Y-122656845D02*
X153750112Y-122687321D01*
X153750112Y-122687321D02*
X153780588Y-122748274D01*
X153780588Y-122748274D02*
X153780588Y-123083512D01*
X154542493Y-123053036D02*
X154633922Y-123083512D01*
X154633922Y-123083512D02*
X154786303Y-123083512D01*
X154786303Y-123083512D02*
X154847255Y-123053036D01*
X154847255Y-123053036D02*
X154877731Y-123022559D01*
X154877731Y-123022559D02*
X154908208Y-122961607D01*
X154908208Y-122961607D02*
X154908208Y-122900655D01*
X154908208Y-122900655D02*
X154877731Y-122839702D01*
X154877731Y-122839702D02*
X154847255Y-122809226D01*
X154847255Y-122809226D02*
X154786303Y-122778750D01*
X154786303Y-122778750D02*
X154664398Y-122748274D01*
X154664398Y-122748274D02*
X154603446Y-122717797D01*
X154603446Y-122717797D02*
X154572969Y-122687321D01*
X154572969Y-122687321D02*
X154542493Y-122626369D01*
X154542493Y-122626369D02*
X154542493Y-122565416D01*
X154542493Y-122565416D02*
X154572969Y-122504464D01*
X154572969Y-122504464D02*
X154603446Y-122473988D01*
X154603446Y-122473988D02*
X154664398Y-122443512D01*
X154664398Y-122443512D02*
X154816779Y-122443512D01*
X154816779Y-122443512D02*
X154908208Y-122473988D01*
X155426303Y-123053036D02*
X155365351Y-123083512D01*
X155365351Y-123083512D02*
X155243446Y-123083512D01*
X155243446Y-123083512D02*
X155182493Y-123053036D01*
X155182493Y-123053036D02*
X155152017Y-122992083D01*
X155152017Y-122992083D02*
X155152017Y-122748274D01*
X155152017Y-122748274D02*
X155182493Y-122687321D01*
X155182493Y-122687321D02*
X155243446Y-122656845D01*
X155243446Y-122656845D02*
X155365351Y-122656845D01*
X155365351Y-122656845D02*
X155426303Y-122687321D01*
X155426303Y-122687321D02*
X155456779Y-122748274D01*
X155456779Y-122748274D02*
X155456779Y-122809226D01*
X155456779Y-122809226D02*
X155152017Y-122870178D01*
X155731064Y-122656845D02*
X155731064Y-123083512D01*
X155731064Y-122717797D02*
X155761541Y-122687321D01*
X155761541Y-122687321D02*
X155822493Y-122656845D01*
X155822493Y-122656845D02*
X155913922Y-122656845D01*
X155913922Y-122656845D02*
X155974874Y-122687321D01*
X155974874Y-122687321D02*
X156005350Y-122748274D01*
X156005350Y-122748274D02*
X156005350Y-123083512D01*
X156279636Y-123053036D02*
X156340589Y-123083512D01*
X156340589Y-123083512D02*
X156462493Y-123083512D01*
X156462493Y-123083512D02*
X156523446Y-123053036D01*
X156523446Y-123053036D02*
X156553922Y-122992083D01*
X156553922Y-122992083D02*
X156553922Y-122961607D01*
X156553922Y-122961607D02*
X156523446Y-122900655D01*
X156523446Y-122900655D02*
X156462493Y-122870178D01*
X156462493Y-122870178D02*
X156371065Y-122870178D01*
X156371065Y-122870178D02*
X156310112Y-122839702D01*
X156310112Y-122839702D02*
X156279636Y-122778750D01*
X156279636Y-122778750D02*
X156279636Y-122748274D01*
X156279636Y-122748274D02*
X156310112Y-122687321D01*
X156310112Y-122687321D02*
X156371065Y-122656845D01*
X156371065Y-122656845D02*
X156462493Y-122656845D01*
X156462493Y-122656845D02*
X156523446Y-122687321D01*
X156919636Y-123083512D02*
X156858684Y-123053036D01*
X156858684Y-123053036D02*
X156828207Y-123022559D01*
X156828207Y-123022559D02*
X156797731Y-122961607D01*
X156797731Y-122961607D02*
X156797731Y-122778750D01*
X156797731Y-122778750D02*
X156828207Y-122717797D01*
X156828207Y-122717797D02*
X156858684Y-122687321D01*
X156858684Y-122687321D02*
X156919636Y-122656845D01*
X156919636Y-122656845D02*
X157011065Y-122656845D01*
X157011065Y-122656845D02*
X157072017Y-122687321D01*
X157072017Y-122687321D02*
X157102493Y-122717797D01*
X157102493Y-122717797D02*
X157132969Y-122778750D01*
X157132969Y-122778750D02*
X157132969Y-122961607D01*
X157132969Y-122961607D02*
X157102493Y-123022559D01*
X157102493Y-123022559D02*
X157072017Y-123053036D01*
X157072017Y-123053036D02*
X157011065Y-123083512D01*
X157011065Y-123083512D02*
X156919636Y-123083512D01*
X157407255Y-123083512D02*
X157407255Y-122656845D01*
X157407255Y-122778750D02*
X157437732Y-122717797D01*
X157437732Y-122717797D02*
X157468208Y-122687321D01*
X157468208Y-122687321D02*
X157529160Y-122656845D01*
X157529160Y-122656845D02*
X157590113Y-122656845D01*
X151616779Y-124113876D02*
X151403445Y-123809114D01*
X151251064Y-124113876D02*
X151251064Y-123473876D01*
X151251064Y-123473876D02*
X151494874Y-123473876D01*
X151494874Y-123473876D02*
X151555826Y-123504352D01*
X151555826Y-123504352D02*
X151586303Y-123534828D01*
X151586303Y-123534828D02*
X151616779Y-123595780D01*
X151616779Y-123595780D02*
X151616779Y-123687209D01*
X151616779Y-123687209D02*
X151586303Y-123748161D01*
X151586303Y-123748161D02*
X151555826Y-123778638D01*
X151555826Y-123778638D02*
X151494874Y-123809114D01*
X151494874Y-123809114D02*
X151251064Y-123809114D01*
X152134874Y-124083400D02*
X152073922Y-124113876D01*
X152073922Y-124113876D02*
X151952017Y-124113876D01*
X151952017Y-124113876D02*
X151891064Y-124083400D01*
X151891064Y-124083400D02*
X151860588Y-124022447D01*
X151860588Y-124022447D02*
X151860588Y-123778638D01*
X151860588Y-123778638D02*
X151891064Y-123717685D01*
X151891064Y-123717685D02*
X151952017Y-123687209D01*
X151952017Y-123687209D02*
X152073922Y-123687209D01*
X152073922Y-123687209D02*
X152134874Y-123717685D01*
X152134874Y-123717685D02*
X152165350Y-123778638D01*
X152165350Y-123778638D02*
X152165350Y-123839590D01*
X152165350Y-123839590D02*
X151860588Y-123900542D01*
X152378683Y-123687209D02*
X152531064Y-124113876D01*
X152531064Y-124113876D02*
X152683445Y-123687209D01*
X152927254Y-124052923D02*
X152957731Y-124083400D01*
X152957731Y-124083400D02*
X152927254Y-124113876D01*
X152927254Y-124113876D02*
X152896778Y-124083400D01*
X152896778Y-124083400D02*
X152927254Y-124052923D01*
X152927254Y-124052923D02*
X152927254Y-124113876D01*
X154054874Y-124113876D02*
X153689159Y-124113876D01*
X153872016Y-124113876D02*
X153872016Y-123473876D01*
X153872016Y-123473876D02*
X153811064Y-123565304D01*
X153811064Y-123565304D02*
X153750112Y-123626257D01*
X153750112Y-123626257D02*
X153689159Y-123656733D01*
X154329159Y-124052923D02*
X154359636Y-124083400D01*
X154359636Y-124083400D02*
X154329159Y-124113876D01*
X154329159Y-124113876D02*
X154298683Y-124083400D01*
X154298683Y-124083400D02*
X154329159Y-124052923D01*
X154329159Y-124052923D02*
X154329159Y-124113876D01*
X154755826Y-123473876D02*
X154816779Y-123473876D01*
X154816779Y-123473876D02*
X154877731Y-123504352D01*
X154877731Y-123504352D02*
X154908207Y-123534828D01*
X154908207Y-123534828D02*
X154938683Y-123595780D01*
X154938683Y-123595780D02*
X154969160Y-123717685D01*
X154969160Y-123717685D02*
X154969160Y-123870066D01*
X154969160Y-123870066D02*
X154938683Y-123991971D01*
X154938683Y-123991971D02*
X154908207Y-124052923D01*
X154908207Y-124052923D02*
X154877731Y-124083400D01*
X154877731Y-124083400D02*
X154816779Y-124113876D01*
X154816779Y-124113876D02*
X154755826Y-124113876D01*
X154755826Y-124113876D02*
X154694874Y-124083400D01*
X154694874Y-124083400D02*
X154664398Y-124052923D01*
X154664398Y-124052923D02*
X154633921Y-123991971D01*
X154633921Y-123991971D02*
X154603445Y-123870066D01*
X154603445Y-123870066D02*
X154603445Y-123717685D01*
X154603445Y-123717685D02*
X154633921Y-123595780D01*
X154633921Y-123595780D02*
X154664398Y-123534828D01*
X154664398Y-123534828D02*
X154694874Y-123504352D01*
X154694874Y-123504352D02*
X154755826Y-123473876D01*
G36*
X139607877Y-96265600D02*
G01*
X139510805Y-96265600D01*
X139435617Y-96065516D01*
X139166129Y-96065516D01*
X139095319Y-96265600D01*
X139004812Y-96265600D01*
X139111405Y-95985482D01*
X139190671Y-95985482D01*
X139409200Y-95985482D01*
X139341984Y-95821820D01*
X139329267Y-95787933D01*
X139318061Y-95757531D01*
X139307105Y-95727054D01*
X139296184Y-95695361D01*
X139288510Y-95725899D01*
X139279203Y-95757723D01*
X139268264Y-95790834D01*
X139261482Y-95809784D01*
X139190671Y-95985482D01*
X139111405Y-95985482D01*
X139252259Y-95615327D01*
X139344173Y-95615327D01*
X139607877Y-96265600D01*
G37*
G36*
X139995450Y-95616158D02*
G01*
X140027208Y-95618648D01*
X140058666Y-95623528D01*
X140090735Y-95632678D01*
X140119436Y-95647658D01*
X140143851Y-95668955D01*
X140162328Y-95693798D01*
X140176506Y-95722054D01*
X140185433Y-95752111D01*
X140189109Y-95783969D01*
X140189214Y-95790557D01*
X140186439Y-95823442D01*
X140178116Y-95853630D01*
X140162118Y-95884369D01*
X140144820Y-95905918D01*
X140119605Y-95927225D01*
X140088351Y-95944254D01*
X140056052Y-95955644D01*
X140024688Y-95962799D01*
X140007732Y-95965474D01*
X140035926Y-95981198D01*
X140059159Y-95998769D01*
X140082127Y-96022601D01*
X140102146Y-96046712D01*
X140121546Y-96073346D01*
X140129970Y-96085993D01*
X140242049Y-96265600D01*
X140134660Y-96265600D01*
X140049468Y-96128355D01*
X140031609Y-96100403D01*
X140013479Y-96073139D01*
X139994142Y-96045827D01*
X139987880Y-96037535D01*
X139966264Y-96012329D01*
X139944424Y-95994392D01*
X139915467Y-95980998D01*
X139905658Y-95978292D01*
X139873476Y-95975654D01*
X139858138Y-95975478D01*
X139759190Y-95975478D01*
X139759190Y-96265600D01*
X139673998Y-96265600D01*
X139673998Y-95895445D01*
X139759190Y-95895445D01*
X139942548Y-95895445D01*
X139976599Y-95894345D01*
X140008306Y-95890598D01*
X140033993Y-95884190D01*
X140063028Y-95869418D01*
X140084170Y-95847925D01*
X140098073Y-95818403D01*
X140101365Y-95793527D01*
X140095870Y-95761230D01*
X140079385Y-95733937D01*
X140068069Y-95723029D01*
X140040724Y-95707276D01*
X140007947Y-95698630D01*
X139976295Y-95695604D01*
X139963182Y-95695361D01*
X139759190Y-95695361D01*
X139759190Y-95895445D01*
X139673998Y-95895445D01*
X139673998Y-95615327D01*
X139959743Y-95615327D01*
X139995450Y-95616158D01*
G37*
G36*
X140320988Y-96265600D02*
G01*
X140320988Y-95615327D01*
X140786964Y-95615327D01*
X140786964Y-95695361D01*
X140406180Y-95695361D01*
X140406180Y-95885440D01*
X140762735Y-95885440D01*
X140762735Y-95965474D01*
X140406180Y-95965474D01*
X140406180Y-96185566D01*
X140801970Y-96185566D01*
X140801970Y-96265600D01*
X140320988Y-96265600D01*
G37*
G36*
X140920770Y-96265600D02*
G01*
X140920770Y-95615327D01*
X141355483Y-95615327D01*
X141355483Y-95695361D01*
X141005962Y-95695361D01*
X141005962Y-95885440D01*
X141308432Y-95885440D01*
X141308432Y-95965474D01*
X141005962Y-95965474D01*
X141005962Y-96265600D01*
X140920770Y-96265600D01*
G37*
G36*
X142656731Y-96265600D02*
G01*
X142559659Y-96265600D01*
X142484471Y-96065516D01*
X142214983Y-96065516D01*
X142144173Y-96265600D01*
X142053666Y-96265600D01*
X142160259Y-95985482D01*
X142239525Y-95985482D01*
X142458054Y-95985482D01*
X142390838Y-95821820D01*
X142378121Y-95787933D01*
X142366915Y-95757531D01*
X142355959Y-95727054D01*
X142345038Y-95695361D01*
X142337364Y-95725899D01*
X142328057Y-95757723D01*
X142317118Y-95790834D01*
X142310336Y-95809784D01*
X142239525Y-95985482D01*
X142160259Y-95985482D01*
X142301113Y-95615327D01*
X142393027Y-95615327D01*
X142656731Y-96265600D01*
G37*
G36*
X142978789Y-95615914D02*
G01*
X143013286Y-95617974D01*
X143045031Y-95622004D01*
X143058305Y-95624706D01*
X143091302Y-95634763D01*
X143121124Y-95648911D01*
X143147771Y-95667150D01*
X143152720Y-95671288D01*
X143176656Y-95694530D01*
X143197348Y-95720801D01*
X143214796Y-95750101D01*
X143229002Y-95782429D01*
X143238869Y-95812900D01*
X143246312Y-95845226D01*
X143251332Y-95879407D01*
X143253929Y-95915443D01*
X143254325Y-95936868D01*
X143253502Y-95968476D01*
X143250547Y-96002621D01*
X143245442Y-96034656D01*
X143237130Y-96068173D01*
X143226767Y-96098797D01*
X143213425Y-96129168D01*
X143196528Y-96158134D01*
X143193205Y-96162900D01*
X143172337Y-96188795D01*
X143148143Y-96211787D01*
X143134431Y-96221987D01*
X143106430Y-96237685D01*
X143076644Y-96249152D01*
X143057524Y-96254501D01*
X143024985Y-96260820D01*
X142992647Y-96264288D01*
X142961298Y-96265556D01*
X142954043Y-96265600D01*
X142721445Y-96265600D01*
X142721445Y-96185566D01*
X142806794Y-96185566D01*
X142944351Y-96185566D01*
X142978049Y-96184639D01*
X143010387Y-96181433D01*
X143042100Y-96174564D01*
X143044393Y-96173842D01*
X143073313Y-96161622D01*
X143099476Y-96143187D01*
X143102230Y-96140547D01*
X143123083Y-96114902D01*
X143138878Y-96086295D01*
X143149437Y-96059263D01*
X143157673Y-96028880D01*
X143163214Y-95995060D01*
X143165876Y-95962111D01*
X143166475Y-95935618D01*
X143165305Y-95899511D01*
X143161793Y-95866690D01*
X143154738Y-95832553D01*
X143144495Y-95802888D01*
X143133180Y-95781022D01*
X143113402Y-95753418D01*
X143088758Y-95729360D01*
X143061305Y-95712263D01*
X143052522Y-95708491D01*
X143020956Y-95700490D01*
X142989549Y-95696912D01*
X142956068Y-95695476D01*
X142942163Y-95695361D01*
X142806794Y-95695361D01*
X142806794Y-96185566D01*
X142721445Y-96185566D01*
X142721445Y-95615327D01*
X142943413Y-95615327D01*
X142978789Y-95615914D01*
G37*
G36*
X143827846Y-96034878D02*
G01*
X143913194Y-96055981D01*
X143903747Y-96088201D01*
X143892208Y-96117942D01*
X143875600Y-96150356D01*
X143855982Y-96179198D01*
X143833351Y-96204468D01*
X143816591Y-96219330D01*
X143789413Y-96238454D01*
X143760047Y-96253622D01*
X143728494Y-96264833D01*
X143694753Y-96272087D01*
X143658826Y-96275384D01*
X143646364Y-96275604D01*
X143614732Y-96274562D01*
X143579283Y-96270561D01*
X143546570Y-96263560D01*
X143516594Y-96253558D01*
X143485081Y-96238097D01*
X143476762Y-96232930D01*
X143449732Y-96212435D01*
X143425680Y-96188289D01*
X143404605Y-96160494D01*
X143386507Y-96129048D01*
X143377501Y-96109440D01*
X143365921Y-96078658D01*
X143356736Y-96047041D01*
X143349947Y-96014589D01*
X143345554Y-95981301D01*
X143343558Y-95947178D01*
X143343425Y-95935618D01*
X143344776Y-95898545D01*
X143348832Y-95863297D01*
X143355591Y-95829874D01*
X143365055Y-95798275D01*
X143377222Y-95768501D01*
X143381878Y-95758981D01*
X143400257Y-95727754D01*
X143421748Y-95699997D01*
X143446351Y-95675710D01*
X143474065Y-95654895D01*
X143491299Y-95644558D01*
X143523089Y-95629270D01*
X143556225Y-95617737D01*
X143590707Y-95609959D01*
X143626536Y-95605936D01*
X143647614Y-95605323D01*
X143682816Y-95607098D01*
X143715853Y-95612423D01*
X143746725Y-95621298D01*
X143775432Y-95633724D01*
X143806186Y-95652707D01*
X143810339Y-95655813D01*
X143837284Y-95679870D01*
X143860399Y-95707861D01*
X143877164Y-95734984D01*
X143891115Y-95764999D01*
X143902252Y-95797904D01*
X143818154Y-95817287D01*
X143805708Y-95785164D01*
X143788669Y-95754631D01*
X143768416Y-95730034D01*
X143753127Y-95716932D01*
X143724319Y-95700281D01*
X143691236Y-95689797D01*
X143657807Y-95685634D01*
X143645895Y-95685357D01*
X143614517Y-95687032D01*
X143581532Y-95693050D01*
X143551614Y-95703445D01*
X143521624Y-95720371D01*
X143495912Y-95741871D01*
X143474874Y-95767154D01*
X143458510Y-95796221D01*
X143451438Y-95814004D01*
X143441691Y-95847362D01*
X143435133Y-95881313D01*
X143431766Y-95915857D01*
X143431274Y-95935305D01*
X143432418Y-95969552D01*
X143435852Y-96001855D01*
X143442578Y-96036391D01*
X143452294Y-96068387D01*
X143455190Y-96075989D01*
X143468877Y-96104175D01*
X143488223Y-96131329D01*
X143511748Y-96153661D01*
X143529753Y-96165870D01*
X143558821Y-96180227D01*
X143589224Y-96189885D01*
X143620963Y-96194845D01*
X143639173Y-96195570D01*
X143673660Y-96193040D01*
X143705373Y-96185449D01*
X143734311Y-96172797D01*
X143760474Y-96155084D01*
X143783325Y-96132389D01*
X143802171Y-96104790D01*
X143817011Y-96072286D01*
X143826711Y-96039822D01*
X143827846Y-96034878D01*
G37*
X130466666Y-124254819D02*
X130466666Y-124969104D01*
X130466666Y-124969104D02*
X130419047Y-125111961D01*
X130419047Y-125111961D02*
X130323809Y-125207200D01*
X130323809Y-125207200D02*
X130180952Y-125254819D01*
X130180952Y-125254819D02*
X130085714Y-125254819D01*
X130847619Y-124254819D02*
X131466666Y-124254819D01*
X131466666Y-124254819D02*
X131133333Y-124635771D01*
X131133333Y-124635771D02*
X131276190Y-124635771D01*
X131276190Y-124635771D02*
X131371428Y-124683390D01*
X131371428Y-124683390D02*
X131419047Y-124731009D01*
X131419047Y-124731009D02*
X131466666Y-124826247D01*
X131466666Y-124826247D02*
X131466666Y-125064342D01*
X131466666Y-125064342D02*
X131419047Y-125159580D01*
X131419047Y-125159580D02*
X131371428Y-125207200D01*
X131371428Y-125207200D02*
X131276190Y-125254819D01*
X131276190Y-125254819D02*
X130990476Y-125254819D01*
X130990476Y-125254819D02*
X130895238Y-125207200D01*
X130895238Y-125207200D02*
X130847619Y-125159580D01*
X147583333Y-115359580D02*
X147535714Y-115407200D01*
X147535714Y-115407200D02*
X147392857Y-115454819D01*
X147392857Y-115454819D02*
X147297619Y-115454819D01*
X147297619Y-115454819D02*
X147154762Y-115407200D01*
X147154762Y-115407200D02*
X147059524Y-115311961D01*
X147059524Y-115311961D02*
X147011905Y-115216723D01*
X147011905Y-115216723D02*
X146964286Y-115026247D01*
X146964286Y-115026247D02*
X146964286Y-114883390D01*
X146964286Y-114883390D02*
X147011905Y-114692914D01*
X147011905Y-114692914D02*
X147059524Y-114597676D01*
X147059524Y-114597676D02*
X147154762Y-114502438D01*
X147154762Y-114502438D02*
X147297619Y-114454819D01*
X147297619Y-114454819D02*
X147392857Y-114454819D01*
X147392857Y-114454819D02*
X147535714Y-114502438D01*
X147535714Y-114502438D02*
X147583333Y-114550057D01*
X148154762Y-114883390D02*
X148059524Y-114835771D01*
X148059524Y-114835771D02*
X148011905Y-114788152D01*
X148011905Y-114788152D02*
X147964286Y-114692914D01*
X147964286Y-114692914D02*
X147964286Y-114645295D01*
X147964286Y-114645295D02*
X148011905Y-114550057D01*
X148011905Y-114550057D02*
X148059524Y-114502438D01*
X148059524Y-114502438D02*
X148154762Y-114454819D01*
X148154762Y-114454819D02*
X148345238Y-114454819D01*
X148345238Y-114454819D02*
X148440476Y-114502438D01*
X148440476Y-114502438D02*
X148488095Y-114550057D01*
X148488095Y-114550057D02*
X148535714Y-114645295D01*
X148535714Y-114645295D02*
X148535714Y-114692914D01*
X148535714Y-114692914D02*
X148488095Y-114788152D01*
X148488095Y-114788152D02*
X148440476Y-114835771D01*
X148440476Y-114835771D02*
X148345238Y-114883390D01*
X148345238Y-114883390D02*
X148154762Y-114883390D01*
X148154762Y-114883390D02*
X148059524Y-114931009D01*
X148059524Y-114931009D02*
X148011905Y-114978628D01*
X148011905Y-114978628D02*
X147964286Y-115073866D01*
X147964286Y-115073866D02*
X147964286Y-115264342D01*
X147964286Y-115264342D02*
X148011905Y-115359580D01*
X148011905Y-115359580D02*
X148059524Y-115407200D01*
X148059524Y-115407200D02*
X148154762Y-115454819D01*
X148154762Y-115454819D02*
X148345238Y-115454819D01*
X148345238Y-115454819D02*
X148440476Y-115407200D01*
X148440476Y-115407200D02*
X148488095Y-115359580D01*
X148488095Y-115359580D02*
X148535714Y-115264342D01*
X148535714Y-115264342D02*
X148535714Y-115073866D01*
X148535714Y-115073866D02*
X148488095Y-114978628D01*
X148488095Y-114978628D02*
X148440476Y-114931009D01*
X148440476Y-114931009D02*
X148345238Y-114883390D01*
D11*
X144026667Y-127504318D02*
X144026667Y-128411461D01*
X144026667Y-128411461D02*
X143966190Y-128592889D01*
X143966190Y-128592889D02*
X143845238Y-128713842D01*
X143845238Y-128713842D02*
X143663809Y-128774318D01*
X143663809Y-128774318D02*
X143542857Y-128774318D01*
X144570952Y-127625270D02*
X144631428Y-127564794D01*
X144631428Y-127564794D02*
X144752381Y-127504318D01*
X144752381Y-127504318D02*
X145054762Y-127504318D01*
X145054762Y-127504318D02*
X145175714Y-127564794D01*
X145175714Y-127564794D02*
X145236190Y-127625270D01*
X145236190Y-127625270D02*
X145296667Y-127746222D01*
X145296667Y-127746222D02*
X145296667Y-127867175D01*
X145296667Y-127867175D02*
X145236190Y-128048603D01*
X145236190Y-128048603D02*
X144510476Y-128774318D01*
X144510476Y-128774318D02*
X145296667Y-128774318D01*
D10*
X140083333Y-117704819D02*
X139750000Y-117228628D01*
X139511905Y-117704819D02*
X139511905Y-116704819D01*
X139511905Y-116704819D02*
X139892857Y-116704819D01*
X139892857Y-116704819D02*
X139988095Y-116752438D01*
X139988095Y-116752438D02*
X140035714Y-116800057D01*
X140035714Y-116800057D02*
X140083333Y-116895295D01*
X140083333Y-116895295D02*
X140083333Y-117038152D01*
X140083333Y-117038152D02*
X140035714Y-117133390D01*
X140035714Y-117133390D02*
X139988095Y-117181009D01*
X139988095Y-117181009D02*
X139892857Y-117228628D01*
X139892857Y-117228628D02*
X139511905Y-117228628D01*
X141035714Y-117704819D02*
X140464286Y-117704819D01*
X140750000Y-117704819D02*
X140750000Y-116704819D01*
X140750000Y-116704819D02*
X140654762Y-116847676D01*
X140654762Y-116847676D02*
X140559524Y-116942914D01*
X140559524Y-116942914D02*
X140464286Y-116990533D01*
X144238095Y-96704819D02*
X144238095Y-97514342D01*
X144238095Y-97514342D02*
X144285714Y-97609580D01*
X144285714Y-97609580D02*
X144333333Y-97657200D01*
X144333333Y-97657200D02*
X144428571Y-97704819D01*
X144428571Y-97704819D02*
X144619047Y-97704819D01*
X144619047Y-97704819D02*
X144714285Y-97657200D01*
X144714285Y-97657200D02*
X144761904Y-97609580D01*
X144761904Y-97609580D02*
X144809523Y-97514342D01*
X144809523Y-97514342D02*
X144809523Y-96704819D01*
X145238095Y-96800057D02*
X145285714Y-96752438D01*
X145285714Y-96752438D02*
X145380952Y-96704819D01*
X145380952Y-96704819D02*
X145619047Y-96704819D01*
X145619047Y-96704819D02*
X145714285Y-96752438D01*
X145714285Y-96752438D02*
X145761904Y-96800057D01*
X145761904Y-96800057D02*
X145809523Y-96895295D01*
X145809523Y-96895295D02*
X145809523Y-96990533D01*
X145809523Y-96990533D02*
X145761904Y-97133390D01*
X145761904Y-97133390D02*
X145190476Y-97704819D01*
X145190476Y-97704819D02*
X145809523Y-97704819D01*
X141857142Y-107609580D02*
X141809523Y-107657200D01*
X141809523Y-107657200D02*
X141666666Y-107704819D01*
X141666666Y-107704819D02*
X141571428Y-107704819D01*
X141571428Y-107704819D02*
X141428571Y-107657200D01*
X141428571Y-107657200D02*
X141333333Y-107561961D01*
X141333333Y-107561961D02*
X141285714Y-107466723D01*
X141285714Y-107466723D02*
X141238095Y-107276247D01*
X141238095Y-107276247D02*
X141238095Y-107133390D01*
X141238095Y-107133390D02*
X141285714Y-106942914D01*
X141285714Y-106942914D02*
X141333333Y-106847676D01*
X141333333Y-106847676D02*
X141428571Y-106752438D01*
X141428571Y-106752438D02*
X141571428Y-106704819D01*
X141571428Y-106704819D02*
X141666666Y-106704819D01*
X141666666Y-106704819D02*
X141809523Y-106752438D01*
X141809523Y-106752438D02*
X141857142Y-106800057D01*
X142809523Y-107704819D02*
X142238095Y-107704819D01*
X142523809Y-107704819D02*
X142523809Y-106704819D01*
X142523809Y-106704819D02*
X142428571Y-106847676D01*
X142428571Y-106847676D02*
X142333333Y-106942914D01*
X142333333Y-106942914D02*
X142238095Y-106990533D01*
X143428571Y-106704819D02*
X143523809Y-106704819D01*
X143523809Y-106704819D02*
X143619047Y-106752438D01*
X143619047Y-106752438D02*
X143666666Y-106800057D01*
X143666666Y-106800057D02*
X143714285Y-106895295D01*
X143714285Y-106895295D02*
X143761904Y-107085771D01*
X143761904Y-107085771D02*
X143761904Y-107323866D01*
X143761904Y-107323866D02*
X143714285Y-107514342D01*
X143714285Y-107514342D02*
X143666666Y-107609580D01*
X143666666Y-107609580D02*
X143619047Y-107657200D01*
X143619047Y-107657200D02*
X143523809Y-107704819D01*
X143523809Y-107704819D02*
X143428571Y-107704819D01*
X143428571Y-107704819D02*
X143333333Y-107657200D01*
X143333333Y-107657200D02*
X143285714Y-107609580D01*
X143285714Y-107609580D02*
X143238095Y-107514342D01*
X143238095Y-107514342D02*
X143190476Y-107323866D01*
X143190476Y-107323866D02*
X143190476Y-107085771D01*
X143190476Y-107085771D02*
X143238095Y-106895295D01*
X143238095Y-106895295D02*
X143285714Y-106800057D01*
X143285714Y-106800057D02*
X143333333Y-106752438D01*
X143333333Y-106752438D02*
X143428571Y-106704819D01*
X139988095Y-114954819D02*
X139988095Y-115764342D01*
X139988095Y-115764342D02*
X140035714Y-115859580D01*
X140035714Y-115859580D02*
X140083333Y-115907200D01*
X140083333Y-115907200D02*
X140178571Y-115954819D01*
X140178571Y-115954819D02*
X140369047Y-115954819D01*
X140369047Y-115954819D02*
X140464285Y-115907200D01*
X140464285Y-115907200D02*
X140511904Y-115859580D01*
X140511904Y-115859580D02*
X140559523Y-115764342D01*
X140559523Y-115764342D02*
X140559523Y-114954819D01*
X141559523Y-115954819D02*
X140988095Y-115954819D01*
X141273809Y-115954819D02*
X141273809Y-114954819D01*
X141273809Y-114954819D02*
X141178571Y-115097676D01*
X141178571Y-115097676D02*
X141083333Y-115192914D01*
X141083333Y-115192914D02*
X140988095Y-115240533D01*
X137204761Y-120854819D02*
X136871428Y-120378628D01*
X136633333Y-120854819D02*
X136633333Y-119854819D01*
X136633333Y-119854819D02*
X137014285Y-119854819D01*
X137014285Y-119854819D02*
X137109523Y-119902438D01*
X137109523Y-119902438D02*
X137157142Y-119950057D01*
X137157142Y-119950057D02*
X137204761Y-120045295D01*
X137204761Y-120045295D02*
X137204761Y-120188152D01*
X137204761Y-120188152D02*
X137157142Y-120283390D01*
X137157142Y-120283390D02*
X137109523Y-120331009D01*
X137109523Y-120331009D02*
X137014285Y-120378628D01*
X137014285Y-120378628D02*
X136633333Y-120378628D01*
X137490476Y-119854819D02*
X137823809Y-120854819D01*
X137823809Y-120854819D02*
X138157142Y-119854819D01*
X139014285Y-120854819D02*
X138442857Y-120854819D01*
X138728571Y-120854819D02*
X138728571Y-119854819D01*
X138728571Y-119854819D02*
X138633333Y-119997676D01*
X138633333Y-119997676D02*
X138538095Y-120092914D01*
X138538095Y-120092914D02*
X138442857Y-120140533D01*
X144833333Y-108444820D02*
X144500000Y-107968629D01*
X144261905Y-108444820D02*
X144261905Y-107444820D01*
X144261905Y-107444820D02*
X144642857Y-107444820D01*
X144642857Y-107444820D02*
X144738095Y-107492439D01*
X144738095Y-107492439D02*
X144785714Y-107540058D01*
X144785714Y-107540058D02*
X144833333Y-107635296D01*
X144833333Y-107635296D02*
X144833333Y-107778153D01*
X144833333Y-107778153D02*
X144785714Y-107873391D01*
X144785714Y-107873391D02*
X144738095Y-107921010D01*
X144738095Y-107921010D02*
X144642857Y-107968629D01*
X144642857Y-107968629D02*
X144261905Y-107968629D01*
X145214286Y-107540058D02*
X145261905Y-107492439D01*
X145261905Y-107492439D02*
X145357143Y-107444820D01*
X145357143Y-107444820D02*
X145595238Y-107444820D01*
X145595238Y-107444820D02*
X145690476Y-107492439D01*
X145690476Y-107492439D02*
X145738095Y-107540058D01*
X145738095Y-107540058D02*
X145785714Y-107635296D01*
X145785714Y-107635296D02*
X145785714Y-107730534D01*
X145785714Y-107730534D02*
X145738095Y-107873391D01*
X145738095Y-107873391D02*
X145166667Y-108444820D01*
X145166667Y-108444820D02*
X145785714Y-108444820D01*
X148610266Y-118536104D02*
X148572170Y-118574200D01*
X148572170Y-118574200D02*
X148457885Y-118612295D01*
X148457885Y-118612295D02*
X148381694Y-118612295D01*
X148381694Y-118612295D02*
X148267408Y-118574200D01*
X148267408Y-118574200D02*
X148191218Y-118498009D01*
X148191218Y-118498009D02*
X148153123Y-118421819D01*
X148153123Y-118421819D02*
X148115027Y-118269438D01*
X148115027Y-118269438D02*
X148115027Y-118155152D01*
X148115027Y-118155152D02*
X148153123Y-118002771D01*
X148153123Y-118002771D02*
X148191218Y-117926580D01*
X148191218Y-117926580D02*
X148267408Y-117850390D01*
X148267408Y-117850390D02*
X148381694Y-117812295D01*
X148381694Y-117812295D02*
X148457885Y-117812295D01*
X148457885Y-117812295D02*
X148572170Y-117850390D01*
X148572170Y-117850390D02*
X148610266Y-117888485D01*
X149295980Y-117812295D02*
X149143599Y-117812295D01*
X149143599Y-117812295D02*
X149067408Y-117850390D01*
X149067408Y-117850390D02*
X149029313Y-117888485D01*
X149029313Y-117888485D02*
X148953123Y-118002771D01*
X148953123Y-118002771D02*
X148915027Y-118155152D01*
X148915027Y-118155152D02*
X148915027Y-118459914D01*
X148915027Y-118459914D02*
X148953123Y-118536104D01*
X148953123Y-118536104D02*
X148991218Y-118574200D01*
X148991218Y-118574200D02*
X149067408Y-118612295D01*
X149067408Y-118612295D02*
X149219789Y-118612295D01*
X149219789Y-118612295D02*
X149295980Y-118574200D01*
X149295980Y-118574200D02*
X149334075Y-118536104D01*
X149334075Y-118536104D02*
X149372170Y-118459914D01*
X149372170Y-118459914D02*
X149372170Y-118269438D01*
X149372170Y-118269438D02*
X149334075Y-118193247D01*
X149334075Y-118193247D02*
X149295980Y-118155152D01*
X149295980Y-118155152D02*
X149219789Y-118117057D01*
X149219789Y-118117057D02*
X149067408Y-118117057D01*
X149067408Y-118117057D02*
X148991218Y-118155152D01*
X148991218Y-118155152D02*
X148953123Y-118193247D01*
X148953123Y-118193247D02*
X148915027Y-118269438D01*
X154907533Y-114754761D02*
X154907533Y-114145238D01*
X155212295Y-114449999D02*
X154602771Y-114449999D01*
X144583333Y-111859580D02*
X144535714Y-111907200D01*
X144535714Y-111907200D02*
X144392857Y-111954819D01*
X144392857Y-111954819D02*
X144297619Y-111954819D01*
X144297619Y-111954819D02*
X144154762Y-111907200D01*
X144154762Y-111907200D02*
X144059524Y-111811961D01*
X144059524Y-111811961D02*
X144011905Y-111716723D01*
X144011905Y-111716723D02*
X143964286Y-111526247D01*
X143964286Y-111526247D02*
X143964286Y-111383390D01*
X143964286Y-111383390D02*
X144011905Y-111192914D01*
X144011905Y-111192914D02*
X144059524Y-111097676D01*
X144059524Y-111097676D02*
X144154762Y-111002438D01*
X144154762Y-111002438D02*
X144297619Y-110954819D01*
X144297619Y-110954819D02*
X144392857Y-110954819D01*
X144392857Y-110954819D02*
X144535714Y-111002438D01*
X144535714Y-111002438D02*
X144583333Y-111050057D01*
X145488095Y-110954819D02*
X145011905Y-110954819D01*
X145011905Y-110954819D02*
X144964286Y-111431009D01*
X144964286Y-111431009D02*
X145011905Y-111383390D01*
X145011905Y-111383390D02*
X145107143Y-111335771D01*
X145107143Y-111335771D02*
X145345238Y-111335771D01*
X145345238Y-111335771D02*
X145440476Y-111383390D01*
X145440476Y-111383390D02*
X145488095Y-111431009D01*
X145488095Y-111431009D02*
X145535714Y-111526247D01*
X145535714Y-111526247D02*
X145535714Y-111764342D01*
X145535714Y-111764342D02*
X145488095Y-111859580D01*
X145488095Y-111859580D02*
X145440476Y-111907200D01*
X145440476Y-111907200D02*
X145345238Y-111954819D01*
X145345238Y-111954819D02*
X145107143Y-111954819D01*
X145107143Y-111954819D02*
X145011905Y-111907200D01*
X145011905Y-111907200D02*
X144964286Y-111859580D01*
X141333332Y-120609580D02*
X141285713Y-120657200D01*
X141285713Y-120657200D02*
X141142856Y-120704819D01*
X141142856Y-120704819D02*
X141047618Y-120704819D01*
X141047618Y-120704819D02*
X140904761Y-120657200D01*
X140904761Y-120657200D02*
X140809523Y-120561961D01*
X140809523Y-120561961D02*
X140761904Y-120466723D01*
X140761904Y-120466723D02*
X140714285Y-120276247D01*
X140714285Y-120276247D02*
X140714285Y-120133390D01*
X140714285Y-120133390D02*
X140761904Y-119942914D01*
X140761904Y-119942914D02*
X140809523Y-119847676D01*
X140809523Y-119847676D02*
X140904761Y-119752438D01*
X140904761Y-119752438D02*
X141047618Y-119704819D01*
X141047618Y-119704819D02*
X141142856Y-119704819D01*
X141142856Y-119704819D02*
X141285713Y-119752438D01*
X141285713Y-119752438D02*
X141333332Y-119800057D01*
X141666666Y-119704819D02*
X142333332Y-119704819D01*
X142333332Y-119704819D02*
X141904761Y-120704819D01*
X137757142Y-109759580D02*
X137709523Y-109807200D01*
X137709523Y-109807200D02*
X137566666Y-109854819D01*
X137566666Y-109854819D02*
X137471428Y-109854819D01*
X137471428Y-109854819D02*
X137328571Y-109807200D01*
X137328571Y-109807200D02*
X137233333Y-109711961D01*
X137233333Y-109711961D02*
X137185714Y-109616723D01*
X137185714Y-109616723D02*
X137138095Y-109426247D01*
X137138095Y-109426247D02*
X137138095Y-109283390D01*
X137138095Y-109283390D02*
X137185714Y-109092914D01*
X137185714Y-109092914D02*
X137233333Y-108997676D01*
X137233333Y-108997676D02*
X137328571Y-108902438D01*
X137328571Y-108902438D02*
X137471428Y-108854819D01*
X137471428Y-108854819D02*
X137566666Y-108854819D01*
X137566666Y-108854819D02*
X137709523Y-108902438D01*
X137709523Y-108902438D02*
X137757142Y-108950057D01*
X138709523Y-109854819D02*
X138138095Y-109854819D01*
X138423809Y-109854819D02*
X138423809Y-108854819D01*
X138423809Y-108854819D02*
X138328571Y-108997676D01*
X138328571Y-108997676D02*
X138233333Y-109092914D01*
X138233333Y-109092914D02*
X138138095Y-109140533D01*
X139661904Y-109854819D02*
X139090476Y-109854819D01*
X139376190Y-109854819D02*
X139376190Y-108854819D01*
X139376190Y-108854819D02*
X139280952Y-108997676D01*
X139280952Y-108997676D02*
X139185714Y-109092914D01*
X139185714Y-109092914D02*
X139090476Y-109140533D01*
X143738095Y-105704819D02*
X143738095Y-106514342D01*
X143738095Y-106514342D02*
X143785714Y-106609580D01*
X143785714Y-106609580D02*
X143833333Y-106657200D01*
X143833333Y-106657200D02*
X143928571Y-106704819D01*
X143928571Y-106704819D02*
X144119047Y-106704819D01*
X144119047Y-106704819D02*
X144214285Y-106657200D01*
X144214285Y-106657200D02*
X144261904Y-106609580D01*
X144261904Y-106609580D02*
X144309523Y-106514342D01*
X144309523Y-106514342D02*
X144309523Y-105704819D01*
X144690476Y-105704819D02*
X145309523Y-105704819D01*
X145309523Y-105704819D02*
X144976190Y-106085771D01*
X144976190Y-106085771D02*
X145119047Y-106085771D01*
X145119047Y-106085771D02*
X145214285Y-106133390D01*
X145214285Y-106133390D02*
X145261904Y-106181009D01*
X145261904Y-106181009D02*
X145309523Y-106276247D01*
X145309523Y-106276247D02*
X145309523Y-106514342D01*
X145309523Y-106514342D02*
X145261904Y-106609580D01*
X145261904Y-106609580D02*
X145214285Y-106657200D01*
X145214285Y-106657200D02*
X145119047Y-106704819D01*
X145119047Y-106704819D02*
X144833333Y-106704819D01*
X144833333Y-106704819D02*
X144738095Y-106657200D01*
X144738095Y-106657200D02*
X144690476Y-106609580D01*
X149238095Y-112104819D02*
X149238095Y-112914342D01*
X149238095Y-112914342D02*
X149285714Y-113009580D01*
X149285714Y-113009580D02*
X149333333Y-113057200D01*
X149333333Y-113057200D02*
X149428571Y-113104819D01*
X149428571Y-113104819D02*
X149619047Y-113104819D01*
X149619047Y-113104819D02*
X149714285Y-113057200D01*
X149714285Y-113057200D02*
X149761904Y-113009580D01*
X149761904Y-113009580D02*
X149809523Y-112914342D01*
X149809523Y-112914342D02*
X149809523Y-112104819D01*
X150714285Y-112438152D02*
X150714285Y-113104819D01*
X150476190Y-112057200D02*
X150238095Y-112771485D01*
X150238095Y-112771485D02*
X150857142Y-112771485D01*
X150583333Y-103109580D02*
X150535714Y-103157200D01*
X150535714Y-103157200D02*
X150392857Y-103204819D01*
X150392857Y-103204819D02*
X150297619Y-103204819D01*
X150297619Y-103204819D02*
X150154762Y-103157200D01*
X150154762Y-103157200D02*
X150059524Y-103061961D01*
X150059524Y-103061961D02*
X150011905Y-102966723D01*
X150011905Y-102966723D02*
X149964286Y-102776247D01*
X149964286Y-102776247D02*
X149964286Y-102633390D01*
X149964286Y-102633390D02*
X150011905Y-102442914D01*
X150011905Y-102442914D02*
X150059524Y-102347676D01*
X150059524Y-102347676D02*
X150154762Y-102252438D01*
X150154762Y-102252438D02*
X150297619Y-102204819D01*
X150297619Y-102204819D02*
X150392857Y-102204819D01*
X150392857Y-102204819D02*
X150535714Y-102252438D01*
X150535714Y-102252438D02*
X150583333Y-102300057D01*
X150916667Y-102204819D02*
X151535714Y-102204819D01*
X151535714Y-102204819D02*
X151202381Y-102585771D01*
X151202381Y-102585771D02*
X151345238Y-102585771D01*
X151345238Y-102585771D02*
X151440476Y-102633390D01*
X151440476Y-102633390D02*
X151488095Y-102681009D01*
X151488095Y-102681009D02*
X151535714Y-102776247D01*
X151535714Y-102776247D02*
X151535714Y-103014342D01*
X151535714Y-103014342D02*
X151488095Y-103109580D01*
X151488095Y-103109580D02*
X151440476Y-103157200D01*
X151440476Y-103157200D02*
X151345238Y-103204819D01*
X151345238Y-103204819D02*
X151059524Y-103204819D01*
X151059524Y-103204819D02*
X150964286Y-103157200D01*
X150964286Y-103157200D02*
X150916667Y-103109580D01*
X135616667Y-97286104D02*
X135578571Y-97324200D01*
X135578571Y-97324200D02*
X135464286Y-97362295D01*
X135464286Y-97362295D02*
X135388095Y-97362295D01*
X135388095Y-97362295D02*
X135273809Y-97324200D01*
X135273809Y-97324200D02*
X135197619Y-97248009D01*
X135197619Y-97248009D02*
X135159524Y-97171819D01*
X135159524Y-97171819D02*
X135121428Y-97019438D01*
X135121428Y-97019438D02*
X135121428Y-96905152D01*
X135121428Y-96905152D02*
X135159524Y-96752771D01*
X135159524Y-96752771D02*
X135197619Y-96676580D01*
X135197619Y-96676580D02*
X135273809Y-96600390D01*
X135273809Y-96600390D02*
X135388095Y-96562295D01*
X135388095Y-96562295D02*
X135464286Y-96562295D01*
X135464286Y-96562295D02*
X135578571Y-96600390D01*
X135578571Y-96600390D02*
X135616667Y-96638485D01*
X136378571Y-97362295D02*
X135921428Y-97362295D01*
X136150000Y-97362295D02*
X136150000Y-96562295D01*
X136150000Y-96562295D02*
X136073809Y-96676580D01*
X136073809Y-96676580D02*
X135997619Y-96752771D01*
X135997619Y-96752771D02*
X135921428Y-96790866D01*
X139907533Y-97304761D02*
X139907533Y-96695238D01*
X140212295Y-96999999D02*
X139602771Y-96999999D01*
X144833333Y-110204819D02*
X144500000Y-109728628D01*
X144261905Y-110204819D02*
X144261905Y-109204819D01*
X144261905Y-109204819D02*
X144642857Y-109204819D01*
X144642857Y-109204819D02*
X144738095Y-109252438D01*
X144738095Y-109252438D02*
X144785714Y-109300057D01*
X144785714Y-109300057D02*
X144833333Y-109395295D01*
X144833333Y-109395295D02*
X144833333Y-109538152D01*
X144833333Y-109538152D02*
X144785714Y-109633390D01*
X144785714Y-109633390D02*
X144738095Y-109681009D01*
X144738095Y-109681009D02*
X144642857Y-109728628D01*
X144642857Y-109728628D02*
X144261905Y-109728628D01*
X145166667Y-109204819D02*
X145785714Y-109204819D01*
X145785714Y-109204819D02*
X145452381Y-109585771D01*
X145452381Y-109585771D02*
X145595238Y-109585771D01*
X145595238Y-109585771D02*
X145690476Y-109633390D01*
X145690476Y-109633390D02*
X145738095Y-109681009D01*
X145738095Y-109681009D02*
X145785714Y-109776247D01*
X145785714Y-109776247D02*
X145785714Y-110014342D01*
X145785714Y-110014342D02*
X145738095Y-110109580D01*
X145738095Y-110109580D02*
X145690476Y-110157200D01*
X145690476Y-110157200D02*
X145595238Y-110204819D01*
X145595238Y-110204819D02*
X145309524Y-110204819D01*
X145309524Y-110204819D02*
X145214286Y-110157200D01*
X145214286Y-110157200D02*
X145166667Y-110109580D01*
X139833333Y-111859580D02*
X139785714Y-111907200D01*
X139785714Y-111907200D02*
X139642857Y-111954819D01*
X139642857Y-111954819D02*
X139547619Y-111954819D01*
X139547619Y-111954819D02*
X139404762Y-111907200D01*
X139404762Y-111907200D02*
X139309524Y-111811961D01*
X139309524Y-111811961D02*
X139261905Y-111716723D01*
X139261905Y-111716723D02*
X139214286Y-111526247D01*
X139214286Y-111526247D02*
X139214286Y-111383390D01*
X139214286Y-111383390D02*
X139261905Y-111192914D01*
X139261905Y-111192914D02*
X139309524Y-111097676D01*
X139309524Y-111097676D02*
X139404762Y-111002438D01*
X139404762Y-111002438D02*
X139547619Y-110954819D01*
X139547619Y-110954819D02*
X139642857Y-110954819D01*
X139642857Y-110954819D02*
X139785714Y-111002438D01*
X139785714Y-111002438D02*
X139833333Y-111050057D01*
X140690476Y-111288152D02*
X140690476Y-111954819D01*
X140452381Y-110907200D02*
X140214286Y-111621485D01*
X140214286Y-111621485D02*
X140833333Y-111621485D01*
X149833333Y-99759580D02*
X149785714Y-99807200D01*
X149785714Y-99807200D02*
X149642857Y-99854819D01*
X149642857Y-99854819D02*
X149547619Y-99854819D01*
X149547619Y-99854819D02*
X149404762Y-99807200D01*
X149404762Y-99807200D02*
X149309524Y-99711961D01*
X149309524Y-99711961D02*
X149261905Y-99616723D01*
X149261905Y-99616723D02*
X149214286Y-99426247D01*
X149214286Y-99426247D02*
X149214286Y-99283390D01*
X149214286Y-99283390D02*
X149261905Y-99092914D01*
X149261905Y-99092914D02*
X149309524Y-98997676D01*
X149309524Y-98997676D02*
X149404762Y-98902438D01*
X149404762Y-98902438D02*
X149547619Y-98854819D01*
X149547619Y-98854819D02*
X149642857Y-98854819D01*
X149642857Y-98854819D02*
X149785714Y-98902438D01*
X149785714Y-98902438D02*
X149833333Y-98950057D01*
X150214286Y-98950057D02*
X150261905Y-98902438D01*
X150261905Y-98902438D02*
X150357143Y-98854819D01*
X150357143Y-98854819D02*
X150595238Y-98854819D01*
X150595238Y-98854819D02*
X150690476Y-98902438D01*
X150690476Y-98902438D02*
X150738095Y-98950057D01*
X150738095Y-98950057D02*
X150785714Y-99045295D01*
X150785714Y-99045295D02*
X150785714Y-99140533D01*
X150785714Y-99140533D02*
X150738095Y-99283390D01*
X150738095Y-99283390D02*
X150166667Y-99854819D01*
X150166667Y-99854819D02*
X150785714Y-99854819D01*
X139833333Y-108159580D02*
X139785714Y-108207200D01*
X139785714Y-108207200D02*
X139642857Y-108254819D01*
X139642857Y-108254819D02*
X139547619Y-108254819D01*
X139547619Y-108254819D02*
X139404762Y-108207200D01*
X139404762Y-108207200D02*
X139309524Y-108111961D01*
X139309524Y-108111961D02*
X139261905Y-108016723D01*
X139261905Y-108016723D02*
X139214286Y-107826247D01*
X139214286Y-107826247D02*
X139214286Y-107683390D01*
X139214286Y-107683390D02*
X139261905Y-107492914D01*
X139261905Y-107492914D02*
X139309524Y-107397676D01*
X139309524Y-107397676D02*
X139404762Y-107302438D01*
X139404762Y-107302438D02*
X139547619Y-107254819D01*
X139547619Y-107254819D02*
X139642857Y-107254819D01*
X139642857Y-107254819D02*
X139785714Y-107302438D01*
X139785714Y-107302438D02*
X139833333Y-107350057D01*
X140309524Y-108254819D02*
X140500000Y-108254819D01*
X140500000Y-108254819D02*
X140595238Y-108207200D01*
X140595238Y-108207200D02*
X140642857Y-108159580D01*
X140642857Y-108159580D02*
X140738095Y-108016723D01*
X140738095Y-108016723D02*
X140785714Y-107826247D01*
X140785714Y-107826247D02*
X140785714Y-107445295D01*
X140785714Y-107445295D02*
X140738095Y-107350057D01*
X140738095Y-107350057D02*
X140690476Y-107302438D01*
X140690476Y-107302438D02*
X140595238Y-107254819D01*
X140595238Y-107254819D02*
X140404762Y-107254819D01*
X140404762Y-107254819D02*
X140309524Y-107302438D01*
X140309524Y-107302438D02*
X140261905Y-107350057D01*
X140261905Y-107350057D02*
X140214286Y-107445295D01*
X140214286Y-107445295D02*
X140214286Y-107683390D01*
X140214286Y-107683390D02*
X140261905Y-107778628D01*
X140261905Y-107778628D02*
X140309524Y-107826247D01*
X140309524Y-107826247D02*
X140404762Y-107873866D01*
X140404762Y-107873866D02*
X140595238Y-107873866D01*
X140595238Y-107873866D02*
X140690476Y-107826247D01*
X140690476Y-107826247D02*
X140738095Y-107778628D01*
X140738095Y-107778628D02*
X140785714Y-107683390D01*
X141959580Y-102642857D02*
X142007200Y-102690476D01*
X142007200Y-102690476D02*
X142054819Y-102833333D01*
X142054819Y-102833333D02*
X142054819Y-102928571D01*
X142054819Y-102928571D02*
X142007200Y-103071428D01*
X142007200Y-103071428D02*
X141911961Y-103166666D01*
X141911961Y-103166666D02*
X141816723Y-103214285D01*
X141816723Y-103214285D02*
X141626247Y-103261904D01*
X141626247Y-103261904D02*
X141483390Y-103261904D01*
X141483390Y-103261904D02*
X141292914Y-103214285D01*
X141292914Y-103214285D02*
X141197676Y-103166666D01*
X141197676Y-103166666D02*
X141102438Y-103071428D01*
X141102438Y-103071428D02*
X141054819Y-102928571D01*
X141054819Y-102928571D02*
X141054819Y-102833333D01*
X141054819Y-102833333D02*
X141102438Y-102690476D01*
X141102438Y-102690476D02*
X141150057Y-102642857D01*
X142054819Y-101690476D02*
X142054819Y-102261904D01*
X142054819Y-101976190D02*
X141054819Y-101976190D01*
X141054819Y-101976190D02*
X141197676Y-102071428D01*
X141197676Y-102071428D02*
X141292914Y-102166666D01*
X141292914Y-102166666D02*
X141340533Y-102261904D01*
X141150057Y-101309523D02*
X141102438Y-101261904D01*
X141102438Y-101261904D02*
X141054819Y-101166666D01*
X141054819Y-101166666D02*
X141054819Y-100928571D01*
X141054819Y-100928571D02*
X141102438Y-100833333D01*
X141102438Y-100833333D02*
X141150057Y-100785714D01*
X141150057Y-100785714D02*
X141245295Y-100738095D01*
X141245295Y-100738095D02*
X141340533Y-100738095D01*
X141340533Y-100738095D02*
X141483390Y-100785714D01*
X141483390Y-100785714D02*
X142054819Y-101357142D01*
X142054819Y-101357142D02*
X142054819Y-100738095D01*
D12*
%TO.C,TP6*%
X129600000Y-109800000D02*
X132000000Y-109800000D01*
X129600000Y-112200000D02*
X129600000Y-109800000D01*
X132000000Y-109800000D02*
X132000000Y-112200000D01*
X132000000Y-112200000D02*
X129600000Y-112200000D01*
%TO.C,J3*%
X129495000Y-115850000D02*
X129495000Y-123530000D01*
X129495000Y-115850000D02*
X132155000Y-115850000D01*
X129495000Y-123530000D02*
X132155000Y-123530000D01*
X130825000Y-113250000D02*
X132155000Y-113250000D01*
X132155000Y-113250000D02*
X132155000Y-114580000D01*
X132155000Y-115850000D02*
X132155000Y-123530000D01*
%TO.C,C8*%
X145640000Y-114622164D02*
X145640000Y-114837836D01*
X146360000Y-114622164D02*
X146360000Y-114837836D01*
%TO.C,TP3*%
X131600000Y-101600000D02*
X134000000Y-101600000D01*
X131600000Y-104000000D02*
X131600000Y-101600000D01*
X134000000Y-101600000D02*
X134000000Y-104000000D01*
X134000000Y-104000000D02*
X131600000Y-104000000D01*
%TO.C,TP2*%
X136800000Y-127800000D02*
X134400000Y-127800000D01*
X136800000Y-125400000D02*
X136800000Y-127800000D01*
X134400000Y-127800000D02*
X134400000Y-125400000D01*
X134400000Y-125400000D02*
X136800000Y-125400000D01*
D13*
%TO.C,J2*%
X141450000Y-122675000D02*
G75*
G02*
X141350000Y-122675000I-50000J0D01*
G01*
X141350000Y-122675000D02*
G75*
G02*
X141450000Y-122675000I50000J0D01*
G01*
D14*
X150000000Y-123550000D02*
X150000000Y-125675000D01*
X147850000Y-123550000D02*
X150000000Y-123550000D01*
X141850000Y-123550000D02*
X139700000Y-123550000D01*
D13*
X141450000Y-122675000D02*
X141450000Y-122675000D01*
X141350000Y-122675000D02*
X141350000Y-122675000D01*
D14*
X139700000Y-130800000D02*
X149700000Y-130800000D01*
X139700000Y-123550000D02*
X139700000Y-125675000D01*
D12*
%TO.C,R1*%
X140403641Y-118120000D02*
X140096359Y-118120000D01*
X140403641Y-118880000D02*
X140096359Y-118880000D01*
%TO.C,U2*%
X144500000Y-98189999D02*
X143700000Y-98190000D01*
X144500000Y-98189999D02*
X145300000Y-98190000D01*
X144500000Y-101310001D02*
X143700000Y-101310000D01*
X144500000Y-101310001D02*
X145300000Y-101310000D01*
X146040000Y-101590000D02*
X145560000Y-101590000D01*
X145800000Y-101260000D01*
X146040000Y-101590000D01*
G36*
X146040000Y-101590000D02*
G01*
X145560000Y-101590000D01*
X145800000Y-101260000D01*
X146040000Y-101590000D01*
G37*
%TO.C,C10*%
X141390000Y-105372164D02*
X141390000Y-105587836D01*
X142110000Y-105372164D02*
X142110000Y-105587836D01*
%TO.C,JP3*%
X147800000Y-94900000D02*
X147800000Y-94300000D01*
X148500000Y-93600000D02*
X149900000Y-93600000D01*
X149900000Y-95600000D02*
X148500000Y-95600000D01*
X150600000Y-94300000D02*
X150600000Y-94900000D01*
X147800000Y-94300000D02*
G75*
G02*
X148500000Y-93600000I699999J1D01*
G01*
X148500000Y-95600000D02*
G75*
G02*
X147800000Y-94900000I-1J699999D01*
G01*
X149900000Y-93600000D02*
G75*
G02*
X150600000Y-94300000I0J-700000D01*
G01*
X150600000Y-94900000D02*
G75*
G02*
X149900000Y-95600000I-700000J0D01*
G01*
%TO.C,TP5*%
X153000000Y-109000000D02*
X155400000Y-109000000D01*
X153000000Y-111400000D02*
X153000000Y-109000000D01*
X155400000Y-109000000D02*
X155400000Y-111400000D01*
X155400000Y-111400000D02*
X153000000Y-111400000D01*
%TO.C,U1*%
X141890000Y-116250000D02*
X141890000Y-114750000D01*
X141890000Y-116250000D02*
X141890000Y-117750000D01*
X145110000Y-116250000D02*
X145110000Y-114750000D01*
X145110000Y-116250000D02*
X145110000Y-117750000D01*
X142015000Y-118462500D02*
X141685000Y-118702500D01*
X141685000Y-118222500D01*
X142015000Y-118462500D01*
G36*
X142015000Y-118462500D02*
G01*
X141685000Y-118702500D01*
X141685000Y-118222500D01*
X142015000Y-118462500D01*
G37*
D15*
%TO.C,RV1*%
X133460000Y-110860500D02*
X133460000Y-120639500D01*
X133460000Y-120639500D02*
X138667000Y-120639500D01*
X138667000Y-110860500D02*
X133460000Y-110860500D01*
X138667000Y-120639500D02*
X138667000Y-110860500D01*
D16*
X136380999Y-122417500D02*
G75*
G02*
X135619001Y-122417500I-380999J0D01*
G01*
X135619001Y-122417500D02*
G75*
G02*
X136380999Y-122417500I380999J0D01*
G01*
D12*
%TO.C,R2*%
X146120000Y-107346359D02*
X146120000Y-107653641D01*
X146880000Y-107346359D02*
X146880000Y-107653641D01*
%TO.C,JP1*%
X148150000Y-107100000D02*
X148150000Y-106500000D01*
X148800000Y-105800000D02*
X151600000Y-105800000D01*
X151400000Y-105600000D02*
X151100000Y-105300000D01*
X151400000Y-105600000D02*
X151700000Y-105300000D01*
X151600000Y-107800000D02*
X148800000Y-107800000D01*
X151700000Y-105300000D02*
X151100000Y-105300000D01*
X152250000Y-106500000D02*
X152250000Y-107100000D01*
X148150000Y-106500000D02*
G75*
G02*
X148850000Y-105800000I700000J0D01*
G01*
X148850000Y-107800000D02*
G75*
G02*
X148150000Y-107100000I0J700000D01*
G01*
X151550000Y-105800000D02*
G75*
G02*
X152250000Y-106500000I1J-699999D01*
G01*
X152250000Y-107100000D02*
G75*
G02*
X151550000Y-107800000I-699999J-1D01*
G01*
D17*
%TO.C,C6*%
X150000000Y-116250000D02*
X151050000Y-115200000D01*
X150000000Y-120700000D02*
X150000000Y-116250000D01*
X150000000Y-120700000D02*
X151650000Y-120700000D01*
X151050000Y-115200000D02*
X151650000Y-115200000D01*
X154450000Y-115200000D02*
X153850000Y-115200000D01*
X155500000Y-116250000D02*
X154450000Y-115200000D01*
X155500000Y-120700000D02*
X153850000Y-120700000D01*
X155500000Y-120700000D02*
X155500000Y-116250000D01*
D12*
%TO.C,C5*%
X142890000Y-111837836D02*
X142890000Y-111622164D01*
X143610000Y-111837836D02*
X143610000Y-111622164D01*
%TO.C,C7*%
X143607836Y-119890000D02*
X143392164Y-119890000D01*
X143607836Y-120610000D02*
X143392164Y-120610000D01*
%TO.C,C11*%
X135061254Y-108515000D02*
X134538748Y-108515000D01*
X135061254Y-109985000D02*
X134538748Y-109985000D01*
%TO.C,U3*%
X144500000Y-102189999D02*
X143700000Y-102190000D01*
X144500000Y-102189999D02*
X145300000Y-102190000D01*
X144500000Y-105310001D02*
X143700000Y-105310000D01*
X144500000Y-105310001D02*
X145300000Y-105310000D01*
X146040000Y-105590000D02*
X145560000Y-105590000D01*
X145800000Y-105260000D01*
X146040000Y-105590000D01*
G36*
X146040000Y-105590000D02*
G01*
X145560000Y-105590000D01*
X145800000Y-105260000D01*
X146040000Y-105590000D01*
G37*
%TO.C,U4*%
X150000000Y-108689999D02*
X149200000Y-108690000D01*
X150000000Y-108689999D02*
X150800000Y-108690000D01*
X150000000Y-111810001D02*
X149200000Y-111810000D01*
X150000000Y-111810001D02*
X150800000Y-111810000D01*
X151540000Y-112090000D02*
X151060000Y-112090000D01*
X151300000Y-111760000D01*
X151540000Y-112090000D01*
G36*
X151540000Y-112090000D02*
G01*
X151060000Y-112090000D01*
X151300000Y-111760000D01*
X151540000Y-112090000D01*
G37*
%TO.C,C3*%
X148015000Y-103488747D02*
X148015000Y-104011253D01*
X149485000Y-103488747D02*
X149485000Y-104011253D01*
D17*
%TO.C,C1*%
X135000000Y-98800000D02*
X136050000Y-97750000D01*
X135000000Y-103250000D02*
X135000000Y-98800000D01*
X135000000Y-103250000D02*
X136650000Y-103250000D01*
X136050000Y-97750000D02*
X136650000Y-97750000D01*
X139450000Y-97750000D02*
X138850000Y-97750000D01*
X140500000Y-98800000D02*
X139450000Y-97750000D01*
X140500000Y-103250000D02*
X138850000Y-103250000D01*
X140500000Y-103250000D02*
X140500000Y-98800000D01*
D12*
%TO.C,TP4*%
X153000000Y-105600000D02*
X155400000Y-105600000D01*
X153000000Y-108000000D02*
X153000000Y-105600000D01*
X155400000Y-105600000D02*
X155400000Y-108000000D01*
X155400000Y-108000000D02*
X153000000Y-108000000D01*
%TO.C,R3*%
X146120000Y-109346359D02*
X146120000Y-109653641D01*
X146880000Y-109346359D02*
X146880000Y-109653641D01*
%TO.C,C4*%
X141240000Y-111640581D02*
X141240000Y-111359419D01*
X142260000Y-111640581D02*
X142260000Y-111359419D01*
%TO.C,JP2*%
X133650000Y-107300000D02*
X133650000Y-106700000D01*
X134300000Y-106000000D02*
X137100000Y-106000000D01*
X136900000Y-105800000D02*
X136600000Y-105500000D01*
X136900000Y-105800000D02*
X137200000Y-105500000D01*
X137100000Y-108000000D02*
X134300000Y-108000000D01*
X137200000Y-105500000D02*
X136600000Y-105500000D01*
X137750000Y-106700000D02*
X137750000Y-107300000D01*
X133650000Y-106700000D02*
G75*
G02*
X134350000Y-106000000I700000J0D01*
G01*
X134350000Y-108000000D02*
G75*
G02*
X133650000Y-107300000I0J700000D01*
G01*
X137050000Y-106000000D02*
G75*
G02*
X137750000Y-106700000I1J-699999D01*
G01*
X137750000Y-107300000D02*
G75*
G02*
X137050000Y-108000000I-699999J-1D01*
G01*
%TO.C,C2*%
X147265000Y-100011253D02*
X147265000Y-99488747D01*
X148735000Y-100011253D02*
X148735000Y-99488747D01*
%TO.C,C9*%
X139490000Y-105609419D02*
X139490000Y-105890581D01*
X140510000Y-105609419D02*
X140510000Y-105890581D01*
%TO.C,C12*%
X141390000Y-99392164D02*
X141390000Y-99607836D01*
X142110000Y-99392164D02*
X142110000Y-99607836D01*
%TO.C,TP1*%
X131600000Y-98000000D02*
X134000000Y-98000000D01*
X131600000Y-100400000D02*
X131600000Y-98000000D01*
X134000000Y-98000000D02*
X134000000Y-100400000D01*
X134000000Y-100400000D02*
X131600000Y-100400000D01*
%TD*%
M02*
