%TF.GenerationSoftware,KiCad,Pcbnew,8.0.7*%
%TF.CreationDate,2025-03-27T17:59:10+01:00*%
%TF.ProjectId,StrainGauge,53747261-696e-4476-9175-67652e6b6963,rev?*%
%TF.SameCoordinates,Original*%
%TF.FileFunction,Legend,Top*%
%TF.FilePolarity,Positive*%
%FSLAX46Y46*%
G04 Gerber Fmt 4.6, Leading zero omitted, Abs format (unit mm)*
G04 Created by KiCad (PCBNEW 8.0.7) date 2025-03-27 17:59:10*
%MOMM*%
%LPD*%
G01*
G04 APERTURE LIST*
%ADD10C,0.150000*%
%ADD11C,0.254000*%
%ADD12C,0.120000*%
%ADD13C,0.100000*%
%ADD14C,0.400000*%
%ADD15C,0.152400*%
%ADD16C,0.508000*%
%ADD17C,0.200000*%
G04 APERTURE END LIST*
D10*
G36*
X152015000Y-95676865D02*
G01*
X151702369Y-95794346D01*
X151702369Y-96215421D01*
X152015000Y-96326063D01*
X152015000Y-96467479D01*
X150998949Y-96080843D01*
X150998949Y-96012211D01*
X151124002Y-96012211D01*
X151171718Y-96024202D01*
X151221443Y-96038744D01*
X151273178Y-96055835D01*
X151302787Y-96066433D01*
X151577316Y-96177075D01*
X151577316Y-95835623D01*
X151321594Y-95940648D01*
X151268645Y-95960518D01*
X151221143Y-95978027D01*
X151173523Y-95995147D01*
X151124002Y-96012211D01*
X150998949Y-96012211D01*
X150998949Y-95937228D01*
X152015000Y-95525191D01*
X152015000Y-95676865D01*
G37*
G36*
X152015000Y-94702092D02*
G01*
X151800554Y-94835204D01*
X151756881Y-94863109D01*
X151714280Y-94891437D01*
X151671606Y-94921651D01*
X151658649Y-94931436D01*
X151619265Y-94965210D01*
X151591238Y-94999336D01*
X151570310Y-95044582D01*
X151566081Y-95059908D01*
X151561960Y-95110191D01*
X151561685Y-95134158D01*
X151561685Y-95288763D01*
X152015000Y-95288763D01*
X152015000Y-95421876D01*
X150998949Y-95421876D01*
X150998949Y-94975400D01*
X150999074Y-94970027D01*
X151124002Y-94970027D01*
X151124002Y-95288763D01*
X151436632Y-95288763D01*
X151436632Y-95002267D01*
X151434915Y-94949063D01*
X151429059Y-94899519D01*
X151419047Y-94859385D01*
X151395966Y-94814016D01*
X151362383Y-94780983D01*
X151316255Y-94759258D01*
X151277386Y-94754116D01*
X151226922Y-94762702D01*
X151184277Y-94788460D01*
X151167233Y-94806140D01*
X151142620Y-94848867D01*
X151129110Y-94900081D01*
X151124382Y-94949537D01*
X151124002Y-94970027D01*
X150999074Y-94970027D01*
X151000247Y-94919608D01*
X151004138Y-94869986D01*
X151011763Y-94820832D01*
X151026060Y-94770724D01*
X151049466Y-94725880D01*
X151082743Y-94687731D01*
X151121559Y-94658861D01*
X151165709Y-94636708D01*
X151212673Y-94622759D01*
X151262452Y-94617015D01*
X151272745Y-94616851D01*
X151324128Y-94621187D01*
X151371297Y-94634193D01*
X151419327Y-94659188D01*
X151452997Y-94686216D01*
X151486290Y-94725616D01*
X151512897Y-94774449D01*
X151530694Y-94824917D01*
X151541874Y-94873924D01*
X151546053Y-94900417D01*
X151570622Y-94856364D01*
X151598077Y-94820061D01*
X151635314Y-94784174D01*
X151672988Y-94752895D01*
X151714604Y-94722582D01*
X151734364Y-94709419D01*
X152015000Y-94534297D01*
X152015000Y-94702092D01*
G37*
G36*
X152015000Y-94410955D02*
G01*
X150998949Y-94410955D01*
X150998949Y-93682867D01*
X151124002Y-93682867D01*
X151124002Y-94277842D01*
X151421001Y-94277842D01*
X151421001Y-93720724D01*
X151546053Y-93720724D01*
X151546053Y-94277842D01*
X151889947Y-94277842D01*
X151889947Y-93659419D01*
X152015000Y-93659419D01*
X152015000Y-94410955D01*
G37*
G36*
X152015000Y-93473795D02*
G01*
X150998949Y-93473795D01*
X150998949Y-92794556D01*
X151124002Y-92794556D01*
X151124002Y-93340683D01*
X151421001Y-93340683D01*
X151421001Y-92868073D01*
X151546053Y-92868073D01*
X151546053Y-93340683D01*
X152015000Y-93340683D01*
X152015000Y-93473795D01*
G37*
G36*
X150813887Y-104000247D02*
G01*
X150863508Y-104004138D01*
X150912662Y-104011763D01*
X150962770Y-104026060D01*
X151007614Y-104049466D01*
X151045763Y-104082743D01*
X151074633Y-104121559D01*
X151096787Y-104165709D01*
X151110735Y-104212673D01*
X151116479Y-104262452D01*
X151116643Y-104272745D01*
X151112308Y-104324128D01*
X151099302Y-104371297D01*
X151074306Y-104419327D01*
X151047278Y-104452997D01*
X151007879Y-104486290D01*
X150959045Y-104512897D01*
X150908577Y-104530694D01*
X150859570Y-104541874D01*
X150833077Y-104546053D01*
X150877130Y-104570622D01*
X150913433Y-104598077D01*
X150949320Y-104635314D01*
X150980599Y-104672988D01*
X151010912Y-104714604D01*
X151024075Y-104734364D01*
X151199197Y-105015000D01*
X151031402Y-105015000D01*
X150898290Y-104800554D01*
X150870385Y-104756881D01*
X150842058Y-104714280D01*
X150811843Y-104671606D01*
X150802058Y-104658649D01*
X150768284Y-104619265D01*
X150734159Y-104591238D01*
X150688913Y-104570310D01*
X150673586Y-104566081D01*
X150623303Y-104561960D01*
X150599337Y-104561685D01*
X150444731Y-104561685D01*
X150444731Y-105015000D01*
X150311619Y-105015000D01*
X150311619Y-104436632D01*
X150444731Y-104436632D01*
X150731228Y-104436632D01*
X150784432Y-104434915D01*
X150833975Y-104429059D01*
X150874110Y-104419047D01*
X150919478Y-104395966D01*
X150952512Y-104362383D01*
X150974236Y-104316255D01*
X150979378Y-104277386D01*
X150970793Y-104226922D01*
X150945035Y-104184277D01*
X150927355Y-104167233D01*
X150884628Y-104142620D01*
X150833413Y-104129110D01*
X150783958Y-104124382D01*
X150763468Y-104124002D01*
X150444731Y-104124002D01*
X150444731Y-104436632D01*
X150311619Y-104436632D01*
X150311619Y-103998949D01*
X150758094Y-103998949D01*
X150813887Y-104000247D01*
G37*
G36*
X151322540Y-105015000D02*
G01*
X151322540Y-103998949D01*
X152050628Y-103998949D01*
X152050628Y-104124002D01*
X151455652Y-104124002D01*
X151455652Y-104421001D01*
X152012770Y-104421001D01*
X152012770Y-104546053D01*
X151455652Y-104546053D01*
X151455652Y-104889947D01*
X152074075Y-104889947D01*
X152074075Y-105015000D01*
X151322540Y-105015000D01*
G37*
G36*
X152259699Y-105015000D02*
G01*
X152259699Y-103998949D01*
X152938939Y-103998949D01*
X152938939Y-104124002D01*
X152392812Y-104124002D01*
X152392812Y-104421001D01*
X152865422Y-104421001D01*
X152865422Y-104546053D01*
X152392812Y-104546053D01*
X152392812Y-105015000D01*
X152259699Y-105015000D01*
G37*
G36*
X130620036Y-106400857D02*
G01*
X130669190Y-106406582D01*
X130717627Y-106417584D01*
X130750279Y-106429480D01*
X130794695Y-106454198D01*
X130831897Y-106486708D01*
X130859455Y-106523025D01*
X130881982Y-106567208D01*
X130895893Y-106616988D01*
X130899023Y-106655404D01*
X130893218Y-106706346D01*
X130875804Y-106754789D01*
X130863852Y-106776304D01*
X130832608Y-106815746D01*
X130791266Y-106849074D01*
X130758095Y-106867896D01*
X130806135Y-106886335D01*
X130851673Y-106913984D01*
X130888958Y-106949171D01*
X130898534Y-106961196D01*
X130924423Y-107004726D01*
X130940723Y-107052883D01*
X130947435Y-107105667D01*
X130947627Y-107116779D01*
X130943402Y-107169593D01*
X130930728Y-107219590D01*
X130917585Y-107251357D01*
X130893245Y-107293901D01*
X130859812Y-107333464D01*
X130843824Y-107347100D01*
X130801101Y-107373293D01*
X130753812Y-107392090D01*
X130733670Y-107397903D01*
X130684615Y-107407636D01*
X130633858Y-107412979D01*
X130583160Y-107414933D01*
X130571249Y-107415000D01*
X130187299Y-107415000D01*
X130187299Y-107289947D01*
X130320656Y-107289947D01*
X130571249Y-107289947D01*
X130620449Y-107289012D01*
X130661863Y-107285062D01*
X130711255Y-107271616D01*
X130738799Y-107257951D01*
X130776140Y-107223339D01*
X130789602Y-107202264D01*
X130806324Y-107155001D01*
X130809630Y-107118000D01*
X130803297Y-107068784D01*
X130782582Y-107023386D01*
X130780809Y-107020792D01*
X130746371Y-106985682D01*
X130700697Y-106962906D01*
X130651765Y-106951994D01*
X130598711Y-106947107D01*
X130553419Y-106946053D01*
X130320656Y-106946053D01*
X130320656Y-107289947D01*
X130187299Y-107289947D01*
X130187299Y-106821001D01*
X130320656Y-106821001D01*
X130538520Y-106821001D01*
X130588914Y-106819880D01*
X130639878Y-106815071D01*
X130665526Y-106809521D01*
X130712404Y-106788436D01*
X130741974Y-106760673D01*
X130763387Y-106713954D01*
X130767620Y-106674944D01*
X130760796Y-106626160D01*
X130743440Y-106588726D01*
X130707697Y-106552906D01*
X130674808Y-106537923D01*
X130623664Y-106528407D01*
X130572134Y-106524872D01*
X130521912Y-106524002D01*
X130320656Y-106524002D01*
X130320656Y-106821001D01*
X130187299Y-106821001D01*
X130187299Y-106398949D01*
X130565143Y-106398949D01*
X130620036Y-106400857D01*
G37*
G36*
X131527780Y-106399865D02*
G01*
X131581681Y-106403085D01*
X131631283Y-106409382D01*
X131652023Y-106413604D01*
X131703581Y-106429317D01*
X131750178Y-106451423D01*
X131791814Y-106479921D01*
X131799546Y-106486388D01*
X131836946Y-106522704D01*
X131869277Y-106563752D01*
X131896541Y-106609532D01*
X131918737Y-106660045D01*
X131934154Y-106707656D01*
X131945785Y-106758166D01*
X131953628Y-106811574D01*
X131957686Y-106867880D01*
X131958304Y-106901357D01*
X131957018Y-106950744D01*
X131952401Y-107004096D01*
X131944424Y-107054151D01*
X131931437Y-107106521D01*
X131915245Y-107154370D01*
X131894398Y-107201826D01*
X131867996Y-107247084D01*
X131862805Y-107254532D01*
X131830198Y-107294992D01*
X131792394Y-107330917D01*
X131770970Y-107346856D01*
X131727218Y-107371383D01*
X131680678Y-107389300D01*
X131650802Y-107397658D01*
X131599960Y-107407531D01*
X131549432Y-107412950D01*
X131500450Y-107414932D01*
X131489113Y-107415000D01*
X131125680Y-107415000D01*
X131125680Y-107289947D01*
X131259037Y-107289947D01*
X131473970Y-107289947D01*
X131526624Y-107288498D01*
X131577151Y-107283489D01*
X131626702Y-107272756D01*
X131630286Y-107271629D01*
X131675473Y-107252535D01*
X131716353Y-107223730D01*
X131720656Y-107219605D01*
X131753239Y-107179534D01*
X131777918Y-107134837D01*
X131794417Y-107092599D01*
X131807286Y-107045125D01*
X131815944Y-106992281D01*
X131820103Y-106940799D01*
X131821039Y-106899403D01*
X131819210Y-106842986D01*
X131813724Y-106791703D01*
X131802699Y-106738364D01*
X131786696Y-106692013D01*
X131769016Y-106657847D01*
X131738112Y-106614716D01*
X131699606Y-106577125D01*
X131656711Y-106550411D01*
X131642986Y-106544518D01*
X131593665Y-106532016D01*
X131544592Y-106526426D01*
X131492278Y-106524182D01*
X131470551Y-106524002D01*
X131259037Y-106524002D01*
X131259037Y-107289947D01*
X131125680Y-107289947D01*
X131125680Y-106398949D01*
X131472505Y-106398949D01*
X131527780Y-106399865D01*
G37*
G36*
X132607257Y-107024211D02*
G01*
X132607257Y-106899159D01*
X133033705Y-106899159D01*
X133033705Y-107273094D01*
X132990445Y-107305537D01*
X132946577Y-107334263D01*
X132902102Y-107359272D01*
X132857018Y-107380565D01*
X132830984Y-107391064D01*
X132778487Y-107408374D01*
X132725287Y-107420739D01*
X132671386Y-107428158D01*
X132616783Y-107430631D01*
X132562131Y-107428390D01*
X132509369Y-107421667D01*
X132458496Y-107410461D01*
X132409512Y-107394773D01*
X132362417Y-107374603D01*
X132347138Y-107366884D01*
X132303796Y-107340886D01*
X132264626Y-107310887D01*
X132224203Y-107270831D01*
X132194075Y-107232163D01*
X132168121Y-107189493D01*
X132164201Y-107181992D01*
X132143200Y-107135658D01*
X132126545Y-107087332D01*
X132114235Y-107037015D01*
X132106269Y-106984705D01*
X132102649Y-106930403D01*
X132102407Y-106911859D01*
X132104562Y-106857134D01*
X132111028Y-106803782D01*
X132121804Y-106751804D01*
X132136891Y-106701200D01*
X132156288Y-106651970D01*
X132163712Y-106635865D01*
X132188682Y-106590106D01*
X132217430Y-106549002D01*
X132249957Y-106512552D01*
X132292679Y-106475908D01*
X132340544Y-106445600D01*
X132385094Y-106424434D01*
X132432101Y-106407647D01*
X132481563Y-106395239D01*
X132533481Y-106387210D01*
X132587854Y-106383561D01*
X132606524Y-106383318D01*
X132659800Y-106385592D01*
X132710450Y-106392416D01*
X132758474Y-106403788D01*
X132803873Y-106419710D01*
X132850573Y-106442441D01*
X132891208Y-106469693D01*
X132929242Y-106505275D01*
X132942358Y-106521071D01*
X132971314Y-106565540D01*
X132993378Y-106612170D01*
X133009811Y-106658874D01*
X133018562Y-106690575D01*
X132898395Y-106723548D01*
X132881480Y-106675054D01*
X132860064Y-106631039D01*
X132841974Y-106604113D01*
X132807133Y-106569392D01*
X132764817Y-106543094D01*
X132745987Y-106534504D01*
X132697169Y-106518579D01*
X132644504Y-106510003D01*
X132607257Y-106508370D01*
X132557826Y-106510553D01*
X132507479Y-106518100D01*
X132457663Y-106532627D01*
X132449232Y-106535969D01*
X132402830Y-106558959D01*
X132360700Y-106589445D01*
X132341521Y-106608265D01*
X132309290Y-106649058D01*
X132283979Y-106693216D01*
X132278018Y-106706451D01*
X132261241Y-106753590D01*
X132249258Y-106802683D01*
X132242068Y-106853729D01*
X132239672Y-106906730D01*
X132241892Y-106962791D01*
X132248554Y-107014715D01*
X132259657Y-107062501D01*
X132277784Y-107112048D01*
X132286078Y-107129235D01*
X132311906Y-107171062D01*
X132347241Y-107211256D01*
X132389221Y-107244186D01*
X132420900Y-107262103D01*
X132465917Y-107281124D01*
X132518203Y-107296026D01*
X132572228Y-107304050D01*
X132609211Y-107305579D01*
X132662973Y-107302454D01*
X132715876Y-107293080D01*
X132762755Y-107279301D01*
X132778227Y-107273583D01*
X132825912Y-107253027D01*
X132869329Y-107229480D01*
X132903279Y-107204951D01*
X132903279Y-107024211D01*
X132607257Y-107024211D01*
G37*
G36*
X156550744Y-110626232D02*
G01*
X156604096Y-110630850D01*
X156654151Y-110638826D01*
X156706521Y-110651814D01*
X156754370Y-110668006D01*
X156801826Y-110688852D01*
X156847084Y-110715255D01*
X156854532Y-110720446D01*
X156894992Y-110753052D01*
X156930917Y-110790856D01*
X156946856Y-110812281D01*
X156971383Y-110856033D01*
X156989300Y-110902572D01*
X156997658Y-110932449D01*
X157007531Y-110983291D01*
X157012950Y-111033818D01*
X157014932Y-111082801D01*
X157015000Y-111094137D01*
X157015000Y-111457571D01*
X155998949Y-111457571D01*
X155998949Y-111112700D01*
X156124002Y-111112700D01*
X156124002Y-111324214D01*
X156889947Y-111324214D01*
X156889947Y-111109280D01*
X156888498Y-111056627D01*
X156883489Y-111006099D01*
X156872756Y-110956548D01*
X156871629Y-110952965D01*
X156852535Y-110907778D01*
X156823730Y-110866898D01*
X156819605Y-110862595D01*
X156779534Y-110830012D01*
X156734837Y-110805333D01*
X156692599Y-110788834D01*
X156645125Y-110775964D01*
X156592281Y-110767307D01*
X156540799Y-110763147D01*
X156499403Y-110762211D01*
X156442986Y-110764040D01*
X156391703Y-110769527D01*
X156338364Y-110780552D01*
X156292013Y-110796555D01*
X156257847Y-110814235D01*
X156214716Y-110845138D01*
X156177125Y-110883645D01*
X156150411Y-110926540D01*
X156144518Y-110940264D01*
X156132016Y-110989586D01*
X156126426Y-111038659D01*
X156124182Y-111090973D01*
X156124002Y-111112700D01*
X155998949Y-111112700D01*
X155998949Y-111110746D01*
X155999865Y-111055471D01*
X156003085Y-111001570D01*
X156009382Y-110951968D01*
X156013604Y-110931227D01*
X156029317Y-110879669D01*
X156051423Y-110833072D01*
X156079921Y-110791436D01*
X156086388Y-110783705D01*
X156122704Y-110746305D01*
X156163752Y-110713973D01*
X156209532Y-110686710D01*
X156260045Y-110664514D01*
X156307656Y-110649097D01*
X156358166Y-110637466D01*
X156411574Y-110629622D01*
X156467880Y-110625565D01*
X156501357Y-110624947D01*
X156550744Y-110626232D01*
G37*
G36*
X157015000Y-110424668D02*
G01*
X155998949Y-110424668D01*
X155998949Y-110291311D01*
X157015000Y-110291311D01*
X157015000Y-110424668D01*
G37*
G36*
X157015000Y-109770585D02*
G01*
X155998949Y-110160885D01*
X155998949Y-110016538D01*
X156732411Y-109754954D01*
X156781138Y-109737924D01*
X156828126Y-109722556D01*
X156878296Y-109707429D01*
X156897763Y-109701953D01*
X156846143Y-109686583D01*
X156799644Y-109671526D01*
X156753106Y-109655310D01*
X156732411Y-109647731D01*
X155998949Y-109375645D01*
X155998949Y-109239601D01*
X157015000Y-109633809D01*
X157015000Y-109770585D01*
G37*
G36*
X156874316Y-108290404D02*
G01*
X156592948Y-108290404D01*
X156592948Y-108564445D01*
X156467896Y-108564445D01*
X156467896Y-108290404D01*
X156186528Y-108290404D01*
X156186528Y-108173656D01*
X156467896Y-108173656D01*
X156467896Y-107899616D01*
X156592948Y-107899616D01*
X156592948Y-108173656D01*
X156874316Y-108173656D01*
X156874316Y-108290404D01*
G37*
G36*
X157015000Y-107301953D02*
G01*
X157015000Y-107425540D01*
X156223164Y-107425540D01*
X156255255Y-107462978D01*
X156284733Y-107504175D01*
X156308893Y-107542777D01*
X156333532Y-107586659D01*
X156355842Y-107631569D01*
X156373129Y-107672958D01*
X156252962Y-107672958D01*
X156230502Y-107628795D01*
X156202429Y-107581385D01*
X156171792Y-107537242D01*
X156138590Y-107496366D01*
X156134260Y-107491486D01*
X156099608Y-107455490D01*
X156061281Y-107421783D01*
X156019512Y-107392761D01*
X155998949Y-107381576D01*
X155998949Y-107301953D01*
X157015000Y-107301953D01*
G37*
G36*
X157015000Y-106651046D02*
G01*
X155998949Y-107041346D01*
X155998949Y-106896999D01*
X156732411Y-106635415D01*
X156781138Y-106618385D01*
X156828126Y-106603017D01*
X156878296Y-106587890D01*
X156897763Y-106582414D01*
X156846143Y-106567044D01*
X156799644Y-106551987D01*
X156753106Y-106535771D01*
X156732411Y-106528192D01*
X155998949Y-106256105D01*
X155998949Y-106120062D01*
X157015000Y-106514270D01*
X157015000Y-106651046D01*
G37*
G36*
X156889947Y-105406140D02*
G01*
X157015000Y-105406140D01*
X157015000Y-106071946D01*
X156964974Y-106067988D01*
X156927561Y-106057536D01*
X156880271Y-106036465D01*
X156837681Y-106011048D01*
X156795473Y-105979669D01*
X156791273Y-105976203D01*
X156752101Y-105940682D01*
X156714945Y-105902523D01*
X156680631Y-105864050D01*
X156644634Y-105820831D01*
X156639354Y-105814270D01*
X156607270Y-105774901D01*
X156569667Y-105730370D01*
X156534842Y-105691038D01*
X156496720Y-105650704D01*
X156457302Y-105613110D01*
X156432480Y-105592498D01*
X156390841Y-105564516D01*
X156346162Y-105544165D01*
X156294751Y-105534669D01*
X156290575Y-105534612D01*
X156241093Y-105541997D01*
X156194464Y-105566663D01*
X156172362Y-105587124D01*
X156142892Y-105631042D01*
X156127827Y-105679266D01*
X156124002Y-105724389D01*
X156128462Y-105776648D01*
X156143671Y-105826144D01*
X156169675Y-105867271D01*
X156208842Y-105899969D01*
X156257831Y-105917829D01*
X156295949Y-105921493D01*
X156280317Y-106048499D01*
X156231135Y-106041103D01*
X156179552Y-106026050D01*
X156134210Y-106004077D01*
X156090033Y-105970494D01*
X156071001Y-105950313D01*
X156042926Y-105910227D01*
X156021747Y-105864555D01*
X156007463Y-105813295D01*
X156000708Y-105764912D01*
X155998949Y-105721458D01*
X156001817Y-105669265D01*
X156012413Y-105613735D01*
X156030815Y-105563978D01*
X156057025Y-105519995D01*
X156080526Y-105492114D01*
X156117979Y-105459185D01*
X156165363Y-105431456D01*
X156217631Y-105414290D01*
X156267372Y-105407936D01*
X156282271Y-105407606D01*
X156331759Y-105411677D01*
X156380602Y-105423891D01*
X156402927Y-105432274D01*
X156448150Y-105455378D01*
X156491173Y-105484643D01*
X156527491Y-105514340D01*
X156567769Y-105552615D01*
X156603878Y-105590666D01*
X156638159Y-105629048D01*
X156675513Y-105672754D01*
X156702124Y-105704849D01*
X156734052Y-105743816D01*
X156766114Y-105782200D01*
X156799128Y-105820355D01*
X156824979Y-105847976D01*
X156863436Y-105881516D01*
X156889947Y-105899999D01*
X156889947Y-105406140D01*
G37*
G36*
X156749263Y-105277424D02*
G01*
X156733632Y-105147487D01*
X156783062Y-105134760D01*
X156827849Y-105112164D01*
X156862592Y-105080565D01*
X156888787Y-105038124D01*
X156902892Y-104989569D01*
X156905579Y-104953803D01*
X156899520Y-104900627D01*
X156881345Y-104852842D01*
X156851053Y-104810448D01*
X156843541Y-104802616D01*
X156800655Y-104770030D01*
X156755288Y-104751021D01*
X156703506Y-104741788D01*
X156678433Y-104740823D01*
X156626743Y-104745537D01*
X156576969Y-104761832D01*
X156535257Y-104789768D01*
X156524316Y-104800418D01*
X156494563Y-104841114D01*
X156475830Y-104889013D01*
X156468391Y-104938281D01*
X156467896Y-104956001D01*
X156472056Y-105006116D01*
X156485748Y-105054831D01*
X156489633Y-105063956D01*
X156514607Y-105106760D01*
X156546053Y-105139427D01*
X156530422Y-105255442D01*
X156014581Y-105157990D01*
X156014581Y-104657047D01*
X156139633Y-104657047D01*
X156139633Y-105059071D01*
X156415139Y-105113293D01*
X156386969Y-105073217D01*
X156363247Y-105026357D01*
X156348562Y-104978367D01*
X156342914Y-104929247D01*
X156342843Y-104923028D01*
X156347238Y-104867301D01*
X156360421Y-104815524D01*
X156382393Y-104767697D01*
X156413155Y-104723821D01*
X156434678Y-104700523D01*
X156477274Y-104665120D01*
X156524919Y-104638413D01*
X156577612Y-104620401D01*
X156626796Y-104611883D01*
X156670617Y-104609664D01*
X156720778Y-104612464D01*
X156775977Y-104622805D01*
X156827600Y-104640767D01*
X156875647Y-104666349D01*
X156907777Y-104689288D01*
X156949528Y-104728131D01*
X156982641Y-104771937D01*
X157007116Y-104820706D01*
X157022953Y-104874439D01*
X157029551Y-104923007D01*
X157030631Y-104953803D01*
X157027926Y-105003591D01*
X157017934Y-105057184D01*
X157000578Y-105105939D01*
X156975859Y-105149855D01*
X156953695Y-105178262D01*
X156917532Y-105212643D01*
X156876578Y-105239918D01*
X156830832Y-105260087D01*
X156780294Y-105273150D01*
X156749263Y-105277424D01*
G37*
G36*
X130425471Y-119424211D02*
G01*
X130425471Y-119299159D01*
X130851919Y-119299159D01*
X130851919Y-119673094D01*
X130808659Y-119705537D01*
X130764791Y-119734263D01*
X130720316Y-119759272D01*
X130675232Y-119780565D01*
X130649197Y-119791064D01*
X130596701Y-119808374D01*
X130543501Y-119820739D01*
X130489600Y-119828158D01*
X130434996Y-119830631D01*
X130380345Y-119828390D01*
X130327583Y-119821667D01*
X130276710Y-119810461D01*
X130227726Y-119794773D01*
X130180631Y-119774603D01*
X130165352Y-119766884D01*
X130122010Y-119740886D01*
X130082840Y-119710887D01*
X130042417Y-119670831D01*
X130012289Y-119632163D01*
X129986335Y-119589493D01*
X129982414Y-119581992D01*
X129961414Y-119535658D01*
X129944759Y-119487332D01*
X129932449Y-119437015D01*
X129924483Y-119384705D01*
X129920862Y-119330403D01*
X129920621Y-119311859D01*
X129922776Y-119257134D01*
X129929242Y-119203782D01*
X129940018Y-119151804D01*
X129955105Y-119101200D01*
X129974502Y-119051970D01*
X129981926Y-119035865D01*
X130006896Y-118990106D01*
X130035644Y-118949002D01*
X130068170Y-118912552D01*
X130110893Y-118875908D01*
X130158758Y-118845600D01*
X130203308Y-118824434D01*
X130250315Y-118807647D01*
X130299777Y-118795239D01*
X130351694Y-118787210D01*
X130406068Y-118783561D01*
X130424738Y-118783318D01*
X130478014Y-118785592D01*
X130528664Y-118792416D01*
X130576688Y-118803788D01*
X130622087Y-118819710D01*
X130668787Y-118842441D01*
X130709421Y-118869693D01*
X130747456Y-118905275D01*
X130760572Y-118921071D01*
X130789528Y-118965540D01*
X130811592Y-119012170D01*
X130828025Y-119058874D01*
X130836776Y-119090575D01*
X130716608Y-119123548D01*
X130699693Y-119075054D01*
X130678278Y-119031039D01*
X130660188Y-119004113D01*
X130625347Y-118969392D01*
X130583031Y-118943094D01*
X130564201Y-118934504D01*
X130515383Y-118918579D01*
X130462718Y-118910003D01*
X130425471Y-118908370D01*
X130376040Y-118910553D01*
X130325693Y-118918100D01*
X130275877Y-118932627D01*
X130267446Y-118935969D01*
X130221044Y-118958959D01*
X130178914Y-118989445D01*
X130159735Y-119008265D01*
X130127504Y-119049058D01*
X130102193Y-119093216D01*
X130096232Y-119106451D01*
X130079455Y-119153590D01*
X130067472Y-119202683D01*
X130060282Y-119253729D01*
X130057886Y-119306730D01*
X130060106Y-119362791D01*
X130066768Y-119414715D01*
X130077871Y-119462501D01*
X130095998Y-119512048D01*
X130104292Y-119529235D01*
X130130120Y-119571062D01*
X130165454Y-119611256D01*
X130207435Y-119644186D01*
X130239114Y-119662103D01*
X130284131Y-119681124D01*
X130336417Y-119696026D01*
X130390442Y-119704050D01*
X130427425Y-119705579D01*
X130481187Y-119702454D01*
X130534090Y-119693080D01*
X130580969Y-119679301D01*
X130596441Y-119673583D01*
X130644126Y-119653027D01*
X130687543Y-119629480D01*
X130721493Y-119604951D01*
X130721493Y-119424211D01*
X130425471Y-119424211D01*
G37*
G36*
X131041207Y-119815000D02*
G01*
X131041207Y-118798949D01*
X131177739Y-118798949D01*
X131706769Y-119578572D01*
X131706769Y-118798949D01*
X131834508Y-118798949D01*
X131834508Y-119815000D01*
X131697976Y-119815000D01*
X131168946Y-119035376D01*
X131168946Y-119815000D01*
X131041207Y-119815000D01*
G37*
G36*
X132454717Y-118799865D02*
G01*
X132508618Y-118803085D01*
X132558220Y-118809382D01*
X132578960Y-118813604D01*
X132630518Y-118829317D01*
X132677115Y-118851423D01*
X132718751Y-118879921D01*
X132726483Y-118886388D01*
X132763883Y-118922704D01*
X132796214Y-118963752D01*
X132823478Y-119009532D01*
X132845673Y-119060045D01*
X132861091Y-119107656D01*
X132872721Y-119158166D01*
X132880565Y-119211574D01*
X132884622Y-119267880D01*
X132885241Y-119301357D01*
X132883955Y-119350744D01*
X132879337Y-119404096D01*
X132871361Y-119454151D01*
X132858374Y-119506521D01*
X132842182Y-119554370D01*
X132821335Y-119601826D01*
X132794933Y-119647084D01*
X132789742Y-119654532D01*
X132757135Y-119694992D01*
X132719331Y-119730917D01*
X132697906Y-119746856D01*
X132654155Y-119771383D01*
X132607615Y-119789300D01*
X132577739Y-119797658D01*
X132526897Y-119807531D01*
X132476369Y-119812950D01*
X132427387Y-119814932D01*
X132416050Y-119815000D01*
X132052617Y-119815000D01*
X132052617Y-119689947D01*
X132185973Y-119689947D01*
X132400907Y-119689947D01*
X132453561Y-119688498D01*
X132504088Y-119683489D01*
X132553639Y-119672756D01*
X132557223Y-119671629D01*
X132602409Y-119652535D01*
X132643290Y-119623730D01*
X132647592Y-119619605D01*
X132680176Y-119579534D01*
X132704855Y-119534837D01*
X132721354Y-119492599D01*
X132734223Y-119445125D01*
X132742881Y-119392281D01*
X132747040Y-119340799D01*
X132747976Y-119299403D01*
X132746147Y-119242986D01*
X132740660Y-119191703D01*
X132729636Y-119138364D01*
X132713632Y-119092013D01*
X132695953Y-119057847D01*
X132665049Y-119014716D01*
X132626543Y-118977125D01*
X132583648Y-118950411D01*
X132569923Y-118944518D01*
X132520601Y-118932016D01*
X132471529Y-118926426D01*
X132419215Y-118924182D01*
X132397488Y-118924002D01*
X132185973Y-118924002D01*
X132185973Y-119689947D01*
X132052617Y-119689947D01*
X132052617Y-118798949D01*
X132399442Y-118798949D01*
X132454717Y-118799865D01*
G37*
G36*
X130674316Y-104301081D02*
G01*
X130392948Y-104301081D01*
X130392948Y-104575122D01*
X130267896Y-104575122D01*
X130267896Y-104301081D01*
X129986528Y-104301081D01*
X129986528Y-104184333D01*
X130267896Y-104184333D01*
X130267896Y-103910293D01*
X130392948Y-103910293D01*
X130392948Y-104184333D01*
X130674316Y-104184333D01*
X130674316Y-104301081D01*
G37*
G36*
X130689947Y-103128471D02*
G01*
X130815000Y-103128471D01*
X130815000Y-103794277D01*
X130764974Y-103790319D01*
X130727561Y-103779867D01*
X130680271Y-103758796D01*
X130637681Y-103733379D01*
X130595473Y-103702000D01*
X130591273Y-103698534D01*
X130552101Y-103663013D01*
X130514945Y-103624854D01*
X130480631Y-103586381D01*
X130444634Y-103543162D01*
X130439354Y-103536601D01*
X130407270Y-103497232D01*
X130369667Y-103452701D01*
X130334842Y-103413369D01*
X130296720Y-103373035D01*
X130257302Y-103335441D01*
X130232480Y-103314828D01*
X130190841Y-103286847D01*
X130146162Y-103266496D01*
X130094751Y-103256999D01*
X130090575Y-103256943D01*
X130041093Y-103264327D01*
X129994464Y-103288994D01*
X129972362Y-103309455D01*
X129942892Y-103353373D01*
X129927827Y-103401597D01*
X129924002Y-103446720D01*
X129928462Y-103498979D01*
X129943671Y-103548475D01*
X129969675Y-103589602D01*
X130008842Y-103622300D01*
X130057831Y-103640160D01*
X130095949Y-103643824D01*
X130080317Y-103770830D01*
X130031135Y-103763434D01*
X129979552Y-103748380D01*
X129934210Y-103726408D01*
X129890033Y-103692825D01*
X129871001Y-103672644D01*
X129842926Y-103632558D01*
X129821747Y-103586885D01*
X129807463Y-103535626D01*
X129800708Y-103487243D01*
X129798949Y-103443789D01*
X129801817Y-103391596D01*
X129812413Y-103336066D01*
X129830815Y-103286309D01*
X129857025Y-103242326D01*
X129880526Y-103214445D01*
X129917979Y-103181516D01*
X129965363Y-103153787D01*
X130017631Y-103136621D01*
X130067372Y-103130267D01*
X130082271Y-103129937D01*
X130131759Y-103134008D01*
X130180602Y-103146222D01*
X130202927Y-103154605D01*
X130248150Y-103177709D01*
X130291173Y-103206974D01*
X130327491Y-103236671D01*
X130367769Y-103274946D01*
X130403878Y-103312997D01*
X130438159Y-103351379D01*
X130475513Y-103395085D01*
X130502124Y-103427180D01*
X130534052Y-103466146D01*
X130566114Y-103504531D01*
X130599128Y-103542686D01*
X130624979Y-103570306D01*
X130663436Y-103603847D01*
X130689947Y-103622330D01*
X130689947Y-103128471D01*
G37*
G36*
X130815000Y-102661723D02*
G01*
X129798949Y-103052023D01*
X129798949Y-102907676D01*
X130532411Y-102646092D01*
X130581138Y-102629062D01*
X130628126Y-102613694D01*
X130678296Y-102598567D01*
X130697763Y-102593091D01*
X130646143Y-102577721D01*
X130599644Y-102562664D01*
X130553106Y-102546448D01*
X130532411Y-102538869D01*
X129798949Y-102266782D01*
X129798949Y-102130739D01*
X130815000Y-102524947D01*
X130815000Y-102661723D01*
G37*
G36*
X130549263Y-102066748D02*
G01*
X130533632Y-101936810D01*
X130583062Y-101924083D01*
X130627849Y-101901488D01*
X130662592Y-101869888D01*
X130688787Y-101827447D01*
X130702892Y-101778892D01*
X130705579Y-101743126D01*
X130699520Y-101689950D01*
X130681345Y-101642166D01*
X130651053Y-101599771D01*
X130643541Y-101591939D01*
X130600655Y-101559353D01*
X130555288Y-101540344D01*
X130503506Y-101531111D01*
X130478433Y-101530146D01*
X130426743Y-101534860D01*
X130376969Y-101551156D01*
X130335257Y-101579091D01*
X130324316Y-101589741D01*
X130294563Y-101630437D01*
X130275830Y-101678337D01*
X130268391Y-101727605D01*
X130267896Y-101745324D01*
X130272056Y-101795439D01*
X130285748Y-101844154D01*
X130289633Y-101853279D01*
X130314607Y-101896083D01*
X130346053Y-101928750D01*
X130330422Y-102044766D01*
X129814581Y-101947313D01*
X129814581Y-101446371D01*
X129939633Y-101446371D01*
X129939633Y-101848394D01*
X130215139Y-101902616D01*
X130186969Y-101862540D01*
X130163247Y-101815680D01*
X130148562Y-101767690D01*
X130142914Y-101718571D01*
X130142843Y-101712351D01*
X130147238Y-101656624D01*
X130160421Y-101604847D01*
X130182393Y-101557021D01*
X130213155Y-101513144D01*
X130234678Y-101489846D01*
X130277274Y-101454443D01*
X130324919Y-101427736D01*
X130377612Y-101409724D01*
X130426796Y-101401206D01*
X130470617Y-101398988D01*
X130520778Y-101401787D01*
X130575977Y-101412128D01*
X130627600Y-101430090D01*
X130675647Y-101455672D01*
X130707777Y-101478611D01*
X130749528Y-101517454D01*
X130782641Y-101561260D01*
X130807116Y-101610030D01*
X130822953Y-101663762D01*
X130829551Y-101712330D01*
X130830631Y-101743126D01*
X130827926Y-101792914D01*
X130817934Y-101846507D01*
X130800578Y-101895262D01*
X130775859Y-101939179D01*
X130753695Y-101967585D01*
X130717532Y-102001966D01*
X130676578Y-102029241D01*
X130630832Y-102049410D01*
X130580294Y-102062473D01*
X130549263Y-102066748D01*
G37*
G36*
X130674316Y-100701081D02*
G01*
X130392948Y-100701081D01*
X130392948Y-100975122D01*
X130267896Y-100975122D01*
X130267896Y-100701081D01*
X129986528Y-100701081D01*
X129986528Y-100584333D01*
X130267896Y-100584333D01*
X130267896Y-100310293D01*
X130392948Y-100310293D01*
X130392948Y-100584333D01*
X130674316Y-100584333D01*
X130674316Y-100701081D01*
G37*
G36*
X130549263Y-100177669D02*
G01*
X130533632Y-100054082D01*
X130580976Y-100039772D01*
X130627875Y-100015881D01*
X130665279Y-99981786D01*
X130691371Y-99936444D01*
X130703650Y-99888078D01*
X130705579Y-99856978D01*
X130699950Y-99805000D01*
X130683063Y-99758365D01*
X130654917Y-99717072D01*
X130647937Y-99709455D01*
X130609064Y-99677770D01*
X130560077Y-99656471D01*
X130509883Y-99649430D01*
X130504567Y-99649371D01*
X130451859Y-99655952D01*
X130405905Y-99675692D01*
X130369989Y-99705059D01*
X130339675Y-99746923D01*
X130321944Y-99795944D01*
X130316744Y-99846720D01*
X130322087Y-99897152D01*
X130330422Y-99933914D01*
X130205369Y-99919992D01*
X130206591Y-99900209D01*
X130202377Y-99847819D01*
X130189736Y-99799123D01*
X130170931Y-99758059D01*
X130138577Y-99719511D01*
X130091278Y-99697828D01*
X130060533Y-99694801D01*
X130009629Y-99704944D01*
X129967740Y-99735373D01*
X129962836Y-99740962D01*
X129936289Y-99786283D01*
X129924950Y-99837575D01*
X129924002Y-99859664D01*
X129929497Y-99910337D01*
X129947853Y-99957636D01*
X129963080Y-99979832D01*
X130001282Y-100013242D01*
X130047993Y-100033994D01*
X130080317Y-100041625D01*
X130064685Y-100165212D01*
X130012057Y-100152516D01*
X129964875Y-100134304D01*
X129917622Y-100106735D01*
X129877482Y-100071961D01*
X129868558Y-100062142D01*
X129838104Y-100019521D01*
X129816352Y-99972016D01*
X129803300Y-99919626D01*
X129799017Y-99869778D01*
X129798949Y-99862351D01*
X129802312Y-99812172D01*
X129813781Y-99759894D01*
X129833387Y-99710676D01*
X129859897Y-99666855D01*
X129895664Y-99627872D01*
X129927177Y-99604675D01*
X129972720Y-99582201D01*
X130020325Y-99570099D01*
X130053206Y-99567794D01*
X130102750Y-99573559D01*
X130148585Y-99590851D01*
X130168489Y-99602721D01*
X130207251Y-99636702D01*
X130236806Y-99678015D01*
X130251287Y-99706524D01*
X130266833Y-99659409D01*
X130292536Y-99614491D01*
X130327112Y-99577397D01*
X130339214Y-99567794D01*
X130384180Y-99541648D01*
X130435729Y-99525185D01*
X130487751Y-99518649D01*
X130506277Y-99518213D01*
X130555741Y-99521596D01*
X130609761Y-99534095D01*
X130659806Y-99555803D01*
X130705878Y-99586722D01*
X130736353Y-99614445D01*
X130768393Y-99652235D01*
X130797394Y-99700859D01*
X130815072Y-99746426D01*
X130826120Y-99795581D01*
X130830539Y-99848326D01*
X130830631Y-99857466D01*
X130826879Y-99913339D01*
X130815624Y-99964910D01*
X130796866Y-100012181D01*
X130770605Y-100055150D01*
X130752229Y-100077773D01*
X130715719Y-100112440D01*
X130674792Y-100139930D01*
X130629446Y-100160245D01*
X130579683Y-100173383D01*
X130549263Y-100177669D01*
G37*
G36*
X130815000Y-99061723D02*
G01*
X129798949Y-99452023D01*
X129798949Y-99307676D01*
X130532411Y-99046092D01*
X130581138Y-99029062D01*
X130628126Y-99013694D01*
X130678296Y-98998567D01*
X130697763Y-98993091D01*
X130646143Y-98977721D01*
X130599644Y-98962664D01*
X130553106Y-98946448D01*
X130532411Y-98938869D01*
X129798949Y-98666782D01*
X129798949Y-98530739D01*
X130815000Y-98924947D01*
X130815000Y-99061723D01*
G37*
G36*
X130368930Y-97810867D02*
G01*
X130419486Y-97813532D01*
X130475746Y-97819077D01*
X130527197Y-97827179D01*
X130581147Y-97839867D01*
X130602264Y-97846371D01*
X130653753Y-97866826D01*
X130699045Y-97891800D01*
X130738139Y-97921292D01*
X130771036Y-97955303D01*
X130799844Y-97999121D01*
X130819224Y-98048966D01*
X130828536Y-98098334D01*
X130830631Y-98138485D01*
X130826947Y-98190875D01*
X130815896Y-98238869D01*
X130793692Y-98289305D01*
X130761460Y-98333757D01*
X130725851Y-98367096D01*
X130682591Y-98395804D01*
X130631579Y-98419647D01*
X130585188Y-98435217D01*
X130533836Y-98447674D01*
X130477523Y-98457016D01*
X130416248Y-98463244D01*
X130367037Y-98465872D01*
X130315034Y-98466748D01*
X130260793Y-98465853D01*
X130209962Y-98463170D01*
X130153468Y-98457588D01*
X130101885Y-98449431D01*
X130047912Y-98436658D01*
X130026828Y-98430111D01*
X129975262Y-98409457D01*
X129929986Y-98384377D01*
X129890998Y-98354869D01*
X129858300Y-98320935D01*
X129829610Y-98277175D01*
X129810309Y-98227503D01*
X129801036Y-98178387D01*
X129799013Y-98139706D01*
X129924002Y-98139706D01*
X129930680Y-98189619D01*
X129953454Y-98236754D01*
X129988182Y-98272541D01*
X129992390Y-98275750D01*
X130037620Y-98300684D01*
X130087663Y-98317182D01*
X130137315Y-98327493D01*
X130194195Y-98334679D01*
X130244902Y-98338179D01*
X130300234Y-98339679D01*
X130314790Y-98339741D01*
X130371134Y-98338833D01*
X130422562Y-98336108D01*
X130479936Y-98330148D01*
X130529628Y-98321349D01*
X130579122Y-98307043D01*
X130622886Y-98285188D01*
X130627909Y-98281611D01*
X130665455Y-98246769D01*
X130692760Y-98203025D01*
X130704896Y-98153985D01*
X130705579Y-98138241D01*
X130697946Y-98087742D01*
X130675048Y-98042490D01*
X130641389Y-98006250D01*
X130627421Y-97995115D01*
X130578572Y-97969683D01*
X130529113Y-97955377D01*
X130479501Y-97946578D01*
X130422257Y-97940618D01*
X130370966Y-97937893D01*
X130314790Y-97936985D01*
X130258340Y-97937893D01*
X130206835Y-97940618D01*
X130149409Y-97946578D01*
X130099711Y-97955377D01*
X130050275Y-97969683D01*
X130001671Y-97995115D01*
X129964126Y-98030054D01*
X129936820Y-98074132D01*
X129924684Y-98123744D01*
X129924002Y-98139706D01*
X129799013Y-98139706D01*
X129798949Y-98138485D01*
X129802817Y-98085103D01*
X129814419Y-98036455D01*
X129831678Y-97996336D01*
X129860311Y-97953380D01*
X129897120Y-97916468D01*
X129926200Y-97895219D01*
X129971718Y-97869869D01*
X130018659Y-97850330D01*
X130065433Y-97835599D01*
X130076409Y-97832693D01*
X130124479Y-97822755D01*
X130180273Y-97815657D01*
X130235430Y-97811775D01*
X130287413Y-97810178D01*
X130315034Y-97809978D01*
X130368930Y-97810867D01*
G37*
G36*
X144776301Y-96015495D02*
G01*
X144776301Y-95935461D01*
X145049228Y-95935461D01*
X145049228Y-96174780D01*
X145021542Y-96195543D01*
X144993466Y-96213928D01*
X144965002Y-96229934D01*
X144936148Y-96243561D01*
X144919486Y-96250281D01*
X144885888Y-96261359D01*
X144851841Y-96269273D01*
X144817344Y-96274021D01*
X144782398Y-96275604D01*
X144747421Y-96274169D01*
X144713653Y-96269866D01*
X144681094Y-96262695D01*
X144649744Y-96252655D01*
X144619604Y-96239746D01*
X144609825Y-96234805D01*
X144582086Y-96218167D01*
X144557018Y-96198968D01*
X144531147Y-96173332D01*
X144511865Y-96148584D01*
X144495254Y-96121275D01*
X144492745Y-96116475D01*
X144479305Y-96086821D01*
X144468646Y-96055893D01*
X144460767Y-96023689D01*
X144455669Y-95990211D01*
X144453352Y-95955457D01*
X144453197Y-95943590D01*
X144454577Y-95908565D01*
X144458715Y-95874420D01*
X144465612Y-95841154D01*
X144475267Y-95808768D01*
X144487681Y-95777260D01*
X144492433Y-95766953D01*
X144508413Y-95737668D01*
X144526812Y-95711361D01*
X144547629Y-95688033D01*
X144574971Y-95664581D01*
X144605605Y-95645184D01*
X144634117Y-95631637D01*
X144664201Y-95620894D01*
X144695857Y-95612953D01*
X144729084Y-95607814D01*
X144763883Y-95605479D01*
X144775832Y-95605323D01*
X144809929Y-95606779D01*
X144842345Y-95611146D01*
X144873080Y-95618424D01*
X144902135Y-95628614D01*
X144932024Y-95643162D01*
X144958030Y-95660603D01*
X144982371Y-95683376D01*
X144990766Y-95693485D01*
X145009298Y-95721945D01*
X145023419Y-95751789D01*
X145033936Y-95781679D01*
X145039536Y-95801968D01*
X144962629Y-95823071D01*
X144951804Y-95792034D01*
X144938098Y-95763865D01*
X144926520Y-95746632D01*
X144904222Y-95724410D01*
X144877140Y-95707580D01*
X144865088Y-95702082D01*
X144833845Y-95691890D01*
X144800139Y-95686402D01*
X144776301Y-95685357D01*
X144744665Y-95686754D01*
X144712444Y-95691584D01*
X144680561Y-95700881D01*
X144675165Y-95703020D01*
X144645468Y-95717733D01*
X144618505Y-95737245D01*
X144606230Y-95749290D01*
X144585603Y-95775397D01*
X144569403Y-95803658D01*
X144565588Y-95812128D01*
X144554851Y-95842297D01*
X144547182Y-95873717D01*
X144542580Y-95906387D01*
X144541047Y-95940307D01*
X144542468Y-95976186D01*
X144546731Y-96009417D01*
X144553837Y-96040001D01*
X144565439Y-96071711D01*
X144570747Y-96082710D01*
X144587277Y-96109479D01*
X144609891Y-96135204D01*
X144636758Y-96156279D01*
X144657033Y-96167746D01*
X144685844Y-96179919D01*
X144719307Y-96189456D01*
X144753883Y-96194592D01*
X144777552Y-96195570D01*
X144811960Y-96193570D01*
X144845818Y-96187571D01*
X144875820Y-96178752D01*
X144885722Y-96175093D01*
X144916240Y-96161937D01*
X144944027Y-96146867D01*
X144965756Y-96131168D01*
X144965756Y-96015495D01*
X144776301Y-96015495D01*
G37*
G36*
X145170372Y-96265600D02*
G01*
X145170372Y-95615327D01*
X145257753Y-95615327D01*
X145596332Y-96114286D01*
X145596332Y-95615327D01*
X145678085Y-95615327D01*
X145678085Y-96265600D01*
X145590705Y-96265600D01*
X145252125Y-95766641D01*
X145252125Y-96265600D01*
X145170372Y-96265600D01*
G37*
G36*
X146075019Y-95615914D02*
G01*
X146109515Y-95617974D01*
X146141261Y-95622004D01*
X146154534Y-95624706D01*
X146187532Y-95634763D01*
X146217354Y-95648911D01*
X146244001Y-95667150D01*
X146248949Y-95671288D01*
X146272885Y-95694530D01*
X146293577Y-95720801D01*
X146311026Y-95750101D01*
X146325231Y-95782429D01*
X146335098Y-95812900D01*
X146342542Y-95845226D01*
X146347562Y-95879407D01*
X146350158Y-95915443D01*
X146350554Y-95936868D01*
X146349731Y-95968476D01*
X146346776Y-96002621D01*
X146341671Y-96034656D01*
X146333359Y-96068173D01*
X146322996Y-96098797D01*
X146309654Y-96129168D01*
X146292757Y-96158134D01*
X146289435Y-96162900D01*
X146268566Y-96188795D01*
X146244372Y-96211787D01*
X146230660Y-96221987D01*
X146202659Y-96237685D01*
X146172874Y-96249152D01*
X146153753Y-96254501D01*
X146121214Y-96260820D01*
X146088876Y-96264288D01*
X146057527Y-96265556D01*
X146050272Y-96265600D01*
X145817675Y-96265600D01*
X145817675Y-96185566D01*
X145903023Y-96185566D01*
X146040580Y-96185566D01*
X146074279Y-96184639D01*
X146106616Y-96181433D01*
X146138329Y-96174564D01*
X146140622Y-96173842D01*
X146169542Y-96161622D01*
X146195705Y-96143187D01*
X146198459Y-96140547D01*
X146219312Y-96114902D01*
X146235107Y-96086295D01*
X146245666Y-96059263D01*
X146253903Y-96028880D01*
X146259443Y-95995060D01*
X146262106Y-95962111D01*
X146262705Y-95935618D01*
X146261534Y-95899511D01*
X146258023Y-95866690D01*
X146250967Y-95832553D01*
X146240725Y-95802888D01*
X146229409Y-95781022D01*
X146209631Y-95753418D01*
X146184987Y-95729360D01*
X146157534Y-95712263D01*
X146148751Y-95708491D01*
X146117185Y-95700490D01*
X146085778Y-95696912D01*
X146052297Y-95695476D01*
X146038392Y-95695361D01*
X145903023Y-95695361D01*
X145903023Y-96185566D01*
X145817675Y-96185566D01*
X145817675Y-95615327D01*
X146039643Y-95615327D01*
X146075019Y-95615914D01*
G37*
G36*
X142656731Y-96265600D02*
G01*
X142559659Y-96265600D01*
X142484471Y-96065516D01*
X142214983Y-96065516D01*
X142144173Y-96265600D01*
X142053666Y-96265600D01*
X142160259Y-95985482D01*
X142239525Y-95985482D01*
X142458054Y-95985482D01*
X142390838Y-95821820D01*
X142378121Y-95787933D01*
X142366915Y-95757531D01*
X142355959Y-95727054D01*
X142345038Y-95695361D01*
X142337364Y-95725899D01*
X142328057Y-95757723D01*
X142317118Y-95790834D01*
X142310336Y-95809784D01*
X142239525Y-95985482D01*
X142160259Y-95985482D01*
X142301113Y-95615327D01*
X142393027Y-95615327D01*
X142656731Y-96265600D01*
G37*
G36*
X142978789Y-95615914D02*
G01*
X143013286Y-95617974D01*
X143045031Y-95622004D01*
X143058305Y-95624706D01*
X143091302Y-95634763D01*
X143121124Y-95648911D01*
X143147771Y-95667150D01*
X143152720Y-95671288D01*
X143176656Y-95694530D01*
X143197348Y-95720801D01*
X143214796Y-95750101D01*
X143229002Y-95782429D01*
X143238869Y-95812900D01*
X143246312Y-95845226D01*
X143251332Y-95879407D01*
X143253929Y-95915443D01*
X143254325Y-95936868D01*
X143253502Y-95968476D01*
X143250547Y-96002621D01*
X143245442Y-96034656D01*
X143237130Y-96068173D01*
X143226767Y-96098797D01*
X143213425Y-96129168D01*
X143196528Y-96158134D01*
X143193205Y-96162900D01*
X143172337Y-96188795D01*
X143148143Y-96211787D01*
X143134431Y-96221987D01*
X143106430Y-96237685D01*
X143076644Y-96249152D01*
X143057524Y-96254501D01*
X143024985Y-96260820D01*
X142992647Y-96264288D01*
X142961298Y-96265556D01*
X142954043Y-96265600D01*
X142721445Y-96265600D01*
X142721445Y-96185566D01*
X142806794Y-96185566D01*
X142944351Y-96185566D01*
X142978049Y-96184639D01*
X143010387Y-96181433D01*
X143042100Y-96174564D01*
X143044393Y-96173842D01*
X143073313Y-96161622D01*
X143099476Y-96143187D01*
X143102230Y-96140547D01*
X143123083Y-96114902D01*
X143138878Y-96086295D01*
X143149437Y-96059263D01*
X143157673Y-96028880D01*
X143163214Y-95995060D01*
X143165876Y-95962111D01*
X143166475Y-95935618D01*
X143165305Y-95899511D01*
X143161793Y-95866690D01*
X143154738Y-95832553D01*
X143144495Y-95802888D01*
X143133180Y-95781022D01*
X143113402Y-95753418D01*
X143088758Y-95729360D01*
X143061305Y-95712263D01*
X143052522Y-95708491D01*
X143020956Y-95700490D01*
X142989549Y-95696912D01*
X142956068Y-95695476D01*
X142942163Y-95695361D01*
X142806794Y-95695361D01*
X142806794Y-96185566D01*
X142721445Y-96185566D01*
X142721445Y-95615327D01*
X142943413Y-95615327D01*
X142978789Y-95615914D01*
G37*
G36*
X143827846Y-96034878D02*
G01*
X143913194Y-96055981D01*
X143903747Y-96088201D01*
X143892208Y-96117942D01*
X143875600Y-96150356D01*
X143855982Y-96179198D01*
X143833351Y-96204468D01*
X143816591Y-96219330D01*
X143789413Y-96238454D01*
X143760047Y-96253622D01*
X143728494Y-96264833D01*
X143694753Y-96272087D01*
X143658826Y-96275384D01*
X143646364Y-96275604D01*
X143614732Y-96274562D01*
X143579283Y-96270561D01*
X143546570Y-96263560D01*
X143516594Y-96253558D01*
X143485081Y-96238097D01*
X143476762Y-96232930D01*
X143449732Y-96212435D01*
X143425680Y-96188289D01*
X143404605Y-96160494D01*
X143386507Y-96129048D01*
X143377501Y-96109440D01*
X143365921Y-96078658D01*
X143356736Y-96047041D01*
X143349947Y-96014589D01*
X143345554Y-95981301D01*
X143343558Y-95947178D01*
X143343425Y-95935618D01*
X143344776Y-95898545D01*
X143348832Y-95863297D01*
X143355591Y-95829874D01*
X143365055Y-95798275D01*
X143377222Y-95768501D01*
X143381878Y-95758981D01*
X143400257Y-95727754D01*
X143421748Y-95699997D01*
X143446351Y-95675710D01*
X143474065Y-95654895D01*
X143491299Y-95644558D01*
X143523089Y-95629270D01*
X143556225Y-95617737D01*
X143590707Y-95609959D01*
X143626536Y-95605936D01*
X143647614Y-95605323D01*
X143682816Y-95607098D01*
X143715853Y-95612423D01*
X143746725Y-95621298D01*
X143775432Y-95633724D01*
X143806186Y-95652707D01*
X143810339Y-95655813D01*
X143837284Y-95679870D01*
X143860399Y-95707861D01*
X143877164Y-95734984D01*
X143891115Y-95764999D01*
X143902252Y-95797904D01*
X143818154Y-95817287D01*
X143805708Y-95785164D01*
X143788669Y-95754631D01*
X143768416Y-95730034D01*
X143753127Y-95716932D01*
X143724319Y-95700281D01*
X143691236Y-95689797D01*
X143657807Y-95685634D01*
X143645895Y-95685357D01*
X143614517Y-95687032D01*
X143581532Y-95693050D01*
X143551614Y-95703445D01*
X143521624Y-95720371D01*
X143495912Y-95741871D01*
X143474874Y-95767154D01*
X143458510Y-95796221D01*
X143451438Y-95814004D01*
X143441691Y-95847362D01*
X143435133Y-95881313D01*
X143431766Y-95915857D01*
X143431274Y-95935305D01*
X143432418Y-95969552D01*
X143435852Y-96001855D01*
X143442578Y-96036391D01*
X143452294Y-96068387D01*
X143455190Y-96075989D01*
X143468877Y-96104175D01*
X143488223Y-96131329D01*
X143511748Y-96153661D01*
X143529753Y-96165870D01*
X143558821Y-96180227D01*
X143589224Y-96189885D01*
X143620963Y-96194845D01*
X143639173Y-96195570D01*
X143673660Y-96193040D01*
X143705373Y-96185449D01*
X143734311Y-96172797D01*
X143760474Y-96155084D01*
X143783325Y-96132389D01*
X143802171Y-96104790D01*
X143817011Y-96072286D01*
X143826711Y-96039822D01*
X143827846Y-96034878D01*
G37*
G36*
X136767308Y-96175562D02*
G01*
X136767308Y-95995486D01*
X136591922Y-95995486D01*
X136591922Y-95915453D01*
X136767308Y-95915453D01*
X136767308Y-95735378D01*
X136842026Y-95735378D01*
X136842026Y-95915453D01*
X137017412Y-95915453D01*
X137017412Y-95995486D01*
X136842026Y-95995486D01*
X136842026Y-96175562D01*
X136767308Y-96175562D01*
G37*
G36*
X137102292Y-96095528D02*
G01*
X137181387Y-96085524D01*
X137190545Y-96115825D01*
X137205836Y-96145840D01*
X137227657Y-96169778D01*
X137256676Y-96186477D01*
X137287630Y-96194336D01*
X137307534Y-96195570D01*
X137340800Y-96191968D01*
X137370646Y-96181160D01*
X137397073Y-96163147D01*
X137401948Y-96158680D01*
X137422227Y-96133801D01*
X137435858Y-96102449D01*
X137440364Y-96070325D01*
X137440402Y-96066923D01*
X137436191Y-96033190D01*
X137423556Y-96003779D01*
X137404762Y-95980793D01*
X137377969Y-95961392D01*
X137346596Y-95950044D01*
X137314099Y-95946716D01*
X137281822Y-95950135D01*
X137258294Y-95955470D01*
X137267204Y-95875436D01*
X137279866Y-95876218D01*
X137313396Y-95873521D01*
X137344561Y-95865431D01*
X137370841Y-95853396D01*
X137395512Y-95832689D01*
X137409390Y-95802418D01*
X137411327Y-95782741D01*
X137404836Y-95750162D01*
X137385361Y-95723354D01*
X137381784Y-95720215D01*
X137352779Y-95703225D01*
X137319951Y-95695968D01*
X137305814Y-95695361D01*
X137273384Y-95698878D01*
X137243113Y-95710626D01*
X137228907Y-95720371D01*
X137207524Y-95744820D01*
X137194244Y-95774715D01*
X137189359Y-95795403D01*
X137110264Y-95785399D01*
X137118389Y-95751716D01*
X137130045Y-95721520D01*
X137147689Y-95691278D01*
X137169944Y-95665588D01*
X137176229Y-95659877D01*
X137203506Y-95640387D01*
X137233909Y-95626465D01*
X137267439Y-95618112D01*
X137299342Y-95615371D01*
X137304095Y-95615327D01*
X137336210Y-95617480D01*
X137369667Y-95624819D01*
X137401167Y-95637368D01*
X137429212Y-95654334D01*
X137454162Y-95677225D01*
X137469008Y-95697393D01*
X137483391Y-95726541D01*
X137491136Y-95757008D01*
X137492611Y-95778052D01*
X137488922Y-95809760D01*
X137477855Y-95839094D01*
X137470258Y-95851833D01*
X137448510Y-95876640D01*
X137422070Y-95895556D01*
X137403824Y-95904824D01*
X137433978Y-95914773D01*
X137462725Y-95931223D01*
X137486465Y-95953351D01*
X137492611Y-95961097D01*
X137509345Y-95989875D01*
X137519881Y-96022866D01*
X137524064Y-96056160D01*
X137524343Y-96068017D01*
X137522178Y-96099674D01*
X137514179Y-96134247D01*
X137500285Y-96166276D01*
X137480498Y-96195762D01*
X137462755Y-96215266D01*
X137438569Y-96235771D01*
X137407450Y-96254332D01*
X137378287Y-96265646D01*
X137346827Y-96272716D01*
X137313071Y-96275545D01*
X137307221Y-96275604D01*
X137271463Y-96273203D01*
X137238457Y-96265999D01*
X137208204Y-96253994D01*
X137180703Y-96237187D01*
X137166225Y-96225426D01*
X137144038Y-96202060D01*
X137126444Y-96175867D01*
X137113443Y-96146845D01*
X137105034Y-96114997D01*
X137102292Y-96095528D01*
G37*
G36*
X137816497Y-96265600D02*
G01*
X137566705Y-95615327D01*
X137659087Y-95615327D01*
X137826501Y-96084743D01*
X137837400Y-96115928D01*
X137847235Y-96146000D01*
X137856917Y-96178109D01*
X137860421Y-96190568D01*
X137870258Y-96157531D01*
X137879895Y-96127772D01*
X137890273Y-96097988D01*
X137895123Y-96084743D01*
X138069259Y-95615327D01*
X138156326Y-95615327D01*
X137904033Y-96265600D01*
X137816497Y-96265600D01*
G37*
G36*
X138441533Y-95617802D02*
G01*
X138472669Y-95625228D01*
X138498345Y-95636274D01*
X138525837Y-95654599D01*
X138549460Y-95678156D01*
X138563059Y-95696768D01*
X138579283Y-95725900D01*
X138591789Y-95755941D01*
X138601216Y-95785877D01*
X138603076Y-95792902D01*
X138609436Y-95823666D01*
X138613979Y-95859375D01*
X138616463Y-95894675D01*
X138617486Y-95927944D01*
X138617613Y-95945622D01*
X138617045Y-95980115D01*
X138615339Y-96012471D01*
X138611791Y-96048477D01*
X138606605Y-96081406D01*
X138598485Y-96115934D01*
X138594322Y-96129449D01*
X138581231Y-96162402D01*
X138565248Y-96191389D01*
X138546373Y-96216409D01*
X138524606Y-96237463D01*
X138496562Y-96255900D01*
X138464661Y-96268303D01*
X138433066Y-96274263D01*
X138407369Y-96275604D01*
X138373839Y-96273246D01*
X138343123Y-96266173D01*
X138310844Y-96251963D01*
X138282395Y-96231334D01*
X138261058Y-96208544D01*
X138242685Y-96180858D01*
X138227426Y-96148210D01*
X138217460Y-96118520D01*
X138209488Y-96085655D01*
X138203509Y-96049614D01*
X138199523Y-96010399D01*
X138197842Y-95978903D01*
X138197281Y-95945622D01*
X138197284Y-95945466D01*
X138278565Y-95945466D01*
X138279146Y-95981526D01*
X138280890Y-96014440D01*
X138284705Y-96051159D01*
X138290336Y-96082962D01*
X138299492Y-96114638D01*
X138313479Y-96142647D01*
X138315768Y-96145862D01*
X138338067Y-96169891D01*
X138366064Y-96187366D01*
X138397449Y-96195133D01*
X138407525Y-96195570D01*
X138439845Y-96190685D01*
X138468806Y-96176031D01*
X138492000Y-96154489D01*
X138499126Y-96145549D01*
X138515403Y-96114286D01*
X138524558Y-96082632D01*
X138530189Y-96050881D01*
X138534004Y-96014244D01*
X138535748Y-95981418D01*
X138536329Y-95945466D01*
X138535748Y-95909337D01*
X138534004Y-95876374D01*
X138530189Y-95839622D01*
X138524558Y-95807815D01*
X138515403Y-95776176D01*
X138499126Y-95745069D01*
X138476765Y-95721040D01*
X138448555Y-95703565D01*
X138416804Y-95695798D01*
X138406587Y-95695361D01*
X138374644Y-95699635D01*
X138344477Y-95714210D01*
X138321573Y-95736436D01*
X138319520Y-95739129D01*
X138303562Y-95768077D01*
X138293003Y-95800104D01*
X138286404Y-95831882D01*
X138281805Y-95868284D01*
X138279565Y-95900737D01*
X138278605Y-95936150D01*
X138278565Y-95945466D01*
X138197284Y-95945466D01*
X138197854Y-95910907D01*
X138199571Y-95878376D01*
X138203143Y-95842219D01*
X138208364Y-95809206D01*
X138216538Y-95774664D01*
X138220728Y-95761170D01*
X138233947Y-95728168D01*
X138249999Y-95699191D01*
X138268883Y-95674239D01*
X138290601Y-95653312D01*
X138318608Y-95634950D01*
X138350398Y-95622598D01*
X138381832Y-95616663D01*
X138407369Y-95615327D01*
X138441533Y-95617802D01*
G37*
G36*
X139607877Y-96265600D02*
G01*
X139510805Y-96265600D01*
X139435617Y-96065516D01*
X139166129Y-96065516D01*
X139095319Y-96265600D01*
X139004812Y-96265600D01*
X139111405Y-95985482D01*
X139190671Y-95985482D01*
X139409200Y-95985482D01*
X139341984Y-95821820D01*
X139329267Y-95787933D01*
X139318061Y-95757531D01*
X139307105Y-95727054D01*
X139296184Y-95695361D01*
X139288510Y-95725899D01*
X139279203Y-95757723D01*
X139268264Y-95790834D01*
X139261482Y-95809784D01*
X139190671Y-95985482D01*
X139111405Y-95985482D01*
X139252259Y-95615327D01*
X139344173Y-95615327D01*
X139607877Y-96265600D01*
G37*
G36*
X139995450Y-95616158D02*
G01*
X140027208Y-95618648D01*
X140058666Y-95623528D01*
X140090735Y-95632678D01*
X140119436Y-95647658D01*
X140143851Y-95668955D01*
X140162328Y-95693798D01*
X140176506Y-95722054D01*
X140185433Y-95752111D01*
X140189109Y-95783969D01*
X140189214Y-95790557D01*
X140186439Y-95823442D01*
X140178116Y-95853630D01*
X140162118Y-95884369D01*
X140144820Y-95905918D01*
X140119605Y-95927225D01*
X140088351Y-95944254D01*
X140056052Y-95955644D01*
X140024688Y-95962799D01*
X140007732Y-95965474D01*
X140035926Y-95981198D01*
X140059159Y-95998769D01*
X140082127Y-96022601D01*
X140102146Y-96046712D01*
X140121546Y-96073346D01*
X140129970Y-96085993D01*
X140242049Y-96265600D01*
X140134660Y-96265600D01*
X140049468Y-96128355D01*
X140031609Y-96100403D01*
X140013479Y-96073139D01*
X139994142Y-96045827D01*
X139987880Y-96037535D01*
X139966264Y-96012329D01*
X139944424Y-95994392D01*
X139915467Y-95980998D01*
X139905658Y-95978292D01*
X139873476Y-95975654D01*
X139858138Y-95975478D01*
X139759190Y-95975478D01*
X139759190Y-96265600D01*
X139673998Y-96265600D01*
X139673998Y-95895445D01*
X139759190Y-95895445D01*
X139942548Y-95895445D01*
X139976599Y-95894345D01*
X140008306Y-95890598D01*
X140033993Y-95884190D01*
X140063028Y-95869418D01*
X140084170Y-95847925D01*
X140098073Y-95818403D01*
X140101365Y-95793527D01*
X140095870Y-95761230D01*
X140079385Y-95733937D01*
X140068069Y-95723029D01*
X140040724Y-95707276D01*
X140007947Y-95698630D01*
X139976295Y-95695604D01*
X139963182Y-95695361D01*
X139759190Y-95695361D01*
X139759190Y-95895445D01*
X139673998Y-95895445D01*
X139673998Y-95615327D01*
X139959743Y-95615327D01*
X139995450Y-95616158D01*
G37*
G36*
X140320988Y-96265600D02*
G01*
X140320988Y-95615327D01*
X140786964Y-95615327D01*
X140786964Y-95695361D01*
X140406180Y-95695361D01*
X140406180Y-95885440D01*
X140762735Y-95885440D01*
X140762735Y-95965474D01*
X140406180Y-95965474D01*
X140406180Y-96185566D01*
X140801970Y-96185566D01*
X140801970Y-96265600D01*
X140320988Y-96265600D01*
G37*
G36*
X140920770Y-96265600D02*
G01*
X140920770Y-95615327D01*
X141355483Y-95615327D01*
X141355483Y-95695361D01*
X141005962Y-95695361D01*
X141005962Y-95885440D01*
X141308432Y-95885440D01*
X141308432Y-95965474D01*
X141005962Y-95965474D01*
X141005962Y-96265600D01*
X140920770Y-96265600D01*
G37*
X150820588Y-124653036D02*
X150912017Y-124683512D01*
X150912017Y-124683512D02*
X151064398Y-124683512D01*
X151064398Y-124683512D02*
X151125350Y-124653036D01*
X151125350Y-124653036D02*
X151155826Y-124622559D01*
X151155826Y-124622559D02*
X151186303Y-124561607D01*
X151186303Y-124561607D02*
X151186303Y-124500655D01*
X151186303Y-124500655D02*
X151155826Y-124439702D01*
X151155826Y-124439702D02*
X151125350Y-124409226D01*
X151125350Y-124409226D02*
X151064398Y-124378750D01*
X151064398Y-124378750D02*
X150942493Y-124348274D01*
X150942493Y-124348274D02*
X150881541Y-124317797D01*
X150881541Y-124317797D02*
X150851064Y-124287321D01*
X150851064Y-124287321D02*
X150820588Y-124226369D01*
X150820588Y-124226369D02*
X150820588Y-124165416D01*
X150820588Y-124165416D02*
X150851064Y-124104464D01*
X150851064Y-124104464D02*
X150881541Y-124073988D01*
X150881541Y-124073988D02*
X150942493Y-124043512D01*
X150942493Y-124043512D02*
X151094874Y-124043512D01*
X151094874Y-124043512D02*
X151186303Y-124073988D01*
X151369160Y-124256845D02*
X151612969Y-124256845D01*
X151460588Y-124043512D02*
X151460588Y-124592083D01*
X151460588Y-124592083D02*
X151491065Y-124653036D01*
X151491065Y-124653036D02*
X151552017Y-124683512D01*
X151552017Y-124683512D02*
X151612969Y-124683512D01*
X151826302Y-124683512D02*
X151826302Y-124256845D01*
X151826302Y-124378750D02*
X151856779Y-124317797D01*
X151856779Y-124317797D02*
X151887255Y-124287321D01*
X151887255Y-124287321D02*
X151948207Y-124256845D01*
X151948207Y-124256845D02*
X152009160Y-124256845D01*
X152496778Y-124683512D02*
X152496778Y-124348274D01*
X152496778Y-124348274D02*
X152466302Y-124287321D01*
X152466302Y-124287321D02*
X152405350Y-124256845D01*
X152405350Y-124256845D02*
X152283445Y-124256845D01*
X152283445Y-124256845D02*
X152222492Y-124287321D01*
X152496778Y-124653036D02*
X152435826Y-124683512D01*
X152435826Y-124683512D02*
X152283445Y-124683512D01*
X152283445Y-124683512D02*
X152222492Y-124653036D01*
X152222492Y-124653036D02*
X152192016Y-124592083D01*
X152192016Y-124592083D02*
X152192016Y-124531131D01*
X152192016Y-124531131D02*
X152222492Y-124470178D01*
X152222492Y-124470178D02*
X152283445Y-124439702D01*
X152283445Y-124439702D02*
X152435826Y-124439702D01*
X152435826Y-124439702D02*
X152496778Y-124409226D01*
X152801540Y-124683512D02*
X152801540Y-124256845D01*
X152801540Y-124043512D02*
X152771064Y-124073988D01*
X152771064Y-124073988D02*
X152801540Y-124104464D01*
X152801540Y-124104464D02*
X152832017Y-124073988D01*
X152832017Y-124073988D02*
X152801540Y-124043512D01*
X152801540Y-124043512D02*
X152801540Y-124104464D01*
X153106302Y-124256845D02*
X153106302Y-124683512D01*
X153106302Y-124317797D02*
X153136779Y-124287321D01*
X153136779Y-124287321D02*
X153197731Y-124256845D01*
X153197731Y-124256845D02*
X153289160Y-124256845D01*
X153289160Y-124256845D02*
X153350112Y-124287321D01*
X153350112Y-124287321D02*
X153380588Y-124348274D01*
X153380588Y-124348274D02*
X153380588Y-124683512D01*
X154142493Y-124653036D02*
X154233922Y-124683512D01*
X154233922Y-124683512D02*
X154386303Y-124683512D01*
X154386303Y-124683512D02*
X154447255Y-124653036D01*
X154447255Y-124653036D02*
X154477731Y-124622559D01*
X154477731Y-124622559D02*
X154508208Y-124561607D01*
X154508208Y-124561607D02*
X154508208Y-124500655D01*
X154508208Y-124500655D02*
X154477731Y-124439702D01*
X154477731Y-124439702D02*
X154447255Y-124409226D01*
X154447255Y-124409226D02*
X154386303Y-124378750D01*
X154386303Y-124378750D02*
X154264398Y-124348274D01*
X154264398Y-124348274D02*
X154203446Y-124317797D01*
X154203446Y-124317797D02*
X154172969Y-124287321D01*
X154172969Y-124287321D02*
X154142493Y-124226369D01*
X154142493Y-124226369D02*
X154142493Y-124165416D01*
X154142493Y-124165416D02*
X154172969Y-124104464D01*
X154172969Y-124104464D02*
X154203446Y-124073988D01*
X154203446Y-124073988D02*
X154264398Y-124043512D01*
X154264398Y-124043512D02*
X154416779Y-124043512D01*
X154416779Y-124043512D02*
X154508208Y-124073988D01*
X155026303Y-124653036D02*
X154965351Y-124683512D01*
X154965351Y-124683512D02*
X154843446Y-124683512D01*
X154843446Y-124683512D02*
X154782493Y-124653036D01*
X154782493Y-124653036D02*
X154752017Y-124592083D01*
X154752017Y-124592083D02*
X154752017Y-124348274D01*
X154752017Y-124348274D02*
X154782493Y-124287321D01*
X154782493Y-124287321D02*
X154843446Y-124256845D01*
X154843446Y-124256845D02*
X154965351Y-124256845D01*
X154965351Y-124256845D02*
X155026303Y-124287321D01*
X155026303Y-124287321D02*
X155056779Y-124348274D01*
X155056779Y-124348274D02*
X155056779Y-124409226D01*
X155056779Y-124409226D02*
X154752017Y-124470178D01*
X155331064Y-124256845D02*
X155331064Y-124683512D01*
X155331064Y-124317797D02*
X155361541Y-124287321D01*
X155361541Y-124287321D02*
X155422493Y-124256845D01*
X155422493Y-124256845D02*
X155513922Y-124256845D01*
X155513922Y-124256845D02*
X155574874Y-124287321D01*
X155574874Y-124287321D02*
X155605350Y-124348274D01*
X155605350Y-124348274D02*
X155605350Y-124683512D01*
X155879636Y-124653036D02*
X155940589Y-124683512D01*
X155940589Y-124683512D02*
X156062493Y-124683512D01*
X156062493Y-124683512D02*
X156123446Y-124653036D01*
X156123446Y-124653036D02*
X156153922Y-124592083D01*
X156153922Y-124592083D02*
X156153922Y-124561607D01*
X156153922Y-124561607D02*
X156123446Y-124500655D01*
X156123446Y-124500655D02*
X156062493Y-124470178D01*
X156062493Y-124470178D02*
X155971065Y-124470178D01*
X155971065Y-124470178D02*
X155910112Y-124439702D01*
X155910112Y-124439702D02*
X155879636Y-124378750D01*
X155879636Y-124378750D02*
X155879636Y-124348274D01*
X155879636Y-124348274D02*
X155910112Y-124287321D01*
X155910112Y-124287321D02*
X155971065Y-124256845D01*
X155971065Y-124256845D02*
X156062493Y-124256845D01*
X156062493Y-124256845D02*
X156123446Y-124287321D01*
X156519636Y-124683512D02*
X156458684Y-124653036D01*
X156458684Y-124653036D02*
X156428207Y-124622559D01*
X156428207Y-124622559D02*
X156397731Y-124561607D01*
X156397731Y-124561607D02*
X156397731Y-124378750D01*
X156397731Y-124378750D02*
X156428207Y-124317797D01*
X156428207Y-124317797D02*
X156458684Y-124287321D01*
X156458684Y-124287321D02*
X156519636Y-124256845D01*
X156519636Y-124256845D02*
X156611065Y-124256845D01*
X156611065Y-124256845D02*
X156672017Y-124287321D01*
X156672017Y-124287321D02*
X156702493Y-124317797D01*
X156702493Y-124317797D02*
X156732969Y-124378750D01*
X156732969Y-124378750D02*
X156732969Y-124561607D01*
X156732969Y-124561607D02*
X156702493Y-124622559D01*
X156702493Y-124622559D02*
X156672017Y-124653036D01*
X156672017Y-124653036D02*
X156611065Y-124683512D01*
X156611065Y-124683512D02*
X156519636Y-124683512D01*
X157007255Y-124683512D02*
X157007255Y-124256845D01*
X157007255Y-124378750D02*
X157037732Y-124317797D01*
X157037732Y-124317797D02*
X157068208Y-124287321D01*
X157068208Y-124287321D02*
X157129160Y-124256845D01*
X157129160Y-124256845D02*
X157190113Y-124256845D01*
X151216779Y-125713876D02*
X151003445Y-125409114D01*
X150851064Y-125713876D02*
X150851064Y-125073876D01*
X150851064Y-125073876D02*
X151094874Y-125073876D01*
X151094874Y-125073876D02*
X151155826Y-125104352D01*
X151155826Y-125104352D02*
X151186303Y-125134828D01*
X151186303Y-125134828D02*
X151216779Y-125195780D01*
X151216779Y-125195780D02*
X151216779Y-125287209D01*
X151216779Y-125287209D02*
X151186303Y-125348161D01*
X151186303Y-125348161D02*
X151155826Y-125378638D01*
X151155826Y-125378638D02*
X151094874Y-125409114D01*
X151094874Y-125409114D02*
X150851064Y-125409114D01*
X151734874Y-125683400D02*
X151673922Y-125713876D01*
X151673922Y-125713876D02*
X151552017Y-125713876D01*
X151552017Y-125713876D02*
X151491064Y-125683400D01*
X151491064Y-125683400D02*
X151460588Y-125622447D01*
X151460588Y-125622447D02*
X151460588Y-125378638D01*
X151460588Y-125378638D02*
X151491064Y-125317685D01*
X151491064Y-125317685D02*
X151552017Y-125287209D01*
X151552017Y-125287209D02*
X151673922Y-125287209D01*
X151673922Y-125287209D02*
X151734874Y-125317685D01*
X151734874Y-125317685D02*
X151765350Y-125378638D01*
X151765350Y-125378638D02*
X151765350Y-125439590D01*
X151765350Y-125439590D02*
X151460588Y-125500542D01*
X151978683Y-125287209D02*
X152131064Y-125713876D01*
X152131064Y-125713876D02*
X152283445Y-125287209D01*
X152527254Y-125652923D02*
X152557731Y-125683400D01*
X152557731Y-125683400D02*
X152527254Y-125713876D01*
X152527254Y-125713876D02*
X152496778Y-125683400D01*
X152496778Y-125683400D02*
X152527254Y-125652923D01*
X152527254Y-125652923D02*
X152527254Y-125713876D01*
X153654874Y-125713876D02*
X153289159Y-125713876D01*
X153472016Y-125713876D02*
X153472016Y-125073876D01*
X153472016Y-125073876D02*
X153411064Y-125165304D01*
X153411064Y-125165304D02*
X153350112Y-125226257D01*
X153350112Y-125226257D02*
X153289159Y-125256733D01*
X153929159Y-125652923D02*
X153959636Y-125683400D01*
X153959636Y-125683400D02*
X153929159Y-125713876D01*
X153929159Y-125713876D02*
X153898683Y-125683400D01*
X153898683Y-125683400D02*
X153929159Y-125652923D01*
X153929159Y-125652923D02*
X153929159Y-125713876D01*
X154355826Y-125073876D02*
X154416779Y-125073876D01*
X154416779Y-125073876D02*
X154477731Y-125104352D01*
X154477731Y-125104352D02*
X154508207Y-125134828D01*
X154508207Y-125134828D02*
X154538683Y-125195780D01*
X154538683Y-125195780D02*
X154569160Y-125317685D01*
X154569160Y-125317685D02*
X154569160Y-125470066D01*
X154569160Y-125470066D02*
X154538683Y-125591971D01*
X154538683Y-125591971D02*
X154508207Y-125652923D01*
X154508207Y-125652923D02*
X154477731Y-125683400D01*
X154477731Y-125683400D02*
X154416779Y-125713876D01*
X154416779Y-125713876D02*
X154355826Y-125713876D01*
X154355826Y-125713876D02*
X154294874Y-125683400D01*
X154294874Y-125683400D02*
X154264398Y-125652923D01*
X154264398Y-125652923D02*
X154233921Y-125591971D01*
X154233921Y-125591971D02*
X154203445Y-125470066D01*
X154203445Y-125470066D02*
X154203445Y-125317685D01*
X154203445Y-125317685D02*
X154233921Y-125195780D01*
X154233921Y-125195780D02*
X154264398Y-125134828D01*
X154264398Y-125134828D02*
X154294874Y-125104352D01*
X154294874Y-125104352D02*
X154355826Y-125073876D01*
X147583333Y-115359580D02*
X147535714Y-115407200D01*
X147535714Y-115407200D02*
X147392857Y-115454819D01*
X147392857Y-115454819D02*
X147297619Y-115454819D01*
X147297619Y-115454819D02*
X147154762Y-115407200D01*
X147154762Y-115407200D02*
X147059524Y-115311961D01*
X147059524Y-115311961D02*
X147011905Y-115216723D01*
X147011905Y-115216723D02*
X146964286Y-115026247D01*
X146964286Y-115026247D02*
X146964286Y-114883390D01*
X146964286Y-114883390D02*
X147011905Y-114692914D01*
X147011905Y-114692914D02*
X147059524Y-114597676D01*
X147059524Y-114597676D02*
X147154762Y-114502438D01*
X147154762Y-114502438D02*
X147297619Y-114454819D01*
X147297619Y-114454819D02*
X147392857Y-114454819D01*
X147392857Y-114454819D02*
X147535714Y-114502438D01*
X147535714Y-114502438D02*
X147583333Y-114550057D01*
X148154762Y-114883390D02*
X148059524Y-114835771D01*
X148059524Y-114835771D02*
X148011905Y-114788152D01*
X148011905Y-114788152D02*
X147964286Y-114692914D01*
X147964286Y-114692914D02*
X147964286Y-114645295D01*
X147964286Y-114645295D02*
X148011905Y-114550057D01*
X148011905Y-114550057D02*
X148059524Y-114502438D01*
X148059524Y-114502438D02*
X148154762Y-114454819D01*
X148154762Y-114454819D02*
X148345238Y-114454819D01*
X148345238Y-114454819D02*
X148440476Y-114502438D01*
X148440476Y-114502438D02*
X148488095Y-114550057D01*
X148488095Y-114550057D02*
X148535714Y-114645295D01*
X148535714Y-114645295D02*
X148535714Y-114692914D01*
X148535714Y-114692914D02*
X148488095Y-114788152D01*
X148488095Y-114788152D02*
X148440476Y-114835771D01*
X148440476Y-114835771D02*
X148345238Y-114883390D01*
X148345238Y-114883390D02*
X148154762Y-114883390D01*
X148154762Y-114883390D02*
X148059524Y-114931009D01*
X148059524Y-114931009D02*
X148011905Y-114978628D01*
X148011905Y-114978628D02*
X147964286Y-115073866D01*
X147964286Y-115073866D02*
X147964286Y-115264342D01*
X147964286Y-115264342D02*
X148011905Y-115359580D01*
X148011905Y-115359580D02*
X148059524Y-115407200D01*
X148059524Y-115407200D02*
X148154762Y-115454819D01*
X148154762Y-115454819D02*
X148345238Y-115454819D01*
X148345238Y-115454819D02*
X148440476Y-115407200D01*
X148440476Y-115407200D02*
X148488095Y-115359580D01*
X148488095Y-115359580D02*
X148535714Y-115264342D01*
X148535714Y-115264342D02*
X148535714Y-115073866D01*
X148535714Y-115073866D02*
X148488095Y-114978628D01*
X148488095Y-114978628D02*
X148440476Y-114931009D01*
X148440476Y-114931009D02*
X148345238Y-114883390D01*
D11*
X142576667Y-127504318D02*
X142576667Y-128411461D01*
X142576667Y-128411461D02*
X142516190Y-128592889D01*
X142516190Y-128592889D02*
X142395238Y-128713842D01*
X142395238Y-128713842D02*
X142213809Y-128774318D01*
X142213809Y-128774318D02*
X142092857Y-128774318D01*
X143120952Y-127625270D02*
X143181428Y-127564794D01*
X143181428Y-127564794D02*
X143302381Y-127504318D01*
X143302381Y-127504318D02*
X143604762Y-127504318D01*
X143604762Y-127504318D02*
X143725714Y-127564794D01*
X143725714Y-127564794D02*
X143786190Y-127625270D01*
X143786190Y-127625270D02*
X143846667Y-127746222D01*
X143846667Y-127746222D02*
X143846667Y-127867175D01*
X143846667Y-127867175D02*
X143786190Y-128048603D01*
X143786190Y-128048603D02*
X143060476Y-128774318D01*
X143060476Y-128774318D02*
X143846667Y-128774318D01*
D10*
X140083333Y-117704819D02*
X139750000Y-117228628D01*
X139511905Y-117704819D02*
X139511905Y-116704819D01*
X139511905Y-116704819D02*
X139892857Y-116704819D01*
X139892857Y-116704819D02*
X139988095Y-116752438D01*
X139988095Y-116752438D02*
X140035714Y-116800057D01*
X140035714Y-116800057D02*
X140083333Y-116895295D01*
X140083333Y-116895295D02*
X140083333Y-117038152D01*
X140083333Y-117038152D02*
X140035714Y-117133390D01*
X140035714Y-117133390D02*
X139988095Y-117181009D01*
X139988095Y-117181009D02*
X139892857Y-117228628D01*
X139892857Y-117228628D02*
X139511905Y-117228628D01*
X141035714Y-117704819D02*
X140464286Y-117704819D01*
X140750000Y-117704819D02*
X140750000Y-116704819D01*
X140750000Y-116704819D02*
X140654762Y-116847676D01*
X140654762Y-116847676D02*
X140559524Y-116942914D01*
X140559524Y-116942914D02*
X140464286Y-116990533D01*
X144238095Y-96704819D02*
X144238095Y-97514342D01*
X144238095Y-97514342D02*
X144285714Y-97609580D01*
X144285714Y-97609580D02*
X144333333Y-97657200D01*
X144333333Y-97657200D02*
X144428571Y-97704819D01*
X144428571Y-97704819D02*
X144619047Y-97704819D01*
X144619047Y-97704819D02*
X144714285Y-97657200D01*
X144714285Y-97657200D02*
X144761904Y-97609580D01*
X144761904Y-97609580D02*
X144809523Y-97514342D01*
X144809523Y-97514342D02*
X144809523Y-96704819D01*
X145238095Y-96800057D02*
X145285714Y-96752438D01*
X145285714Y-96752438D02*
X145380952Y-96704819D01*
X145380952Y-96704819D02*
X145619047Y-96704819D01*
X145619047Y-96704819D02*
X145714285Y-96752438D01*
X145714285Y-96752438D02*
X145761904Y-96800057D01*
X145761904Y-96800057D02*
X145809523Y-96895295D01*
X145809523Y-96895295D02*
X145809523Y-96990533D01*
X145809523Y-96990533D02*
X145761904Y-97133390D01*
X145761904Y-97133390D02*
X145190476Y-97704819D01*
X145190476Y-97704819D02*
X145809523Y-97704819D01*
X141857142Y-107609580D02*
X141809523Y-107657200D01*
X141809523Y-107657200D02*
X141666666Y-107704819D01*
X141666666Y-107704819D02*
X141571428Y-107704819D01*
X141571428Y-107704819D02*
X141428571Y-107657200D01*
X141428571Y-107657200D02*
X141333333Y-107561961D01*
X141333333Y-107561961D02*
X141285714Y-107466723D01*
X141285714Y-107466723D02*
X141238095Y-107276247D01*
X141238095Y-107276247D02*
X141238095Y-107133390D01*
X141238095Y-107133390D02*
X141285714Y-106942914D01*
X141285714Y-106942914D02*
X141333333Y-106847676D01*
X141333333Y-106847676D02*
X141428571Y-106752438D01*
X141428571Y-106752438D02*
X141571428Y-106704819D01*
X141571428Y-106704819D02*
X141666666Y-106704819D01*
X141666666Y-106704819D02*
X141809523Y-106752438D01*
X141809523Y-106752438D02*
X141857142Y-106800057D01*
X142809523Y-107704819D02*
X142238095Y-107704819D01*
X142523809Y-107704819D02*
X142523809Y-106704819D01*
X142523809Y-106704819D02*
X142428571Y-106847676D01*
X142428571Y-106847676D02*
X142333333Y-106942914D01*
X142333333Y-106942914D02*
X142238095Y-106990533D01*
X143428571Y-106704819D02*
X143523809Y-106704819D01*
X143523809Y-106704819D02*
X143619047Y-106752438D01*
X143619047Y-106752438D02*
X143666666Y-106800057D01*
X143666666Y-106800057D02*
X143714285Y-106895295D01*
X143714285Y-106895295D02*
X143761904Y-107085771D01*
X143761904Y-107085771D02*
X143761904Y-107323866D01*
X143761904Y-107323866D02*
X143714285Y-107514342D01*
X143714285Y-107514342D02*
X143666666Y-107609580D01*
X143666666Y-107609580D02*
X143619047Y-107657200D01*
X143619047Y-107657200D02*
X143523809Y-107704819D01*
X143523809Y-107704819D02*
X143428571Y-107704819D01*
X143428571Y-107704819D02*
X143333333Y-107657200D01*
X143333333Y-107657200D02*
X143285714Y-107609580D01*
X143285714Y-107609580D02*
X143238095Y-107514342D01*
X143238095Y-107514342D02*
X143190476Y-107323866D01*
X143190476Y-107323866D02*
X143190476Y-107085771D01*
X143190476Y-107085771D02*
X143238095Y-106895295D01*
X143238095Y-106895295D02*
X143285714Y-106800057D01*
X143285714Y-106800057D02*
X143333333Y-106752438D01*
X143333333Y-106752438D02*
X143428571Y-106704819D01*
X139988095Y-114954819D02*
X139988095Y-115764342D01*
X139988095Y-115764342D02*
X140035714Y-115859580D01*
X140035714Y-115859580D02*
X140083333Y-115907200D01*
X140083333Y-115907200D02*
X140178571Y-115954819D01*
X140178571Y-115954819D02*
X140369047Y-115954819D01*
X140369047Y-115954819D02*
X140464285Y-115907200D01*
X140464285Y-115907200D02*
X140511904Y-115859580D01*
X140511904Y-115859580D02*
X140559523Y-115764342D01*
X140559523Y-115764342D02*
X140559523Y-114954819D01*
X141559523Y-115954819D02*
X140988095Y-115954819D01*
X141273809Y-115954819D02*
X141273809Y-114954819D01*
X141273809Y-114954819D02*
X141178571Y-115097676D01*
X141178571Y-115097676D02*
X141083333Y-115192914D01*
X141083333Y-115192914D02*
X140988095Y-115240533D01*
X131204761Y-114254819D02*
X130871428Y-113778628D01*
X130633333Y-114254819D02*
X130633333Y-113254819D01*
X130633333Y-113254819D02*
X131014285Y-113254819D01*
X131014285Y-113254819D02*
X131109523Y-113302438D01*
X131109523Y-113302438D02*
X131157142Y-113350057D01*
X131157142Y-113350057D02*
X131204761Y-113445295D01*
X131204761Y-113445295D02*
X131204761Y-113588152D01*
X131204761Y-113588152D02*
X131157142Y-113683390D01*
X131157142Y-113683390D02*
X131109523Y-113731009D01*
X131109523Y-113731009D02*
X131014285Y-113778628D01*
X131014285Y-113778628D02*
X130633333Y-113778628D01*
X131490476Y-113254819D02*
X131823809Y-114254819D01*
X131823809Y-114254819D02*
X132157142Y-113254819D01*
X133014285Y-114254819D02*
X132442857Y-114254819D01*
X132728571Y-114254819D02*
X132728571Y-113254819D01*
X132728571Y-113254819D02*
X132633333Y-113397676D01*
X132633333Y-113397676D02*
X132538095Y-113492914D01*
X132538095Y-113492914D02*
X132442857Y-113540533D01*
X144833333Y-108444820D02*
X144500000Y-107968629D01*
X144261905Y-108444820D02*
X144261905Y-107444820D01*
X144261905Y-107444820D02*
X144642857Y-107444820D01*
X144642857Y-107444820D02*
X144738095Y-107492439D01*
X144738095Y-107492439D02*
X144785714Y-107540058D01*
X144785714Y-107540058D02*
X144833333Y-107635296D01*
X144833333Y-107635296D02*
X144833333Y-107778153D01*
X144833333Y-107778153D02*
X144785714Y-107873391D01*
X144785714Y-107873391D02*
X144738095Y-107921010D01*
X144738095Y-107921010D02*
X144642857Y-107968629D01*
X144642857Y-107968629D02*
X144261905Y-107968629D01*
X145214286Y-107540058D02*
X145261905Y-107492439D01*
X145261905Y-107492439D02*
X145357143Y-107444820D01*
X145357143Y-107444820D02*
X145595238Y-107444820D01*
X145595238Y-107444820D02*
X145690476Y-107492439D01*
X145690476Y-107492439D02*
X145738095Y-107540058D01*
X145738095Y-107540058D02*
X145785714Y-107635296D01*
X145785714Y-107635296D02*
X145785714Y-107730534D01*
X145785714Y-107730534D02*
X145738095Y-107873391D01*
X145738095Y-107873391D02*
X145166667Y-108444820D01*
X145166667Y-108444820D02*
X145785714Y-108444820D01*
X148610266Y-118536104D02*
X148572170Y-118574200D01*
X148572170Y-118574200D02*
X148457885Y-118612295D01*
X148457885Y-118612295D02*
X148381694Y-118612295D01*
X148381694Y-118612295D02*
X148267408Y-118574200D01*
X148267408Y-118574200D02*
X148191218Y-118498009D01*
X148191218Y-118498009D02*
X148153123Y-118421819D01*
X148153123Y-118421819D02*
X148115027Y-118269438D01*
X148115027Y-118269438D02*
X148115027Y-118155152D01*
X148115027Y-118155152D02*
X148153123Y-118002771D01*
X148153123Y-118002771D02*
X148191218Y-117926580D01*
X148191218Y-117926580D02*
X148267408Y-117850390D01*
X148267408Y-117850390D02*
X148381694Y-117812295D01*
X148381694Y-117812295D02*
X148457885Y-117812295D01*
X148457885Y-117812295D02*
X148572170Y-117850390D01*
X148572170Y-117850390D02*
X148610266Y-117888485D01*
X149295980Y-117812295D02*
X149143599Y-117812295D01*
X149143599Y-117812295D02*
X149067408Y-117850390D01*
X149067408Y-117850390D02*
X149029313Y-117888485D01*
X149029313Y-117888485D02*
X148953123Y-118002771D01*
X148953123Y-118002771D02*
X148915027Y-118155152D01*
X148915027Y-118155152D02*
X148915027Y-118459914D01*
X148915027Y-118459914D02*
X148953123Y-118536104D01*
X148953123Y-118536104D02*
X148991218Y-118574200D01*
X148991218Y-118574200D02*
X149067408Y-118612295D01*
X149067408Y-118612295D02*
X149219789Y-118612295D01*
X149219789Y-118612295D02*
X149295980Y-118574200D01*
X149295980Y-118574200D02*
X149334075Y-118536104D01*
X149334075Y-118536104D02*
X149372170Y-118459914D01*
X149372170Y-118459914D02*
X149372170Y-118269438D01*
X149372170Y-118269438D02*
X149334075Y-118193247D01*
X149334075Y-118193247D02*
X149295980Y-118155152D01*
X149295980Y-118155152D02*
X149219789Y-118117057D01*
X149219789Y-118117057D02*
X149067408Y-118117057D01*
X149067408Y-118117057D02*
X148991218Y-118155152D01*
X148991218Y-118155152D02*
X148953123Y-118193247D01*
X148953123Y-118193247D02*
X148915027Y-118269438D01*
X154907533Y-114754761D02*
X154907533Y-114145238D01*
X155212295Y-114449999D02*
X154602771Y-114449999D01*
X144583333Y-111859580D02*
X144535714Y-111907200D01*
X144535714Y-111907200D02*
X144392857Y-111954819D01*
X144392857Y-111954819D02*
X144297619Y-111954819D01*
X144297619Y-111954819D02*
X144154762Y-111907200D01*
X144154762Y-111907200D02*
X144059524Y-111811961D01*
X144059524Y-111811961D02*
X144011905Y-111716723D01*
X144011905Y-111716723D02*
X143964286Y-111526247D01*
X143964286Y-111526247D02*
X143964286Y-111383390D01*
X143964286Y-111383390D02*
X144011905Y-111192914D01*
X144011905Y-111192914D02*
X144059524Y-111097676D01*
X144059524Y-111097676D02*
X144154762Y-111002438D01*
X144154762Y-111002438D02*
X144297619Y-110954819D01*
X144297619Y-110954819D02*
X144392857Y-110954819D01*
X144392857Y-110954819D02*
X144535714Y-111002438D01*
X144535714Y-111002438D02*
X144583333Y-111050057D01*
X145488095Y-110954819D02*
X145011905Y-110954819D01*
X145011905Y-110954819D02*
X144964286Y-111431009D01*
X144964286Y-111431009D02*
X145011905Y-111383390D01*
X145011905Y-111383390D02*
X145107143Y-111335771D01*
X145107143Y-111335771D02*
X145345238Y-111335771D01*
X145345238Y-111335771D02*
X145440476Y-111383390D01*
X145440476Y-111383390D02*
X145488095Y-111431009D01*
X145488095Y-111431009D02*
X145535714Y-111526247D01*
X145535714Y-111526247D02*
X145535714Y-111764342D01*
X145535714Y-111764342D02*
X145488095Y-111859580D01*
X145488095Y-111859580D02*
X145440476Y-111907200D01*
X145440476Y-111907200D02*
X145345238Y-111954819D01*
X145345238Y-111954819D02*
X145107143Y-111954819D01*
X145107143Y-111954819D02*
X145011905Y-111907200D01*
X145011905Y-111907200D02*
X144964286Y-111859580D01*
X141333332Y-120609580D02*
X141285713Y-120657200D01*
X141285713Y-120657200D02*
X141142856Y-120704819D01*
X141142856Y-120704819D02*
X141047618Y-120704819D01*
X141047618Y-120704819D02*
X140904761Y-120657200D01*
X140904761Y-120657200D02*
X140809523Y-120561961D01*
X140809523Y-120561961D02*
X140761904Y-120466723D01*
X140761904Y-120466723D02*
X140714285Y-120276247D01*
X140714285Y-120276247D02*
X140714285Y-120133390D01*
X140714285Y-120133390D02*
X140761904Y-119942914D01*
X140761904Y-119942914D02*
X140809523Y-119847676D01*
X140809523Y-119847676D02*
X140904761Y-119752438D01*
X140904761Y-119752438D02*
X141047618Y-119704819D01*
X141047618Y-119704819D02*
X141142856Y-119704819D01*
X141142856Y-119704819D02*
X141285713Y-119752438D01*
X141285713Y-119752438D02*
X141333332Y-119800057D01*
X141666666Y-119704819D02*
X142333332Y-119704819D01*
X142333332Y-119704819D02*
X141904761Y-120704819D01*
X137757142Y-109759580D02*
X137709523Y-109807200D01*
X137709523Y-109807200D02*
X137566666Y-109854819D01*
X137566666Y-109854819D02*
X137471428Y-109854819D01*
X137471428Y-109854819D02*
X137328571Y-109807200D01*
X137328571Y-109807200D02*
X137233333Y-109711961D01*
X137233333Y-109711961D02*
X137185714Y-109616723D01*
X137185714Y-109616723D02*
X137138095Y-109426247D01*
X137138095Y-109426247D02*
X137138095Y-109283390D01*
X137138095Y-109283390D02*
X137185714Y-109092914D01*
X137185714Y-109092914D02*
X137233333Y-108997676D01*
X137233333Y-108997676D02*
X137328571Y-108902438D01*
X137328571Y-108902438D02*
X137471428Y-108854819D01*
X137471428Y-108854819D02*
X137566666Y-108854819D01*
X137566666Y-108854819D02*
X137709523Y-108902438D01*
X137709523Y-108902438D02*
X137757142Y-108950057D01*
X138709523Y-109854819D02*
X138138095Y-109854819D01*
X138423809Y-109854819D02*
X138423809Y-108854819D01*
X138423809Y-108854819D02*
X138328571Y-108997676D01*
X138328571Y-108997676D02*
X138233333Y-109092914D01*
X138233333Y-109092914D02*
X138138095Y-109140533D01*
X139661904Y-109854819D02*
X139090476Y-109854819D01*
X139376190Y-109854819D02*
X139376190Y-108854819D01*
X139376190Y-108854819D02*
X139280952Y-108997676D01*
X139280952Y-108997676D02*
X139185714Y-109092914D01*
X139185714Y-109092914D02*
X139090476Y-109140533D01*
X143738095Y-105704819D02*
X143738095Y-106514342D01*
X143738095Y-106514342D02*
X143785714Y-106609580D01*
X143785714Y-106609580D02*
X143833333Y-106657200D01*
X143833333Y-106657200D02*
X143928571Y-106704819D01*
X143928571Y-106704819D02*
X144119047Y-106704819D01*
X144119047Y-106704819D02*
X144214285Y-106657200D01*
X144214285Y-106657200D02*
X144261904Y-106609580D01*
X144261904Y-106609580D02*
X144309523Y-106514342D01*
X144309523Y-106514342D02*
X144309523Y-105704819D01*
X144690476Y-105704819D02*
X145309523Y-105704819D01*
X145309523Y-105704819D02*
X144976190Y-106085771D01*
X144976190Y-106085771D02*
X145119047Y-106085771D01*
X145119047Y-106085771D02*
X145214285Y-106133390D01*
X145214285Y-106133390D02*
X145261904Y-106181009D01*
X145261904Y-106181009D02*
X145309523Y-106276247D01*
X145309523Y-106276247D02*
X145309523Y-106514342D01*
X145309523Y-106514342D02*
X145261904Y-106609580D01*
X145261904Y-106609580D02*
X145214285Y-106657200D01*
X145214285Y-106657200D02*
X145119047Y-106704819D01*
X145119047Y-106704819D02*
X144833333Y-106704819D01*
X144833333Y-106704819D02*
X144738095Y-106657200D01*
X144738095Y-106657200D02*
X144690476Y-106609580D01*
X149238095Y-112104819D02*
X149238095Y-112914342D01*
X149238095Y-112914342D02*
X149285714Y-113009580D01*
X149285714Y-113009580D02*
X149333333Y-113057200D01*
X149333333Y-113057200D02*
X149428571Y-113104819D01*
X149428571Y-113104819D02*
X149619047Y-113104819D01*
X149619047Y-113104819D02*
X149714285Y-113057200D01*
X149714285Y-113057200D02*
X149761904Y-113009580D01*
X149761904Y-113009580D02*
X149809523Y-112914342D01*
X149809523Y-112914342D02*
X149809523Y-112104819D01*
X150714285Y-112438152D02*
X150714285Y-113104819D01*
X150476190Y-112057200D02*
X150238095Y-112771485D01*
X150238095Y-112771485D02*
X150857142Y-112771485D01*
X150583333Y-103109580D02*
X150535714Y-103157200D01*
X150535714Y-103157200D02*
X150392857Y-103204819D01*
X150392857Y-103204819D02*
X150297619Y-103204819D01*
X150297619Y-103204819D02*
X150154762Y-103157200D01*
X150154762Y-103157200D02*
X150059524Y-103061961D01*
X150059524Y-103061961D02*
X150011905Y-102966723D01*
X150011905Y-102966723D02*
X149964286Y-102776247D01*
X149964286Y-102776247D02*
X149964286Y-102633390D01*
X149964286Y-102633390D02*
X150011905Y-102442914D01*
X150011905Y-102442914D02*
X150059524Y-102347676D01*
X150059524Y-102347676D02*
X150154762Y-102252438D01*
X150154762Y-102252438D02*
X150297619Y-102204819D01*
X150297619Y-102204819D02*
X150392857Y-102204819D01*
X150392857Y-102204819D02*
X150535714Y-102252438D01*
X150535714Y-102252438D02*
X150583333Y-102300057D01*
X150916667Y-102204819D02*
X151535714Y-102204819D01*
X151535714Y-102204819D02*
X151202381Y-102585771D01*
X151202381Y-102585771D02*
X151345238Y-102585771D01*
X151345238Y-102585771D02*
X151440476Y-102633390D01*
X151440476Y-102633390D02*
X151488095Y-102681009D01*
X151488095Y-102681009D02*
X151535714Y-102776247D01*
X151535714Y-102776247D02*
X151535714Y-103014342D01*
X151535714Y-103014342D02*
X151488095Y-103109580D01*
X151488095Y-103109580D02*
X151440476Y-103157200D01*
X151440476Y-103157200D02*
X151345238Y-103204819D01*
X151345238Y-103204819D02*
X151059524Y-103204819D01*
X151059524Y-103204819D02*
X150964286Y-103157200D01*
X150964286Y-103157200D02*
X150916667Y-103109580D01*
X135616667Y-97286104D02*
X135578571Y-97324200D01*
X135578571Y-97324200D02*
X135464286Y-97362295D01*
X135464286Y-97362295D02*
X135388095Y-97362295D01*
X135388095Y-97362295D02*
X135273809Y-97324200D01*
X135273809Y-97324200D02*
X135197619Y-97248009D01*
X135197619Y-97248009D02*
X135159524Y-97171819D01*
X135159524Y-97171819D02*
X135121428Y-97019438D01*
X135121428Y-97019438D02*
X135121428Y-96905152D01*
X135121428Y-96905152D02*
X135159524Y-96752771D01*
X135159524Y-96752771D02*
X135197619Y-96676580D01*
X135197619Y-96676580D02*
X135273809Y-96600390D01*
X135273809Y-96600390D02*
X135388095Y-96562295D01*
X135388095Y-96562295D02*
X135464286Y-96562295D01*
X135464286Y-96562295D02*
X135578571Y-96600390D01*
X135578571Y-96600390D02*
X135616667Y-96638485D01*
X136378571Y-97362295D02*
X135921428Y-97362295D01*
X136150000Y-97362295D02*
X136150000Y-96562295D01*
X136150000Y-96562295D02*
X136073809Y-96676580D01*
X136073809Y-96676580D02*
X135997619Y-96752771D01*
X135997619Y-96752771D02*
X135921428Y-96790866D01*
X139907533Y-97304761D02*
X139907533Y-96695238D01*
X140212295Y-96999999D02*
X139602771Y-96999999D01*
X144833333Y-110204819D02*
X144500000Y-109728628D01*
X144261905Y-110204819D02*
X144261905Y-109204819D01*
X144261905Y-109204819D02*
X144642857Y-109204819D01*
X144642857Y-109204819D02*
X144738095Y-109252438D01*
X144738095Y-109252438D02*
X144785714Y-109300057D01*
X144785714Y-109300057D02*
X144833333Y-109395295D01*
X144833333Y-109395295D02*
X144833333Y-109538152D01*
X144833333Y-109538152D02*
X144785714Y-109633390D01*
X144785714Y-109633390D02*
X144738095Y-109681009D01*
X144738095Y-109681009D02*
X144642857Y-109728628D01*
X144642857Y-109728628D02*
X144261905Y-109728628D01*
X145166667Y-109204819D02*
X145785714Y-109204819D01*
X145785714Y-109204819D02*
X145452381Y-109585771D01*
X145452381Y-109585771D02*
X145595238Y-109585771D01*
X145595238Y-109585771D02*
X145690476Y-109633390D01*
X145690476Y-109633390D02*
X145738095Y-109681009D01*
X145738095Y-109681009D02*
X145785714Y-109776247D01*
X145785714Y-109776247D02*
X145785714Y-110014342D01*
X145785714Y-110014342D02*
X145738095Y-110109580D01*
X145738095Y-110109580D02*
X145690476Y-110157200D01*
X145690476Y-110157200D02*
X145595238Y-110204819D01*
X145595238Y-110204819D02*
X145309524Y-110204819D01*
X145309524Y-110204819D02*
X145214286Y-110157200D01*
X145214286Y-110157200D02*
X145166667Y-110109580D01*
X139833333Y-111859580D02*
X139785714Y-111907200D01*
X139785714Y-111907200D02*
X139642857Y-111954819D01*
X139642857Y-111954819D02*
X139547619Y-111954819D01*
X139547619Y-111954819D02*
X139404762Y-111907200D01*
X139404762Y-111907200D02*
X139309524Y-111811961D01*
X139309524Y-111811961D02*
X139261905Y-111716723D01*
X139261905Y-111716723D02*
X139214286Y-111526247D01*
X139214286Y-111526247D02*
X139214286Y-111383390D01*
X139214286Y-111383390D02*
X139261905Y-111192914D01*
X139261905Y-111192914D02*
X139309524Y-111097676D01*
X139309524Y-111097676D02*
X139404762Y-111002438D01*
X139404762Y-111002438D02*
X139547619Y-110954819D01*
X139547619Y-110954819D02*
X139642857Y-110954819D01*
X139642857Y-110954819D02*
X139785714Y-111002438D01*
X139785714Y-111002438D02*
X139833333Y-111050057D01*
X140690476Y-111288152D02*
X140690476Y-111954819D01*
X140452381Y-110907200D02*
X140214286Y-111621485D01*
X140214286Y-111621485D02*
X140833333Y-111621485D01*
X149833333Y-99759580D02*
X149785714Y-99807200D01*
X149785714Y-99807200D02*
X149642857Y-99854819D01*
X149642857Y-99854819D02*
X149547619Y-99854819D01*
X149547619Y-99854819D02*
X149404762Y-99807200D01*
X149404762Y-99807200D02*
X149309524Y-99711961D01*
X149309524Y-99711961D02*
X149261905Y-99616723D01*
X149261905Y-99616723D02*
X149214286Y-99426247D01*
X149214286Y-99426247D02*
X149214286Y-99283390D01*
X149214286Y-99283390D02*
X149261905Y-99092914D01*
X149261905Y-99092914D02*
X149309524Y-98997676D01*
X149309524Y-98997676D02*
X149404762Y-98902438D01*
X149404762Y-98902438D02*
X149547619Y-98854819D01*
X149547619Y-98854819D02*
X149642857Y-98854819D01*
X149642857Y-98854819D02*
X149785714Y-98902438D01*
X149785714Y-98902438D02*
X149833333Y-98950057D01*
X150214286Y-98950057D02*
X150261905Y-98902438D01*
X150261905Y-98902438D02*
X150357143Y-98854819D01*
X150357143Y-98854819D02*
X150595238Y-98854819D01*
X150595238Y-98854819D02*
X150690476Y-98902438D01*
X150690476Y-98902438D02*
X150738095Y-98950057D01*
X150738095Y-98950057D02*
X150785714Y-99045295D01*
X150785714Y-99045295D02*
X150785714Y-99140533D01*
X150785714Y-99140533D02*
X150738095Y-99283390D01*
X150738095Y-99283390D02*
X150166667Y-99854819D01*
X150166667Y-99854819D02*
X150785714Y-99854819D01*
X139833333Y-108159580D02*
X139785714Y-108207200D01*
X139785714Y-108207200D02*
X139642857Y-108254819D01*
X139642857Y-108254819D02*
X139547619Y-108254819D01*
X139547619Y-108254819D02*
X139404762Y-108207200D01*
X139404762Y-108207200D02*
X139309524Y-108111961D01*
X139309524Y-108111961D02*
X139261905Y-108016723D01*
X139261905Y-108016723D02*
X139214286Y-107826247D01*
X139214286Y-107826247D02*
X139214286Y-107683390D01*
X139214286Y-107683390D02*
X139261905Y-107492914D01*
X139261905Y-107492914D02*
X139309524Y-107397676D01*
X139309524Y-107397676D02*
X139404762Y-107302438D01*
X139404762Y-107302438D02*
X139547619Y-107254819D01*
X139547619Y-107254819D02*
X139642857Y-107254819D01*
X139642857Y-107254819D02*
X139785714Y-107302438D01*
X139785714Y-107302438D02*
X139833333Y-107350057D01*
X140309524Y-108254819D02*
X140500000Y-108254819D01*
X140500000Y-108254819D02*
X140595238Y-108207200D01*
X140595238Y-108207200D02*
X140642857Y-108159580D01*
X140642857Y-108159580D02*
X140738095Y-108016723D01*
X140738095Y-108016723D02*
X140785714Y-107826247D01*
X140785714Y-107826247D02*
X140785714Y-107445295D01*
X140785714Y-107445295D02*
X140738095Y-107350057D01*
X140738095Y-107350057D02*
X140690476Y-107302438D01*
X140690476Y-107302438D02*
X140595238Y-107254819D01*
X140595238Y-107254819D02*
X140404762Y-107254819D01*
X140404762Y-107254819D02*
X140309524Y-107302438D01*
X140309524Y-107302438D02*
X140261905Y-107350057D01*
X140261905Y-107350057D02*
X140214286Y-107445295D01*
X140214286Y-107445295D02*
X140214286Y-107683390D01*
X140214286Y-107683390D02*
X140261905Y-107778628D01*
X140261905Y-107778628D02*
X140309524Y-107826247D01*
X140309524Y-107826247D02*
X140404762Y-107873866D01*
X140404762Y-107873866D02*
X140595238Y-107873866D01*
X140595238Y-107873866D02*
X140690476Y-107826247D01*
X140690476Y-107826247D02*
X140738095Y-107778628D01*
X140738095Y-107778628D02*
X140785714Y-107683390D01*
X141959580Y-102642857D02*
X142007200Y-102690476D01*
X142007200Y-102690476D02*
X142054819Y-102833333D01*
X142054819Y-102833333D02*
X142054819Y-102928571D01*
X142054819Y-102928571D02*
X142007200Y-103071428D01*
X142007200Y-103071428D02*
X141911961Y-103166666D01*
X141911961Y-103166666D02*
X141816723Y-103214285D01*
X141816723Y-103214285D02*
X141626247Y-103261904D01*
X141626247Y-103261904D02*
X141483390Y-103261904D01*
X141483390Y-103261904D02*
X141292914Y-103214285D01*
X141292914Y-103214285D02*
X141197676Y-103166666D01*
X141197676Y-103166666D02*
X141102438Y-103071428D01*
X141102438Y-103071428D02*
X141054819Y-102928571D01*
X141054819Y-102928571D02*
X141054819Y-102833333D01*
X141054819Y-102833333D02*
X141102438Y-102690476D01*
X141102438Y-102690476D02*
X141150057Y-102642857D01*
X142054819Y-101690476D02*
X142054819Y-102261904D01*
X142054819Y-101976190D02*
X141054819Y-101976190D01*
X141054819Y-101976190D02*
X141197676Y-102071428D01*
X141197676Y-102071428D02*
X141292914Y-102166666D01*
X141292914Y-102166666D02*
X141340533Y-102261904D01*
X141150057Y-101309523D02*
X141102438Y-101261904D01*
X141102438Y-101261904D02*
X141054819Y-101166666D01*
X141054819Y-101166666D02*
X141054819Y-100928571D01*
X141054819Y-100928571D02*
X141102438Y-100833333D01*
X141102438Y-100833333D02*
X141150057Y-100785714D01*
X141150057Y-100785714D02*
X141245295Y-100738095D01*
X141245295Y-100738095D02*
X141340533Y-100738095D01*
X141340533Y-100738095D02*
X141483390Y-100785714D01*
X141483390Y-100785714D02*
X142054819Y-101357142D01*
X142054819Y-101357142D02*
X142054819Y-100738095D01*
D12*
%TO.C,TP5*%
X155400000Y-109000000D02*
X155400000Y-111400000D01*
X153000000Y-109000000D02*
X155400000Y-109000000D01*
X155400000Y-111400000D02*
X153000000Y-111400000D01*
X153000000Y-111400000D02*
X153000000Y-109000000D01*
%TO.C,TP4*%
X155400000Y-105600000D02*
X155400000Y-108000000D01*
X153000000Y-105600000D02*
X155400000Y-105600000D01*
X155400000Y-108000000D02*
X153000000Y-108000000D01*
X153000000Y-108000000D02*
X153000000Y-105600000D01*
%TO.C,TP3*%
X131600000Y-101600000D02*
X134000000Y-101600000D01*
X131600000Y-104000000D02*
X131600000Y-101600000D01*
X134000000Y-101600000D02*
X134000000Y-104000000D01*
X134000000Y-104000000D02*
X131600000Y-104000000D01*
%TO.C,TP2*%
X132600000Y-118000000D02*
X130200000Y-118000000D01*
X132600000Y-115600000D02*
X132600000Y-118000000D01*
X130200000Y-118000000D02*
X130200000Y-115600000D01*
X130200000Y-115600000D02*
X132600000Y-115600000D01*
%TO.C,TP1*%
X131600000Y-100400000D02*
X131600000Y-98000000D01*
X134000000Y-100400000D02*
X131600000Y-100400000D01*
X131600000Y-98000000D02*
X134000000Y-98000000D01*
X134000000Y-98000000D02*
X134000000Y-100400000D01*
%TO.C,JP3*%
X147800000Y-94900000D02*
X147800000Y-94300000D01*
X148500000Y-93600000D02*
X149900000Y-93600000D01*
X149900000Y-95600000D02*
X148500000Y-95600000D01*
X150600000Y-94300000D02*
X150600000Y-94900000D01*
X147800000Y-94300000D02*
G75*
G02*
X148500000Y-93600000I699999J1D01*
G01*
X148500000Y-95600000D02*
G75*
G02*
X147800000Y-94900000I-1J699999D01*
G01*
X149900000Y-93600000D02*
G75*
G02*
X150600000Y-94300000I0J-700000D01*
G01*
X150600000Y-94900000D02*
G75*
G02*
X149900000Y-95600000I-700000J0D01*
G01*
%TO.C,JP2*%
X137750000Y-106700000D02*
X137750000Y-107300000D01*
X137200000Y-105500000D02*
X136600000Y-105500000D01*
X137100000Y-108000000D02*
X134300000Y-108000000D01*
X136900000Y-105800000D02*
X137200000Y-105500000D01*
X136900000Y-105800000D02*
X136600000Y-105500000D01*
X134300000Y-106000000D02*
X137100000Y-106000000D01*
X133650000Y-107300000D02*
X133650000Y-106700000D01*
X137750000Y-107300000D02*
G75*
G02*
X137050000Y-108000000I-699999J-1D01*
G01*
X137050000Y-106000000D02*
G75*
G02*
X137750000Y-106700000I1J-699999D01*
G01*
X134350000Y-108000000D02*
G75*
G02*
X133650000Y-107300000I0J700000D01*
G01*
X133650000Y-106700000D02*
G75*
G02*
X134350000Y-106000000I700000J0D01*
G01*
%TO.C,JP1*%
X152250000Y-106500000D02*
X152250000Y-107100000D01*
X151700000Y-105300000D02*
X151100000Y-105300000D01*
X151600000Y-107800000D02*
X148800000Y-107800000D01*
X151400000Y-105600000D02*
X151700000Y-105300000D01*
X151400000Y-105600000D02*
X151100000Y-105300000D01*
X148800000Y-105800000D02*
X151600000Y-105800000D01*
X148150000Y-107100000D02*
X148150000Y-106500000D01*
X152250000Y-107100000D02*
G75*
G02*
X151550000Y-107800000I-699999J-1D01*
G01*
X151550000Y-105800000D02*
G75*
G02*
X152250000Y-106500000I1J-699999D01*
G01*
X148850000Y-107800000D02*
G75*
G02*
X148150000Y-107100000I0J700000D01*
G01*
X148150000Y-106500000D02*
G75*
G02*
X148850000Y-105800000I700000J0D01*
G01*
%TO.C,C8*%
X145640000Y-114622164D02*
X145640000Y-114837836D01*
X146360000Y-114622164D02*
X146360000Y-114837836D01*
D13*
%TO.C,J2*%
X138250000Y-123550000D02*
X138250000Y-125675000D01*
X138250000Y-130800000D02*
X148250000Y-130800000D01*
D14*
X139900000Y-122675000D02*
X139900000Y-122675000D01*
X140000000Y-122675000D02*
X140000000Y-122675000D01*
D13*
X140400000Y-123550000D02*
X138250000Y-123550000D01*
X146400000Y-123550000D02*
X148550000Y-123550000D01*
X148550000Y-123550000D02*
X148550000Y-125675000D01*
D14*
X139900000Y-122675000D02*
G75*
G02*
X140000000Y-122675000I50000J0D01*
G01*
X140000000Y-122675000D02*
G75*
G02*
X139900000Y-122675000I-50000J0D01*
G01*
D12*
%TO.C,R1*%
X140403641Y-118120000D02*
X140096359Y-118120000D01*
X140403641Y-118880000D02*
X140096359Y-118880000D01*
%TO.C,U2*%
X144500000Y-98189999D02*
X143700000Y-98190000D01*
X144500000Y-98189999D02*
X145300000Y-98190000D01*
X144500000Y-101310001D02*
X143700000Y-101310000D01*
X144500000Y-101310001D02*
X145300000Y-101310000D01*
X146040000Y-101590000D02*
X145560000Y-101590000D01*
X145800000Y-101260000D01*
X146040000Y-101590000D01*
G36*
X146040000Y-101590000D02*
G01*
X145560000Y-101590000D01*
X145800000Y-101260000D01*
X146040000Y-101590000D01*
G37*
%TO.C,C10*%
X141390000Y-105372164D02*
X141390000Y-105587836D01*
X142110000Y-105372164D02*
X142110000Y-105587836D01*
%TO.C,U1*%
X141890000Y-116250000D02*
X141890000Y-114750000D01*
X141890000Y-116250000D02*
X141890000Y-117750000D01*
X145110000Y-116250000D02*
X145110000Y-114750000D01*
X145110000Y-116250000D02*
X145110000Y-117750000D01*
X142015000Y-118462500D02*
X141685000Y-118702500D01*
X141685000Y-118222500D01*
X142015000Y-118462500D01*
G36*
X142015000Y-118462500D02*
G01*
X141685000Y-118702500D01*
X141685000Y-118222500D01*
X142015000Y-118462500D01*
G37*
D15*
%TO.C,RV1*%
X133460000Y-110860500D02*
X133460000Y-120639500D01*
X133460000Y-120639500D02*
X138667000Y-120639500D01*
X138667000Y-110860500D02*
X133460000Y-110860500D01*
X138667000Y-120639500D02*
X138667000Y-110860500D01*
D16*
X136380999Y-122417500D02*
G75*
G02*
X135619001Y-122417500I-380999J0D01*
G01*
X135619001Y-122417500D02*
G75*
G02*
X136380999Y-122417500I380999J0D01*
G01*
D12*
%TO.C,R2*%
X146120000Y-107346359D02*
X146120000Y-107653641D01*
X146880000Y-107346359D02*
X146880000Y-107653641D01*
D17*
%TO.C,C6*%
X150000000Y-116250000D02*
X151050000Y-115200000D01*
X150000000Y-120700000D02*
X150000000Y-116250000D01*
X150000000Y-120700000D02*
X151650000Y-120700000D01*
X151050000Y-115200000D02*
X151650000Y-115200000D01*
X154450000Y-115200000D02*
X153850000Y-115200000D01*
X155500000Y-116250000D02*
X154450000Y-115200000D01*
X155500000Y-120700000D02*
X153850000Y-120700000D01*
X155500000Y-120700000D02*
X155500000Y-116250000D01*
D12*
%TO.C,C5*%
X142890000Y-111837836D02*
X142890000Y-111622164D01*
X143610000Y-111837836D02*
X143610000Y-111622164D01*
%TO.C,C7*%
X143607836Y-119890000D02*
X143392164Y-119890000D01*
X143607836Y-120610000D02*
X143392164Y-120610000D01*
%TO.C,C11*%
X135061254Y-108515000D02*
X134538748Y-108515000D01*
X135061254Y-109985000D02*
X134538748Y-109985000D01*
%TO.C,U3*%
X144500000Y-102189999D02*
X143700000Y-102190000D01*
X144500000Y-102189999D02*
X145300000Y-102190000D01*
X144500000Y-105310001D02*
X143700000Y-105310000D01*
X144500000Y-105310001D02*
X145300000Y-105310000D01*
X146040000Y-105590000D02*
X145560000Y-105590000D01*
X145800000Y-105260000D01*
X146040000Y-105590000D01*
G36*
X146040000Y-105590000D02*
G01*
X145560000Y-105590000D01*
X145800000Y-105260000D01*
X146040000Y-105590000D01*
G37*
%TO.C,U4*%
X150000000Y-108689999D02*
X149200000Y-108690000D01*
X150000000Y-108689999D02*
X150800000Y-108690000D01*
X150000000Y-111810001D02*
X149200000Y-111810000D01*
X150000000Y-111810001D02*
X150800000Y-111810000D01*
X151540000Y-112090000D02*
X151060000Y-112090000D01*
X151300000Y-111760000D01*
X151540000Y-112090000D01*
G36*
X151540000Y-112090000D02*
G01*
X151060000Y-112090000D01*
X151300000Y-111760000D01*
X151540000Y-112090000D01*
G37*
%TO.C,C3*%
X149485000Y-103488747D02*
X149485000Y-104011253D01*
X148015000Y-103488747D02*
X148015000Y-104011253D01*
D17*
%TO.C,C1*%
X135000000Y-98800000D02*
X136050000Y-97750000D01*
X135000000Y-103250000D02*
X135000000Y-98800000D01*
X135000000Y-103250000D02*
X136650000Y-103250000D01*
X136050000Y-97750000D02*
X136650000Y-97750000D01*
X139450000Y-97750000D02*
X138850000Y-97750000D01*
X140500000Y-98800000D02*
X139450000Y-97750000D01*
X140500000Y-103250000D02*
X138850000Y-103250000D01*
X140500000Y-103250000D02*
X140500000Y-98800000D01*
D12*
%TO.C,R3*%
X146120000Y-109346359D02*
X146120000Y-109653641D01*
X146880000Y-109346359D02*
X146880000Y-109653641D01*
%TO.C,C4*%
X141240000Y-111640581D02*
X141240000Y-111359419D01*
X142260000Y-111640581D02*
X142260000Y-111359419D01*
%TO.C,C2*%
X147265000Y-100011253D02*
X147265000Y-99488747D01*
X148735000Y-100011253D02*
X148735000Y-99488747D01*
%TO.C,C9*%
X139490000Y-105609419D02*
X139490000Y-105890581D01*
X140510000Y-105609419D02*
X140510000Y-105890581D01*
%TO.C,C12*%
X141390000Y-99392164D02*
X141390000Y-99607836D01*
X142110000Y-99392164D02*
X142110000Y-99607836D01*
%TD*%
M02*
