%TF.GenerationSoftware,KiCad,Pcbnew,8.0.7*%
%TF.CreationDate,2025-03-27T17:59:10+01:00*%
%TF.ProjectId,StrainGauge,53747261-696e-4476-9175-67652e6b6963,rev?*%
%TF.SameCoordinates,Original*%
%TF.FileFunction,Paste,Top*%
%TF.FilePolarity,Positive*%
%FSLAX46Y46*%
G04 Gerber Fmt 4.6, Leading zero omitted, Abs format (unit mm)*
G04 Created by KiCad (PCBNEW 8.0.7) date 2025-03-27 17:59:10*
%MOMM*%
%LPD*%
G01*
G04 APERTURE LIST*
G04 Aperture macros list*
%AMRoundRect*
0 Rectangle with rounded corners*
0 $1 Rounding radius*
0 $2 $3 $4 $5 $6 $7 $8 $9 X,Y pos of 4 corners*
0 Add a 4 corners polygon primitive as box body*
4,1,4,$2,$3,$4,$5,$6,$7,$8,$9,$2,$3,0*
0 Add four circle primitives for the rounded corners*
1,1,$1+$1,$2,$3*
1,1,$1+$1,$4,$5*
1,1,$1+$1,$6,$7*
1,1,$1+$1,$8,$9*
0 Add four rect primitives between the rounded corners*
20,1,$1+$1,$2,$3,$4,$5,0*
20,1,$1+$1,$4,$5,$6,$7,0*
20,1,$1+$1,$6,$7,$8,$9,0*
20,1,$1+$1,$8,$9,$2,$3,0*%
G04 Aperture macros list end*
%ADD10RoundRect,0.140000X-0.170000X0.140000X-0.170000X-0.140000X0.170000X-0.140000X0.170000X0.140000X0*%
%ADD11R,0.800000X2.900000*%
%ADD12R,1.800000X3.800000*%
%ADD13RoundRect,0.135000X0.135000X0.185000X-0.135000X0.185000X-0.135000X-0.185000X0.135000X-0.185000X0*%
%ADD14RoundRect,0.150000X0.512500X0.150000X-0.512500X0.150000X-0.512500X-0.150000X0.512500X-0.150000X0*%
%ADD15RoundRect,0.125000X0.125000X-0.687500X0.125000X0.687500X-0.125000X0.687500X-0.125000X-0.687500X0*%
%ADD16RoundRect,0.135000X-0.185000X0.135000X-0.185000X-0.135000X0.185000X-0.135000X0.185000X0.135000X0*%
%ADD17R,1.600000X3.000000*%
%ADD18RoundRect,0.140000X0.170000X-0.140000X0.170000X0.140000X-0.170000X0.140000X-0.170000X-0.140000X0*%
%ADD19RoundRect,0.140000X0.140000X0.170000X-0.140000X0.170000X-0.140000X-0.170000X0.140000X-0.170000X0*%
%ADD20RoundRect,0.250000X0.250000X0.475000X-0.250000X0.475000X-0.250000X-0.475000X0.250000X-0.475000X0*%
%ADD21RoundRect,0.250000X-0.475000X0.250000X-0.475000X-0.250000X0.475000X-0.250000X0.475000X0.250000X0*%
%ADD22RoundRect,0.225000X0.250000X-0.225000X0.250000X0.225000X-0.250000X0.225000X-0.250000X-0.225000X0*%
%ADD23RoundRect,0.250000X0.475000X-0.250000X0.475000X0.250000X-0.475000X0.250000X-0.475000X-0.250000X0*%
%ADD24RoundRect,0.225000X-0.250000X0.225000X-0.250000X-0.225000X0.250000X-0.225000X0.250000X0.225000X0*%
G04 APERTURE END LIST*
D10*
%TO.C,C8*%
X146000000Y-114250000D03*
X146000000Y-115210000D03*
%TD*%
D11*
%TO.C,J2*%
X141150000Y-123550000D03*
X142650000Y-123550000D03*
X144150000Y-123550000D03*
X145650000Y-123550000D03*
D12*
X138550000Y-128250000D03*
X148250000Y-128250000D03*
%TD*%
D13*
%TO.C,R1*%
X140759999Y-118500000D03*
X139740001Y-118500000D03*
%TD*%
D14*
%TO.C,U2*%
X145637500Y-100699999D03*
X145637500Y-99750000D03*
X145637500Y-98800001D03*
X143362500Y-98800001D03*
X143362500Y-100699999D03*
%TD*%
D10*
%TO.C,C10*%
X141750000Y-105000000D03*
X141750000Y-105960000D03*
%TD*%
D15*
%TO.C,U1*%
X142525000Y-118362500D03*
X143175000Y-118362500D03*
X143825000Y-118362500D03*
X144475000Y-118362500D03*
X144475000Y-114137500D03*
X143825000Y-114137500D03*
X143175000Y-114137500D03*
X142525000Y-114137500D03*
%TD*%
D16*
%TO.C,R2*%
X146500000Y-106990001D03*
X146500000Y-108009999D03*
%TD*%
D17*
%TO.C,C6*%
X152750000Y-115750000D03*
X152750000Y-120150000D03*
%TD*%
D18*
%TO.C,C5*%
X143250000Y-112210000D03*
X143250000Y-111250000D03*
%TD*%
D19*
%TO.C,C7*%
X143980000Y-120250000D03*
X143020000Y-120250000D03*
%TD*%
D20*
%TO.C,C11*%
X135750000Y-109250000D03*
X133850002Y-109250000D03*
%TD*%
D14*
%TO.C,U3*%
X145637500Y-104699999D03*
X145637500Y-103750000D03*
X145637500Y-102800001D03*
X143362500Y-102800001D03*
X143362500Y-104699999D03*
%TD*%
%TO.C,U4*%
X151137500Y-111199999D03*
X151137500Y-110250000D03*
X151137500Y-109300001D03*
X148862500Y-109300001D03*
X148862500Y-111199999D03*
%TD*%
D21*
%TO.C,C3*%
X148750000Y-104699999D03*
X148750000Y-102800001D03*
%TD*%
D17*
%TO.C,C1*%
X137750000Y-98300000D03*
X137750000Y-102700000D03*
%TD*%
D16*
%TO.C,R3*%
X146500000Y-108990001D03*
X146500000Y-110009999D03*
%TD*%
D22*
%TO.C,C4*%
X141750000Y-112275000D03*
X141750000Y-110725000D03*
%TD*%
D23*
%TO.C,C2*%
X148000000Y-100699999D03*
X148000000Y-98800001D03*
%TD*%
D24*
%TO.C,C9*%
X140000000Y-104975000D03*
X140000000Y-106525000D03*
%TD*%
D10*
%TO.C,C12*%
X141750000Y-99020000D03*
X141750000Y-99980000D03*
%TD*%
M02*
