%TF.GenerationSoftware,KiCad,Pcbnew,8.0.7*%
%TF.CreationDate,2025-03-30T15:33:26+02:00*%
%TF.ProjectId,StrainGauge,53747261-696e-4476-9175-67652e6b6963,rev?*%
%TF.SameCoordinates,Original*%
%TF.FileFunction,Copper,L2,Bot*%
%TF.FilePolarity,Positive*%
%FSLAX46Y46*%
G04 Gerber Fmt 4.6, Leading zero omitted, Abs format (unit mm)*
G04 Created by KiCad (PCBNEW 8.0.7) date 2025-03-30 15:33:26*
%MOMM*%
%LPD*%
G01*
G04 APERTURE LIST*
%TA.AperFunction,ComponentPad*%
%ADD10C,0.700000*%
%TD*%
%TA.AperFunction,ComponentPad*%
%ADD11C,4.400000*%
%TD*%
%TA.AperFunction,ComponentPad*%
%ADD12R,1.700000X1.700000*%
%TD*%
%TA.AperFunction,ComponentPad*%
%ADD13O,1.700000X1.700000*%
%TD*%
%TA.AperFunction,ComponentPad*%
%ADD14C,2.133600*%
%TD*%
%TA.AperFunction,ViaPad*%
%ADD15C,0.800000*%
%TD*%
%TA.AperFunction,Conductor*%
%ADD16C,0.500000*%
%TD*%
%TA.AperFunction,Conductor*%
%ADD17C,0.300000*%
%TD*%
%TA.AperFunction,Conductor*%
%ADD18C,0.700000*%
%TD*%
G04 APERTURE END LIST*
D10*
%TO.P,H3,1,1*%
%TO.N,GND*%
X153516726Y-129000000D03*
X154000000Y-127833274D03*
X154000000Y-130166726D03*
X155166726Y-127350000D03*
D11*
X155166726Y-129000000D03*
D10*
X155166726Y-130650000D03*
X156333452Y-127833274D03*
X156333452Y-130166726D03*
X156816726Y-129000000D03*
%TD*%
D12*
%TO.P,J3,1,Pin_1*%
%TO.N,+BATT*%
X130825000Y-114580000D03*
D13*
%TO.P,J3,2,Pin_2*%
X130825000Y-117120000D03*
%TO.P,J3,3,Pin_3*%
%TO.N,GND*%
X130825000Y-119660000D03*
%TO.P,J3,4,Pin_4*%
X130825000Y-122200000D03*
%TD*%
D10*
%TO.P,H1,1,1*%
%TO.N,GND*%
X129350000Y-95000000D03*
X129833274Y-93833274D03*
X129833274Y-96166726D03*
X131000000Y-93350000D03*
D11*
X131000000Y-95000000D03*
D10*
X131000000Y-96650000D03*
X132166726Y-93833274D03*
X132166726Y-96166726D03*
X132650000Y-95000000D03*
%TD*%
D14*
%TO.P,RV1,1,1*%
%TO.N,/Rseries*%
X136000000Y-118290000D03*
%TO.P,RV1,2,2*%
X136000000Y-115750000D03*
%TO.P,RV1,3,3*%
%TO.N,/Rg-*%
X136000000Y-113210001D03*
%TD*%
D10*
%TO.P,H4,1,1*%
%TO.N,GND*%
X129350000Y-129000000D03*
X129833274Y-127833274D03*
X129833274Y-130166726D03*
X131000000Y-127350000D03*
D11*
X131000000Y-129000000D03*
D10*
X131000000Y-130650000D03*
X132166726Y-127833274D03*
X132166726Y-130166726D03*
X132650000Y-129000000D03*
%TD*%
%TO.P,H2,1,1*%
%TO.N,GND*%
X153516726Y-95000000D03*
X154000000Y-93833274D03*
X154000000Y-96166726D03*
X155166726Y-93350000D03*
D11*
X155166726Y-95000000D03*
D10*
X155166726Y-96650000D03*
X156333452Y-93833274D03*
X156333452Y-96166726D03*
X156816726Y-95000000D03*
%TD*%
D12*
%TO.P,J1,1,Pin_1*%
%TO.N,VCC*%
X137700000Y-94500000D03*
D13*
%TO.P,J1,2,Pin_2*%
%TO.N,/AREF*%
X140240000Y-94500000D03*
%TO.P,J1,3,Pin_3*%
%TO.N,/ADC*%
X142779999Y-94500000D03*
%TO.P,J1,4,Pin_4*%
%TO.N,GND*%
X145320000Y-94500000D03*
%TD*%
D15*
%TO.N,/Vbdg+*%
X147000000Y-121000000D03*
%TO.N,VCC*%
X145000000Y-107000000D03*
X144750000Y-97250000D03*
%TO.N,GND*%
X152200000Y-110250000D03*
X138800000Y-108200000D03*
X135000000Y-95000000D03*
X147600000Y-118200000D03*
X144200000Y-110000000D03*
X141400000Y-101400000D03*
X153200000Y-99000000D03*
X146800000Y-116800000D03*
X153200000Y-101800000D03*
X131000000Y-105400000D03*
X152400000Y-97600000D03*
X147600000Y-96800000D03*
X152400000Y-100400000D03*
X149600000Y-115000000D03*
X151600000Y-99000000D03*
X147000000Y-119600000D03*
X146000000Y-118200000D03*
X145600000Y-112600000D03*
X141000000Y-108000000D03*
X147200000Y-105600000D03*
%TO.N,/AmpRef*%
X149800000Y-97200000D03*
X149800000Y-108600000D03*
X147800000Y-110000000D03*
X147200000Y-113000000D03*
%TO.N,+2V5*%
X132800000Y-104800000D03*
X141600000Y-103200000D03*
X136600000Y-105400000D03*
%TO.N,/ADC*%
X143000000Y-96800000D03*
X143600000Y-116000000D03*
%TO.N,/Vbdg+*%
X141000000Y-116800000D03*
%TO.N,/AmpOffset*%
X153200000Y-112400000D03*
X147600000Y-107600000D03*
%TO.N,/Rseries*%
X138500000Y-118500000D03*
%TO.N,/Rg-*%
X141000000Y-114000000D03*
X138800000Y-113800000D03*
%TO.N,+BATT*%
X135000000Y-111250000D03*
X140250000Y-111750000D03*
%TD*%
D16*
%TO.N,/Vbdg+*%
X141000000Y-116800000D02*
X142800000Y-116800000D01*
X142800000Y-116800000D02*
X147000000Y-121000000D01*
D17*
%TO.N,/AmpRef*%
X147200000Y-113000000D02*
X147400000Y-112800000D01*
X147400000Y-112800000D02*
X147400000Y-110400000D01*
X147400000Y-110400000D02*
X147800000Y-110000000D01*
%TO.N,VCC*%
X144750000Y-106750000D02*
X145000000Y-107000000D01*
X144750000Y-97250000D02*
X144750000Y-106750000D01*
%TO.N,/AmpRef*%
X149800000Y-108600000D02*
X149800000Y-97200000D01*
D18*
%TO.N,+2V5*%
X136600000Y-105400000D02*
X136400000Y-105200000D01*
X136400000Y-105200000D02*
X133200000Y-105200000D01*
X133200000Y-105200000D02*
X132800000Y-104800000D01*
D16*
X141600000Y-103200000D02*
X139400000Y-105400000D01*
X139400000Y-105400000D02*
X136600000Y-105400000D01*
D17*
%TO.N,/ADC*%
X143000000Y-115400000D02*
X143600000Y-116000000D01*
X143000000Y-96800000D02*
X143000000Y-115400000D01*
D16*
%TO.N,/AmpOffset*%
X153200000Y-112400000D02*
X151800000Y-112400000D01*
X147600000Y-108200000D02*
X147600000Y-107600000D01*
X151800000Y-112400000D02*
X147600000Y-108200000D01*
D17*
%TO.N,/Rg-*%
X141000000Y-114000000D02*
X139000000Y-114000000D01*
X139000000Y-114000000D02*
X138800000Y-113800000D01*
D18*
%TO.N,+BATT*%
X135000000Y-111250000D02*
X139750000Y-111250000D01*
X139750000Y-111250000D02*
X140250000Y-111750000D01*
%TD*%
%TA.AperFunction,Conductor*%
%TO.N,GND*%
G36*
X131075000Y-121766988D02*
G01*
X131017993Y-121734075D01*
X130890826Y-121700000D01*
X130759174Y-121700000D01*
X130632007Y-121734075D01*
X130575000Y-121766988D01*
X130575000Y-120093012D01*
X130632007Y-120125925D01*
X130759174Y-120160000D01*
X130890826Y-120160000D01*
X131017993Y-120125925D01*
X131075000Y-120093012D01*
X131075000Y-121766988D01*
G37*
%TD.AperFunction*%
%TA.AperFunction,Conductor*%
G36*
X153869252Y-92522174D02*
G01*
X153890926Y-92574500D01*
X153869252Y-92626826D01*
X153855209Y-92637828D01*
X153630144Y-92773884D01*
X153441756Y-92921476D01*
X154583989Y-94063709D01*
X154450124Y-94160967D01*
X154327693Y-94283398D01*
X154230435Y-94417263D01*
X153088202Y-93275030D01*
X152940610Y-93463418D01*
X152771626Y-93742950D01*
X152771622Y-93742959D01*
X152637565Y-94040824D01*
X152540392Y-94352658D01*
X152481512Y-94673957D01*
X152461791Y-95000000D01*
X152481512Y-95326042D01*
X152540392Y-95647341D01*
X152637565Y-95959175D01*
X152771622Y-96257040D01*
X152771627Y-96257049D01*
X152940608Y-96536578D01*
X153088202Y-96724968D01*
X154230434Y-95582735D01*
X154327693Y-95716602D01*
X154450124Y-95839033D01*
X154583988Y-95936290D01*
X153441756Y-97078522D01*
X153630147Y-97226117D01*
X153909676Y-97395098D01*
X153909685Y-97395103D01*
X154207550Y-97529160D01*
X154519384Y-97626333D01*
X154840683Y-97685213D01*
X155166726Y-97704934D01*
X155492768Y-97685213D01*
X155814067Y-97626333D01*
X156125901Y-97529160D01*
X156423766Y-97395103D01*
X156423775Y-97395098D01*
X156703304Y-97226117D01*
X156891694Y-97078522D01*
X155749462Y-95936290D01*
X155883328Y-95839033D01*
X156005759Y-95716602D01*
X156103016Y-95582736D01*
X157245248Y-96724968D01*
X157367248Y-96569248D01*
X157416580Y-96541425D01*
X157471137Y-96556633D01*
X157498960Y-96605965D01*
X157499500Y-96614885D01*
X157499500Y-127385113D01*
X157477826Y-127437439D01*
X157425500Y-127459113D01*
X157373174Y-127437439D01*
X157367248Y-127430750D01*
X157245248Y-127275030D01*
X156103016Y-128417262D01*
X156005759Y-128283398D01*
X155883328Y-128160967D01*
X155749461Y-128063708D01*
X156891695Y-126921476D01*
X156703304Y-126773882D01*
X156423775Y-126604901D01*
X156423766Y-126604896D01*
X156125901Y-126470839D01*
X155814067Y-126373666D01*
X155492768Y-126314786D01*
X155166726Y-126295065D01*
X154840683Y-126314786D01*
X154519384Y-126373666D01*
X154207550Y-126470839D01*
X153909685Y-126604896D01*
X153909676Y-126604900D01*
X153630144Y-126773884D01*
X153441756Y-126921476D01*
X154583989Y-128063709D01*
X154450124Y-128160967D01*
X154327693Y-128283398D01*
X154230435Y-128417263D01*
X153088202Y-127275030D01*
X152940610Y-127463418D01*
X152771626Y-127742950D01*
X152771622Y-127742959D01*
X152637565Y-128040824D01*
X152540392Y-128352658D01*
X152481512Y-128673957D01*
X152461791Y-129000000D01*
X152481512Y-129326042D01*
X152540392Y-129647341D01*
X152637565Y-129959175D01*
X152771622Y-130257040D01*
X152771627Y-130257049D01*
X152940608Y-130536578D01*
X153088202Y-130724968D01*
X154230434Y-129582735D01*
X154327693Y-129716602D01*
X154450124Y-129839033D01*
X154583988Y-129936290D01*
X153441756Y-131078522D01*
X153630147Y-131226117D01*
X153855209Y-131362172D01*
X153888776Y-131407791D01*
X153880254Y-131463783D01*
X153834635Y-131497350D01*
X153816926Y-131499500D01*
X132349800Y-131499500D01*
X132297474Y-131477826D01*
X132275800Y-131425500D01*
X132297474Y-131373174D01*
X132311517Y-131362172D01*
X132536578Y-131226117D01*
X132724968Y-131078522D01*
X131582736Y-129936290D01*
X131716602Y-129839033D01*
X131839033Y-129716602D01*
X131936290Y-129582736D01*
X133078522Y-130724968D01*
X133226117Y-130536578D01*
X133395098Y-130257049D01*
X133395103Y-130257040D01*
X133529160Y-129959175D01*
X133626333Y-129647341D01*
X133685213Y-129326042D01*
X133704934Y-129000000D01*
X133685213Y-128673957D01*
X133626333Y-128352658D01*
X133529160Y-128040824D01*
X133395103Y-127742959D01*
X133395098Y-127742950D01*
X133226117Y-127463421D01*
X133078522Y-127275030D01*
X131936290Y-128417262D01*
X131839033Y-128283398D01*
X131716602Y-128160967D01*
X131582735Y-128063708D01*
X132724969Y-126921476D01*
X132536578Y-126773882D01*
X132257049Y-126604901D01*
X132257040Y-126604896D01*
X131959175Y-126470839D01*
X131647341Y-126373666D01*
X131326042Y-126314786D01*
X131000000Y-126295065D01*
X130673957Y-126314786D01*
X130352658Y-126373666D01*
X130040824Y-126470839D01*
X129742959Y-126604896D01*
X129742950Y-126604900D01*
X129463418Y-126773884D01*
X129275030Y-126921476D01*
X130417263Y-128063709D01*
X130283398Y-128160967D01*
X130160967Y-128283398D01*
X130063709Y-128417263D01*
X128921476Y-127275030D01*
X128773884Y-127463418D01*
X128637828Y-127688483D01*
X128592209Y-127722050D01*
X128536217Y-127713528D01*
X128502650Y-127667909D01*
X128500500Y-127650200D01*
X128500500Y-119409999D01*
X129494363Y-119409999D01*
X129494364Y-119410000D01*
X130391988Y-119410000D01*
X130359075Y-119467007D01*
X130325000Y-119594174D01*
X130325000Y-119725826D01*
X130359075Y-119852993D01*
X130391988Y-119910000D01*
X129494363Y-119910000D01*
X129551566Y-120123483D01*
X129551571Y-120123494D01*
X129651401Y-120337579D01*
X129786888Y-120531075D01*
X129953924Y-120698111D01*
X130147420Y-120833599D01*
X130210326Y-120862933D01*
X130248589Y-120904691D01*
X130246119Y-120961274D01*
X130210327Y-120997066D01*
X130147423Y-121026399D01*
X129953921Y-121161890D01*
X129786890Y-121328921D01*
X129651401Y-121522421D01*
X129551567Y-121736512D01*
X129494363Y-121949999D01*
X129494364Y-121950000D01*
X130391988Y-121950000D01*
X130359075Y-122007007D01*
X130325000Y-122134174D01*
X130325000Y-122265826D01*
X130359075Y-122392993D01*
X130391988Y-122450000D01*
X129494363Y-122450000D01*
X129551566Y-122663483D01*
X129551571Y-122663494D01*
X129651401Y-122877579D01*
X129786888Y-123071075D01*
X129953924Y-123238111D01*
X130147420Y-123373598D01*
X130361505Y-123473428D01*
X130361508Y-123473430D01*
X130575000Y-123530634D01*
X130575000Y-122633012D01*
X130632007Y-122665925D01*
X130759174Y-122700000D01*
X130890826Y-122700000D01*
X131017993Y-122665925D01*
X131075000Y-122633012D01*
X131075000Y-123530634D01*
X131288491Y-123473430D01*
X131288494Y-123473428D01*
X131502579Y-123373598D01*
X131696075Y-123238111D01*
X131863111Y-123071075D01*
X131998598Y-122877579D01*
X132098428Y-122663494D01*
X132098433Y-122663483D01*
X132155636Y-122450000D01*
X131258012Y-122450000D01*
X131290925Y-122392993D01*
X131325000Y-122265826D01*
X131325000Y-122134174D01*
X131290925Y-122007007D01*
X131258012Y-121950000D01*
X132155636Y-121950000D01*
X132155636Y-121949999D01*
X132098432Y-121736512D01*
X131998598Y-121522421D01*
X131863109Y-121328921D01*
X131696075Y-121161888D01*
X131696076Y-121161888D01*
X131502579Y-121026401D01*
X131439673Y-120997067D01*
X131401410Y-120955309D01*
X131403880Y-120898726D01*
X131439673Y-120862933D01*
X131502579Y-120833598D01*
X131696075Y-120698111D01*
X131863111Y-120531075D01*
X131998598Y-120337579D01*
X132098428Y-120123494D01*
X132098433Y-120123483D01*
X132155636Y-119910000D01*
X131258012Y-119910000D01*
X131290925Y-119852993D01*
X131325000Y-119725826D01*
X131325000Y-119594174D01*
X131290925Y-119467007D01*
X131258012Y-119410000D01*
X132155636Y-119410000D01*
X132155636Y-119409999D01*
X132098432Y-119196512D01*
X131998598Y-118982421D01*
X131863109Y-118788921D01*
X131696075Y-118621888D01*
X131696076Y-118621888D01*
X131502579Y-118486401D01*
X131288494Y-118386571D01*
X131288483Y-118386566D01*
X131089608Y-118333278D01*
X131044675Y-118298800D01*
X131037283Y-118242647D01*
X131071761Y-118197714D01*
X131095161Y-118189060D01*
X131127456Y-118183024D01*
X131317637Y-118109348D01*
X131491041Y-118001981D01*
X131641764Y-117864579D01*
X131764673Y-117701821D01*
X131855582Y-117519250D01*
X131911397Y-117323083D01*
X131911482Y-117322174D01*
X131930215Y-117120003D01*
X131930215Y-117119996D01*
X131911398Y-116916923D01*
X131911397Y-116916917D01*
X131855582Y-116720750D01*
X131764673Y-116538179D01*
X131764670Y-116538175D01*
X131764670Y-116538174D01*
X131641765Y-116375421D01*
X131641764Y-116375420D01*
X131491041Y-116238019D01*
X131409133Y-116187304D01*
X131317637Y-116130652D01*
X131127456Y-116056976D01*
X131039407Y-116040516D01*
X130926979Y-116019500D01*
X130926976Y-116019500D01*
X130723024Y-116019500D01*
X130723020Y-116019500D01*
X130573116Y-116047522D01*
X130522544Y-116056976D01*
X130522542Y-116056976D01*
X130522540Y-116056977D01*
X130332368Y-116130650D01*
X130332363Y-116130652D01*
X130332358Y-116130654D01*
X130332358Y-116130655D01*
X130158958Y-116238019D01*
X130158957Y-116238019D01*
X130008235Y-116375420D01*
X130008234Y-116375421D01*
X129885329Y-116538174D01*
X129885328Y-116538177D01*
X129794418Y-116720750D01*
X129794416Y-116720755D01*
X129738602Y-116916917D01*
X129738601Y-116916923D01*
X129719785Y-117119996D01*
X129719785Y-117120003D01*
X129738601Y-117323076D01*
X129738602Y-117323082D01*
X129794416Y-117519244D01*
X129794418Y-117519250D01*
X129885327Y-117701821D01*
X129885328Y-117701822D01*
X129885329Y-117701825D01*
X130008234Y-117864578D01*
X130008235Y-117864579D01*
X130124912Y-117970943D01*
X130158959Y-118001981D01*
X130332363Y-118109348D01*
X130522544Y-118183024D01*
X130554836Y-118189060D01*
X130602288Y-118219980D01*
X130613978Y-118275398D01*
X130583058Y-118322850D01*
X130560391Y-118333278D01*
X130361516Y-118386566D01*
X130361505Y-118386571D01*
X130147421Y-118486401D01*
X129953921Y-118621890D01*
X129786890Y-118788921D01*
X129651401Y-118982421D01*
X129551567Y-119196512D01*
X129494363Y-119409999D01*
X128500500Y-119409999D01*
X128500500Y-113705326D01*
X129724500Y-113705326D01*
X129724500Y-115454674D01*
X129739034Y-115527740D01*
X129794399Y-115610601D01*
X129877260Y-115665966D01*
X129950326Y-115680500D01*
X129950328Y-115680500D01*
X131699672Y-115680500D01*
X131699674Y-115680500D01*
X131772740Y-115665966D01*
X131855601Y-115610601D01*
X131910966Y-115527740D01*
X131925500Y-115454674D01*
X131925500Y-115301357D01*
X133994500Y-115301357D01*
X133994500Y-119198653D01*
X133997396Y-119252678D01*
X134000231Y-119279037D01*
X134000233Y-119279056D01*
X134008885Y-119332447D01*
X134059168Y-119467258D01*
X134059167Y-119467258D01*
X134092649Y-119528575D01*
X134092653Y-119528580D01*
X134178877Y-119643761D01*
X134356239Y-119821123D01*
X134356248Y-119821131D01*
X134356249Y-119821132D01*
X134396497Y-119857286D01*
X134396520Y-119857305D01*
X134417138Y-119873919D01*
X134417151Y-119873929D01*
X134452917Y-119899719D01*
X134461026Y-119905567D01*
X134591903Y-119965338D01*
X134591908Y-119965339D01*
X134591920Y-119965344D01*
X134658920Y-119985017D01*
X134658927Y-119985018D01*
X134658942Y-119985023D01*
X134658946Y-119985024D01*
X134801362Y-120005500D01*
X134801368Y-120005500D01*
X139448622Y-120005500D01*
X139448638Y-120005500D01*
X139502678Y-120002603D01*
X139529036Y-119999769D01*
X139529051Y-119999766D01*
X139529056Y-119999766D01*
X139560972Y-119994593D01*
X139582448Y-119991114D01*
X139651555Y-119965338D01*
X139717258Y-119940832D01*
X139778575Y-119907350D01*
X139778576Y-119907349D01*
X139778580Y-119907347D01*
X139893761Y-119821123D01*
X140321123Y-119393761D01*
X140357288Y-119353500D01*
X140373922Y-119332858D01*
X140405567Y-119288974D01*
X140465338Y-119158097D01*
X140465340Y-119158086D01*
X140465344Y-119158079D01*
X140485017Y-119091079D01*
X140485017Y-119091076D01*
X140485023Y-119091058D01*
X140485024Y-119091054D01*
X140505500Y-118948638D01*
X140505500Y-118051362D01*
X140502603Y-117997322D01*
X140499769Y-117970964D01*
X140491114Y-117917552D01*
X140440832Y-117782743D01*
X140440831Y-117782741D01*
X140440832Y-117782741D01*
X140407350Y-117721424D01*
X140392675Y-117701821D01*
X140321123Y-117606239D01*
X139514880Y-116799996D01*
X140344722Y-116799996D01*
X140344722Y-116800003D01*
X140363761Y-116956808D01*
X140363764Y-116956822D01*
X140419778Y-117104521D01*
X140509516Y-117234529D01*
X140509517Y-117234530D01*
X140627760Y-117339283D01*
X140767635Y-117412696D01*
X140921015Y-117450500D01*
X140921019Y-117450500D01*
X141078981Y-117450500D01*
X141078985Y-117450500D01*
X141232365Y-117412696D01*
X141372240Y-117339283D01*
X141395011Y-117319110D01*
X141444082Y-117300500D01*
X142562034Y-117300500D01*
X142614360Y-117322174D01*
X146333926Y-121041740D01*
X146355060Y-121085146D01*
X146363761Y-121156808D01*
X146363764Y-121156822D01*
X146419778Y-121304521D01*
X146509516Y-121434529D01*
X146509517Y-121434530D01*
X146627760Y-121539283D01*
X146767635Y-121612696D01*
X146921015Y-121650500D01*
X146921019Y-121650500D01*
X147078981Y-121650500D01*
X147078985Y-121650500D01*
X147232365Y-121612696D01*
X147372240Y-121539283D01*
X147490483Y-121434530D01*
X147580220Y-121304523D01*
X147636237Y-121156818D01*
X147643288Y-121098742D01*
X147655278Y-121000003D01*
X147655278Y-120999996D01*
X147636238Y-120843191D01*
X147636237Y-120843182D01*
X147628213Y-120822025D01*
X147580221Y-120695478D01*
X147490483Y-120565470D01*
X147372240Y-120460717D01*
X147360139Y-120454366D01*
X147232366Y-120387304D01*
X147139210Y-120364343D01*
X147078985Y-120349500D01*
X147078984Y-120349500D01*
X147074639Y-120348429D01*
X147074923Y-120347274D01*
X147036262Y-120328448D01*
X143484640Y-116776826D01*
X143462966Y-116724500D01*
X143484640Y-116672174D01*
X143536966Y-116650500D01*
X143678981Y-116650500D01*
X143678985Y-116650500D01*
X143832365Y-116612696D01*
X143972240Y-116539283D01*
X144090483Y-116434530D01*
X144180220Y-116304523D01*
X144236237Y-116156818D01*
X144248360Y-116056976D01*
X144255278Y-116000003D01*
X144255278Y-115999996D01*
X144236238Y-115843191D01*
X144236237Y-115843182D01*
X144228213Y-115822025D01*
X144180221Y-115695478D01*
X144090483Y-115565470D01*
X144047894Y-115527740D01*
X143972240Y-115460717D01*
X143957013Y-115452725D01*
X143832366Y-115387304D01*
X143678987Y-115349500D01*
X143678985Y-115349500D01*
X143546545Y-115349500D01*
X143494219Y-115327826D01*
X143422174Y-115255781D01*
X143400500Y-115203455D01*
X143400500Y-112999996D01*
X146544722Y-112999996D01*
X146544722Y-113000003D01*
X146563761Y-113156808D01*
X146563764Y-113156822D01*
X146619778Y-113304521D01*
X146676919Y-113387304D01*
X146709517Y-113434530D01*
X146827760Y-113539283D01*
X146967635Y-113612696D01*
X147121015Y-113650500D01*
X147121019Y-113650500D01*
X147278981Y-113650500D01*
X147278985Y-113650500D01*
X147432365Y-113612696D01*
X147572240Y-113539283D01*
X147690483Y-113434530D01*
X147780220Y-113304523D01*
X147836237Y-113156818D01*
X147849146Y-113050500D01*
X147855278Y-113000003D01*
X147855278Y-112999996D01*
X147836237Y-112843182D01*
X147805309Y-112761630D01*
X147800500Y-112735389D01*
X147800500Y-110724500D01*
X147822174Y-110672174D01*
X147874500Y-110650500D01*
X147878981Y-110650500D01*
X147878985Y-110650500D01*
X148032365Y-110612696D01*
X148172240Y-110539283D01*
X148290483Y-110434530D01*
X148380220Y-110304523D01*
X148436237Y-110156818D01*
X148455278Y-110000000D01*
X148448385Y-109943230D01*
X148463593Y-109888674D01*
X148512925Y-109860851D01*
X148567482Y-109876059D01*
X148574171Y-109881985D01*
X151492686Y-112800500D01*
X151606814Y-112866392D01*
X151734105Y-112900499D01*
X151734106Y-112900500D01*
X151734108Y-112900500D01*
X151865892Y-112900500D01*
X152755918Y-112900500D01*
X152804989Y-112919110D01*
X152827760Y-112939283D01*
X152967635Y-113012696D01*
X153121015Y-113050500D01*
X153121019Y-113050500D01*
X153278981Y-113050500D01*
X153278985Y-113050500D01*
X153432365Y-113012696D01*
X153572240Y-112939283D01*
X153690483Y-112834530D01*
X153780220Y-112704523D01*
X153783651Y-112695478D01*
X153798892Y-112655288D01*
X153836237Y-112556818D01*
X153847906Y-112460716D01*
X153855278Y-112400003D01*
X153855278Y-112399996D01*
X153836238Y-112243191D01*
X153836237Y-112243182D01*
X153813993Y-112184529D01*
X153780221Y-112095478D01*
X153690483Y-111965470D01*
X153644237Y-111924500D01*
X153572240Y-111860717D01*
X153552773Y-111850500D01*
X153432366Y-111787304D01*
X153278987Y-111749500D01*
X153278985Y-111749500D01*
X153121015Y-111749500D01*
X153121012Y-111749500D01*
X152967633Y-111787304D01*
X152827764Y-111860714D01*
X152827755Y-111860720D01*
X152804989Y-111880890D01*
X152755918Y-111899500D01*
X152037966Y-111899500D01*
X151985640Y-111877826D01*
X149391348Y-109283534D01*
X149369674Y-109231208D01*
X149391348Y-109178882D01*
X149443674Y-109157208D01*
X149478064Y-109165685D01*
X149567633Y-109212695D01*
X149567635Y-109212696D01*
X149721015Y-109250500D01*
X149721019Y-109250500D01*
X149878981Y-109250500D01*
X149878985Y-109250500D01*
X150032365Y-109212696D01*
X150172240Y-109139283D01*
X150290483Y-109034530D01*
X150380220Y-108904523D01*
X150436237Y-108756818D01*
X150455278Y-108600000D01*
X150436237Y-108443182D01*
X150417274Y-108393181D01*
X150380221Y-108295478D01*
X150290481Y-108165467D01*
X150225429Y-108107836D01*
X150200635Y-108056914D01*
X150200500Y-108052446D01*
X150200500Y-97747552D01*
X150222174Y-97695226D01*
X150225429Y-97692162D01*
X150234045Y-97684529D01*
X150290483Y-97634530D01*
X150380220Y-97504523D01*
X150436237Y-97356818D01*
X150449207Y-97250000D01*
X150455278Y-97200003D01*
X150455278Y-97199996D01*
X150436238Y-97043191D01*
X150436237Y-97043182D01*
X150399183Y-96945478D01*
X150380221Y-96895478D01*
X150290483Y-96765470D01*
X150228679Y-96710717D01*
X150172240Y-96660717D01*
X150160139Y-96654366D01*
X150032366Y-96587304D01*
X149878987Y-96549500D01*
X149878985Y-96549500D01*
X149721015Y-96549500D01*
X149721012Y-96549500D01*
X149567633Y-96587304D01*
X149427761Y-96660716D01*
X149309516Y-96765470D01*
X149219779Y-96895478D01*
X149219778Y-96895478D01*
X149163764Y-97043177D01*
X149163761Y-97043191D01*
X149144722Y-97199996D01*
X149144722Y-97200003D01*
X149163761Y-97356808D01*
X149163764Y-97356822D01*
X149219778Y-97504521D01*
X149309516Y-97634529D01*
X149374571Y-97692162D01*
X149399365Y-97743084D01*
X149399500Y-97747552D01*
X149399500Y-108052446D01*
X149377826Y-108104772D01*
X149374571Y-108107836D01*
X149309518Y-108165467D01*
X149219779Y-108295478D01*
X149219778Y-108295478D01*
X149163764Y-108443177D01*
X149163761Y-108443191D01*
X149144722Y-108599996D01*
X149144722Y-108600003D01*
X149163761Y-108756808D01*
X149163764Y-108756822D01*
X149219778Y-108904521D01*
X149221861Y-108908489D01*
X149220552Y-108909175D01*
X149231339Y-108959424D01*
X149200588Y-109006986D01*
X149145212Y-109018873D01*
X149106225Y-108998411D01*
X148155269Y-108047455D01*
X148133595Y-107995129D01*
X148146693Y-107953094D01*
X148180220Y-107904523D01*
X148236237Y-107756818D01*
X148249146Y-107650500D01*
X148255278Y-107600003D01*
X148255278Y-107599996D01*
X148236238Y-107443191D01*
X148236237Y-107443182D01*
X148183651Y-107304523D01*
X148180221Y-107295478D01*
X148090483Y-107165470D01*
X148080717Y-107156818D01*
X147972240Y-107060717D01*
X147856561Y-107000003D01*
X147832366Y-106987304D01*
X147678987Y-106949500D01*
X147678985Y-106949500D01*
X147521015Y-106949500D01*
X147521012Y-106949500D01*
X147367633Y-106987304D01*
X147227761Y-107060716D01*
X147109516Y-107165470D01*
X147019779Y-107295478D01*
X147019778Y-107295478D01*
X146963764Y-107443177D01*
X146963761Y-107443191D01*
X146944722Y-107599996D01*
X146944722Y-107600003D01*
X146963761Y-107756808D01*
X146963764Y-107756822D01*
X147019778Y-107904521D01*
X147053305Y-107953092D01*
X147086401Y-108001040D01*
X147099500Y-108043076D01*
X147099500Y-108265894D01*
X147133606Y-108393181D01*
X147133610Y-108393190D01*
X147199500Y-108507314D01*
X147915360Y-109223174D01*
X147937034Y-109275500D01*
X147915360Y-109327826D01*
X147863034Y-109349500D01*
X147721012Y-109349500D01*
X147567633Y-109387304D01*
X147427761Y-109460716D01*
X147309516Y-109565470D01*
X147219779Y-109695478D01*
X147219778Y-109695478D01*
X147163764Y-109843177D01*
X147163761Y-109843191D01*
X147144722Y-109999996D01*
X147144722Y-110000000D01*
X147146103Y-110011379D01*
X147150002Y-110043495D01*
X147134791Y-110098051D01*
X147128868Y-110104737D01*
X147079520Y-110154086D01*
X147026792Y-110245412D01*
X147026793Y-110245413D01*
X146999500Y-110347273D01*
X146999500Y-112325845D01*
X146977826Y-112378171D01*
X146959890Y-112391368D01*
X146827761Y-112460716D01*
X146709516Y-112565470D01*
X146619779Y-112695478D01*
X146619778Y-112695478D01*
X146563764Y-112843177D01*
X146563761Y-112843191D01*
X146544722Y-112999996D01*
X143400500Y-112999996D01*
X143400500Y-97347552D01*
X143422174Y-97295226D01*
X143425429Y-97292162D01*
X143473017Y-97250003D01*
X143473025Y-97249996D01*
X144094722Y-97249996D01*
X144094722Y-97250003D01*
X144113761Y-97406808D01*
X144113764Y-97406822D01*
X144169778Y-97554521D01*
X144259516Y-97684529D01*
X144259517Y-97684530D01*
X144282549Y-97704934D01*
X144324571Y-97742162D01*
X144349365Y-97793084D01*
X144349500Y-97797552D01*
X144349500Y-106802727D01*
X144358986Y-106838132D01*
X144360967Y-106866202D01*
X144344722Y-106999995D01*
X144344722Y-107000003D01*
X144363761Y-107156808D01*
X144363764Y-107156822D01*
X144419778Y-107304521D01*
X144509516Y-107434529D01*
X144509517Y-107434530D01*
X144627760Y-107539283D01*
X144767635Y-107612696D01*
X144921015Y-107650500D01*
X144921019Y-107650500D01*
X145078981Y-107650500D01*
X145078985Y-107650500D01*
X145232365Y-107612696D01*
X145372240Y-107539283D01*
X145490483Y-107434530D01*
X145580220Y-107304523D01*
X145583651Y-107295478D01*
X145598892Y-107255288D01*
X145636237Y-107156818D01*
X145655278Y-107000000D01*
X145655277Y-106999995D01*
X145639032Y-106866202D01*
X145636237Y-106843182D01*
X145628213Y-106822025D01*
X145580221Y-106695478D01*
X145490483Y-106565470D01*
X145372240Y-106460717D01*
X145365915Y-106457397D01*
X145232367Y-106387304D01*
X145206788Y-106380999D01*
X145161171Y-106347431D01*
X145150500Y-106309150D01*
X145150500Y-97797552D01*
X145172174Y-97745226D01*
X145175429Y-97742162D01*
X145240483Y-97684530D01*
X145330220Y-97554523D01*
X145386237Y-97406818D01*
X145405278Y-97250000D01*
X145403399Y-97234529D01*
X145386238Y-97093191D01*
X145386237Y-97093182D01*
X145334523Y-96956822D01*
X145330221Y-96945478D01*
X145240483Y-96815470D01*
X145184044Y-96765470D01*
X145122240Y-96710717D01*
X145110139Y-96704366D01*
X144982366Y-96637304D01*
X144828987Y-96599500D01*
X144828985Y-96599500D01*
X144671015Y-96599500D01*
X144671012Y-96599500D01*
X144517633Y-96637304D01*
X144377761Y-96710716D01*
X144259516Y-96815470D01*
X144169779Y-96945478D01*
X144169778Y-96945478D01*
X144113764Y-97093177D01*
X144113761Y-97093191D01*
X144094722Y-97249996D01*
X143473025Y-97249996D01*
X143490483Y-97234530D01*
X143580220Y-97104523D01*
X143636237Y-96956818D01*
X143655278Y-96800000D01*
X143651085Y-96765470D01*
X143636238Y-96643191D01*
X143636237Y-96643182D01*
X143625505Y-96614885D01*
X143580221Y-96495478D01*
X143490483Y-96365470D01*
X143429582Y-96311517D01*
X143372240Y-96260717D01*
X143360139Y-96254366D01*
X143232366Y-96187304D01*
X143078987Y-96149500D01*
X143078985Y-96149500D01*
X142921015Y-96149500D01*
X142921012Y-96149500D01*
X142767633Y-96187304D01*
X142627761Y-96260716D01*
X142509516Y-96365470D01*
X142419779Y-96495478D01*
X142419778Y-96495478D01*
X142363764Y-96643177D01*
X142363761Y-96643191D01*
X142344722Y-96799996D01*
X142344722Y-96800003D01*
X142363761Y-96956808D01*
X142363764Y-96956822D01*
X142419778Y-97104521D01*
X142509516Y-97234529D01*
X142574571Y-97292162D01*
X142599365Y-97343084D01*
X142599500Y-97347552D01*
X142599500Y-115347273D01*
X142599500Y-115452727D01*
X142600022Y-115454674D01*
X142626793Y-115554588D01*
X142626795Y-115554592D01*
X142679517Y-115645909D01*
X142679518Y-115645910D01*
X142679520Y-115645913D01*
X142876784Y-115843177D01*
X142928867Y-115895260D01*
X142950541Y-115947586D01*
X142950002Y-115956503D01*
X142945374Y-115994627D01*
X142944723Y-115999996D01*
X142944722Y-116000001D01*
X142944722Y-116000003D01*
X142963761Y-116156808D01*
X142963764Y-116156822D01*
X142983821Y-116209708D01*
X142982110Y-116266319D01*
X142940870Y-116305139D01*
X142895479Y-116307427D01*
X142865893Y-116299500D01*
X142865892Y-116299500D01*
X141444082Y-116299500D01*
X141395011Y-116280890D01*
X141372244Y-116260720D01*
X141372235Y-116260714D01*
X141232366Y-116187304D01*
X141078987Y-116149500D01*
X141078985Y-116149500D01*
X140921015Y-116149500D01*
X140921012Y-116149500D01*
X140767633Y-116187304D01*
X140627761Y-116260716D01*
X140509516Y-116365470D01*
X140419779Y-116495478D01*
X140419778Y-116495478D01*
X140363764Y-116643177D01*
X140363761Y-116643191D01*
X140344722Y-116799996D01*
X139514880Y-116799996D01*
X137143761Y-114428877D01*
X137136299Y-114422174D01*
X137103502Y-114392713D01*
X137103479Y-114392694D01*
X137082861Y-114376080D01*
X137082848Y-114376070D01*
X137038975Y-114344433D01*
X136922793Y-114291373D01*
X136884200Y-114249920D01*
X136886223Y-114193319D01*
X136901206Y-114171738D01*
X137012965Y-114059980D01*
X137145173Y-113871167D01*
X137178361Y-113799996D01*
X138144722Y-113799996D01*
X138144722Y-113800003D01*
X138163761Y-113956808D01*
X138163764Y-113956822D01*
X138219778Y-114104521D01*
X138281071Y-114193319D01*
X138309517Y-114234530D01*
X138427760Y-114339283D01*
X138567635Y-114412696D01*
X138721015Y-114450500D01*
X138721019Y-114450500D01*
X138878981Y-114450500D01*
X138878985Y-114450500D01*
X139032365Y-114412696D01*
X139039449Y-114408978D01*
X139073841Y-114400500D01*
X140447189Y-114400500D01*
X140499515Y-114422174D01*
X140508088Y-114432461D01*
X140509514Y-114434527D01*
X140509515Y-114434528D01*
X140509516Y-114434529D01*
X140509517Y-114434530D01*
X140627760Y-114539283D01*
X140767635Y-114612696D01*
X140921015Y-114650500D01*
X140921019Y-114650500D01*
X141078981Y-114650500D01*
X141078985Y-114650500D01*
X141232365Y-114612696D01*
X141372240Y-114539283D01*
X141490483Y-114434530D01*
X141580220Y-114304523D01*
X141636237Y-114156818D01*
X141655278Y-114000000D01*
X141650035Y-113956822D01*
X141636238Y-113843191D01*
X141636237Y-113843182D01*
X141628213Y-113822025D01*
X141580221Y-113695478D01*
X141490483Y-113565470D01*
X141472341Y-113549398D01*
X141372240Y-113460717D01*
X141332055Y-113439626D01*
X141232366Y-113387304D01*
X141078987Y-113349500D01*
X141078985Y-113349500D01*
X140921015Y-113349500D01*
X140921012Y-113349500D01*
X140767633Y-113387304D01*
X140627761Y-113460716D01*
X140509515Y-113565471D01*
X140509514Y-113565472D01*
X140508088Y-113567539D01*
X140507141Y-113568150D01*
X140506547Y-113568822D01*
X140506359Y-113568656D01*
X140460525Y-113598288D01*
X140447189Y-113599500D01*
X139470749Y-113599500D01*
X139418423Y-113577826D01*
X139401558Y-113551740D01*
X139380221Y-113495478D01*
X139290483Y-113365470D01*
X139221685Y-113304521D01*
X139172240Y-113260717D01*
X139160139Y-113254366D01*
X139032366Y-113187304D01*
X138878987Y-113149500D01*
X138878985Y-113149500D01*
X138721015Y-113149500D01*
X138721012Y-113149500D01*
X138567633Y-113187304D01*
X138427761Y-113260716D01*
X138309516Y-113365470D01*
X138219779Y-113495478D01*
X138219778Y-113495478D01*
X138163764Y-113643177D01*
X138163761Y-113643191D01*
X138144722Y-113799996D01*
X137178361Y-113799996D01*
X137242586Y-113662265D01*
X137302243Y-113439622D01*
X137311171Y-113337568D01*
X137322332Y-113210006D01*
X137322332Y-113209995D01*
X137303960Y-113000003D01*
X137302243Y-112980380D01*
X137271700Y-112866393D01*
X137242588Y-112757744D01*
X137242587Y-112757743D01*
X137242586Y-112757737D01*
X137145173Y-112548835D01*
X137012965Y-112360022D01*
X136849979Y-112197036D01*
X136661166Y-112064828D01*
X136504056Y-111991566D01*
X136465794Y-111949809D01*
X136468264Y-111893226D01*
X136510022Y-111854963D01*
X136535331Y-111850500D01*
X139470613Y-111850500D01*
X139522938Y-111872173D01*
X139597970Y-111947206D01*
X139636854Y-111986090D01*
X139653719Y-112012175D01*
X139669779Y-112054522D01*
X139676894Y-112064829D01*
X139759517Y-112184530D01*
X139877760Y-112289283D01*
X140017635Y-112362696D01*
X140171015Y-112400500D01*
X140171019Y-112400500D01*
X140328981Y-112400500D01*
X140328985Y-112400500D01*
X140482365Y-112362696D01*
X140622240Y-112289283D01*
X140740483Y-112184530D01*
X140830220Y-112054523D01*
X140886237Y-111906818D01*
X140905278Y-111750000D01*
X140905217Y-111749500D01*
X140886238Y-111593191D01*
X140886237Y-111593182D01*
X140871575Y-111554521D01*
X140830221Y-111445478D01*
X140740483Y-111315470D01*
X140666585Y-111250003D01*
X140622240Y-111210717D01*
X140617552Y-111208256D01*
X140501121Y-111147147D01*
X140483185Y-111133950D01*
X140230521Y-110881285D01*
X140118716Y-110769480D01*
X140016935Y-110710717D01*
X139981786Y-110690423D01*
X139981781Y-110690421D01*
X139829059Y-110649499D01*
X139829057Y-110649499D01*
X139670943Y-110649499D01*
X139666413Y-110649499D01*
X139666397Y-110649500D01*
X135273841Y-110649500D01*
X135239449Y-110641022D01*
X135232365Y-110637303D01*
X135078987Y-110599500D01*
X135078985Y-110599500D01*
X134921015Y-110599500D01*
X134921012Y-110599500D01*
X134767633Y-110637304D01*
X134627761Y-110710716D01*
X134509516Y-110815470D01*
X134419779Y-110945478D01*
X134419778Y-110945478D01*
X134363764Y-111093177D01*
X134363761Y-111093191D01*
X134344722Y-111249996D01*
X134344722Y-111250003D01*
X134363761Y-111406808D01*
X134363764Y-111406822D01*
X134419778Y-111554521D01*
X134446464Y-111593182D01*
X134509517Y-111684530D01*
X134627760Y-111789283D01*
X134767635Y-111862696D01*
X134921015Y-111900500D01*
X134921019Y-111900500D01*
X135078981Y-111900500D01*
X135078985Y-111900500D01*
X135232365Y-111862696D01*
X135236136Y-111860717D01*
X135239449Y-111858978D01*
X135273841Y-111850500D01*
X135464669Y-111850500D01*
X135516995Y-111872174D01*
X135538669Y-111924500D01*
X135516995Y-111976826D01*
X135495944Y-111991565D01*
X135338834Y-112064828D01*
X135338833Y-112064829D01*
X135150020Y-112197036D01*
X134987035Y-112360021D01*
X134958692Y-112400500D01*
X134854827Y-112548835D01*
X134761510Y-112748953D01*
X134757416Y-112757733D01*
X134757411Y-112757744D01*
X134697757Y-112980375D01*
X134697756Y-112980383D01*
X134677668Y-113209995D01*
X134677668Y-113210006D01*
X134697756Y-113439618D01*
X134697757Y-113439626D01*
X134757411Y-113662257D01*
X134757413Y-113662261D01*
X134757414Y-113662265D01*
X134854827Y-113871167D01*
X134945034Y-113999996D01*
X134987035Y-114059980D01*
X135048102Y-114121047D01*
X135069776Y-114173373D01*
X135048102Y-114225699D01*
X134999747Y-114247266D01*
X134997332Y-114247395D01*
X134970962Y-114250231D01*
X134970943Y-114250233D01*
X134917552Y-114258885D01*
X134782741Y-114309167D01*
X134721424Y-114342649D01*
X134606236Y-114428879D01*
X134178867Y-114856249D01*
X134142713Y-114896497D01*
X134142694Y-114896520D01*
X134126080Y-114917138D01*
X134126070Y-114917151D01*
X134094435Y-114961022D01*
X134034660Y-115091907D01*
X134034655Y-115091920D01*
X134014982Y-115158920D01*
X134014975Y-115158950D01*
X133994500Y-115301357D01*
X131925500Y-115301357D01*
X131925500Y-113705326D01*
X131910966Y-113632260D01*
X131855601Y-113549399D01*
X131772740Y-113494034D01*
X131699674Y-113479500D01*
X129950326Y-113479500D01*
X129901615Y-113489189D01*
X129877259Y-113494034D01*
X129794399Y-113549398D01*
X129794398Y-113549399D01*
X129739034Y-113632259D01*
X129733065Y-113662268D01*
X129724500Y-113705326D01*
X128500500Y-113705326D01*
X128500500Y-104799996D01*
X132144722Y-104799996D01*
X132144722Y-104800003D01*
X132163761Y-104956808D01*
X132163764Y-104956822D01*
X132219778Y-105104521D01*
X132309516Y-105234529D01*
X132309517Y-105234530D01*
X132427760Y-105339283D01*
X132477251Y-105365258D01*
X132548878Y-105402852D01*
X132566814Y-105416049D01*
X132716891Y-105566126D01*
X132716896Y-105566132D01*
X132719480Y-105568716D01*
X132831284Y-105680520D01*
X132968216Y-105759577D01*
X132968220Y-105759578D01*
X133052426Y-105782141D01*
X133052428Y-105782141D01*
X133052434Y-105782143D01*
X133098106Y-105794381D01*
X133120941Y-105800500D01*
X133120942Y-105800500D01*
X133120943Y-105800500D01*
X136047189Y-105800500D01*
X136099515Y-105822174D01*
X136108088Y-105832461D01*
X136109514Y-105834527D01*
X136109515Y-105834528D01*
X136109516Y-105834529D01*
X136109517Y-105834530D01*
X136227760Y-105939283D01*
X136367635Y-106012696D01*
X136521015Y-106050500D01*
X136521019Y-106050500D01*
X136678981Y-106050500D01*
X136678985Y-106050500D01*
X136832365Y-106012696D01*
X136972240Y-105939283D01*
X136995011Y-105919110D01*
X137044082Y-105900500D01*
X139465894Y-105900500D01*
X139465894Y-105900499D01*
X139593186Y-105866392D01*
X139707314Y-105800500D01*
X141636263Y-103871550D01*
X141674924Y-103852729D01*
X141674639Y-103851571D01*
X141678984Y-103850500D01*
X141678985Y-103850500D01*
X141832365Y-103812696D01*
X141972240Y-103739283D01*
X142090483Y-103634530D01*
X142180220Y-103504523D01*
X142236237Y-103356818D01*
X142255278Y-103200000D01*
X142248017Y-103140203D01*
X142236238Y-103043191D01*
X142236238Y-103043190D01*
X142236237Y-103043182D01*
X142228213Y-103022025D01*
X142180221Y-102895478D01*
X142090483Y-102765470D01*
X141972240Y-102660717D01*
X141960139Y-102654366D01*
X141832366Y-102587304D01*
X141678987Y-102549500D01*
X141678985Y-102549500D01*
X141521015Y-102549500D01*
X141521012Y-102549500D01*
X141367633Y-102587304D01*
X141227761Y-102660716D01*
X141109516Y-102765470D01*
X141019779Y-102895477D01*
X140963764Y-103043179D01*
X140963761Y-103043190D01*
X140955060Y-103114852D01*
X140933926Y-103158258D01*
X139214360Y-104877826D01*
X139162034Y-104899500D01*
X137044082Y-104899500D01*
X136995011Y-104880890D01*
X136972244Y-104860720D01*
X136972238Y-104860716D01*
X136851121Y-104797147D01*
X136833186Y-104783950D01*
X136768716Y-104719480D01*
X136661437Y-104657543D01*
X136661437Y-104657542D01*
X136661435Y-104657542D01*
X136631785Y-104640423D01*
X136631781Y-104640421D01*
X136479059Y-104599499D01*
X136479057Y-104599499D01*
X136320943Y-104599499D01*
X136316413Y-104599499D01*
X136316397Y-104599500D01*
X133479387Y-104599500D01*
X133427061Y-104577826D01*
X133413144Y-104563909D01*
X133396280Y-104537825D01*
X133380220Y-104495477D01*
X133290483Y-104365470D01*
X133172240Y-104260717D01*
X133160139Y-104254366D01*
X133032366Y-104187304D01*
X132878987Y-104149500D01*
X132878985Y-104149500D01*
X132721015Y-104149500D01*
X132721012Y-104149500D01*
X132567633Y-104187304D01*
X132427761Y-104260716D01*
X132309516Y-104365470D01*
X132219779Y-104495478D01*
X132219778Y-104495478D01*
X132163764Y-104643177D01*
X132163761Y-104643191D01*
X132144722Y-104799996D01*
X128500500Y-104799996D01*
X128500500Y-96349800D01*
X128522174Y-96297474D01*
X128574500Y-96275800D01*
X128626826Y-96297474D01*
X128637828Y-96311517D01*
X128773882Y-96536578D01*
X128921476Y-96724968D01*
X130063708Y-95582735D01*
X130160967Y-95716602D01*
X130283398Y-95839033D01*
X130417262Y-95936290D01*
X129275030Y-97078522D01*
X129463421Y-97226117D01*
X129742950Y-97395098D01*
X129742959Y-97395103D01*
X130040824Y-97529160D01*
X130352658Y-97626333D01*
X130673957Y-97685213D01*
X131000000Y-97704934D01*
X131326042Y-97685213D01*
X131647341Y-97626333D01*
X131959175Y-97529160D01*
X132257040Y-97395103D01*
X132257049Y-97395098D01*
X132536578Y-97226117D01*
X132724968Y-97078522D01*
X131582736Y-95936290D01*
X131716602Y-95839033D01*
X131839033Y-95716602D01*
X131936290Y-95582736D01*
X133078522Y-96724968D01*
X133226117Y-96536578D01*
X133395098Y-96257049D01*
X133395103Y-96257040D01*
X133529160Y-95959175D01*
X133626333Y-95647341D01*
X133685213Y-95326042D01*
X133704934Y-95000000D01*
X133685213Y-94673957D01*
X133626333Y-94352658D01*
X133529160Y-94040824D01*
X133395103Y-93742959D01*
X133395098Y-93742950D01*
X133323992Y-93625326D01*
X136599500Y-93625326D01*
X136599500Y-95374674D01*
X136614034Y-95447740D01*
X136669399Y-95530601D01*
X136752260Y-95585966D01*
X136825326Y-95600500D01*
X136825328Y-95600500D01*
X138574672Y-95600500D01*
X138574674Y-95600500D01*
X138647740Y-95585966D01*
X138730601Y-95530601D01*
X138785966Y-95447740D01*
X138800500Y-95374674D01*
X138800500Y-94499996D01*
X139134785Y-94499996D01*
X139134785Y-94500003D01*
X139153601Y-94703076D01*
X139153602Y-94703082D01*
X139170376Y-94762034D01*
X139209418Y-94899250D01*
X139300327Y-95081821D01*
X139300328Y-95081822D01*
X139300329Y-95081825D01*
X139423234Y-95244578D01*
X139423235Y-95244579D01*
X139542776Y-95353554D01*
X139573959Y-95381981D01*
X139747363Y-95489348D01*
X139937544Y-95563024D01*
X140138024Y-95600500D01*
X140138026Y-95600500D01*
X140341974Y-95600500D01*
X140341976Y-95600500D01*
X140542456Y-95563024D01*
X140732637Y-95489348D01*
X140906041Y-95381981D01*
X141056764Y-95244579D01*
X141179673Y-95081821D01*
X141270582Y-94899250D01*
X141326397Y-94703083D01*
X141339116Y-94565826D01*
X141345215Y-94500003D01*
X141345215Y-94499996D01*
X141674784Y-94499996D01*
X141674784Y-94500003D01*
X141693600Y-94703076D01*
X141693601Y-94703082D01*
X141710375Y-94762034D01*
X141749417Y-94899250D01*
X141840326Y-95081821D01*
X141840327Y-95081822D01*
X141840328Y-95081825D01*
X141963233Y-95244578D01*
X141963234Y-95244579D01*
X142082775Y-95353554D01*
X142113958Y-95381981D01*
X142287362Y-95489348D01*
X142477543Y-95563024D01*
X142678023Y-95600500D01*
X142678025Y-95600500D01*
X142881973Y-95600500D01*
X142881975Y-95600500D01*
X143082455Y-95563024D01*
X143272636Y-95489348D01*
X143446040Y-95381981D01*
X143596763Y-95244579D01*
X143719672Y-95081821D01*
X143810581Y-94899250D01*
X143849935Y-94760935D01*
X143885101Y-94716539D01*
X143941361Y-94710012D01*
X143985758Y-94745178D01*
X143992588Y-94762034D01*
X144046566Y-94963483D01*
X144046571Y-94963494D01*
X144146401Y-95177579D01*
X144281888Y-95371075D01*
X144448924Y-95538111D01*
X144642420Y-95673598D01*
X144856505Y-95773428D01*
X144856508Y-95773430D01*
X145070000Y-95830634D01*
X145070000Y-94933012D01*
X145127007Y-94965925D01*
X145254174Y-95000000D01*
X145385826Y-95000000D01*
X145512993Y-94965925D01*
X145570000Y-94933012D01*
X145570000Y-95830634D01*
X145783491Y-95773430D01*
X145783494Y-95773428D01*
X145997579Y-95673598D01*
X146191075Y-95538111D01*
X146358111Y-95371075D01*
X146493598Y-95177579D01*
X146593428Y-94963494D01*
X146593433Y-94963483D01*
X146650636Y-94750000D01*
X145753012Y-94750000D01*
X145785925Y-94692993D01*
X145820000Y-94565826D01*
X145820000Y-94434174D01*
X145785925Y-94307007D01*
X145753012Y-94250000D01*
X146650636Y-94250000D01*
X146650636Y-94249999D01*
X146593432Y-94036512D01*
X146493598Y-93822421D01*
X146358109Y-93628921D01*
X146191075Y-93461888D01*
X146191076Y-93461888D01*
X145997579Y-93326401D01*
X145783494Y-93226571D01*
X145783483Y-93226566D01*
X145570000Y-93169363D01*
X145570000Y-94066988D01*
X145512993Y-94034075D01*
X145385826Y-94000000D01*
X145254174Y-94000000D01*
X145127007Y-94034075D01*
X145070000Y-94066988D01*
X145070000Y-93169363D01*
X145069999Y-93169363D01*
X144856512Y-93226567D01*
X144642421Y-93326401D01*
X144448921Y-93461890D01*
X144281890Y-93628921D01*
X144146401Y-93822421D01*
X144046571Y-94036505D01*
X144046566Y-94036516D01*
X143992588Y-94237965D01*
X143958110Y-94282898D01*
X143901957Y-94290290D01*
X143857024Y-94255812D01*
X143849935Y-94239063D01*
X143810582Y-94100755D01*
X143810581Y-94100750D01*
X143719672Y-93918179D01*
X143719669Y-93918175D01*
X143719669Y-93918174D01*
X143596764Y-93755421D01*
X143596763Y-93755420D01*
X143446040Y-93618019D01*
X143380667Y-93577542D01*
X143272636Y-93510652D01*
X143082455Y-93436976D01*
X142994406Y-93420516D01*
X142881978Y-93399500D01*
X142881975Y-93399500D01*
X142678023Y-93399500D01*
X142678019Y-93399500D01*
X142528115Y-93427522D01*
X142477543Y-93436976D01*
X142477541Y-93436976D01*
X142477539Y-93436977D01*
X142311980Y-93501115D01*
X142287362Y-93510652D01*
X142287357Y-93510654D01*
X142287357Y-93510655D01*
X142113957Y-93618019D01*
X142113956Y-93618019D01*
X141963234Y-93755420D01*
X141963233Y-93755421D01*
X141840328Y-93918174D01*
X141840327Y-93918177D01*
X141749417Y-94100750D01*
X141749415Y-94100755D01*
X141693601Y-94296917D01*
X141693600Y-94296923D01*
X141674784Y-94499996D01*
X141345215Y-94499996D01*
X141326398Y-94296923D01*
X141326397Y-94296917D01*
X141313048Y-94250000D01*
X141270582Y-94100750D01*
X141179673Y-93918179D01*
X141179670Y-93918175D01*
X141179670Y-93918174D01*
X141056765Y-93755421D01*
X141056764Y-93755420D01*
X140906041Y-93618019D01*
X140840668Y-93577542D01*
X140732637Y-93510652D01*
X140542456Y-93436976D01*
X140454407Y-93420516D01*
X140341979Y-93399500D01*
X140341976Y-93399500D01*
X140138024Y-93399500D01*
X140138020Y-93399500D01*
X139988116Y-93427522D01*
X139937544Y-93436976D01*
X139937542Y-93436976D01*
X139937540Y-93436977D01*
X139771981Y-93501115D01*
X139747363Y-93510652D01*
X139747358Y-93510654D01*
X139747358Y-93510655D01*
X139573958Y-93618019D01*
X139573957Y-93618019D01*
X139423235Y-93755420D01*
X139423234Y-93755421D01*
X139300329Y-93918174D01*
X139300328Y-93918177D01*
X139209418Y-94100750D01*
X139209416Y-94100755D01*
X139153602Y-94296917D01*
X139153601Y-94296923D01*
X139134785Y-94499996D01*
X138800500Y-94499996D01*
X138800500Y-93625326D01*
X138785966Y-93552260D01*
X138730601Y-93469399D01*
X138721654Y-93463421D01*
X138647740Y-93414034D01*
X138574674Y-93399500D01*
X136825326Y-93399500D01*
X136776615Y-93409189D01*
X136752259Y-93414034D01*
X136669399Y-93469398D01*
X136669398Y-93469399D01*
X136614034Y-93552259D01*
X136614034Y-93552260D01*
X136599500Y-93625326D01*
X133323992Y-93625326D01*
X133226117Y-93463421D01*
X133078522Y-93275030D01*
X131936290Y-94417262D01*
X131839033Y-94283398D01*
X131716602Y-94160967D01*
X131582735Y-94063708D01*
X132724969Y-92921476D01*
X132536578Y-92773882D01*
X132311517Y-92637828D01*
X132277950Y-92592209D01*
X132286472Y-92536217D01*
X132332091Y-92502650D01*
X132349800Y-92500500D01*
X153816926Y-92500500D01*
X153869252Y-92522174D01*
G37*
%TD.AperFunction*%
%TA.AperFunction,Conductor*%
G36*
X130160967Y-129716602D02*
G01*
X130283398Y-129839033D01*
X130417262Y-129936290D01*
X129275030Y-131078522D01*
X129463421Y-131226117D01*
X129521688Y-131261341D01*
X129555255Y-131306960D01*
X129546733Y-131362952D01*
X129501114Y-131396519D01*
X129457544Y-131394003D01*
X129382042Y-131365842D01*
X129372439Y-131361456D01*
X129193958Y-131263998D01*
X129185075Y-131258290D01*
X129022272Y-131136417D01*
X129014293Y-131129503D01*
X128870496Y-130985706D01*
X128863582Y-130977727D01*
X128741709Y-130814924D01*
X128736001Y-130806041D01*
X128638543Y-130627560D01*
X128634161Y-130617965D01*
X128605996Y-130542453D01*
X128608017Y-130485853D01*
X128649469Y-130447260D01*
X128706071Y-130449281D01*
X128738658Y-130478311D01*
X128773882Y-130536578D01*
X128921476Y-130724968D01*
X130063708Y-129582735D01*
X130160967Y-129716602D01*
G37*
%TD.AperFunction*%
%TA.AperFunction,Conductor*%
G36*
X129514147Y-92608016D02*
G01*
X129552741Y-92649468D01*
X129550720Y-92706069D01*
X129521691Y-92738656D01*
X129463422Y-92773881D01*
X129463419Y-92773884D01*
X129275030Y-92921476D01*
X130417263Y-94063709D01*
X130283398Y-94160967D01*
X130160967Y-94283398D01*
X130063709Y-94417263D01*
X128921476Y-93275030D01*
X128773884Y-93463419D01*
X128773881Y-93463422D01*
X128738656Y-93521691D01*
X128693037Y-93555257D01*
X128637045Y-93546734D01*
X128603479Y-93501115D01*
X128605994Y-93457550D01*
X128634163Y-93382028D01*
X128638538Y-93372449D01*
X128736004Y-93193953D01*
X128741705Y-93185080D01*
X128863589Y-93022263D01*
X128870489Y-93014300D01*
X129014300Y-92870489D01*
X129022263Y-92863589D01*
X129185080Y-92741705D01*
X129193953Y-92736004D01*
X129372449Y-92638538D01*
X129382028Y-92634163D01*
X129457549Y-92605995D01*
X129514147Y-92608016D01*
G37*
%TD.AperFunction*%
%TD*%
%TA.AperFunction,Conductor*%
%TO.N,/Rseries*%
G36*
X135715053Y-114753425D02*
G01*
X135754062Y-114762791D01*
X136000000Y-114782147D01*
X136245938Y-114762791D01*
X136284946Y-114753425D01*
X136313893Y-114750000D01*
X136698638Y-114750000D01*
X136765677Y-114769685D01*
X136786319Y-114786319D01*
X139963681Y-117963681D01*
X139997166Y-118025004D01*
X140000000Y-118051362D01*
X140000000Y-118948638D01*
X139980315Y-119015677D01*
X139963681Y-119036319D01*
X139536319Y-119463681D01*
X139474996Y-119497166D01*
X139448638Y-119500000D01*
X134801362Y-119500000D01*
X134734323Y-119480315D01*
X134713681Y-119463681D01*
X134536319Y-119286319D01*
X134502834Y-119224996D01*
X134500000Y-119198638D01*
X134500000Y-115301362D01*
X134519685Y-115234323D01*
X134536319Y-115213681D01*
X134963681Y-114786319D01*
X135025004Y-114752834D01*
X135051362Y-114750000D01*
X135686107Y-114750000D01*
X135715053Y-114753425D01*
G37*
%TD.AperFunction*%
%TD*%
M02*
