%TF.GenerationSoftware,KiCad,Pcbnew,8.0.7*%
%TF.CreationDate,2025-03-27T17:59:10+01:00*%
%TF.ProjectId,StrainGauge,53747261-696e-4476-9175-67652e6b6963,rev?*%
%TF.SameCoordinates,Original*%
%TF.FileFunction,Soldermask,Top*%
%TF.FilePolarity,Negative*%
%FSLAX46Y46*%
G04 Gerber Fmt 4.6, Leading zero omitted, Abs format (unit mm)*
G04 Created by KiCad (PCBNEW 8.0.7) date 2025-03-27 17:59:10*
%MOMM*%
%LPD*%
G01*
G04 APERTURE LIST*
G04 Aperture macros list*
%AMRoundRect*
0 Rectangle with rounded corners*
0 $1 Rounding radius*
0 $2 $3 $4 $5 $6 $7 $8 $9 X,Y pos of 4 corners*
0 Add a 4 corners polygon primitive as box body*
4,1,4,$2,$3,$4,$5,$6,$7,$8,$9,$2,$3,0*
0 Add four circle primitives for the rounded corners*
1,1,$1+$1,$2,$3*
1,1,$1+$1,$4,$5*
1,1,$1+$1,$6,$7*
1,1,$1+$1,$8,$9*
0 Add four rect primitives between the rounded corners*
20,1,$1+$1,$2,$3,$4,$5,0*
20,1,$1+$1,$4,$5,$6,$7,0*
20,1,$1+$1,$6,$7,$8,$9,0*
20,1,$1+$1,$8,$9,$2,$3,0*%
%AMFreePoly0*
4,1,19,0.500000,-0.750000,0.000000,-0.750000,0.000000,-0.744911,-0.071157,-0.744911,-0.207708,-0.704816,-0.327430,-0.627875,-0.420627,-0.520320,-0.479746,-0.390866,-0.500000,-0.250000,-0.500000,0.250000,-0.479746,0.390866,-0.420627,0.520320,-0.327430,0.627875,-0.207708,0.704816,-0.071157,0.744911,0.000000,0.744911,0.000000,0.750000,0.500000,0.750000,0.500000,-0.750000,0.500000,-0.750000,
$1*%
%AMFreePoly1*
4,1,19,0.000000,0.744911,0.071157,0.744911,0.207708,0.704816,0.327430,0.627875,0.420627,0.520320,0.479746,0.390866,0.500000,0.250000,0.500000,-0.250000,0.479746,-0.390866,0.420627,-0.520320,0.327430,-0.627875,0.207708,-0.704816,0.071157,-0.744911,0.000000,-0.744911,0.000000,-0.750000,-0.500000,-0.750000,-0.500000,0.750000,0.000000,0.750000,0.000000,0.744911,0.000000,0.744911,
$1*%
%AMFreePoly2*
4,1,19,0.550000,-0.750000,0.000000,-0.750000,0.000000,-0.744911,-0.071157,-0.744911,-0.207708,-0.704816,-0.327430,-0.627875,-0.420627,-0.520320,-0.479746,-0.390866,-0.500000,-0.250000,-0.500000,0.250000,-0.479746,0.390866,-0.420627,0.520320,-0.327430,0.627875,-0.207708,0.704816,-0.071157,0.744911,0.000000,0.744911,0.000000,0.750000,0.550000,0.750000,0.550000,-0.750000,0.550000,-0.750000,
$1*%
%AMFreePoly3*
4,1,19,0.000000,0.744911,0.071157,0.744911,0.207708,0.704816,0.327430,0.627875,0.420627,0.520320,0.479746,0.390866,0.500000,0.250000,0.500000,-0.250000,0.479746,-0.390866,0.420627,-0.520320,0.327430,-0.627875,0.207708,-0.704816,0.071157,-0.744911,0.000000,-0.744911,0.000000,-0.750000,-0.550000,-0.750000,-0.550000,0.750000,0.000000,0.750000,0.000000,0.744911,0.000000,0.744911,
$1*%
G04 Aperture macros list end*
%ADD10R,2.000000X2.000000*%
%ADD11FreePoly0,0.000000*%
%ADD12FreePoly1,0.000000*%
%ADD13FreePoly2,180.000000*%
%ADD14R,1.000000X1.500000*%
%ADD15FreePoly3,180.000000*%
%ADD16RoundRect,0.140000X-0.170000X0.140000X-0.170000X-0.140000X0.170000X-0.140000X0.170000X0.140000X0*%
%ADD17R,0.800000X2.900000*%
%ADD18R,1.800000X3.800000*%
%ADD19C,0.700000*%
%ADD20C,4.400000*%
%ADD21RoundRect,0.135000X0.135000X0.185000X-0.135000X0.185000X-0.135000X-0.185000X0.135000X-0.185000X0*%
%ADD22RoundRect,0.150000X0.512500X0.150000X-0.512500X0.150000X-0.512500X-0.150000X0.512500X-0.150000X0*%
%ADD23RoundRect,0.125000X0.125000X-0.687500X0.125000X0.687500X-0.125000X0.687500X-0.125000X-0.687500X0*%
%ADD24C,2.133600*%
%ADD25RoundRect,0.135000X-0.185000X0.135000X-0.185000X-0.135000X0.185000X-0.135000X0.185000X0.135000X0*%
%ADD26RoundRect,0.102000X0.800000X-1.500000X0.800000X1.500000X-0.800000X1.500000X-0.800000X-1.500000X0*%
%ADD27RoundRect,0.140000X0.170000X-0.140000X0.170000X0.140000X-0.170000X0.140000X-0.170000X-0.140000X0*%
%ADD28RoundRect,0.140000X0.140000X0.170000X-0.140000X0.170000X-0.140000X-0.170000X0.140000X-0.170000X0*%
%ADD29RoundRect,0.250000X0.250000X0.475000X-0.250000X0.475000X-0.250000X-0.475000X0.250000X-0.475000X0*%
%ADD30RoundRect,0.250000X-0.475000X0.250000X-0.475000X-0.250000X0.475000X-0.250000X0.475000X0.250000X0*%
%ADD31RoundRect,0.225000X0.250000X-0.225000X0.250000X0.225000X-0.250000X0.225000X-0.250000X-0.225000X0*%
%ADD32RoundRect,0.250000X0.475000X-0.250000X0.475000X0.250000X-0.475000X0.250000X-0.475000X-0.250000X0*%
%ADD33RoundRect,0.225000X-0.250000X0.225000X-0.250000X-0.225000X0.250000X-0.225000X0.250000X0.225000X0*%
%ADD34O,1.700000X1.700000*%
%ADD35R,1.700000X1.700000*%
G04 APERTURE END LIST*
D10*
%TO.C,TP5*%
X154200000Y-110200000D03*
%TD*%
%TO.C,TP4*%
X154200000Y-106800000D03*
%TD*%
%TO.C,TP3*%
X132800000Y-102800000D03*
%TD*%
%TO.C,TP2*%
X131400000Y-116800000D03*
%TD*%
%TO.C,TP1*%
X132800000Y-99200000D03*
%TD*%
D11*
%TO.C,JP3*%
X148550000Y-94600000D03*
D12*
X149850000Y-94600000D03*
%TD*%
D13*
%TO.C,JP2*%
X137000000Y-107000000D03*
D14*
X135700000Y-107000000D03*
D15*
X134400000Y-107000000D03*
%TD*%
D13*
%TO.C,JP1*%
X151500000Y-106800000D03*
D14*
X150200000Y-106800000D03*
D15*
X148900000Y-106800000D03*
%TD*%
D16*
%TO.C,C8*%
X146000000Y-114250000D03*
X146000000Y-115210000D03*
%TD*%
D17*
%TO.C,J2*%
X141150000Y-123550000D03*
X142650000Y-123550000D03*
X144150000Y-123550000D03*
X145650000Y-123550000D03*
D18*
X138550000Y-128250000D03*
X148250000Y-128250000D03*
%TD*%
D19*
%TO.C,H3*%
X156650001Y-129000001D03*
X156166727Y-130166727D03*
X156166727Y-127833275D03*
X155000001Y-130650001D03*
D20*
X155000001Y-129000001D03*
D19*
X155000001Y-127350001D03*
X153833275Y-130166727D03*
X153833275Y-127833275D03*
X153350001Y-129000001D03*
%TD*%
D21*
%TO.C,R1*%
X140759999Y-118500000D03*
X139740001Y-118500000D03*
%TD*%
D22*
%TO.C,U2*%
X145637500Y-100699999D03*
X145637500Y-99750000D03*
X145637500Y-98800001D03*
X143362500Y-98800001D03*
X143362500Y-100699999D03*
%TD*%
D16*
%TO.C,C10*%
X141750000Y-105000000D03*
X141750000Y-105960000D03*
%TD*%
D19*
%TO.C,H1*%
X130349999Y-94999999D03*
X130833273Y-93833273D03*
X130833273Y-96166725D03*
X131999999Y-93349999D03*
D20*
X131999999Y-94999999D03*
D19*
X131999999Y-96649999D03*
X133166725Y-93833273D03*
X133166725Y-96166725D03*
X133649999Y-94999999D03*
%TD*%
D23*
%TO.C,U1*%
X142525000Y-118362500D03*
X143175000Y-118362500D03*
X143825000Y-118362500D03*
X144475000Y-118362500D03*
X144475000Y-114137500D03*
X143825000Y-114137500D03*
X143175000Y-114137500D03*
X142525000Y-114137500D03*
%TD*%
D24*
%TO.C,RV1*%
X136000000Y-118290000D03*
X136000000Y-115750000D03*
X136000000Y-113210001D03*
%TD*%
D25*
%TO.C,R2*%
X146500000Y-106990001D03*
X146500000Y-108009999D03*
%TD*%
D26*
%TO.C,C6*%
X152750000Y-115750000D03*
X152750000Y-120150000D03*
%TD*%
D27*
%TO.C,C5*%
X143250000Y-112210000D03*
X143250000Y-111250000D03*
%TD*%
D28*
%TO.C,C7*%
X143980000Y-120250000D03*
X143020000Y-120250000D03*
%TD*%
D29*
%TO.C,C11*%
X135750000Y-109250000D03*
X133850002Y-109250000D03*
%TD*%
D19*
%TO.C,H4*%
X130349999Y-129000001D03*
X130833273Y-127833275D03*
X130833273Y-130166727D03*
X131999999Y-127350001D03*
D20*
X131999999Y-129000001D03*
D19*
X131999999Y-130650001D03*
X133166725Y-127833275D03*
X133166725Y-130166727D03*
X133649999Y-129000001D03*
%TD*%
D22*
%TO.C,U3*%
X145637500Y-104699999D03*
X145637500Y-103750000D03*
X145637500Y-102800001D03*
X143362500Y-102800001D03*
X143362500Y-104699999D03*
%TD*%
%TO.C,U4*%
X151137500Y-111199999D03*
X151137500Y-110250000D03*
X151137500Y-109300001D03*
X148862500Y-109300001D03*
X148862500Y-111199999D03*
%TD*%
D30*
%TO.C,C3*%
X148750000Y-104699999D03*
X148750000Y-102800001D03*
%TD*%
D26*
%TO.C,C1*%
X137750000Y-98300000D03*
X137750000Y-102700000D03*
%TD*%
D25*
%TO.C,R3*%
X146500000Y-108990001D03*
X146500000Y-110009999D03*
%TD*%
D31*
%TO.C,C4*%
X141750000Y-112275000D03*
X141750000Y-110725000D03*
%TD*%
D32*
%TO.C,C2*%
X148000000Y-100699999D03*
X148000000Y-98800001D03*
%TD*%
D33*
%TO.C,C9*%
X140000000Y-104975000D03*
X140000000Y-106525000D03*
%TD*%
D16*
%TO.C,C12*%
X141750000Y-99020000D03*
X141750000Y-99980000D03*
%TD*%
D19*
%TO.C,H2*%
X153350000Y-95000000D03*
X153833274Y-93833274D03*
X153833274Y-96166726D03*
X155000000Y-93350000D03*
D20*
X155000000Y-95000000D03*
D19*
X155000000Y-96650000D03*
X156166726Y-93833274D03*
X156166726Y-96166726D03*
X156650000Y-95000000D03*
%TD*%
D34*
%TO.C,J1*%
X145320000Y-94500000D03*
X142779999Y-94500000D03*
X140240000Y-94500000D03*
D35*
X137700000Y-94500000D03*
%TD*%
M02*
