%TF.GenerationSoftware,KiCad,Pcbnew,8.0.7*%
%TF.CreationDate,2025-03-27T17:59:10+01:00*%
%TF.ProjectId,StrainGauge,53747261-696e-4476-9175-67652e6b6963,rev?*%
%TF.SameCoordinates,Original*%
%TF.FileFunction,Copper,L2,Bot*%
%TF.FilePolarity,Positive*%
%FSLAX46Y46*%
G04 Gerber Fmt 4.6, Leading zero omitted, Abs format (unit mm)*
G04 Created by KiCad (PCBNEW 8.0.7) date 2025-03-27 17:59:10*
%MOMM*%
%LPD*%
G01*
G04 APERTURE LIST*
%TA.AperFunction,ComponentPad*%
%ADD10C,0.700000*%
%TD*%
%TA.AperFunction,ComponentPad*%
%ADD11C,4.400000*%
%TD*%
%TA.AperFunction,ComponentPad*%
%ADD12C,2.133600*%
%TD*%
%TA.AperFunction,ComponentPad*%
%ADD13O,1.700000X1.700000*%
%TD*%
%TA.AperFunction,ComponentPad*%
%ADD14R,1.700000X1.700000*%
%TD*%
%TA.AperFunction,ViaPad*%
%ADD15C,0.800000*%
%TD*%
%TA.AperFunction,Conductor*%
%ADD16C,0.300000*%
%TD*%
%TA.AperFunction,Conductor*%
%ADD17C,0.500000*%
%TD*%
%TA.AperFunction,Conductor*%
%ADD18C,0.700000*%
%TD*%
G04 APERTURE END LIST*
D10*
%TO.P,H3,1,1*%
%TO.N,GND*%
X156650001Y-129000001D03*
X156166727Y-130166727D03*
X156166727Y-127833275D03*
X155000001Y-130650001D03*
D11*
X155000001Y-129000001D03*
D10*
X155000001Y-127350001D03*
X153833275Y-130166727D03*
X153833275Y-127833275D03*
X153350001Y-129000001D03*
%TD*%
%TO.P,H1,1,1*%
%TO.N,GND*%
X130349999Y-94999999D03*
X130833273Y-93833273D03*
X130833273Y-96166725D03*
X131999999Y-93349999D03*
D11*
X131999999Y-94999999D03*
D10*
X131999999Y-96649999D03*
X133166725Y-93833273D03*
X133166725Y-96166725D03*
X133649999Y-94999999D03*
%TD*%
D12*
%TO.P,RV1,1,1*%
%TO.N,/Rseries*%
X136000000Y-118290000D03*
%TO.P,RV1,2,2*%
X136000000Y-115750000D03*
%TO.P,RV1,3,3*%
%TO.N,/Rg-*%
X136000000Y-113210001D03*
%TD*%
D10*
%TO.P,H4,1,1*%
%TO.N,GND*%
X130349999Y-129000001D03*
X130833273Y-127833275D03*
X130833273Y-130166727D03*
X131999999Y-127350001D03*
D11*
X131999999Y-129000001D03*
D10*
X131999999Y-130650001D03*
X133166725Y-127833275D03*
X133166725Y-130166727D03*
X133649999Y-129000001D03*
%TD*%
%TO.P,H2,1,1*%
%TO.N,GND*%
X153350000Y-95000000D03*
X153833274Y-93833274D03*
X153833274Y-96166726D03*
X155000000Y-93350000D03*
D11*
X155000000Y-95000000D03*
D10*
X155000000Y-96650000D03*
X156166726Y-93833274D03*
X156166726Y-96166726D03*
X156650000Y-95000000D03*
%TD*%
D13*
%TO.P,J1,4,Pin_4*%
%TO.N,GND*%
X145320000Y-94500000D03*
%TO.P,J1,3,Pin_3*%
%TO.N,/ADC*%
X142779999Y-94500000D03*
%TO.P,J1,2,Pin_2*%
%TO.N,/AREF*%
X140240000Y-94500000D03*
D14*
%TO.P,J1,1,Pin_1*%
%TO.N,VCC*%
X137700000Y-94500000D03*
%TD*%
D15*
%TO.N,GND*%
X131000000Y-105400000D03*
X149600000Y-115000000D03*
X156600000Y-120000000D03*
X156600000Y-118000000D03*
X156600000Y-116200000D03*
X156600000Y-114400000D03*
X156600000Y-112600000D03*
X155200000Y-121800000D03*
X148800000Y-124800000D03*
X147800000Y-123400000D03*
X139600000Y-123800000D03*
X147600000Y-96800000D03*
X145600000Y-112600000D03*
X145800000Y-128000000D03*
X140600000Y-129400000D03*
X135600000Y-130000000D03*
X139000000Y-125200000D03*
X137200000Y-125200000D03*
X138200000Y-123800000D03*
X139000000Y-122400000D03*
X137400000Y-122400000D03*
X134600000Y-121000000D03*
X133000000Y-121000000D03*
X131400000Y-121000000D03*
X130600000Y-122400000D03*
X149800000Y-123400000D03*
X151200000Y-129400000D03*
X151200000Y-128000000D03*
X151200000Y-126600000D03*
X141200000Y-96800000D03*
%TO.N,/AmpRef*%
X149800000Y-97200000D03*
X149800000Y-108600000D03*
%TO.N,GND*%
X152600000Y-123200000D03*
X156000000Y-123200000D03*
X154200000Y-123200000D03*
X148800000Y-122200000D03*
X147000000Y-119600000D03*
X147800000Y-121000000D03*
X136400000Y-123800000D03*
X135600000Y-128000000D03*
X136400000Y-126600000D03*
X134800000Y-126600000D03*
X135600000Y-125200000D03*
X152200000Y-110250000D03*
X140400000Y-110200000D03*
X141000000Y-108000000D03*
X146800000Y-116800000D03*
X147600000Y-118200000D03*
X146000000Y-118200000D03*
X131800000Y-108400000D03*
X131000000Y-109800000D03*
X132000000Y-111200000D03*
X131200000Y-112600000D03*
X132000000Y-114000000D03*
X133800000Y-122400000D03*
X132200000Y-122400000D03*
X133000000Y-123800000D03*
X131400000Y-123800000D03*
X133800000Y-125200000D03*
X134600000Y-123800000D03*
X130600000Y-125200000D03*
X132200000Y-125200000D03*
X143600000Y-126600000D03*
X142000000Y-126600000D03*
X143600000Y-129400000D03*
X144400000Y-128000000D03*
X145200000Y-126600000D03*
X145200000Y-129400000D03*
X141200000Y-128000000D03*
X142800000Y-128000000D03*
X142000000Y-129400000D03*
X135200000Y-96000000D03*
X152400000Y-97600000D03*
X156400000Y-103600000D03*
X153200000Y-101800000D03*
X156400000Y-101800000D03*
X151600000Y-99000000D03*
X152400000Y-100400000D03*
X153200000Y-99000000D03*
X156400000Y-99000000D03*
X141400000Y-101400000D03*
X147200000Y-105600000D03*
%TO.N,/Rg-*%
X138800000Y-113800000D03*
X141000000Y-114000000D03*
%TO.N,GND*%
X144200000Y-110000000D03*
X146452498Y-110600000D03*
%TO.N,/AmpOffset*%
X147600000Y-107600000D03*
X153200000Y-112400000D03*
%TO.N,/AmpRef*%
X147200000Y-112400000D03*
X147800000Y-110000000D03*
%TO.N,/Vbdg+*%
X145600000Y-121000000D03*
X141000000Y-116800000D03*
%TO.N,GND*%
X138800000Y-108200000D03*
%TO.N,+2V5*%
X141600000Y-103200000D03*
X132800000Y-104800000D03*
X136600000Y-105400000D03*
%TO.N,/ADC*%
X143600000Y-116000000D03*
X143000000Y-96800000D03*
%TD*%
D16*
%TO.N,/AmpRef*%
X149800000Y-108600000D02*
X149800000Y-97200000D01*
D17*
%TO.N,/AmpOffset*%
X153200000Y-112400000D02*
X151800000Y-112400000D01*
X151800000Y-112400000D02*
X147600000Y-108200000D01*
X147600000Y-108200000D02*
X147600000Y-107600000D01*
D16*
%TO.N,/AmpRef*%
X147800000Y-110000000D02*
X147400000Y-110400000D01*
X147400000Y-110400000D02*
X147400000Y-112200000D01*
X147400000Y-112200000D02*
X147200000Y-112400000D01*
%TO.N,/Rg-*%
X139000000Y-114000000D02*
X138800000Y-113800000D01*
X141000000Y-114000000D02*
X139000000Y-114000000D01*
%TO.N,GND*%
X144800000Y-110600000D02*
X144200000Y-110000000D01*
X146452498Y-110600000D02*
X144800000Y-110600000D01*
D17*
%TO.N,/Vbdg+*%
X141000000Y-116800000D02*
X141800000Y-116800000D01*
X141800000Y-116800000D02*
X145600000Y-120600000D01*
X145600000Y-120600000D02*
X145600000Y-121000000D01*
%TO.N,+2V5*%
X139400000Y-105400000D02*
X136600000Y-105400000D01*
X141600000Y-103200000D02*
X139400000Y-105400000D01*
D18*
X136600000Y-105400000D02*
X136400000Y-105200000D01*
X133200000Y-105200000D02*
X132800000Y-104800000D01*
X136400000Y-105200000D02*
X133200000Y-105200000D01*
D16*
%TO.N,/ADC*%
X143000000Y-96800000D02*
X143000000Y-115400000D01*
X143000000Y-115400000D02*
X143600000Y-116000000D01*
%TD*%
%TA.AperFunction,Conductor*%
%TO.N,GND*%
G36*
X153537880Y-92520185D02*
G01*
X153583635Y-92572989D01*
X153593579Y-92642147D01*
X153564554Y-92705703D01*
X153534991Y-92730617D01*
X153463422Y-92773881D01*
X153463416Y-92773886D01*
X153275030Y-92921474D01*
X153275029Y-92921476D01*
X154417262Y-94063709D01*
X154283398Y-94160967D01*
X154160967Y-94283398D01*
X154063709Y-94417262D01*
X152921476Y-93275029D01*
X152921474Y-93275030D01*
X152773886Y-93463416D01*
X152773881Y-93463422D01*
X152604898Y-93742956D01*
X152604897Y-93742958D01*
X152470839Y-94040824D01*
X152470835Y-94040835D01*
X152373667Y-94352658D01*
X152314786Y-94673961D01*
X152295065Y-95000000D01*
X152314786Y-95326038D01*
X152373667Y-95647341D01*
X152470835Y-95959164D01*
X152470839Y-95959175D01*
X152604897Y-96257041D01*
X152604898Y-96257043D01*
X152773881Y-96536576D01*
X152921476Y-96724968D01*
X154063708Y-95582736D01*
X154160967Y-95716602D01*
X154283398Y-95839033D01*
X154417262Y-95936290D01*
X153275030Y-97078522D01*
X153275030Y-97078523D01*
X153463423Y-97226118D01*
X153742956Y-97395101D01*
X153742958Y-97395102D01*
X154040824Y-97529160D01*
X154040835Y-97529164D01*
X154352658Y-97626332D01*
X154673961Y-97685213D01*
X155000000Y-97704934D01*
X155326038Y-97685213D01*
X155647341Y-97626332D01*
X155959164Y-97529164D01*
X155959175Y-97529160D01*
X156257041Y-97395102D01*
X156257043Y-97395101D01*
X156536586Y-97226112D01*
X156724968Y-97078523D01*
X156724968Y-97078522D01*
X155582736Y-95936290D01*
X155716602Y-95839033D01*
X155839033Y-95716602D01*
X155936290Y-95582736D01*
X157078522Y-96724968D01*
X157078523Y-96724968D01*
X157226111Y-96536586D01*
X157269383Y-96465007D01*
X157320911Y-96417820D01*
X157389770Y-96405981D01*
X157454099Y-96433250D01*
X157493473Y-96490968D01*
X157499500Y-96529157D01*
X157499500Y-127470840D01*
X157479815Y-127537879D01*
X157427011Y-127583634D01*
X157357853Y-127593578D01*
X157294297Y-127564553D01*
X157269383Y-127534990D01*
X157226120Y-127463424D01*
X157078523Y-127275031D01*
X155936291Y-128417263D01*
X155839034Y-128283399D01*
X155716603Y-128160968D01*
X155582737Y-128063710D01*
X156724969Y-126921477D01*
X156536577Y-126773882D01*
X156257044Y-126604899D01*
X156257042Y-126604898D01*
X155959176Y-126470840D01*
X155959165Y-126470836D01*
X155647342Y-126373668D01*
X155326039Y-126314787D01*
X155000001Y-126295066D01*
X154673962Y-126314787D01*
X154352659Y-126373668D01*
X154040836Y-126470836D01*
X154040825Y-126470840D01*
X153742959Y-126604898D01*
X153742957Y-126604899D01*
X153463423Y-126773882D01*
X153463417Y-126773887D01*
X153275031Y-126921475D01*
X153275030Y-126921477D01*
X154417263Y-128063710D01*
X154283399Y-128160968D01*
X154160968Y-128283399D01*
X154063710Y-128417263D01*
X152921477Y-127275030D01*
X152921475Y-127275031D01*
X152773887Y-127463417D01*
X152773882Y-127463423D01*
X152604899Y-127742957D01*
X152604898Y-127742959D01*
X152470840Y-128040825D01*
X152470836Y-128040836D01*
X152373668Y-128352659D01*
X152314787Y-128673962D01*
X152295066Y-129000001D01*
X152314787Y-129326039D01*
X152373668Y-129647342D01*
X152470836Y-129959165D01*
X152470840Y-129959176D01*
X152604898Y-130257042D01*
X152604899Y-130257044D01*
X152773882Y-130536577D01*
X152921477Y-130724969D01*
X154063709Y-129582737D01*
X154160968Y-129716603D01*
X154283399Y-129839034D01*
X154417263Y-129936291D01*
X153275031Y-131078523D01*
X153275031Y-131078524D01*
X153463425Y-131226120D01*
X153463429Y-131226123D01*
X153534990Y-131269383D01*
X153582178Y-131320910D01*
X153594017Y-131389770D01*
X153566749Y-131454099D01*
X153509030Y-131493473D01*
X153470841Y-131499500D01*
X133529158Y-131499500D01*
X133462119Y-131479815D01*
X133416364Y-131427011D01*
X133406420Y-131357853D01*
X133435445Y-131294297D01*
X133465008Y-131269383D01*
X133536585Y-131226113D01*
X133724967Y-131078524D01*
X133724967Y-131078523D01*
X132582735Y-129936291D01*
X132716601Y-129839034D01*
X132839032Y-129716603D01*
X132936289Y-129582737D01*
X134078521Y-130724969D01*
X134078522Y-130724969D01*
X134226111Y-130536587D01*
X134395100Y-130257044D01*
X134395101Y-130257042D01*
X134529159Y-129959176D01*
X134529163Y-129959165D01*
X134626331Y-129647342D01*
X134685212Y-129326039D01*
X134704933Y-129000001D01*
X134685212Y-128673962D01*
X134626331Y-128352659D01*
X134529163Y-128040836D01*
X134529159Y-128040825D01*
X134395101Y-127742959D01*
X134395100Y-127742957D01*
X134226117Y-127463424D01*
X134078521Y-127275031D01*
X132936289Y-128417263D01*
X132839032Y-128283399D01*
X132716601Y-128160968D01*
X132582735Y-128063710D01*
X133724967Y-126921477D01*
X133536575Y-126773882D01*
X133257042Y-126604899D01*
X133257040Y-126604898D01*
X132959174Y-126470840D01*
X132959163Y-126470836D01*
X132647340Y-126373668D01*
X132326037Y-126314787D01*
X131999999Y-126295066D01*
X131673960Y-126314787D01*
X131352657Y-126373668D01*
X131040834Y-126470836D01*
X131040823Y-126470840D01*
X130742957Y-126604898D01*
X130742955Y-126604899D01*
X130463421Y-126773882D01*
X130463415Y-126773887D01*
X130275029Y-126921475D01*
X130275028Y-126921477D01*
X131417261Y-128063710D01*
X131283397Y-128160968D01*
X131160966Y-128283399D01*
X131063708Y-128417263D01*
X129921475Y-127275030D01*
X129921473Y-127275031D01*
X129773885Y-127463417D01*
X129773880Y-127463423D01*
X129730617Y-127534990D01*
X129679089Y-127582178D01*
X129610230Y-127594016D01*
X129545901Y-127566747D01*
X129506527Y-127509028D01*
X129500500Y-127470840D01*
X129500500Y-113210001D01*
X134427854Y-113210001D01*
X134447210Y-113455942D01*
X134504797Y-113695811D01*
X134504801Y-113695823D01*
X134599205Y-113923735D01*
X134599207Y-113923739D01*
X134599208Y-113923740D01*
X134728107Y-114134085D01*
X134888325Y-114321676D01*
X134942888Y-114368277D01*
X134963299Y-114385710D01*
X135001492Y-114444217D01*
X135001990Y-114514085D01*
X134964636Y-114573131D01*
X134963299Y-114574290D01*
X134888331Y-114638319D01*
X134888325Y-114638325D01*
X134728107Y-114825915D01*
X134599205Y-115036265D01*
X134504801Y-115264177D01*
X134504797Y-115264189D01*
X134447210Y-115504058D01*
X134427854Y-115750000D01*
X134447210Y-115995941D01*
X134504797Y-116235810D01*
X134504801Y-116235822D01*
X134599205Y-116463734D01*
X134599207Y-116463738D01*
X134599208Y-116463739D01*
X134728107Y-116674084D01*
X134888325Y-116861675D01*
X134933783Y-116900500D01*
X134963300Y-116925710D01*
X135001493Y-116984217D01*
X135001991Y-117054085D01*
X134964637Y-117113131D01*
X134963300Y-117114290D01*
X134888325Y-117178325D01*
X134728107Y-117365915D01*
X134599205Y-117576265D01*
X134504801Y-117804177D01*
X134504797Y-117804189D01*
X134447210Y-118044058D01*
X134427854Y-118290000D01*
X134447210Y-118535941D01*
X134504797Y-118775810D01*
X134504801Y-118775822D01*
X134599205Y-119003734D01*
X134599207Y-119003738D01*
X134599208Y-119003739D01*
X134728107Y-119214084D01*
X134888325Y-119401675D01*
X135075916Y-119561893D01*
X135286261Y-119690792D01*
X135286263Y-119690792D01*
X135286265Y-119690794D01*
X135357328Y-119720229D01*
X135514180Y-119785200D01*
X135754062Y-119842790D01*
X136000000Y-119862146D01*
X136245938Y-119842790D01*
X136485820Y-119785200D01*
X136713739Y-119690792D01*
X136924084Y-119561893D01*
X137111675Y-119401675D01*
X137271893Y-119214084D01*
X137400792Y-119003739D01*
X137495200Y-118775820D01*
X137552790Y-118535938D01*
X137572146Y-118290000D01*
X137552790Y-118044062D01*
X137495200Y-117804180D01*
X137400792Y-117576261D01*
X137271893Y-117365916D01*
X137111675Y-117178325D01*
X137036696Y-117114287D01*
X136998506Y-117055784D01*
X136998006Y-116985916D01*
X137035360Y-116926870D01*
X137036585Y-116925807D01*
X137111675Y-116861675D01*
X137271893Y-116674084D01*
X137400792Y-116463739D01*
X137495200Y-116235820D01*
X137552790Y-115995938D01*
X137572146Y-115750000D01*
X137552790Y-115504062D01*
X137495200Y-115264180D01*
X137400792Y-115036261D01*
X137271893Y-114825916D01*
X137111675Y-114638325D01*
X137036697Y-114574288D01*
X136998506Y-114515783D01*
X136998007Y-114445916D01*
X137035361Y-114386869D01*
X137036572Y-114385819D01*
X137111675Y-114321676D01*
X137271893Y-114134085D01*
X137400792Y-113923740D01*
X137452047Y-113800000D01*
X137894540Y-113800000D01*
X137914326Y-113988256D01*
X137914327Y-113988259D01*
X137972818Y-114168277D01*
X137972821Y-114168284D01*
X138067467Y-114332216D01*
X138169843Y-114445916D01*
X138194129Y-114472888D01*
X138347265Y-114584148D01*
X138347270Y-114584151D01*
X138520192Y-114661142D01*
X138520197Y-114661144D01*
X138705354Y-114700500D01*
X138705355Y-114700500D01*
X138894644Y-114700500D01*
X138894646Y-114700500D01*
X139079803Y-114661144D01*
X139079808Y-114661141D01*
X139085986Y-114659135D01*
X139086209Y-114659821D01*
X139130067Y-114650500D01*
X140323025Y-114650500D01*
X140390064Y-114670185D01*
X140395910Y-114674182D01*
X140547265Y-114784148D01*
X140547270Y-114784151D01*
X140720192Y-114861142D01*
X140720197Y-114861144D01*
X140905354Y-114900500D01*
X140905355Y-114900500D01*
X141094644Y-114900500D01*
X141094646Y-114900500D01*
X141279803Y-114861144D01*
X141452730Y-114784151D01*
X141605871Y-114672888D01*
X141732533Y-114532216D01*
X141827179Y-114368284D01*
X141885674Y-114188256D01*
X141905460Y-114000000D01*
X141885674Y-113811744D01*
X141827179Y-113631716D01*
X141732533Y-113467784D01*
X141605871Y-113327112D01*
X141569243Y-113300500D01*
X141452734Y-113215851D01*
X141452729Y-113215848D01*
X141279807Y-113138857D01*
X141279802Y-113138855D01*
X141134001Y-113107865D01*
X141094646Y-113099500D01*
X140905354Y-113099500D01*
X140872897Y-113106398D01*
X140720197Y-113138855D01*
X140720192Y-113138857D01*
X140547270Y-113215848D01*
X140547265Y-113215851D01*
X140395910Y-113325818D01*
X140330104Y-113349298D01*
X140323025Y-113349500D01*
X139651303Y-113349500D01*
X139584264Y-113329815D01*
X139543916Y-113287500D01*
X139532533Y-113267784D01*
X139405871Y-113127112D01*
X139398366Y-113121659D01*
X139252732Y-113015850D01*
X139252729Y-113015848D01*
X139079807Y-112938857D01*
X139079802Y-112938855D01*
X138934001Y-112907865D01*
X138894646Y-112899500D01*
X138705354Y-112899500D01*
X138672897Y-112906398D01*
X138520197Y-112938855D01*
X138520192Y-112938857D01*
X138347270Y-113015848D01*
X138347268Y-113015850D01*
X138194129Y-113127111D01*
X138067466Y-113267785D01*
X137972821Y-113431715D01*
X137972818Y-113431722D01*
X137914327Y-113611740D01*
X137914326Y-113611744D01*
X137894540Y-113800000D01*
X137452047Y-113800000D01*
X137495200Y-113695821D01*
X137552790Y-113455939D01*
X137572146Y-113210001D01*
X137552790Y-112964063D01*
X137495200Y-112724181D01*
X137400792Y-112496262D01*
X137271893Y-112285917D01*
X137111675Y-112098326D01*
X136924084Y-111938108D01*
X136713739Y-111809209D01*
X136713738Y-111809208D01*
X136713734Y-111809206D01*
X136521353Y-111729519D01*
X136485820Y-111714801D01*
X136485816Y-111714800D01*
X136485810Y-111714798D01*
X136245941Y-111657211D01*
X136000000Y-111637855D01*
X135754058Y-111657211D01*
X135514189Y-111714798D01*
X135514177Y-111714802D01*
X135286265Y-111809206D01*
X135075915Y-111938108D01*
X134888325Y-112098326D01*
X134728107Y-112285916D01*
X134599205Y-112496266D01*
X134504801Y-112724178D01*
X134504797Y-112724190D01*
X134447210Y-112964059D01*
X134427854Y-113210001D01*
X129500500Y-113210001D01*
X129500500Y-104800000D01*
X131894540Y-104800000D01*
X131914326Y-104988256D01*
X131914327Y-104988259D01*
X131972818Y-105168277D01*
X131972821Y-105168284D01*
X132067467Y-105332216D01*
X132194129Y-105472888D01*
X132347265Y-105584148D01*
X132347267Y-105584149D01*
X132347270Y-105584151D01*
X132387728Y-105602164D01*
X132424971Y-105627760D01*
X132539374Y-105742162D01*
X132657838Y-105860626D01*
X132797137Y-105953703D01*
X132951918Y-106017816D01*
X133116228Y-106050499D01*
X133116232Y-106050500D01*
X133116233Y-106050500D01*
X135923025Y-106050500D01*
X135990064Y-106070185D01*
X135995910Y-106074182D01*
X136147265Y-106184148D01*
X136147270Y-106184151D01*
X136320192Y-106261142D01*
X136320197Y-106261144D01*
X136505354Y-106300500D01*
X136505355Y-106300500D01*
X136694644Y-106300500D01*
X136694646Y-106300500D01*
X136879803Y-106261144D01*
X137052730Y-106184151D01*
X137054776Y-106182664D01*
X137066452Y-106174182D01*
X137132258Y-106150702D01*
X137139337Y-106150500D01*
X139473920Y-106150500D01*
X139571462Y-106131096D01*
X139618913Y-106121658D01*
X139755495Y-106065084D01*
X139826237Y-106017816D01*
X139878416Y-105982952D01*
X141752771Y-104108595D01*
X141814092Y-104075112D01*
X141814448Y-104075034D01*
X141879803Y-104061144D01*
X142052730Y-103984151D01*
X142152617Y-103911578D01*
X142218420Y-103888100D01*
X142286474Y-103903925D01*
X142335169Y-103954031D01*
X142349500Y-104011898D01*
X142349500Y-115464069D01*
X142362438Y-115529110D01*
X142374499Y-115589744D01*
X142423535Y-115708127D01*
X142494723Y-115814669D01*
X142665192Y-115985137D01*
X142698676Y-116046458D01*
X142700830Y-116059850D01*
X142714326Y-116188256D01*
X142714327Y-116188259D01*
X142772818Y-116368277D01*
X142775462Y-116374214D01*
X142773247Y-116375200D01*
X142787134Y-116432446D01*
X142764281Y-116498473D01*
X142709359Y-116541662D01*
X142639806Y-116548303D01*
X142577704Y-116516286D01*
X142575594Y-116514225D01*
X142278421Y-116217052D01*
X142278414Y-116217046D01*
X142204729Y-116167812D01*
X142204729Y-116167813D01*
X142155491Y-116134913D01*
X142018917Y-116078343D01*
X142018907Y-116078340D01*
X141873920Y-116049500D01*
X141873918Y-116049500D01*
X141539337Y-116049500D01*
X141472298Y-116029815D01*
X141466452Y-116025818D01*
X141452734Y-116015851D01*
X141452729Y-116015848D01*
X141279807Y-115938857D01*
X141279802Y-115938855D01*
X141134001Y-115907865D01*
X141094646Y-115899500D01*
X140905354Y-115899500D01*
X140872897Y-115906398D01*
X140720197Y-115938855D01*
X140720192Y-115938857D01*
X140547270Y-116015848D01*
X140547265Y-116015851D01*
X140394129Y-116127111D01*
X140267466Y-116267785D01*
X140172821Y-116431715D01*
X140172818Y-116431722D01*
X140140166Y-116532216D01*
X140114326Y-116611744D01*
X140094540Y-116800000D01*
X140114326Y-116988256D01*
X140114327Y-116988259D01*
X140172818Y-117168277D01*
X140172821Y-117168284D01*
X140267467Y-117332216D01*
X140297810Y-117365915D01*
X140394129Y-117472888D01*
X140547265Y-117584148D01*
X140547270Y-117584151D01*
X140720192Y-117661142D01*
X140720197Y-117661144D01*
X140905354Y-117700500D01*
X140905355Y-117700500D01*
X141094644Y-117700500D01*
X141094646Y-117700500D01*
X141279803Y-117661144D01*
X141423348Y-117597232D01*
X141492595Y-117587947D01*
X141555872Y-117617575D01*
X141561463Y-117622831D01*
X144675933Y-120737300D01*
X144709418Y-120798623D01*
X144711572Y-120837939D01*
X144694540Y-121000000D01*
X144714326Y-121188256D01*
X144714327Y-121188259D01*
X144772818Y-121368277D01*
X144772821Y-121368284D01*
X144867467Y-121532216D01*
X144994129Y-121672888D01*
X145147265Y-121784148D01*
X145147270Y-121784151D01*
X145320192Y-121861142D01*
X145320197Y-121861144D01*
X145505354Y-121900500D01*
X145505355Y-121900500D01*
X145694644Y-121900500D01*
X145694646Y-121900500D01*
X145879803Y-121861144D01*
X146052730Y-121784151D01*
X146205871Y-121672888D01*
X146332533Y-121532216D01*
X146427179Y-121368284D01*
X146485674Y-121188256D01*
X146505460Y-121000000D01*
X146485674Y-120811744D01*
X146427179Y-120631716D01*
X146352487Y-120502347D01*
X146338259Y-120464541D01*
X146321660Y-120381095D01*
X146321659Y-120381088D01*
X146273029Y-120263687D01*
X146265084Y-120244505D01*
X146182951Y-120121584D01*
X146078416Y-120017049D01*
X144597305Y-118535938D01*
X143076436Y-117015068D01*
X143042951Y-116953745D01*
X143047935Y-116884053D01*
X143089807Y-116828120D01*
X143155271Y-116803703D01*
X143214553Y-116814108D01*
X143320192Y-116861142D01*
X143320197Y-116861144D01*
X143505354Y-116900500D01*
X143505355Y-116900500D01*
X143694644Y-116900500D01*
X143694646Y-116900500D01*
X143879803Y-116861144D01*
X144052730Y-116784151D01*
X144205871Y-116672888D01*
X144332533Y-116532216D01*
X144427179Y-116368284D01*
X144485674Y-116188256D01*
X144505460Y-116000000D01*
X144485674Y-115811744D01*
X144427179Y-115631716D01*
X144332533Y-115467784D01*
X144205871Y-115327112D01*
X144119265Y-115264189D01*
X144052734Y-115215851D01*
X144052729Y-115215848D01*
X143879807Y-115138857D01*
X143879802Y-115138855D01*
X143748719Y-115110993D01*
X143687237Y-115077801D01*
X143653461Y-115016638D01*
X143650500Y-114989703D01*
X143650500Y-112400000D01*
X146294540Y-112400000D01*
X146314326Y-112588256D01*
X146314327Y-112588259D01*
X146372818Y-112768277D01*
X146372821Y-112768284D01*
X146467467Y-112932216D01*
X146542769Y-113015847D01*
X146594129Y-113072888D01*
X146747265Y-113184148D01*
X146747270Y-113184151D01*
X146920192Y-113261142D01*
X146920197Y-113261144D01*
X147105354Y-113300500D01*
X147105355Y-113300500D01*
X147294644Y-113300500D01*
X147294646Y-113300500D01*
X147479803Y-113261144D01*
X147652730Y-113184151D01*
X147805871Y-113072888D01*
X147932533Y-112932216D01*
X148027179Y-112768284D01*
X148085674Y-112588256D01*
X148105460Y-112400000D01*
X148085674Y-112211744D01*
X148056569Y-112122168D01*
X148050500Y-112083850D01*
X148050500Y-110954716D01*
X148070185Y-110887677D01*
X148122989Y-110841922D01*
X148123846Y-110841534D01*
X148252730Y-110784151D01*
X148405871Y-110672888D01*
X148532533Y-110532216D01*
X148575565Y-110457683D01*
X148626131Y-110409467D01*
X148694738Y-110396243D01*
X148759603Y-110422211D01*
X148770633Y-110432001D01*
X151321584Y-112982952D01*
X151370819Y-113015849D01*
X151444505Y-113065084D01*
X151444506Y-113065084D01*
X151444507Y-113065085D01*
X151581082Y-113121656D01*
X151581087Y-113121658D01*
X151581091Y-113121658D01*
X151581092Y-113121659D01*
X151726079Y-113150500D01*
X151726082Y-113150500D01*
X151726083Y-113150500D01*
X151873917Y-113150500D01*
X152660663Y-113150500D01*
X152727702Y-113170185D01*
X152733548Y-113174182D01*
X152747265Y-113184148D01*
X152747270Y-113184151D01*
X152920192Y-113261142D01*
X152920197Y-113261144D01*
X153105354Y-113300500D01*
X153105355Y-113300500D01*
X153294644Y-113300500D01*
X153294646Y-113300500D01*
X153479803Y-113261144D01*
X153652730Y-113184151D01*
X153805871Y-113072888D01*
X153932533Y-112932216D01*
X154027179Y-112768284D01*
X154085674Y-112588256D01*
X154105460Y-112400000D01*
X154085674Y-112211744D01*
X154027179Y-112031716D01*
X153932533Y-111867784D01*
X153805871Y-111727112D01*
X153788928Y-111714802D01*
X153652734Y-111615851D01*
X153652729Y-111615848D01*
X153479807Y-111538857D01*
X153479802Y-111538855D01*
X153334001Y-111507865D01*
X153294646Y-111499500D01*
X153105354Y-111499500D01*
X153072897Y-111506398D01*
X152920197Y-111538855D01*
X152920192Y-111538857D01*
X152747270Y-111615848D01*
X152747265Y-111615851D01*
X152733548Y-111625818D01*
X152667742Y-111649298D01*
X152660663Y-111649500D01*
X152162230Y-111649500D01*
X152095191Y-111629815D01*
X152074549Y-111613181D01*
X150098545Y-109637177D01*
X150065060Y-109575854D01*
X150070044Y-109506162D01*
X150111916Y-109450229D01*
X150135790Y-109436217D01*
X150184908Y-109414347D01*
X150252730Y-109384151D01*
X150405871Y-109272888D01*
X150532533Y-109132216D01*
X150627179Y-108968284D01*
X150685674Y-108788256D01*
X150705460Y-108600000D01*
X150685674Y-108411744D01*
X150627179Y-108231716D01*
X150532533Y-108067784D01*
X150482350Y-108012050D01*
X150452120Y-107949058D01*
X150450500Y-107929078D01*
X150450500Y-97870921D01*
X150470185Y-97803882D01*
X150482351Y-97787948D01*
X150532533Y-97732216D01*
X150627179Y-97568284D01*
X150685674Y-97388256D01*
X150705460Y-97200000D01*
X150685674Y-97011744D01*
X150627179Y-96831716D01*
X150532533Y-96667784D01*
X150405871Y-96527112D01*
X150405870Y-96527111D01*
X150252734Y-96415851D01*
X150252729Y-96415848D01*
X150079807Y-96338857D01*
X150079802Y-96338855D01*
X149934001Y-96307865D01*
X149894646Y-96299500D01*
X149705354Y-96299500D01*
X149672897Y-96306398D01*
X149520197Y-96338855D01*
X149520192Y-96338857D01*
X149347270Y-96415848D01*
X149347265Y-96415851D01*
X149194129Y-96527111D01*
X149067466Y-96667785D01*
X148972821Y-96831715D01*
X148972818Y-96831722D01*
X148914327Y-97011740D01*
X148914326Y-97011744D01*
X148894540Y-97200000D01*
X148914326Y-97388256D01*
X148914327Y-97388259D01*
X148972818Y-97568277D01*
X148972821Y-97568284D01*
X149067466Y-97732215D01*
X149117649Y-97787948D01*
X149147880Y-97850940D01*
X149149500Y-97870921D01*
X149149500Y-107929078D01*
X149129815Y-107996117D01*
X149117650Y-108012050D01*
X149067466Y-108067785D01*
X148972821Y-108231715D01*
X148972819Y-108231719D01*
X148966748Y-108250406D01*
X148927310Y-108308081D01*
X148862951Y-108335279D01*
X148794105Y-108323364D01*
X148761136Y-108299768D01*
X148481516Y-108020148D01*
X148448031Y-107958825D01*
X148451265Y-107894151D01*
X148485674Y-107788256D01*
X148505460Y-107600000D01*
X148485674Y-107411744D01*
X148427179Y-107231716D01*
X148332533Y-107067784D01*
X148205871Y-106927112D01*
X148205870Y-106927111D01*
X148052734Y-106815851D01*
X148052729Y-106815848D01*
X147879807Y-106738857D01*
X147879802Y-106738855D01*
X147734001Y-106707865D01*
X147694646Y-106699500D01*
X147505354Y-106699500D01*
X147472897Y-106706398D01*
X147320197Y-106738855D01*
X147320192Y-106738857D01*
X147147270Y-106815848D01*
X147147265Y-106815851D01*
X146994129Y-106927111D01*
X146867466Y-107067785D01*
X146772821Y-107231715D01*
X146772818Y-107231722D01*
X146714327Y-107411740D01*
X146714326Y-107411744D01*
X146694540Y-107600000D01*
X146714326Y-107788256D01*
X146714327Y-107788259D01*
X146772818Y-107968277D01*
X146772821Y-107968284D01*
X146830267Y-108067784D01*
X146832887Y-108072321D01*
X146849500Y-108134321D01*
X146849500Y-108273918D01*
X146849500Y-108273920D01*
X146849499Y-108273920D01*
X146878340Y-108418907D01*
X146878343Y-108418917D01*
X146890820Y-108449038D01*
X146934916Y-108555495D01*
X146954828Y-108585296D01*
X146964652Y-108599999D01*
X147017049Y-108678418D01*
X147017052Y-108678421D01*
X147364623Y-109025991D01*
X147398108Y-109087314D01*
X147393124Y-109157005D01*
X147351253Y-109212939D01*
X147349828Y-109213990D01*
X147194127Y-109327113D01*
X147067466Y-109467785D01*
X146972821Y-109631715D01*
X146972818Y-109631722D01*
X146914327Y-109811739D01*
X146914326Y-109811742D01*
X146899536Y-109952458D01*
X146879318Y-110008385D01*
X146823535Y-110091872D01*
X146774499Y-110210255D01*
X146774497Y-110210261D01*
X146749500Y-110335928D01*
X146749500Y-111551047D01*
X146729815Y-111618086D01*
X146698386Y-111651365D01*
X146594127Y-111727113D01*
X146467466Y-111867785D01*
X146372821Y-112031715D01*
X146372818Y-112031722D01*
X146343431Y-112122168D01*
X146314326Y-112211744D01*
X146294540Y-112400000D01*
X143650500Y-112400000D01*
X143650500Y-97470921D01*
X143670185Y-97403882D01*
X143682351Y-97387948D01*
X143732533Y-97332216D01*
X143827179Y-97168284D01*
X143885674Y-96988256D01*
X143905460Y-96800000D01*
X143885674Y-96611744D01*
X143827179Y-96431716D01*
X143732533Y-96267784D01*
X143605871Y-96127112D01*
X143605870Y-96127111D01*
X143452734Y-96015851D01*
X143452732Y-96015850D01*
X143328920Y-95960724D01*
X143275684Y-95915473D01*
X143255363Y-95848624D01*
X143274409Y-95781400D01*
X143326773Y-95735147D01*
X143457829Y-95674035D01*
X143651400Y-95538495D01*
X143818494Y-95371401D01*
X143948731Y-95185403D01*
X144003306Y-95141780D01*
X144072804Y-95134586D01*
X144135159Y-95166109D01*
X144151878Y-95185404D01*
X144281890Y-95371078D01*
X144448917Y-95538105D01*
X144642421Y-95673600D01*
X144856507Y-95773429D01*
X144856516Y-95773433D01*
X145070000Y-95830634D01*
X145070000Y-94933012D01*
X145127007Y-94965925D01*
X145254174Y-95000000D01*
X145385826Y-95000000D01*
X145512993Y-94965925D01*
X145570000Y-94933012D01*
X145570000Y-95830633D01*
X145783483Y-95773433D01*
X145783492Y-95773429D01*
X145997578Y-95673600D01*
X146191082Y-95538105D01*
X146358105Y-95371082D01*
X146493600Y-95177578D01*
X146593429Y-94963492D01*
X146593432Y-94963486D01*
X146650636Y-94750000D01*
X145753012Y-94750000D01*
X145785925Y-94692993D01*
X145820000Y-94565826D01*
X145820000Y-94434174D01*
X145785925Y-94307007D01*
X145753012Y-94250000D01*
X146650636Y-94250000D01*
X146650635Y-94249999D01*
X146593432Y-94036513D01*
X146593429Y-94036507D01*
X146493600Y-93822422D01*
X146493599Y-93822420D01*
X146358113Y-93628926D01*
X146358108Y-93628920D01*
X146191082Y-93461894D01*
X145997578Y-93326399D01*
X145783492Y-93226570D01*
X145783486Y-93226567D01*
X145570000Y-93169364D01*
X145570000Y-94066988D01*
X145512993Y-94034075D01*
X145385826Y-94000000D01*
X145254174Y-94000000D01*
X145127007Y-94034075D01*
X145070000Y-94066988D01*
X145070000Y-93169364D01*
X145069999Y-93169364D01*
X144856513Y-93226567D01*
X144856507Y-93226570D01*
X144642422Y-93326399D01*
X144642420Y-93326400D01*
X144448926Y-93461886D01*
X144448920Y-93461891D01*
X144281891Y-93628920D01*
X144281890Y-93628922D01*
X144151879Y-93814596D01*
X144097302Y-93858221D01*
X144027803Y-93865413D01*
X143965449Y-93833891D01*
X143948729Y-93814595D01*
X143948422Y-93814157D01*
X143818723Y-93628926D01*
X143818493Y-93628597D01*
X143651401Y-93461506D01*
X143651394Y-93461501D01*
X143457833Y-93325967D01*
X143457829Y-93325965D01*
X143457827Y-93325964D01*
X143243662Y-93226097D01*
X143243658Y-93226096D01*
X143243654Y-93226094D01*
X143015412Y-93164938D01*
X143015402Y-93164936D01*
X142780000Y-93144341D01*
X142779998Y-93144341D01*
X142544595Y-93164936D01*
X142544585Y-93164938D01*
X142316343Y-93226094D01*
X142316334Y-93226098D01*
X142102170Y-93325964D01*
X142102168Y-93325965D01*
X141908596Y-93461505D01*
X141741507Y-93628594D01*
X141611574Y-93814158D01*
X141556997Y-93857782D01*
X141487498Y-93864975D01*
X141425144Y-93833453D01*
X141408424Y-93814157D01*
X141278494Y-93628597D01*
X141111402Y-93461506D01*
X141111395Y-93461501D01*
X140917834Y-93325967D01*
X140917830Y-93325965D01*
X140917828Y-93325964D01*
X140703663Y-93226097D01*
X140703659Y-93226096D01*
X140703655Y-93226094D01*
X140475413Y-93164938D01*
X140475403Y-93164936D01*
X140240001Y-93144341D01*
X140239999Y-93144341D01*
X140004596Y-93164936D01*
X140004586Y-93164938D01*
X139776344Y-93226094D01*
X139776335Y-93226098D01*
X139562171Y-93325964D01*
X139562169Y-93325965D01*
X139368600Y-93461503D01*
X139246673Y-93583430D01*
X139185350Y-93616914D01*
X139115658Y-93611930D01*
X139059725Y-93570058D01*
X139042810Y-93539081D01*
X138993797Y-93407671D01*
X138993793Y-93407664D01*
X138907547Y-93292455D01*
X138907544Y-93292452D01*
X138792335Y-93206206D01*
X138792328Y-93206202D01*
X138657482Y-93155908D01*
X138657483Y-93155908D01*
X138597883Y-93149501D01*
X138597881Y-93149500D01*
X138597873Y-93149500D01*
X138597864Y-93149500D01*
X136802129Y-93149500D01*
X136802123Y-93149501D01*
X136742516Y-93155908D01*
X136607671Y-93206202D01*
X136607664Y-93206206D01*
X136492455Y-93292452D01*
X136492452Y-93292455D01*
X136406206Y-93407664D01*
X136406202Y-93407671D01*
X136355908Y-93542517D01*
X136349501Y-93602116D01*
X136349500Y-93602135D01*
X136349500Y-95397870D01*
X136349501Y-95397876D01*
X136355908Y-95457483D01*
X136406202Y-95592328D01*
X136406206Y-95592335D01*
X136492452Y-95707544D01*
X136492455Y-95707547D01*
X136607664Y-95793793D01*
X136607671Y-95793797D01*
X136742517Y-95844091D01*
X136742516Y-95844091D01*
X136749444Y-95844835D01*
X136802127Y-95850500D01*
X138597872Y-95850499D01*
X138657483Y-95844091D01*
X138792331Y-95793796D01*
X138907546Y-95707546D01*
X138993796Y-95592331D01*
X139042810Y-95460916D01*
X139084681Y-95404984D01*
X139150145Y-95380566D01*
X139218418Y-95395417D01*
X139246673Y-95416569D01*
X139368599Y-95538495D01*
X139465384Y-95606265D01*
X139562165Y-95674032D01*
X139562167Y-95674033D01*
X139562170Y-95674035D01*
X139776337Y-95773903D01*
X139776343Y-95773904D01*
X139776344Y-95773905D01*
X139831285Y-95788626D01*
X140004592Y-95835063D01*
X140181034Y-95850500D01*
X140239999Y-95855659D01*
X140240000Y-95855659D01*
X140240001Y-95855659D01*
X140298966Y-95850500D01*
X140475408Y-95835063D01*
X140703663Y-95773903D01*
X140917830Y-95674035D01*
X141111401Y-95538495D01*
X141278495Y-95371401D01*
X141408424Y-95185842D01*
X141463001Y-95142218D01*
X141532499Y-95135024D01*
X141594854Y-95166547D01*
X141611574Y-95185842D01*
X141741504Y-95371401D01*
X141908598Y-95538495D01*
X142005383Y-95606265D01*
X142102164Y-95674032D01*
X142102166Y-95674033D01*
X142102169Y-95674035D01*
X142316336Y-95773903D01*
X142316342Y-95773904D01*
X142316343Y-95773905D01*
X142349331Y-95782744D01*
X142477222Y-95817011D01*
X142536881Y-95853375D01*
X142567411Y-95916222D01*
X142559117Y-95985598D01*
X142518014Y-96037104D01*
X142394127Y-96127113D01*
X142267466Y-96267785D01*
X142172821Y-96431715D01*
X142172818Y-96431722D01*
X142138746Y-96536586D01*
X142114326Y-96611744D01*
X142094540Y-96800000D01*
X142114326Y-96988256D01*
X142114327Y-96988259D01*
X142172818Y-97168277D01*
X142172821Y-97168284D01*
X142267466Y-97332215D01*
X142317649Y-97387948D01*
X142347880Y-97450940D01*
X142349500Y-97470921D01*
X142349500Y-102388101D01*
X142329815Y-102455140D01*
X142277011Y-102500895D01*
X142207853Y-102510839D01*
X142152615Y-102488419D01*
X142052734Y-102415851D01*
X142052729Y-102415848D01*
X141879807Y-102338857D01*
X141879802Y-102338855D01*
X141734001Y-102307865D01*
X141694646Y-102299500D01*
X141505354Y-102299500D01*
X141472897Y-102306398D01*
X141320197Y-102338855D01*
X141320192Y-102338857D01*
X141147270Y-102415848D01*
X141147265Y-102415851D01*
X140994129Y-102527111D01*
X140867466Y-102667785D01*
X140772821Y-102831715D01*
X140772819Y-102831719D01*
X140717479Y-103002039D01*
X140687229Y-103051401D01*
X139125451Y-104613181D01*
X139064128Y-104646666D01*
X139037770Y-104649500D01*
X137139337Y-104649500D01*
X137072298Y-104629815D01*
X137066452Y-104625818D01*
X137052735Y-104615852D01*
X137052732Y-104615850D01*
X137052730Y-104615849D01*
X137012269Y-104597834D01*
X136975027Y-104572237D01*
X136942165Y-104539375D01*
X136942161Y-104539372D01*
X136802866Y-104446297D01*
X136802863Y-104446296D01*
X136684182Y-104397137D01*
X136684180Y-104397136D01*
X136648086Y-104382185D01*
X136648074Y-104382182D01*
X136483771Y-104349500D01*
X136483767Y-104349500D01*
X133651303Y-104349500D01*
X133584264Y-104329815D01*
X133543916Y-104287500D01*
X133532533Y-104267784D01*
X133405871Y-104127112D01*
X133405870Y-104127111D01*
X133252734Y-104015851D01*
X133252729Y-104015848D01*
X133079807Y-103938857D01*
X133079802Y-103938855D01*
X132915464Y-103903925D01*
X132894646Y-103899500D01*
X132705354Y-103899500D01*
X132684536Y-103903925D01*
X132520197Y-103938855D01*
X132520192Y-103938857D01*
X132347270Y-104015848D01*
X132347265Y-104015851D01*
X132194129Y-104127111D01*
X132067466Y-104267785D01*
X131972821Y-104431715D01*
X131972818Y-104431722D01*
X131921882Y-104588488D01*
X131914326Y-104611744D01*
X131894540Y-104800000D01*
X129500500Y-104800000D01*
X129500500Y-96529159D01*
X129520185Y-96462120D01*
X129572989Y-96416365D01*
X129642147Y-96406421D01*
X129705703Y-96435446D01*
X129730617Y-96465010D01*
X129773876Y-96536570D01*
X129773879Y-96536574D01*
X129921475Y-96724967D01*
X131063707Y-95582735D01*
X131160966Y-95716601D01*
X131283397Y-95839032D01*
X131417261Y-95936289D01*
X130275029Y-97078521D01*
X130275029Y-97078522D01*
X130463422Y-97226117D01*
X130742955Y-97395100D01*
X130742957Y-97395101D01*
X131040823Y-97529159D01*
X131040834Y-97529163D01*
X131352657Y-97626331D01*
X131673960Y-97685212D01*
X131999999Y-97704933D01*
X132326037Y-97685212D01*
X132647340Y-97626331D01*
X132959163Y-97529163D01*
X132959174Y-97529159D01*
X133257040Y-97395101D01*
X133257042Y-97395100D01*
X133536585Y-97226111D01*
X133724967Y-97078522D01*
X133724967Y-97078521D01*
X132582735Y-95936289D01*
X132716601Y-95839032D01*
X132839032Y-95716601D01*
X132936289Y-95582735D01*
X134078521Y-96724967D01*
X134078522Y-96724967D01*
X134226111Y-96536585D01*
X134395100Y-96257042D01*
X134395101Y-96257040D01*
X134529159Y-95959174D01*
X134529163Y-95959163D01*
X134626331Y-95647340D01*
X134685212Y-95326037D01*
X134704933Y-94999999D01*
X134685212Y-94673960D01*
X134626331Y-94352657D01*
X134529163Y-94040834D01*
X134529159Y-94040823D01*
X134395101Y-93742957D01*
X134395100Y-93742955D01*
X134226117Y-93463422D01*
X134078521Y-93275029D01*
X132936289Y-94417261D01*
X132839032Y-94283397D01*
X132716601Y-94160966D01*
X132582735Y-94063707D01*
X133724967Y-92921475D01*
X133536574Y-92773879D01*
X133536570Y-92773876D01*
X133465010Y-92730617D01*
X133417822Y-92679090D01*
X133405983Y-92610230D01*
X133433251Y-92545901D01*
X133490970Y-92506527D01*
X133529159Y-92500500D01*
X153470841Y-92500500D01*
X153537880Y-92520185D01*
G37*
%TD.AperFunction*%
%TD*%
M02*
